<svg width="544" height="257" viewBox="0 0 544 257" fill="none" xmlns="http://www.w3.org/2000/svg">
<path d="M6.418 50.96V50.047H8.486V58H7.474V50.96H6.418ZM14.6384 51.939C14.4771 51.125 13.9748 50.718 13.1314 50.718C12.4788 50.718 11.9911 50.971 11.6684 51.477C11.3458 51.9757 11.1881 52.8007 11.1954 53.952C11.3641 53.5707 11.6428 53.2737 12.0314 53.061C12.4274 52.841 12.8674 52.731 13.3514 52.731C14.1068 52.731 14.7081 52.9657 15.1554 53.435C15.6101 53.9043 15.8374 54.5533 15.8374 55.382C15.8374 55.8807 15.7384 56.328 15.5404 56.724C15.3498 57.12 15.0564 57.4353 14.6604 57.67C14.2718 57.9047 13.7988 58.022 13.2414 58.022C12.4861 58.022 11.8958 57.8533 11.4704 57.516C11.0451 57.1787 10.7481 56.713 10.5794 56.119C10.4108 55.525 10.3264 54.7917 10.3264 53.919C10.3264 51.2277 11.2651 49.882 13.1424 49.882C13.8611 49.882 14.4258 50.0763 14.8364 50.465C15.2471 50.8537 15.4891 51.345 15.5624 51.939H14.6384ZM13.1424 53.578C12.8271 53.578 12.5301 53.644 12.2514 53.776C11.9728 53.9007 11.7454 54.095 11.5694 54.359C11.4008 54.6157 11.3164 54.931 11.3164 55.305C11.3164 55.8623 11.4778 56.317 11.8004 56.669C12.1231 57.0137 12.5851 57.186 13.1864 57.186C13.6998 57.186 14.1068 57.0283 14.4074 56.713C14.7154 56.3903 14.8694 55.9577 14.8694 55.415C14.8694 54.843 14.7228 54.3957 14.4294 54.073C14.1361 53.743 13.7071 53.578 13.1424 53.578ZM17.1879 53.941C17.1879 52.6797 17.3932 51.697 17.8039 50.993C18.2145 50.2817 18.9332 49.926 19.9599 49.926C20.9792 49.926 21.6942 50.2817 22.1049 50.993C22.5155 51.697 22.7209 52.6797 22.7209 53.941C22.7209 55.2243 22.5155 56.2217 22.1049 56.933C21.6942 57.6443 20.9792 58 19.9599 58C18.9332 58 18.2145 57.6443 17.8039 56.933C17.3932 56.2217 17.1879 55.2243 17.1879 53.941ZM21.7309 53.941C21.7309 53.303 21.6869 52.764 21.5989 52.324C21.5182 51.8767 21.3459 51.5173 21.0819 51.246C20.8252 50.9747 20.4512 50.839 19.9599 50.839C19.4612 50.839 19.0799 50.9747 18.8159 51.246C18.5592 51.5173 18.3869 51.8767 18.2989 52.324C18.2182 52.764 18.1779 53.303 18.1779 53.941C18.1779 54.601 18.2182 55.1547 18.2989 55.602C18.3869 56.0493 18.5592 56.4087 18.8159 56.68C19.0799 56.9513 19.4612 57.087 19.9599 57.087C20.4512 57.087 20.8252 56.9513 21.0819 56.68C21.3459 56.4087 21.5182 56.0493 21.5989 55.602C21.6869 55.1547 21.7309 54.601 21.7309 53.941Z" fill="#333333"/>
<path d="M6.918 94.0988V93.1858H8.986V101.139H7.974V94.0988H6.918ZM10.5844 100.336C11.5158 99.5878 12.2454 98.9755 12.7734 98.4988C13.3014 98.0148 13.7451 97.5125 14.1044 96.9918C14.4711 96.4638 14.6544 95.9468 14.6544 95.4408C14.6544 94.9641 14.5371 94.5901 14.3024 94.3188C14.0751 94.0401 13.7048 93.9008 13.1914 93.9008C12.6928 93.9008 12.3041 94.0585 12.0254 94.3738C11.7541 94.6818 11.6074 95.0961 11.5854 95.6168H10.6174C10.6468 94.7955 10.8961 94.1611 11.3654 93.7138C11.8348 93.2665 12.4398 93.0428 13.1804 93.0428C13.9358 93.0428 14.5334 93.2518 14.9734 93.6698C15.4208 94.0878 15.6444 94.6635 15.6444 95.3968C15.6444 96.0055 15.4611 96.5995 15.0944 97.1788C14.7351 97.7508 14.3244 98.2568 13.8624 98.6968C13.4004 99.1295 12.8101 99.6355 12.0914 100.215H15.8754V101.051H10.5844V100.336ZM17.0326 97.0798C17.0326 95.8185 17.2379 94.8358 17.6486 94.1318C18.0593 93.4205 18.7779 93.0648 19.8046 93.0648C20.8239 93.0648 21.5389 93.4205 21.9496 94.1318C22.3603 94.8358 22.5656 95.8185 22.5656 97.0798C22.5656 98.3631 22.3603 99.3605 21.9496 100.072C21.5389 100.783 20.8239 101.139 19.8046 101.139C18.7779 101.139 18.0593 100.783 17.6486 100.072C17.2379 99.3605 17.0326 98.3631 17.0326 97.0798ZM21.5756 97.0798C21.5756 96.4418 21.5316 95.9028 21.4436 95.4628C21.3629 95.0155 21.1906 94.6561 20.9266 94.3848C20.6699 94.1135 20.2959 93.9778 19.8046 93.9778C19.3059 93.9778 18.9246 94.1135 18.6606 94.3848C18.4039 94.6561 18.2316 95.0155 18.1436 95.4628C18.0629 95.9028 18.0226 96.4418 18.0226 97.0798C18.0226 97.7398 18.0629 98.2935 18.1436 98.7408C18.2316 99.1881 18.4039 99.5475 18.6606 99.8188C18.9246 100.09 19.3059 100.226 19.8046 100.226C20.2959 100.226 20.6699 100.09 20.9266 99.8188C21.1906 99.5475 21.3629 99.1881 21.4436 98.7408C21.5316 98.2935 21.5756 97.7398 21.5756 97.0798Z" fill="#333333"/>
<path d="M10.134 140.142C9.72333 139.98 9.408 139.746 9.188 139.438C8.968 139.13 8.858 138.756 8.858 138.316C8.858 137.92 8.957 137.564 9.155 137.249C9.353 136.926 9.64633 136.673 10.035 136.49C10.431 136.299 10.9077 136.204 11.465 136.204C12.0223 136.204 12.4953 136.299 12.884 136.49C13.28 136.673 13.577 136.926 13.775 137.249C13.9803 137.564 14.083 137.92 14.083 138.316C14.083 138.741 13.9693 139.115 13.742 139.438C13.5147 139.753 13.203 139.988 12.807 140.142C13.2617 140.281 13.621 140.527 13.885 140.879C14.1563 141.223 14.292 141.641 14.292 142.133C14.292 142.609 14.1747 143.027 13.94 143.387C13.7053 143.739 13.3717 144.014 12.939 144.212C12.5137 144.402 12.0223 144.498 11.465 144.498C10.9077 144.498 10.4163 144.402 9.991 144.212C9.573 144.014 9.24667 143.739 9.012 143.387C8.77733 143.027 8.66 142.609 8.66 142.133C8.66 141.641 8.792 141.22 9.056 140.868C9.32 140.516 9.67933 140.274 10.134 140.142ZM13.115 138.437C13.115 137.989 12.9683 137.645 12.675 137.403C12.3817 137.161 11.9783 137.04 11.465 137.04C10.959 137.04 10.5593 137.161 10.266 137.403C9.97267 137.645 9.826 137.993 9.826 138.448C9.826 138.858 9.97633 139.188 10.277 139.438C10.585 139.687 10.981 139.812 11.465 139.812C11.9563 139.812 12.3523 139.687 12.653 139.438C12.961 139.181 13.115 138.847 13.115 138.437ZM11.465 140.582C10.9223 140.582 10.4787 140.71 10.134 140.967C9.78933 141.216 9.617 141.594 9.617 142.1C9.617 142.569 9.782 142.947 10.112 143.233C10.4493 143.519 10.9003 143.662 11.465 143.662C12.0297 143.662 12.477 143.519 12.807 143.233C13.137 142.947 13.302 142.569 13.302 142.1C13.302 141.608 13.1333 141.234 12.796 140.978C12.4587 140.714 12.015 140.582 11.465 140.582ZM15.6215 140.219C15.6215 138.957 15.8268 137.975 16.2375 137.271C16.6481 136.559 17.3668 136.204 18.3935 136.204C19.4128 136.204 20.1278 136.559 20.5385 137.271C20.9491 137.975 21.1545 138.957 21.1545 140.219C21.1545 141.502 20.9491 142.499 20.5385 143.211C20.1278 143.922 19.4128 144.278 18.3935 144.278C17.3668 144.278 16.6481 143.922 16.2375 143.211C15.8268 142.499 15.6215 141.502 15.6215 140.219ZM20.1645 140.219C20.1645 139.581 20.1205 139.042 20.0325 138.602C19.9518 138.154 19.7795 137.795 19.5155 137.524C19.2588 137.252 18.8848 137.117 18.3935 137.117C17.8948 137.117 17.5135 137.252 17.2495 137.524C16.9928 137.795 16.8205 138.154 16.7325 138.602C16.6518 139.042 16.6115 139.581 16.6115 140.219C16.6115 140.879 16.6518 141.432 16.7325 141.88C16.8205 142.327 16.9928 142.686 17.2495 142.958C17.5135 143.229 17.8948 143.365 18.3935 143.365C18.8848 143.365 19.2588 143.229 19.5155 142.958C19.7795 142.686 19.9518 142.327 20.0325 141.88C20.1205 141.432 20.1645 140.879 20.1645 140.219Z" fill="#333333"/>
<path d="M8.44 185.645V184.886L12.301 179.54H13.5V184.776H14.6V185.645H13.5V187.416H12.51V185.645H8.44ZM12.554 180.585L9.595 184.776H12.554V180.585ZM15.6 183.357C15.6 182.096 15.8053 181.113 16.216 180.409C16.6266 179.698 17.3453 179.342 18.372 179.342C19.3913 179.342 20.1063 179.698 20.517 180.409C20.9276 181.113 21.133 182.096 21.133 183.357C21.133 184.641 20.9276 185.638 20.517 186.349C20.1063 187.061 19.3913 187.416 18.372 187.416C17.3453 187.416 16.6266 187.061 16.216 186.349C15.8053 185.638 15.6 184.641 15.6 183.357ZM20.143 183.357C20.143 182.719 20.099 182.18 20.011 181.74C19.9303 181.293 19.758 180.934 19.494 180.662C19.2373 180.391 18.8633 180.255 18.372 180.255C17.8733 180.255 17.492 180.391 17.228 180.662C16.9713 180.934 16.799 181.293 16.711 181.74C16.6303 182.18 16.59 182.719 16.59 183.357C16.59 184.017 16.6303 184.571 16.711 185.018C16.799 185.466 16.9713 185.825 17.228 186.096C17.492 186.368 17.8733 186.503 18.372 186.503C18.8633 186.503 19.2373 186.368 19.494 186.096C19.758 185.825 19.9303 185.466 20.011 185.018C20.099 184.571 20.143 184.017 20.143 183.357Z" fill="#333333"/>
<path d="M12.182 226.496C12.182 225.235 12.3873 224.252 12.798 223.548C13.2087 222.837 13.9273 222.481 14.954 222.481C15.9733 222.481 16.6883 222.837 17.099 223.548C17.5097 224.252 17.715 225.235 17.715 226.496C17.715 227.78 17.5097 228.777 17.099 229.488C16.6883 230.2 15.9733 230.555 14.954 230.555C13.9273 230.555 13.2087 230.2 12.798 229.488C12.3873 228.777 12.182 227.78 12.182 226.496ZM16.725 226.496C16.725 225.858 16.681 225.319 16.593 224.879C16.5123 224.432 16.34 224.073 16.076 223.801C15.8193 223.53 15.4453 223.394 14.954 223.394C14.4553 223.394 14.074 223.53 13.81 223.801C13.5533 224.073 13.381 224.432 13.293 224.879C13.2123 225.319 13.172 225.858 13.172 226.496C13.172 227.156 13.2123 227.71 13.293 228.157C13.381 228.605 13.5533 228.964 13.81 229.235C14.074 229.507 14.4553 229.642 14.954 229.642C15.4453 229.642 15.8193 229.507 16.076 229.235C16.34 228.964 16.5123 228.605 16.593 228.157C16.681 227.71 16.725 227.156 16.725 226.496Z" fill="#333333"/>
<line x1="38.1517" y1="65.0266" x2="484.855" y2="65.0266" stroke="#E9ECEF" stroke-width="0.879337"/>
<line x1="38.1517" y1="107.235" x2="484.855" y2="107.235" stroke="#E9ECEF" stroke-width="0.879337"/>
<line x1="38.1517" y1="149.443" x2="484.855" y2="149.443" stroke="#E9ECEF" stroke-width="0.879337"/>
<line x1="38.1517" y1="191.651" x2="484.855" y2="191.651" stroke="#E9ECEF" stroke-width="0.879337"/>
<line x1="38.1517" y1="233.859" x2="484.855" y2="233.859" stroke="#E9ECEF" stroke-width="0.879337"/>
<path d="M63.0404 169.228C63.0404 166.799 65.0089 164.831 67.4371 164.831C69.8653 164.831 71.8338 166.799 71.8338 169.228V234.299H63.0404V169.228Z" fill="#E7EFFF"/>
<rect x="63.0406" y="197.188" width="8.79337" height="37.1088" fill="#0D62FF"/>
<path d="M107.007 118.226C107.007 115.798 108.976 113.83 111.404 113.83C113.832 113.83 115.8 115.798 115.8 118.226V234.299H107.007V118.226Z" fill="#E7EFFF"/>
<rect x="107.007" y="169.946" width="8.79337" height="64.3532" fill="#0D62FF"/>
<path d="M150.974 145.486C150.974 143.058 152.942 141.089 155.371 141.089C157.799 141.089 159.767 143.058 159.767 145.486V234.299H150.974V145.486Z" fill="#E7EFFF"/>
<rect x="150.974" y="184.507" width="8.79337" height="49.7915" fill="#0D62FF"/>
<path d="M194.941 110.312C194.941 107.884 196.909 105.915 199.337 105.915C201.766 105.915 203.734 107.884 203.734 110.312V234.298H194.941V110.312Z" fill="#E7EFFF"/>
<rect x="194.941" y="165.718" width="8.79337" height="68.5808" fill="#0D62FF"/>
<path d="M238.908 145.486C238.908 143.058 240.876 141.089 243.305 141.089C245.733 141.089 247.701 143.058 247.701 145.486V234.299H238.908V145.486Z" fill="#E7EFFF"/>
<rect x="238.908" y="184.505" width="8.79337" height="49.7915" fill="#0D62FF"/>
<path d="M282.875 92.7255C282.875 90.2973 284.843 88.3288 287.271 88.3288C289.7 88.3288 291.668 90.2973 291.668 92.7255V234.299H282.875V92.7255Z" fill="#E7EFFF"/>
<rect x="282.874" y="156.324" width="8.79337" height="77.9754" fill="#0D62FF"/>
<path d="M326.842 145.486C326.842 143.058 328.81 141.089 331.238 141.089C333.666 141.089 335.635 143.058 335.635 145.486V234.299H326.842V145.486Z" fill="#E7EFFF"/>
<rect x="326.841" y="184.506" width="8.79337" height="49.7915" fill="#0D62FF"/>
<path d="M370.808 169.226C370.808 166.798 372.777 164.83 375.205 164.83C377.633 164.83 379.602 166.798 379.602 169.226V234.297H370.808V169.226Z" fill="#E7EFFF"/>
<rect x="370.808" y="197.19" width="8.79337" height="37.1088" fill="#0D62FF"/>
<path d="M414.775 136.692C414.775 134.264 416.744 132.295 419.172 132.295C421.6 132.295 423.569 134.264 423.569 136.692V234.298H414.775V136.692Z" fill="#E7EFFF"/>
<rect x="414.775" y="179.81" width="8.79337" height="54.4889" fill="#0D62FF"/>
<path d="M458.742 145.486C458.742 143.058 460.711 141.089 463.139 141.089C465.567 141.089 467.536 143.058 467.536 145.486V234.299H458.742V145.486Z" fill="#E7EFFF"/>
<rect x="458.742" y="184.507" width="8.79337" height="49.7915" fill="#0D62FF"/>
<path d="M66.3164 252.411C65.8104 252.411 65.3557 252.323 64.9524 252.147C64.5564 251.963 64.2447 251.714 64.0174 251.399C63.79 251.076 63.6727 250.706 63.6654 250.288H64.7324C64.769 250.647 64.9157 250.951 65.1724 251.201C65.4364 251.443 65.8177 251.564 66.3164 251.564C66.793 251.564 67.167 251.446 67.4384 251.212C67.717 250.97 67.8564 250.662 67.8564 250.288C67.8564 249.994 67.7757 249.756 67.6144 249.573C67.453 249.389 67.2514 249.25 67.0094 249.155C66.7674 249.059 66.441 248.957 66.0304 248.847C65.5244 248.715 65.1174 248.583 64.8094 248.451C64.5087 248.319 64.2484 248.113 64.0284 247.835C63.8157 247.549 63.7094 247.167 63.7094 246.691C63.7094 246.273 63.8157 245.902 64.0284 245.58C64.241 245.257 64.538 245.008 64.9194 244.832C65.308 244.656 65.7517 244.568 66.2504 244.568C66.969 244.568 67.5557 244.747 68.0104 245.107C68.4724 245.466 68.7327 245.943 68.7914 246.537H67.6914C67.6547 246.243 67.5007 245.987 67.2294 245.767C66.958 245.539 66.5987 245.426 66.1514 245.426C65.7334 245.426 65.3924 245.536 65.1284 245.756C64.8644 245.968 64.7324 246.269 64.7324 246.658C64.7324 246.936 64.8094 247.164 64.9634 247.34C65.1247 247.516 65.319 247.651 65.5464 247.747C65.781 247.835 66.1074 247.937 66.5254 248.055C67.0314 248.194 67.4384 248.333 67.7464 248.473C68.0544 248.605 68.3184 248.814 68.5384 249.1C68.7584 249.378 68.8684 249.76 68.8684 250.244C68.8684 250.618 68.7694 250.97 68.5714 251.3C68.3734 251.63 68.08 251.897 67.6914 252.103C67.3027 252.308 66.8444 252.411 66.3164 252.411Z" fill="#333333"/>
<path d="M113.836 244.722V252.334H112.835V246.658L110.305 252.334H109.601L107.06 246.647V252.334H106.059V244.722H107.137L109.953 251.014L112.769 244.722H113.836Z" fill="#333333"/>
<path d="M155.951 244.667V245.481H153.861V252.334H152.86V245.481H150.759V244.667H155.951Z" fill="#333333"/>
<path d="M202.042 244.667L199.82 252.334H198.698L196.916 246.163L195.068 252.334L193.957 252.345L191.812 244.667H192.879L194.551 251.168L196.399 244.667H197.521L199.281 251.146L200.964 244.667H202.042Z" fill="#333333"/>
<path d="M243.298 244.667V245.481H241.208V252.334H240.207V245.481H238.106V244.667H243.298Z" fill="#333333"/>
<path d="M284.087 244.667V245.481H280.754V248.066H283.46V248.88H280.754V252.334H279.753V244.667H284.087Z" fill="#333333"/>
<path d="M323.357 252.411C322.851 252.411 322.397 252.323 321.993 252.147C321.597 251.963 321.286 251.714 321.058 251.399C320.831 251.076 320.714 250.706 320.706 250.288H321.773C321.81 250.647 321.957 250.951 322.213 251.201C322.477 251.443 322.859 251.564 323.357 251.564C323.834 251.564 324.208 251.446 324.479 251.212C324.758 250.97 324.897 250.662 324.897 250.288C324.897 249.994 324.817 249.756 324.655 249.573C324.494 249.389 324.292 249.25 324.05 249.155C323.808 249.059 323.482 248.957 323.071 248.847C322.565 248.715 322.158 248.583 321.85 248.451C321.55 248.319 321.289 248.113 321.069 247.835C320.857 247.549 320.75 247.167 320.75 246.691C320.75 246.273 320.857 245.902 321.069 245.58C321.282 245.257 321.579 245.008 321.96 244.832C322.349 244.656 322.793 244.568 323.291 244.568C324.01 244.568 324.597 244.747 325.051 245.107C325.513 245.466 325.774 245.943 325.832 246.537H324.732C324.696 246.243 324.542 245.987 324.27 245.767C323.999 245.539 323.64 245.426 323.192 245.426C322.774 245.426 322.433 245.536 322.169 245.756C321.905 245.968 321.773 246.269 321.773 246.658C321.773 246.936 321.85 247.164 322.004 247.34C322.166 247.516 322.36 247.651 322.587 247.747C322.822 247.835 323.148 247.937 323.566 248.055C324.072 248.194 324.479 248.333 324.787 248.473C325.095 248.605 325.359 248.814 325.579 249.1C325.799 249.378 325.909 249.76 325.909 250.244C325.909 250.618 325.81 250.97 325.612 251.3C325.414 251.63 325.121 251.897 324.732 252.103C324.344 252.308 323.885 252.411 323.357 252.411Z" fill="#333333"/>
<path d="M370.877 244.722V252.334H369.876V246.658L367.346 252.334H366.642L364.101 246.647V252.334H363.1V244.722H364.178L366.994 251.014L369.81 244.722H370.877Z" fill="#333333"/>
<path d="M412.992 244.667V245.481H410.902V252.334H409.901V245.481H407.8V244.667H412.992Z" fill="#333333"/>
<path d="M459.083 244.667L456.861 252.334H455.739L453.957 246.163L452.109 252.334L450.998 252.345L448.853 244.667H449.92L451.592 251.168L453.44 244.667H454.562L456.322 251.146L458.005 244.667H459.083Z" fill="#333333"/>
<path d="M6.027 3.321C7.651 3.321 9.044 3.615 10.206 4.203C11.368 4.791 12.257 5.638 12.873 6.744C13.489 7.85 13.797 9.166 13.797 10.692C13.797 12.204 13.489 13.513 12.873 14.619C12.257 15.711 11.368 16.551 10.206 17.139C9.044 17.713 7.651 18 6.027 18H1.68V3.321H6.027ZM6.027 16.782C8.071 16.782 9.625 16.25 10.689 15.186C11.767 14.108 12.306 12.61 12.306 10.692C12.306 8.76 11.767 7.255 10.689 6.177C9.625 5.085 8.071 4.539 6.027 4.539H3.15V16.782H6.027ZM15.8351 12.246C15.8351 11.07 16.0661 10.041 16.5281 9.159C17.0041 8.263 17.6551 7.577 18.4811 7.101C19.3211 6.611 20.2661 6.366 21.3161 6.366C22.4081 6.366 23.3461 6.618 24.1301 7.122C24.9281 7.626 25.5021 8.27 25.8521 9.054V6.534H27.3221V18H25.8521V15.459C25.4881 16.243 24.9071 16.894 24.1091 17.412C23.3251 17.916 22.3871 18.168 21.2951 18.168C20.2591 18.168 19.3211 17.923 18.4811 17.433C17.6551 16.943 17.0041 16.25 16.5281 15.354C16.0661 14.458 15.8351 13.422 15.8351 12.246ZM25.8521 12.267C25.8521 11.343 25.6631 10.531 25.2851 9.831C24.9071 9.131 24.3891 8.592 23.7311 8.214C23.0871 7.836 22.3731 7.647 21.5891 7.647C20.7771 7.647 20.0491 7.829 19.4051 8.193C18.7611 8.557 18.2501 9.089 17.8721 9.789C17.5081 10.475 17.3261 11.294 17.3261 12.246C17.3261 13.184 17.5081 14.01 17.8721 14.724C18.2501 15.424 18.7611 15.963 19.4051 16.341C20.0491 16.705 20.7771 16.887 21.5891 16.887C22.3731 16.887 23.0871 16.698 23.7311 16.32C24.3891 15.942 24.9071 15.403 25.2851 14.703C25.6631 14.003 25.8521 13.191 25.8521 12.267ZM31.413 4.371C31.119 4.371 30.867 4.266 30.657 4.056C30.447 3.846 30.342 3.587 30.342 3.279C30.342 2.971 30.447 2.719 30.657 2.523C30.867 2.313 31.119 2.208 31.413 2.208C31.707 2.208 31.959 2.313 32.169 2.523C32.379 2.719 32.484 2.971 32.484 3.279C32.484 3.587 32.379 3.846 32.169 4.056C31.959 4.266 31.707 4.371 31.413 4.371ZM32.148 6.534V18H30.678V6.534H32.148ZM36.9469 2.46V18H35.4769V2.46H36.9469ZM49.7257 6.534L42.9217 23.397H41.3887L43.6147 17.937L38.9107 6.534H40.5277L44.4337 16.32L48.2137 6.534H49.7257ZM66.0708 3.321V4.539H61.9968V18H60.5268V4.539H56.4318V3.321H66.0708ZM69.8619 8.571C70.1839 7.857 70.6739 7.304 71.3319 6.912C72.0039 6.52 72.8229 6.324 73.7889 6.324V7.857H73.3899C72.3259 7.857 71.4719 8.144 70.8279 8.718C70.1839 9.292 69.8619 10.251 69.8619 11.595V18H68.3919V6.534H69.8619V8.571ZM75.3283 12.246C75.3283 11.07 75.5593 10.041 76.0213 9.159C76.4973 8.263 77.1483 7.577 77.9743 7.101C78.8143 6.611 79.7593 6.366 80.8093 6.366C81.9013 6.366 82.8393 6.618 83.6233 7.122C84.4213 7.626 84.9953 8.27 85.3453 9.054V6.534H86.8153V18H85.3453V15.459C84.9813 16.243 84.4003 16.894 83.6023 17.412C82.8183 17.916 81.8803 18.168 80.7883 18.168C79.7523 18.168 78.8143 17.923 77.9743 17.433C77.1483 16.943 76.4973 16.25 76.0213 15.354C75.5593 14.458 75.3283 13.422 75.3283 12.246ZM85.3453 12.267C85.3453 11.343 85.1563 10.531 84.7783 9.831C84.4003 9.131 83.8823 8.592 83.2243 8.214C82.5803 7.836 81.8663 7.647 81.0823 7.647C80.2703 7.647 79.5423 7.829 78.8983 8.193C78.2543 8.557 77.7433 9.089 77.3653 9.789C77.0013 10.475 76.8193 11.294 76.8193 12.246C76.8193 13.184 77.0013 14.01 77.3653 14.724C77.7433 15.424 78.2543 15.963 78.8983 16.341C79.5423 16.705 80.2703 16.887 81.0823 16.887C81.8663 16.887 82.5803 16.698 83.2243 16.32C83.8823 15.942 84.4003 15.403 84.7783 14.703C85.1563 14.003 85.3453 13.191 85.3453 12.267ZM90.9062 4.371C90.6122 4.371 90.3602 4.266 90.1502 4.056C89.9402 3.846 89.8352 3.587 89.8352 3.279C89.8352 2.971 89.9402 2.719 90.1502 2.523C90.3602 2.313 90.6122 2.208 90.9062 2.208C91.2002 2.208 91.4522 2.313 91.6622 2.523C91.8722 2.719 91.9772 2.971 91.9772 3.279C91.9772 3.587 91.8722 3.846 91.6622 4.056C91.4522 4.266 91.2002 4.371 90.9062 4.371ZM91.6412 6.534V18H90.1712V6.534H91.6412ZM100.346 6.324C101.718 6.324 102.838 6.751 103.706 7.605C104.574 8.445 105.008 9.67 105.008 11.28V18H103.559V11.448C103.559 10.202 103.244 9.25 102.614 8.592C101.998 7.934 101.151 7.605 100.073 7.605C98.967 7.605 98.085 7.955 97.427 8.655C96.769 9.355 96.44 10.384 96.44 11.742V18H94.97V6.534H96.44V8.487C96.804 7.787 97.329 7.255 98.015 6.891C98.701 6.513 99.478 6.324 100.346 6.324ZM108.994 4.371C108.7 4.371 108.448 4.266 108.238 4.056C108.028 3.846 107.923 3.587 107.923 3.279C107.923 2.971 108.028 2.719 108.238 2.523C108.448 2.313 108.7 2.208 108.994 2.208C109.288 2.208 109.54 2.313 109.75 2.523C109.96 2.719 110.065 2.971 110.065 3.279C110.065 3.587 109.96 3.846 109.75 4.056C109.54 4.266 109.288 4.371 108.994 4.371ZM109.729 6.534V18H108.259V6.534H109.729ZM118.434 6.324C119.806 6.324 120.926 6.751 121.794 7.605C122.662 8.445 123.096 9.67 123.096 11.28V18H121.647V11.448C121.647 10.202 121.332 9.25 120.702 8.592C120.086 7.934 119.239 7.605 118.161 7.605C117.055 7.605 116.173 7.955 115.515 8.655C114.857 9.355 114.528 10.384 114.528 11.742V18H113.058V6.534H114.528V8.487C114.892 7.787 115.417 7.255 116.103 6.891C116.789 6.513 117.566 6.324 118.434 6.324ZM131.156 6.366C132.234 6.366 133.172 6.618 133.97 7.122C134.768 7.626 135.342 8.263 135.692 9.033V6.534H137.162V18.294C137.162 19.344 136.931 20.275 136.469 21.087C136.021 21.899 135.391 22.522 134.579 22.956C133.767 23.404 132.843 23.628 131.807 23.628C130.337 23.628 129.112 23.278 128.132 22.578C127.166 21.878 126.564 20.926 126.326 19.722H127.775C128.027 20.52 128.503 21.157 129.203 21.633C129.917 22.109 130.785 22.347 131.807 22.347C132.549 22.347 133.214 22.186 133.802 21.864C134.39 21.556 134.852 21.094 135.188 20.478C135.524 19.862 135.692 19.134 135.692 18.294V15.459C135.328 16.243 134.747 16.894 133.949 17.412C133.165 17.916 132.234 18.168 131.156 18.168C130.106 18.168 129.161 17.923 128.321 17.433C127.495 16.943 126.844 16.25 126.368 15.354C125.906 14.458 125.675 13.422 125.675 12.246C125.675 11.07 125.906 10.041 126.368 9.159C126.844 8.263 127.495 7.577 128.321 7.101C129.161 6.611 130.106 6.366 131.156 6.366ZM135.692 12.267C135.692 11.343 135.503 10.531 135.125 9.831C134.747 9.131 134.229 8.592 133.571 8.214C132.927 7.836 132.213 7.647 131.429 7.647C130.617 7.647 129.889 7.829 129.245 8.193C128.601 8.557 128.09 9.089 127.712 9.789C127.348 10.475 127.166 11.294 127.166 12.246C127.166 13.184 127.348 14.01 127.712 14.724C128.09 15.424 128.601 15.963 129.245 16.341C129.889 16.705 130.617 16.887 131.429 16.887C132.213 16.887 132.927 16.698 133.571 16.32C134.229 15.942 134.747 15.403 135.125 14.703C135.503 14.003 135.692 13.191 135.692 12.267ZM145.609 10.65C145.609 9.208 145.924 7.92 146.554 6.786C147.184 5.638 148.045 4.749 149.137 4.119C150.229 3.475 151.447 3.153 152.791 3.153C154.429 3.153 155.829 3.545 156.991 4.329C158.167 5.099 159.021 6.191 159.553 7.605H157.831C157.411 6.611 156.767 5.834 155.899 5.274C155.045 4.714 154.009 4.434 152.791 4.434C151.713 4.434 150.74 4.686 149.872 5.19C149.018 5.694 148.346 6.422 147.856 7.374C147.366 8.312 147.121 9.404 147.121 10.65C147.121 11.896 147.366 12.988 147.856 13.926C148.346 14.864 149.018 15.585 149.872 16.089C150.74 16.593 151.713 16.845 152.791 16.845C154.009 16.845 155.045 16.572 155.899 16.026C156.767 15.466 157.411 14.696 157.831 13.716H159.553C159.021 15.116 158.167 16.201 156.991 16.971C155.815 17.741 154.415 18.126 152.791 18.126C151.447 18.126 150.229 17.811 149.137 17.181C148.045 16.537 147.184 15.648 146.554 14.514C145.924 13.38 145.609 12.092 145.609 10.65ZM167.501 18.168C166.423 18.168 165.45 17.93 164.582 17.454C163.728 16.964 163.049 16.278 162.545 15.396C162.055 14.5 161.81 13.457 161.81 12.267C161.81 11.077 162.062 10.041 162.566 9.159C163.07 8.263 163.756 7.577 164.624 7.101C165.492 6.611 166.465 6.366 167.543 6.366C168.621 6.366 169.594 6.611 170.462 7.101C171.344 7.577 172.03 8.263 172.52 9.159C173.024 10.041 173.276 11.077 173.276 12.267C173.276 13.443 173.024 14.479 172.52 15.375C172.016 16.271 171.323 16.964 170.441 17.454C169.559 17.93 168.579 18.168 167.501 18.168ZM167.501 16.887C168.257 16.887 168.957 16.719 169.601 16.383C170.245 16.033 170.763 15.515 171.155 14.829C171.561 14.129 171.764 13.275 171.764 12.267C171.764 11.259 171.568 10.412 171.176 9.726C170.784 9.026 170.266 8.508 169.622 8.172C168.978 7.822 168.278 7.647 167.522 7.647C166.766 7.647 166.066 7.822 165.422 8.172C164.778 8.508 164.26 9.026 163.868 9.726C163.49 10.412 163.301 11.259 163.301 12.267C163.301 13.275 163.49 14.129 163.868 14.829C164.26 15.515 164.771 16.033 165.401 16.383C166.045 16.719 166.745 16.887 167.501 16.887ZM189.605 6.324C190.949 6.324 192.041 6.751 192.881 7.605C193.735 8.445 194.162 9.67 194.162 11.28V18H192.713V11.448C192.713 10.202 192.412 9.25 191.81 8.592C191.208 7.934 190.389 7.605 189.353 7.605C188.275 7.605 187.414 7.962 186.77 8.676C186.126 9.39 185.804 10.426 185.804 11.784V18H184.355V11.448C184.355 10.202 184.054 9.25 183.452 8.592C182.85 7.934 182.024 7.605 180.974 7.605C179.896 7.605 179.035 7.962 178.391 8.676C177.747 9.39 177.425 10.426 177.425 11.784V18H175.955V6.534H177.425V8.508C177.789 7.794 178.307 7.255 178.979 6.891C179.651 6.513 180.4 6.324 181.226 6.324C182.22 6.324 183.088 6.562 183.83 7.038C184.586 7.514 185.132 8.214 185.468 9.138C185.776 8.228 186.301 7.535 187.043 7.059C187.799 6.569 188.653 6.324 189.605 6.324ZM198.876 9.054C199.24 8.284 199.814 7.647 200.598 7.143C201.396 6.625 202.341 6.366 203.433 6.366C204.469 6.366 205.4 6.611 206.226 7.101C207.066 7.577 207.717 8.263 208.179 9.159C208.655 10.041 208.893 11.07 208.893 12.246C208.893 13.422 208.655 14.458 208.179 15.354C207.717 16.25 207.066 16.943 206.226 17.433C205.4 17.923 204.469 18.168 203.433 18.168C202.355 18.168 201.417 17.916 200.619 17.412C199.821 16.894 199.24 16.25 198.876 15.48V23.418H197.427V6.534H198.876V9.054ZM207.402 12.246C207.402 11.294 207.213 10.475 206.835 9.789C206.471 9.089 205.967 8.557 205.323 8.193C204.679 7.829 203.951 7.647 203.139 7.647C202.355 7.647 201.634 7.836 200.976 8.214C200.332 8.592 199.821 9.131 199.443 9.831C199.065 10.531 198.876 11.343 198.876 12.267C198.876 13.191 199.065 14.003 199.443 14.703C199.821 15.403 200.332 15.942 200.976 16.32C201.634 16.698 202.355 16.887 203.139 16.887C203.951 16.887 204.679 16.705 205.323 16.341C205.967 15.963 206.471 15.424 206.835 14.724C207.213 14.01 207.402 13.184 207.402 12.246ZM213.068 2.46V18H211.598V2.46H213.068ZM226.771 11.679C226.771 12.183 226.757 12.568 226.729 12.834H217.216C217.258 13.702 217.468 14.444 217.846 15.06C218.224 15.676 218.721 16.145 219.337 16.467C219.953 16.775 220.625 16.929 221.353 16.929C222.305 16.929 223.103 16.698 223.747 16.236C224.405 15.774 224.839 15.151 225.049 14.367H226.603C226.323 15.487 225.721 16.404 224.797 17.118C223.887 17.818 222.739 18.168 221.353 18.168C220.275 18.168 219.309 17.93 218.455 17.454C217.601 16.964 216.929 16.278 216.439 15.396C215.963 14.5 215.725 13.457 215.725 12.267C215.725 11.077 215.963 10.034 216.439 9.138C216.915 8.242 217.58 7.556 218.434 7.08C219.288 6.604 220.261 6.366 221.353 6.366C222.445 6.366 223.397 6.604 224.209 7.08C225.035 7.556 225.665 8.2 226.099 9.012C226.547 9.81 226.771 10.699 226.771 11.679ZM225.28 11.637C225.294 10.783 225.119 10.055 224.755 9.453C224.405 8.851 223.922 8.396 223.306 8.088C222.69 7.78 222.018 7.626 221.29 7.626C220.198 7.626 219.267 7.976 218.497 8.676C217.727 9.376 217.3 10.363 217.216 11.637H225.28ZM231.371 7.773V14.892C231.371 15.592 231.504 16.075 231.77 16.341C232.036 16.607 232.505 16.74 233.177 16.74H234.521V18H232.946C231.91 18 231.14 17.762 230.636 17.286C230.132 16.796 229.88 15.998 229.88 14.892V7.773H228.284V6.534H229.88V3.657H231.371V6.534H234.521V7.773H231.371ZM237.681 4.371C237.387 4.371 237.135 4.266 236.925 4.056C236.715 3.846 236.61 3.587 236.61 3.279C236.61 2.971 236.715 2.719 236.925 2.523C237.135 2.313 237.387 2.208 237.681 2.208C237.975 2.208 238.227 2.313 238.437 2.523C238.647 2.719 238.752 2.971 238.752 3.279C238.752 3.587 238.647 3.846 238.437 4.056C238.227 4.266 237.975 4.371 237.681 4.371ZM238.416 6.534V18H236.946V6.534H238.416ZM246.763 18.168C245.685 18.168 244.712 17.93 243.844 17.454C242.99 16.964 242.311 16.278 241.807 15.396C241.317 14.5 241.072 13.457 241.072 12.267C241.072 11.077 241.324 10.041 241.828 9.159C242.332 8.263 243.018 7.577 243.886 7.101C244.754 6.611 245.727 6.366 246.805 6.366C247.883 6.366 248.856 6.611 249.724 7.101C250.606 7.577 251.292 8.263 251.782 9.159C252.286 10.041 252.538 11.077 252.538 12.267C252.538 13.443 252.286 14.479 251.782 15.375C251.278 16.271 250.585 16.964 249.703 17.454C248.821 17.93 247.841 18.168 246.763 18.168ZM246.763 16.887C247.519 16.887 248.219 16.719 248.863 16.383C249.507 16.033 250.025 15.515 250.417 14.829C250.823 14.129 251.026 13.275 251.026 12.267C251.026 11.259 250.83 10.412 250.438 9.726C250.046 9.026 249.528 8.508 248.884 8.172C248.24 7.822 247.54 7.647 246.784 7.647C246.028 7.647 245.328 7.822 244.684 8.172C244.04 8.508 243.522 9.026 243.13 9.726C242.752 10.412 242.563 11.259 242.563 12.267C242.563 13.275 242.752 14.129 243.13 14.829C243.522 15.515 244.033 16.033 244.663 16.383C245.307 16.719 246.007 16.887 246.763 16.887ZM260.594 6.324C261.966 6.324 263.086 6.751 263.954 7.605C264.822 8.445 265.256 9.67 265.256 11.28V18H263.807V11.448C263.807 10.202 263.492 9.25 262.862 8.592C262.246 7.934 261.399 7.605 260.321 7.605C259.215 7.605 258.333 7.955 257.675 8.655C257.017 9.355 256.688 10.384 256.688 11.742V18H255.218V6.534H256.688V8.487C257.052 7.787 257.577 7.255 258.263 6.891C258.949 6.513 259.726 6.324 260.594 6.324ZM272.455 18.168C271.139 18.168 270.061 17.867 269.221 17.265C268.395 16.649 267.933 15.816 267.835 14.766H269.347C269.417 15.41 269.718 15.935 270.25 16.341C270.796 16.733 271.524 16.929 272.434 16.929C273.232 16.929 273.855 16.74 274.303 16.362C274.765 15.984 274.996 15.515 274.996 14.955C274.996 14.563 274.87 14.241 274.618 13.989C274.366 13.737 274.044 13.541 273.652 13.401C273.274 13.247 272.756 13.086 272.098 12.918C271.244 12.694 270.551 12.47 270.019 12.246C269.487 12.022 269.032 11.693 268.654 11.259C268.29 10.811 268.108 10.216 268.108 9.474C268.108 8.914 268.276 8.396 268.612 7.92C268.948 7.444 269.424 7.066 270.04 6.786C270.656 6.506 271.356 6.366 272.14 6.366C273.372 6.366 274.366 6.681 275.122 7.311C275.878 7.927 276.284 8.781 276.34 9.873H274.87C274.828 9.201 274.562 8.662 274.072 8.256C273.596 7.836 272.938 7.626 272.098 7.626C271.356 7.626 270.754 7.801 270.292 8.151C269.83 8.501 269.599 8.935 269.599 9.453C269.599 9.901 269.732 10.272 269.998 10.566C270.278 10.846 270.621 11.07 271.027 11.238C271.433 11.392 271.979 11.567 272.665 11.763C273.491 11.987 274.149 12.204 274.639 12.414C275.129 12.624 275.549 12.932 275.899 13.338C276.249 13.744 276.431 14.283 276.445 14.955C276.445 15.571 276.277 16.124 275.941 16.614C275.605 17.09 275.136 17.468 274.534 17.748C273.932 18.028 273.239 18.168 272.455 18.168Z" fill="#333333"/>
</svg>
