<svg width="445" height="331" viewBox="0 0 445 331" fill="none" xmlns="http://www.w3.org/2000/svg">
<g filter="url(#filter0_d_1_274)">
<g filter="url(#filter1_d_1_274)">
<rect x="30" y="18" width="385" height="302" rx="10" fill="white"/>
</g>
<path d="M252 191C252 211.696 245.448 231.86 233.284 248.603C221.119 265.346 203.966 277.808 184.284 284.204C164.601 290.599 143.399 290.599 123.716 284.204C104.034 277.808 86.8808 265.346 74.7163 248.603L106.43 225.562C113.728 235.608 124.02 243.085 135.83 246.922C147.639 250.759 160.361 250.759 172.17 246.922C183.98 243.085 194.271 235.608 201.57 225.562C208.869 215.516 212.8 203.417 212.8 191H252Z" fill="#ED1C24"/>
<path d="M111.604 279.355C96.7216 272.214 83.8843 261.429 74.2831 248.002L106.17 225.201C111.931 233.258 119.633 239.728 128.562 244.013L111.604 279.355Z" fill="#ED1C24"/>
<path d="M123.335 97.9212C138.074 93.0654 153.755 91.7793 169.088 94.1685C184.422 96.5578 198.968 102.554 211.531 111.664C224.094 120.774 234.313 132.737 241.349 146.569C248.385 160.4 252.035 175.705 252 191.223L212.8 191.134C212.821 181.823 210.631 172.64 206.409 164.341C202.188 156.042 196.056 148.864 188.518 143.398C180.981 137.932 172.253 134.335 163.053 132.901C153.853 131.468 144.444 132.239 135.601 135.153L123.335 97.9212Z" fill="#018E42"/>
<path d="M74.9606 248.938C65.8174 236.464 59.7561 222.004 57.2722 206.74C54.7883 191.475 55.9523 175.839 60.6692 161.111C65.3861 146.382 73.5218 132.979 84.4112 121.997C95.3005 111.015 108.634 102.767 123.323 97.9253L135.594 135.155C126.781 138.06 118.78 143.009 112.247 149.598C105.713 156.187 100.832 164.229 98.0015 173.066C95.1714 181.904 94.4729 191.285 95.9633 200.444C97.4536 209.603 101.09 218.279 106.576 225.763L74.9606 248.938Z" fill="#018E42"/>
<path d="M67.2969 58.877L64.0209 55.832C63.3069 56.042 62.5579 56.147 61.7739 56.147C60.4159 56.147 59.1839 55.832 58.0779 55.202C56.9719 54.558 56.0969 53.669 55.4529 52.535C54.8229 51.387 54.5079 50.092 54.5079 48.65C54.5079 47.208 54.8229 45.92 55.4529 44.786C56.0969 43.638 56.9719 42.749 58.0779 42.119C59.1839 41.475 60.4159 41.153 61.7739 41.153C63.1459 41.153 64.3849 41.475 65.4909 42.119C66.5969 42.749 67.4649 43.638 68.0949 44.786C68.7249 45.92 69.0399 47.208 69.0399 48.65C69.0399 50.134 68.7109 51.457 68.0529 52.619C67.3949 53.767 66.4919 54.649 65.3439 55.265L69.2709 58.877H67.2969ZM56.0199 48.65C56.0199 49.896 56.2719 50.995 56.7759 51.947C57.2799 52.885 57.9659 53.606 58.8339 54.11C59.7019 54.614 60.6819 54.866 61.7739 54.866C62.8659 54.866 63.8459 54.614 64.7139 54.11C65.5819 53.606 66.2679 52.885 66.7719 51.947C67.2759 50.995 67.5279 49.896 67.5279 48.65C67.5279 47.404 67.2759 46.312 66.7719 45.374C66.2679 44.436 65.5819 43.715 64.7139 43.211C63.8459 42.707 62.8659 42.455 61.7739 42.455C60.6819 42.455 59.7019 42.707 58.8339 43.211C57.9659 43.715 57.2799 44.436 56.7759 45.374C56.2719 46.312 56.0199 47.404 56.0199 48.65ZM81.6833 44.534V56H80.2133V53.984C79.8773 54.698 79.3593 55.244 78.6593 55.622C77.9593 56 77.1753 56.189 76.3073 56.189C74.9353 56.189 73.8153 55.769 72.9473 54.929C72.0793 54.075 71.6453 52.843 71.6453 51.233V44.534H73.0943V51.065C73.0943 52.311 73.4023 53.263 74.0183 53.921C74.6483 54.579 75.5023 54.908 76.5803 54.908C77.6863 54.908 78.5683 54.558 79.2263 53.858C79.8843 53.158 80.2133 52.129 80.2133 50.771V44.534H81.6833ZM85.7743 42.371C85.4803 42.371 85.2283 42.266 85.0183 42.056C84.8083 41.846 84.7033 41.587 84.7033 41.279C84.7033 40.971 84.8083 40.719 85.0183 40.523C85.2283 40.313 85.4803 40.208 85.7743 40.208C86.0683 40.208 86.3203 40.313 86.5303 40.523C86.7403 40.719 86.8453 40.971 86.8453 41.279C86.8453 41.587 86.7403 41.846 86.5303 42.056C86.3203 42.266 86.0683 42.371 85.7743 42.371ZM86.5093 44.534V56H85.0393V44.534H86.5093ZM90.6151 54.782H96.6211V56H88.9351V54.782L94.8361 45.752H89.0401V44.534H96.5161V45.752L90.6151 54.782ZM114.257 45.542C114.257 46.802 113.844 47.817 113.018 48.587C112.192 49.357 110.953 49.742 109.301 49.742H106.34V56H104.87V41.321H109.301C110.939 41.321 112.171 41.706 112.997 42.476C113.837 43.246 114.257 44.268 114.257 45.542ZM109.301 48.482C111.597 48.482 112.745 47.502 112.745 45.542C112.745 44.562 112.472 43.82 111.926 43.316C111.38 42.812 110.505 42.56 109.301 42.56H106.34V48.482H109.301ZM116.052 50.246C116.052 49.07 116.283 48.041 116.745 47.159C117.221 46.263 117.872 45.577 118.698 45.101C119.538 44.611 120.483 44.366 121.533 44.366C122.625 44.366 123.563 44.618 124.347 45.122C125.145 45.626 125.719 46.27 126.069 47.054V44.534H127.539V56H126.069V53.459C125.705 54.243 125.124 54.894 124.326 55.412C123.542 55.916 122.604 56.168 121.512 56.168C120.476 56.168 119.538 55.923 118.698 55.433C117.872 54.943 117.221 54.25 116.745 53.354C116.283 52.458 116.052 51.422 116.052 50.246ZM126.069 50.267C126.069 49.343 125.88 48.531 125.502 47.831C125.124 47.131 124.606 46.592 123.948 46.214C123.304 45.836 122.59 45.647 121.806 45.647C120.994 45.647 120.266 45.829 119.622 46.193C118.978 46.557 118.467 47.089 118.089 47.789C117.725 48.475 117.543 49.294 117.543 50.246C117.543 51.184 117.725 52.01 118.089 52.724C118.467 53.424 118.978 53.963 119.622 54.341C120.266 54.705 120.994 54.887 121.806 54.887C122.59 54.887 123.304 54.698 123.948 54.32C124.606 53.942 125.124 53.403 125.502 52.703C125.88 52.003 126.069 51.191 126.069 50.267ZM134.843 56.168C133.527 56.168 132.449 55.867 131.609 55.265C130.783 54.649 130.321 53.816 130.223 52.766H131.735C131.805 53.41 132.106 53.935 132.638 54.341C133.184 54.733 133.912 54.929 134.822 54.929C135.62 54.929 136.243 54.74 136.691 54.362C137.153 53.984 137.384 53.515 137.384 52.955C137.384 52.563 137.258 52.241 137.006 51.989C136.754 51.737 136.432 51.541 136.04 51.401C135.662 51.247 135.144 51.086 134.486 50.918C133.632 50.694 132.939 50.47 132.407 50.246C131.875 50.022 131.42 49.693 131.042 49.259C130.678 48.811 130.496 48.216 130.496 47.474C130.496 46.914 130.664 46.396 131 45.92C131.336 45.444 131.812 45.066 132.428 44.786C133.044 44.506 133.744 44.366 134.528 44.366C135.76 44.366 136.754 44.681 137.51 45.311C138.266 45.927 138.672 46.781 138.728 47.873H137.258C137.216 47.201 136.95 46.662 136.46 46.256C135.984 45.836 135.326 45.626 134.486 45.626C133.744 45.626 133.142 45.801 132.68 46.151C132.218 46.501 131.987 46.935 131.987 47.453C131.987 47.901 132.12 48.272 132.386 48.566C132.666 48.846 133.009 49.07 133.415 49.238C133.821 49.392 134.367 49.567 135.053 49.763C135.879 49.987 136.537 50.204 137.027 50.414C137.517 50.624 137.937 50.932 138.287 51.338C138.637 51.744 138.819 52.283 138.833 52.955C138.833 53.571 138.665 54.124 138.329 54.614C137.993 55.09 137.524 55.468 136.922 55.748C136.32 56.028 135.627 56.168 134.843 56.168ZM145.548 56.168C144.232 56.168 143.154 55.867 142.314 55.265C141.488 54.649 141.026 53.816 140.928 52.766H142.44C142.51 53.41 142.811 53.935 143.343 54.341C143.889 54.733 144.617 54.929 145.527 54.929C146.325 54.929 146.948 54.74 147.396 54.362C147.858 53.984 148.089 53.515 148.089 52.955C148.089 52.563 147.963 52.241 147.711 51.989C147.459 51.737 147.137 51.541 146.745 51.401C146.367 51.247 145.849 51.086 145.191 50.918C144.337 50.694 143.644 50.47 143.112 50.246C142.58 50.022 142.125 49.693 141.747 49.259C141.383 48.811 141.201 48.216 141.201 47.474C141.201 46.914 141.369 46.396 141.705 45.92C142.041 45.444 142.517 45.066 143.133 44.786C143.749 44.506 144.449 44.366 145.233 44.366C146.465 44.366 147.459 44.681 148.215 45.311C148.971 45.927 149.377 46.781 149.433 47.873H147.963C147.921 47.201 147.655 46.662 147.165 46.256C146.689 45.836 146.031 45.626 145.191 45.626C144.449 45.626 143.847 45.801 143.385 46.151C142.923 46.501 142.692 46.935 142.692 47.453C142.692 47.901 142.825 48.272 143.091 48.566C143.371 48.846 143.714 49.07 144.12 49.238C144.526 49.392 145.072 49.567 145.758 49.763C146.584 49.987 147.242 50.204 147.732 50.414C148.222 50.624 148.642 50.932 148.992 51.338C149.342 51.744 149.524 52.283 149.538 52.955C149.538 53.571 149.37 54.124 149.034 54.614C148.698 55.09 148.229 55.468 147.627 55.748C147.025 56.028 146.332 56.168 145.548 56.168ZM153.04 42.371C152.746 42.371 152.494 42.266 152.284 42.056C152.074 41.846 151.969 41.587 151.969 41.279C151.969 40.971 152.074 40.719 152.284 40.523C152.494 40.313 152.746 40.208 153.04 40.208C153.334 40.208 153.586 40.313 153.796 40.523C154.006 40.719 154.111 40.971 154.111 41.279C154.111 41.587 154.006 41.846 153.796 42.056C153.586 42.266 153.334 42.371 153.04 42.371ZM153.775 44.534V56H152.305V44.534H153.775ZM162.48 44.324C163.852 44.324 164.972 44.751 165.84 45.605C166.708 46.445 167.142 47.67 167.142 49.28V56H165.693V49.448C165.693 48.202 165.378 47.25 164.748 46.592C164.132 45.934 163.285 45.605 162.207 45.605C161.101 45.605 160.219 45.955 159.561 46.655C158.903 47.355 158.574 48.384 158.574 49.742V56H157.104V44.534H158.574V46.487C158.938 45.787 159.463 45.255 160.149 44.891C160.835 44.513 161.612 44.324 162.48 44.324ZM175.202 44.366C176.28 44.366 177.218 44.618 178.016 45.122C178.814 45.626 179.388 46.263 179.738 47.033V44.534H181.208V56.294C181.208 57.344 180.977 58.275 180.515 59.087C180.067 59.899 179.437 60.522 178.625 60.956C177.813 61.404 176.889 61.628 175.853 61.628C174.383 61.628 173.158 61.278 172.178 60.578C171.212 59.878 170.61 58.926 170.372 57.722H171.821C172.073 58.52 172.549 59.157 173.249 59.633C173.963 60.109 174.831 60.347 175.853 60.347C176.595 60.347 177.26 60.186 177.848 59.864C178.436 59.556 178.898 59.094 179.234 58.478C179.57 57.862 179.738 57.134 179.738 56.294V53.459C179.374 54.243 178.793 54.894 177.995 55.412C177.211 55.916 176.28 56.168 175.202 56.168C174.152 56.168 173.207 55.923 172.367 55.433C171.541 54.943 170.89 54.25 170.414 53.354C169.952 52.458 169.721 51.422 169.721 50.246C169.721 49.07 169.952 48.041 170.414 47.159C170.89 46.263 171.541 45.577 172.367 45.101C173.207 44.611 174.152 44.366 175.202 44.366ZM179.738 50.267C179.738 49.343 179.549 48.531 179.171 47.831C178.793 47.131 178.275 46.592 177.617 46.214C176.973 45.836 176.259 45.647 175.475 45.647C174.663 45.647 173.935 45.829 173.291 46.193C172.647 46.557 172.136 47.089 171.758 47.789C171.394 48.475 171.212 49.294 171.212 50.246C171.212 51.184 171.394 52.01 171.758 52.724C172.136 53.424 172.647 53.963 173.291 54.341C173.935 54.705 174.663 54.887 175.475 54.887C176.259 54.887 176.973 54.698 177.617 54.32C178.275 53.942 178.793 53.403 179.171 52.703C179.549 52.003 179.738 51.191 179.738 50.267ZM189.549 44.093C189.549 43.197 189.822 42.476 190.368 41.93C190.928 41.37 191.635 41.09 192.489 41.09C193.357 41.09 194.064 41.37 194.61 41.93C195.17 42.476 195.45 43.197 195.45 44.093C195.45 45.003 195.17 45.738 194.61 46.298C194.064 46.844 193.357 47.117 192.489 47.117C191.635 47.117 190.928 46.844 190.368 46.298C189.822 45.738 189.549 45.003 189.549 44.093ZM201.309 41.3L192.699 56H191.208L199.839 41.3H201.309ZM192.489 42.035C191.957 42.035 191.53 42.217 191.208 42.581C190.9 42.931 190.746 43.435 190.746 44.093C190.746 44.751 190.9 45.262 191.208 45.626C191.53 45.99 191.957 46.172 192.489 46.172C193.021 46.172 193.448 45.99 193.77 45.626C194.092 45.262 194.253 44.751 194.253 44.093C194.253 43.449 194.092 42.945 193.77 42.581C193.448 42.217 193.021 42.035 192.489 42.035ZM197.109 53.207C197.109 52.297 197.382 51.569 197.928 51.023C198.488 50.463 199.195 50.183 200.049 50.183C200.903 50.183 201.603 50.463 202.149 51.023C202.709 51.569 202.989 52.297 202.989 53.207C202.989 54.117 202.709 54.852 202.149 55.412C201.603 55.958 200.903 56.231 200.049 56.231C199.195 56.231 198.488 55.958 197.928 55.412C197.382 54.852 197.109 54.117 197.109 53.207ZM200.049 51.149C199.517 51.149 199.09 51.331 198.768 51.695C198.446 52.059 198.285 52.563 198.285 53.207C198.285 53.851 198.446 54.355 198.768 54.719C199.09 55.083 199.517 55.265 200.049 55.265C200.581 55.265 201.001 55.09 201.309 54.74C201.631 54.376 201.792 53.865 201.792 53.207C201.792 52.549 201.631 52.045 201.309 51.695C201.001 51.331 200.581 51.149 200.049 51.149Z" fill="#333333"/>
<circle cx="287.74" cy="136.5" r="5.74032" fill="#018E42"/>
<path d="M306.51 127.773C306.726 127.435 307.025 127.162 307.407 126.954C307.788 126.746 308.234 126.642 308.746 126.642C309.344 126.642 309.885 126.794 310.371 127.097C310.856 127.4 311.237 127.834 311.515 128.397C311.801 128.96 311.944 129.615 311.944 130.36C311.944 131.105 311.801 131.764 311.515 132.336C311.237 132.899 310.856 133.337 310.371 133.649C309.885 133.952 309.344 134.104 308.746 134.104C308.243 134.104 307.797 134 307.407 133.792C307.025 133.584 306.726 133.315 306.51 132.986V137.458H304.287V126.746H306.51V127.773ZM309.682 130.36C309.682 129.805 309.526 129.372 309.214 129.06C308.91 128.739 308.533 128.579 308.083 128.579C307.641 128.579 307.264 128.739 306.952 129.06C306.648 129.381 306.497 129.818 306.497 130.373C306.497 130.928 306.648 131.365 306.952 131.686C307.264 132.007 307.641 132.167 308.083 132.167C308.525 132.167 308.902 132.007 309.214 131.686C309.526 131.357 309.682 130.915 309.682 130.36ZM312.668 130.36C312.668 129.615 312.806 128.96 313.084 128.397C313.37 127.834 313.755 127.4 314.241 127.097C314.726 126.794 315.268 126.642 315.866 126.642C316.377 126.642 316.823 126.746 317.205 126.954C317.595 127.162 317.894 127.435 318.102 127.773V126.746H320.325V134H318.102V132.973C317.885 133.311 317.582 133.584 317.192 133.792C316.81 134 316.364 134.104 315.853 134.104C315.263 134.104 314.726 133.952 314.241 133.649C313.755 133.337 313.37 132.899 313.084 132.336C312.806 131.764 312.668 131.105 312.668 130.36ZM318.102 130.373C318.102 129.818 317.946 129.381 317.634 129.06C317.33 128.739 316.958 128.579 316.516 128.579C316.074 128.579 315.697 128.739 315.385 129.06C315.081 129.372 314.93 129.805 314.93 130.36C314.93 130.915 315.081 131.357 315.385 131.686C315.697 132.007 316.074 132.167 316.516 132.167C316.958 132.167 317.33 132.007 317.634 131.686C317.946 131.365 318.102 130.928 318.102 130.373ZM324.884 134.104C324.251 134.104 323.688 133.996 323.194 133.779C322.7 133.562 322.31 133.268 322.024 132.895C321.738 132.514 321.578 132.089 321.543 131.621H323.74C323.766 131.872 323.883 132.076 324.091 132.232C324.299 132.388 324.555 132.466 324.858 132.466C325.135 132.466 325.348 132.414 325.495 132.31C325.651 132.197 325.729 132.054 325.729 131.881C325.729 131.673 325.621 131.521 325.404 131.426C325.187 131.322 324.836 131.209 324.351 131.088C323.831 130.967 323.398 130.841 323.051 130.711C322.704 130.572 322.405 130.36 322.154 130.074C321.903 129.779 321.777 129.385 321.777 128.891C321.777 128.475 321.89 128.098 322.115 127.76C322.349 127.413 322.687 127.14 323.129 126.941C323.58 126.742 324.113 126.642 324.728 126.642C325.638 126.642 326.353 126.867 326.873 127.318C327.402 127.769 327.705 128.367 327.783 129.112H325.729C325.694 128.861 325.582 128.661 325.391 128.514C325.209 128.367 324.966 128.293 324.663 128.293C324.403 128.293 324.204 128.345 324.065 128.449C323.926 128.544 323.857 128.679 323.857 128.852C323.857 129.06 323.965 129.216 324.182 129.32C324.407 129.424 324.754 129.528 325.222 129.632C325.759 129.771 326.197 129.909 326.535 130.048C326.873 130.178 327.168 130.395 327.419 130.698C327.679 130.993 327.813 131.391 327.822 131.894C327.822 132.319 327.701 132.7 327.458 133.038C327.224 133.367 326.882 133.627 326.431 133.818C325.989 134.009 325.473 134.104 324.884 134.104ZM332.133 134.104C331.5 134.104 330.937 133.996 330.443 133.779C329.949 133.562 329.559 133.268 329.273 132.895C328.987 132.514 328.827 132.089 328.792 131.621H330.989C331.015 131.872 331.132 132.076 331.34 132.232C331.548 132.388 331.804 132.466 332.107 132.466C332.384 132.466 332.597 132.414 332.744 132.31C332.9 132.197 332.978 132.054 332.978 131.881C332.978 131.673 332.87 131.521 332.653 131.426C332.436 131.322 332.085 131.209 331.6 131.088C331.08 130.967 330.647 130.841 330.3 130.711C329.953 130.572 329.654 130.36 329.403 130.074C329.152 129.779 329.026 129.385 329.026 128.891C329.026 128.475 329.139 128.098 329.364 127.76C329.598 127.413 329.936 127.14 330.378 126.941C330.829 126.742 331.362 126.642 331.977 126.642C332.887 126.642 333.602 126.867 334.122 127.318C334.651 127.769 334.954 128.367 335.032 129.112H332.978C332.943 128.861 332.831 128.661 332.64 128.514C332.458 128.367 332.215 128.293 331.912 128.293C331.652 128.293 331.453 128.345 331.314 128.449C331.175 128.544 331.106 128.679 331.106 128.852C331.106 129.06 331.214 129.216 331.431 129.32C331.656 129.424 332.003 129.528 332.471 129.632C333.008 129.771 333.446 129.909 333.784 130.048C334.122 130.178 334.417 130.395 334.668 130.698C334.928 130.993 335.062 131.391 335.071 131.894C335.071 132.319 334.95 132.7 334.707 133.038C334.473 133.367 334.131 133.627 333.68 133.818C333.238 134.009 332.722 134.104 332.133 134.104ZM343.269 130.256C343.269 130.464 343.256 130.681 343.23 130.906H338.199C338.234 131.357 338.377 131.703 338.628 131.946C338.888 132.18 339.204 132.297 339.577 132.297C340.132 132.297 340.517 132.063 340.734 131.595H343.1C342.979 132.072 342.758 132.501 342.437 132.882C342.125 133.263 341.731 133.562 341.254 133.779C340.777 133.996 340.244 134.104 339.655 134.104C338.944 134.104 338.312 133.952 337.757 133.649C337.202 133.346 336.769 132.912 336.457 132.349C336.145 131.786 335.989 131.127 335.989 130.373C335.989 129.619 336.141 128.96 336.444 128.397C336.756 127.834 337.189 127.4 337.744 127.097C338.299 126.794 338.936 126.642 339.655 126.642C340.357 126.642 340.981 126.789 341.527 127.084C342.073 127.379 342.498 127.799 342.801 128.345C343.113 128.891 343.269 129.528 343.269 130.256ZM340.994 129.671C340.994 129.29 340.864 128.986 340.604 128.761C340.344 128.536 340.019 128.423 339.629 128.423C339.256 128.423 338.94 128.531 338.68 128.748C338.429 128.965 338.273 129.272 338.212 129.671H340.994ZM344 130.36C344 129.615 344.139 128.96 344.416 128.397C344.702 127.834 345.088 127.4 345.573 127.097C346.058 126.794 346.6 126.642 347.198 126.642C347.675 126.642 348.108 126.742 348.498 126.941C348.897 127.14 349.209 127.409 349.434 127.747V124.38H351.657V134H349.434V132.96C349.226 133.307 348.927 133.584 348.537 133.792C348.156 134 347.709 134.104 347.198 134.104C346.6 134.104 346.058 133.952 345.573 133.649C345.088 133.337 344.702 132.899 344.416 132.336C344.139 131.764 344 131.105 344 130.36ZM349.434 130.373C349.434 129.818 349.278 129.381 348.966 129.06C348.663 128.739 348.29 128.579 347.848 128.579C347.406 128.579 347.029 128.739 346.717 129.06C346.414 129.372 346.262 129.805 346.262 130.36C346.262 130.915 346.414 131.357 346.717 131.686C347.029 132.007 347.406 132.167 347.848 132.167C348.29 132.167 348.663 132.007 348.966 131.686C349.278 131.365 349.434 130.928 349.434 130.373Z" fill="#333333"/>
<path d="M303.899 141.96V141.047H305.967V149H304.955V141.96H303.899ZM307.444 147.229V146.47L311.305 141.124H312.504V146.36H313.604V147.229H312.504V149H311.514V147.229H307.444ZM311.558 142.169L308.599 146.36H311.558V142.169ZM314.483 148.197C315.414 147.449 316.144 146.837 316.672 146.36C317.2 145.876 317.644 145.374 318.003 144.853C318.37 144.325 318.553 143.808 318.553 143.302C318.553 142.825 318.436 142.451 318.201 142.18C317.974 141.901 317.603 141.762 317.09 141.762C316.591 141.762 316.203 141.92 315.924 142.235C315.653 142.543 315.506 142.957 315.484 143.478H314.516C314.545 142.657 314.795 142.022 315.264 141.575C315.733 141.128 316.338 140.904 317.079 140.904C317.834 140.904 318.432 141.113 318.872 141.531C319.319 141.949 319.543 142.525 319.543 143.258C319.543 143.867 319.36 144.461 318.993 145.04C318.634 145.612 318.223 146.118 317.761 146.558C317.299 146.991 316.709 147.497 315.99 148.076H319.774V148.912H314.483V148.197ZM320.909 143.049C320.96 142.374 321.221 141.846 321.69 141.465C322.159 141.084 322.768 140.893 323.516 140.893C324.015 140.893 324.444 140.985 324.803 141.168C325.17 141.344 325.445 141.586 325.628 141.894C325.819 142.202 325.914 142.55 325.914 142.939C325.914 143.394 325.782 143.786 325.518 144.116C325.261 144.446 324.924 144.659 324.506 144.754V144.809C324.983 144.926 325.36 145.157 325.639 145.502C325.918 145.847 326.057 146.298 326.057 146.855C326.057 147.273 325.962 147.651 325.771 147.988C325.58 148.318 325.294 148.578 324.913 148.769C324.532 148.96 324.073 149.055 323.538 149.055C322.761 149.055 322.123 148.853 321.624 148.45C321.125 148.039 320.847 147.46 320.788 146.712H321.756C321.807 147.152 321.987 147.511 322.295 147.79C322.603 148.069 323.014 148.208 323.527 148.208C324.04 148.208 324.429 148.076 324.693 147.812C324.964 147.541 325.1 147.192 325.1 146.767C325.1 146.217 324.917 145.821 324.55 145.579C324.183 145.337 323.63 145.216 322.889 145.216H322.636V144.38H322.9C323.575 144.373 324.084 144.263 324.429 144.05C324.774 143.83 324.946 143.493 324.946 143.038C324.946 142.649 324.818 142.338 324.561 142.103C324.312 141.868 323.952 141.751 323.483 141.751C323.028 141.751 322.662 141.868 322.383 142.103C322.104 142.338 321.939 142.653 321.888 143.049H320.909ZM340.142 141.333L337.92 149H336.798L335.016 142.829L333.168 149L332.057 149.011L329.912 141.333H330.979L332.651 147.834L334.499 141.333H335.621L337.381 147.812L339.064 141.333H340.142ZM343.867 149.099C343.302 149.099 342.789 148.971 342.327 148.714C341.872 148.457 341.513 148.094 341.249 147.625C340.992 147.148 340.864 146.598 340.864 145.975C340.864 145.359 340.996 144.816 341.26 144.347C341.531 143.87 341.898 143.507 342.36 143.258C342.822 143.001 343.339 142.873 343.911 142.873C344.483 142.873 345 143.001 345.462 143.258C345.924 143.507 346.287 143.867 346.551 144.336C346.822 144.805 346.958 145.352 346.958 145.975C346.958 146.598 346.818 147.148 346.54 147.625C346.268 148.094 345.898 148.457 345.429 148.714C344.959 148.971 344.439 149.099 343.867 149.099ZM343.867 148.219C344.226 148.219 344.563 148.135 344.879 147.966C345.194 147.797 345.447 147.544 345.638 147.207C345.836 146.87 345.935 146.459 345.935 145.975C345.935 145.491 345.839 145.08 345.649 144.743C345.458 144.406 345.209 144.156 344.901 143.995C344.593 143.826 344.259 143.742 343.9 143.742C343.533 143.742 343.196 143.826 342.888 143.995C342.587 144.156 342.345 144.406 342.162 144.743C341.978 145.08 341.887 145.491 341.887 145.975C341.887 146.466 341.975 146.881 342.151 147.218C342.334 147.555 342.576 147.808 342.877 147.977C343.177 148.138 343.507 148.219 343.867 148.219ZM349.275 143.951C349.451 143.606 349.7 143.339 350.023 143.148C350.353 142.957 350.753 142.862 351.222 142.862V143.896H350.958C349.836 143.896 349.275 144.505 349.275 145.722V149H348.274V142.972H349.275V143.951ZM355.743 149L353.378 146.338V149H352.377V140.86H353.378V145.645L355.699 142.972H357.096L354.258 145.975L357.107 149H355.743ZM363.539 145.755C363.539 145.946 363.528 146.147 363.506 146.36H358.688C358.724 146.954 358.926 147.42 359.293 147.757C359.667 148.087 360.118 148.252 360.646 148.252C361.078 148.252 361.438 148.153 361.724 147.955C362.017 147.75 362.222 147.478 362.34 147.141H363.418C363.256 147.72 362.934 148.193 362.45 148.56C361.966 148.919 361.364 149.099 360.646 149.099C360.074 149.099 359.56 148.971 359.106 148.714C358.658 148.457 358.306 148.094 358.05 147.625C357.793 147.148 357.665 146.598 357.665 145.975C357.665 145.352 357.789 144.805 358.039 144.336C358.288 143.867 358.636 143.507 359.084 143.258C359.538 143.001 360.059 142.873 360.646 142.873C361.218 142.873 361.724 142.998 362.164 143.247C362.604 143.496 362.941 143.841 363.176 144.281C363.418 144.714 363.539 145.205 363.539 145.755ZM362.505 145.546C362.505 145.165 362.42 144.838 362.252 144.567C362.083 144.288 361.852 144.079 361.559 143.94C361.273 143.793 360.954 143.72 360.602 143.72C360.096 143.72 359.663 143.881 359.304 144.204C358.952 144.527 358.75 144.974 358.699 145.546H362.505ZM365.861 143.951C366.037 143.606 366.286 143.339 366.609 143.148C366.939 142.957 367.338 142.862 367.808 142.862V143.896H367.544C366.422 143.896 365.861 144.505 365.861 145.722V149H364.86V142.972H365.861V143.951ZM371.097 149.099C370.635 149.099 370.221 149.022 369.854 148.868C369.488 148.707 369.198 148.487 368.985 148.208C368.773 147.922 368.655 147.596 368.633 147.229H369.667C369.697 147.53 369.836 147.775 370.085 147.966C370.342 148.157 370.676 148.252 371.086 148.252C371.468 148.252 371.768 148.168 371.988 147.999C372.208 147.83 372.318 147.618 372.318 147.361C372.318 147.097 372.201 146.903 371.966 146.778C371.732 146.646 371.369 146.518 370.877 146.393C370.43 146.276 370.063 146.158 369.777 146.041C369.499 145.916 369.257 145.737 369.051 145.502C368.853 145.26 368.754 144.945 368.754 144.556C368.754 144.248 368.846 143.966 369.029 143.709C369.213 143.452 369.473 143.251 369.81 143.104C370.148 142.95 370.533 142.873 370.965 142.873C371.633 142.873 372.172 143.042 372.582 143.379C372.993 143.716 373.213 144.178 373.242 144.765H372.241C372.219 144.45 372.091 144.197 371.856 144.006C371.629 143.815 371.321 143.72 370.932 143.72C370.573 143.72 370.287 143.797 370.074 143.951C369.862 144.105 369.755 144.307 369.755 144.556C369.755 144.754 369.818 144.919 369.942 145.051C370.074 145.176 370.236 145.278 370.426 145.359C370.624 145.432 370.896 145.517 371.24 145.612C371.673 145.729 372.025 145.847 372.296 145.964C372.568 146.074 372.799 146.243 372.989 146.47C373.187 146.697 373.29 146.994 373.297 147.361C373.297 147.691 373.206 147.988 373.022 148.252C372.839 148.516 372.579 148.725 372.241 148.879C371.911 149.026 371.53 149.099 371.097 149.099Z" fill="#333333"/>
<circle cx="287.74" cy="179.5" r="5.74032" fill="#ED1C24"/>
<path d="M307.927 171.592H306.731V177H304.508V171.592H303.702V169.746H304.508V169.538C304.508 168.645 304.763 167.969 305.275 167.51C305.786 167.042 306.536 166.808 307.524 166.808C307.688 166.808 307.81 166.812 307.888 166.821V168.706C307.463 168.68 307.164 168.741 306.991 168.888C306.817 169.035 306.731 169.3 306.731 169.681V169.746H307.927V171.592ZM308.529 173.36C308.529 172.615 308.668 171.96 308.945 171.397C309.231 170.834 309.617 170.4 310.102 170.097C310.587 169.794 311.129 169.642 311.727 169.642C312.238 169.642 312.685 169.746 313.066 169.954C313.456 170.162 313.755 170.435 313.963 170.773V169.746H316.186V177H313.963V175.973C313.746 176.311 313.443 176.584 313.053 176.792C312.672 177 312.225 177.104 311.714 177.104C311.125 177.104 310.587 176.952 310.102 176.649C309.617 176.337 309.231 175.899 308.945 175.336C308.668 174.764 308.529 174.105 308.529 173.36ZM313.963 173.373C313.963 172.818 313.807 172.381 313.495 172.06C313.192 171.739 312.819 171.579 312.377 171.579C311.935 171.579 311.558 171.739 311.246 172.06C310.943 172.372 310.791 172.805 310.791 173.36C310.791 173.915 310.943 174.357 311.246 174.686C311.558 175.007 311.935 175.167 312.377 175.167C312.819 175.167 313.192 175.007 313.495 174.686C313.807 174.365 313.963 173.928 313.963 173.373ZM318.912 168.992C318.522 168.992 318.202 168.879 317.95 168.654C317.708 168.42 317.586 168.134 317.586 167.796C317.586 167.449 317.708 167.163 317.95 166.938C318.202 166.704 318.522 166.587 318.912 166.587C319.294 166.587 319.606 166.704 319.848 166.938C320.1 167.163 320.225 167.449 320.225 167.796C320.225 168.134 320.1 168.42 319.848 168.654C319.606 168.879 319.294 168.992 318.912 168.992ZM320.017 169.746V177H317.794V169.746H320.017ZM323.851 167.38V177H321.628V167.38H323.851ZM332.3 173.256C332.3 173.464 332.287 173.681 332.261 173.906H327.23C327.265 174.357 327.408 174.703 327.659 174.946C327.919 175.18 328.236 175.297 328.608 175.297C329.163 175.297 329.549 175.063 329.765 174.595H332.131C332.01 175.072 331.789 175.501 331.468 175.882C331.156 176.263 330.762 176.562 330.285 176.779C329.809 176.996 329.276 177.104 328.686 177.104C327.976 177.104 327.343 176.952 326.788 176.649C326.234 176.346 325.8 175.912 325.488 175.349C325.176 174.786 325.02 174.127 325.02 173.373C325.02 172.619 325.172 171.96 325.475 171.397C325.787 170.834 326.221 170.4 326.775 170.097C327.33 169.794 327.967 169.642 328.686 169.642C329.388 169.642 330.012 169.789 330.558 170.084C331.104 170.379 331.529 170.799 331.832 171.345C332.144 171.891 332.3 172.528 332.3 173.256ZM330.025 172.671C330.025 172.29 329.895 171.986 329.635 171.761C329.375 171.536 329.05 171.423 328.66 171.423C328.288 171.423 327.971 171.531 327.711 171.748C327.46 171.965 327.304 172.272 327.243 172.671H330.025ZM333.031 173.36C333.031 172.615 333.17 171.96 333.447 171.397C333.733 170.834 334.119 170.4 334.604 170.097C335.089 169.794 335.631 169.642 336.229 169.642C336.706 169.642 337.139 169.742 337.529 169.941C337.928 170.14 338.24 170.409 338.465 170.747V167.38H340.688V177H338.465V175.96C338.257 176.307 337.958 176.584 337.568 176.792C337.187 177 336.74 177.104 336.229 177.104C335.631 177.104 335.089 176.952 334.604 176.649C334.119 176.337 333.733 175.899 333.447 175.336C333.17 174.764 333.031 174.105 333.031 173.36ZM338.465 173.373C338.465 172.818 338.309 172.381 337.997 172.06C337.694 171.739 337.321 171.579 336.879 171.579C336.437 171.579 336.06 171.739 335.748 172.06C335.445 172.372 335.293 172.805 335.293 173.36C335.293 173.915 335.445 174.357 335.748 174.686C336.06 175.007 336.437 175.167 336.879 175.167C337.321 175.167 337.694 175.007 337.997 174.686C338.309 174.365 338.465 173.928 338.465 173.373Z" fill="#333333"/>
<path d="M303.899 184.96V184.047H305.967V192H304.955V184.96H303.899ZM307.664 186.049C307.715 185.374 307.976 184.846 308.445 184.465C308.914 184.084 309.523 183.893 310.271 183.893C310.77 183.893 311.199 183.985 311.558 184.168C311.925 184.344 312.2 184.586 312.383 184.894C312.574 185.202 312.669 185.55 312.669 185.939C312.669 186.394 312.537 186.786 312.273 187.116C312.016 187.446 311.679 187.659 311.261 187.754V187.809C311.738 187.926 312.115 188.157 312.394 188.502C312.673 188.847 312.812 189.298 312.812 189.855C312.812 190.273 312.717 190.651 312.526 190.988C312.335 191.318 312.049 191.578 311.668 191.769C311.287 191.96 310.828 192.055 310.293 192.055C309.516 192.055 308.878 191.853 308.379 191.45C307.88 191.039 307.602 190.46 307.543 189.712H308.511C308.562 190.152 308.742 190.511 309.05 190.79C309.358 191.069 309.769 191.208 310.282 191.208C310.795 191.208 311.184 191.076 311.448 190.812C311.719 190.541 311.855 190.192 311.855 189.767C311.855 189.217 311.672 188.821 311.305 188.579C310.938 188.337 310.385 188.216 309.644 188.216H309.391V187.38H309.655C310.33 187.373 310.839 187.263 311.184 187.05C311.529 186.83 311.701 186.493 311.701 186.038C311.701 185.649 311.573 185.338 311.316 185.103C311.067 184.868 310.707 184.751 310.238 184.751C309.783 184.751 309.417 184.868 309.138 185.103C308.859 185.338 308.694 185.653 308.643 186.049H307.664ZM313.922 190.229V189.47L317.783 184.124H318.982V189.36H320.082V190.229H318.982V192H317.992V190.229H313.922ZM318.036 185.169L315.077 189.36H318.036V185.169ZM333.815 184.333L331.593 192H330.471L328.689 185.829L326.841 192L325.73 192.011L323.585 184.333H324.652L326.324 190.834L328.172 184.333H329.294L331.054 190.812L332.737 184.333H333.815ZM337.54 192.099C336.975 192.099 336.462 191.971 336 191.714C335.545 191.457 335.186 191.094 334.922 190.625C334.665 190.148 334.537 189.598 334.537 188.975C334.537 188.359 334.669 187.816 334.933 187.347C335.204 186.87 335.571 186.507 336.033 186.258C336.495 186.001 337.012 185.873 337.584 185.873C338.156 185.873 338.673 186.001 339.135 186.258C339.597 186.507 339.96 186.867 340.224 187.336C340.495 187.805 340.631 188.352 340.631 188.975C340.631 189.598 340.491 190.148 340.213 190.625C339.941 191.094 339.571 191.457 339.102 191.714C338.632 191.971 338.112 192.099 337.54 192.099ZM337.54 191.219C337.899 191.219 338.236 191.135 338.552 190.966C338.867 190.797 339.12 190.544 339.311 190.207C339.509 189.87 339.608 189.459 339.608 188.975C339.608 188.491 339.512 188.08 339.322 187.743C339.131 187.406 338.882 187.156 338.574 186.995C338.266 186.826 337.932 186.742 337.573 186.742C337.206 186.742 336.869 186.826 336.561 186.995C336.26 187.156 336.018 187.406 335.835 187.743C335.651 188.08 335.56 188.491 335.56 188.975C335.56 189.466 335.648 189.881 335.824 190.218C336.007 190.555 336.249 190.808 336.55 190.977C336.85 191.138 337.18 191.219 337.54 191.219ZM342.948 186.951C343.124 186.606 343.373 186.339 343.696 186.148C344.026 185.957 344.425 185.862 344.895 185.862V186.896H344.631C343.509 186.896 342.948 187.505 342.948 188.722V192H341.947V185.972H342.948V186.951ZM349.416 192L347.051 189.338V192H346.05V183.86H347.051V188.645L349.372 185.972H350.769L347.931 188.975L350.78 192H349.416ZM357.211 188.755C357.211 188.946 357.2 189.147 357.178 189.36H352.36C352.397 189.954 352.599 190.42 352.965 190.757C353.339 191.087 353.79 191.252 354.318 191.252C354.751 191.252 355.11 191.153 355.396 190.955C355.69 190.75 355.895 190.478 356.012 190.141H357.09C356.929 190.72 356.606 191.193 356.122 191.56C355.638 191.919 355.037 192.099 354.318 192.099C353.746 192.099 353.233 191.971 352.778 191.714C352.331 191.457 351.979 191.094 351.722 190.625C351.466 190.148 351.337 189.598 351.337 188.975C351.337 188.352 351.462 187.805 351.711 187.336C351.961 186.867 352.309 186.507 352.756 186.258C353.211 186.001 353.732 185.873 354.318 185.873C354.89 185.873 355.396 185.998 355.836 186.247C356.276 186.496 356.614 186.841 356.848 187.281C357.09 187.714 357.211 188.205 357.211 188.755ZM356.177 188.546C356.177 188.165 356.093 187.838 355.924 187.567C355.756 187.288 355.525 187.079 355.231 186.94C354.945 186.793 354.626 186.72 354.274 186.72C353.768 186.72 353.336 186.881 352.976 187.204C352.624 187.527 352.423 187.974 352.371 188.546H356.177ZM359.534 186.951C359.71 186.606 359.959 186.339 360.282 186.148C360.612 185.957 361.011 185.862 361.481 185.862V186.896H361.217C360.095 186.896 359.534 187.505 359.534 188.722V192H358.533V185.972H359.534V186.951ZM364.77 192.099C364.308 192.099 363.894 192.022 363.527 191.868C363.161 191.707 362.871 191.487 362.658 191.208C362.446 190.922 362.328 190.596 362.306 190.229H363.34C363.37 190.53 363.509 190.775 363.758 190.966C364.015 191.157 364.349 191.252 364.759 191.252C365.141 191.252 365.441 191.168 365.661 190.999C365.881 190.83 365.991 190.618 365.991 190.361C365.991 190.097 365.874 189.903 365.639 189.778C365.405 189.646 365.042 189.518 364.55 189.393C364.103 189.276 363.736 189.158 363.45 189.041C363.172 188.916 362.93 188.737 362.724 188.502C362.526 188.26 362.427 187.945 362.427 187.556C362.427 187.248 362.519 186.966 362.702 186.709C362.886 186.452 363.146 186.251 363.483 186.104C363.821 185.95 364.206 185.873 364.638 185.873C365.306 185.873 365.845 186.042 366.255 186.379C366.666 186.716 366.886 187.178 366.915 187.765H365.914C365.892 187.45 365.764 187.197 365.529 187.006C365.302 186.815 364.994 186.72 364.605 186.72C364.246 186.72 363.96 186.797 363.747 186.951C363.535 187.105 363.428 187.307 363.428 187.556C363.428 187.754 363.491 187.919 363.615 188.051C363.747 188.176 363.909 188.278 364.099 188.359C364.297 188.432 364.569 188.517 364.913 188.612C365.346 188.729 365.698 188.847 365.969 188.964C366.241 189.074 366.472 189.243 366.662 189.47C366.86 189.697 366.963 189.994 366.97 190.361C366.97 190.691 366.879 190.988 366.695 191.252C366.512 191.516 366.252 191.725 365.914 191.879C365.584 192.026 365.203 192.099 364.77 192.099Z" fill="#333333"/>
</g>
<defs>
<filter id="filter0_d_1_274" x="26" y="18" width="393" height="310" filterUnits="userSpaceOnUse" color-interpolation-filters="sRGB">
<feFlood flood-opacity="0" result="BackgroundImageFix"/>
<feColorMatrix in="SourceAlpha" type="matrix" values="0 0 0 0 0 0 0 0 0 0 0 0 0 0 0 0 0 0 127 0" result="hardAlpha"/>
<feOffset dy="4"/>
<feGaussianBlur stdDeviation="2"/>
<feComposite in2="hardAlpha" operator="out"/>
<feColorMatrix type="matrix" values="0 0 0 0 0.0941176 0 0 0 0 0.470588 0 0 0 0 0.94902 0 0 0 0.25 0"/>
<feBlend mode="normal" in2="BackgroundImageFix" result="effect1_dropShadow_1_274"/>
<feBlend mode="normal" in="SourceGraphic" in2="effect1_dropShadow_1_274" result="shape"/>
</filter>
<filter id="filter1_d_1_274" x="0.00387955" y="0.00105286" width="444.992" height="361.992" filterUnits="userSpaceOnUse" color-interpolation-filters="sRGB">
<feFlood flood-opacity="0" result="BackgroundImageFix"/>
<feColorMatrix in="SourceAlpha" type="matrix" values="0 0 0 0 0 0 0 0 0 0 0 0 0 0 0 0 0 0 127 0" result="hardAlpha"/>
<feOffset dy="11.9972"/>
<feGaussianBlur stdDeviation="14.9981"/>
<feComposite in2="hardAlpha" operator="out"/>
<feColorMatrix type="matrix" values="0 0 0 0 0.184314 0 0 0 0 0.196078 0 0 0 0 0.490196 0 0 0 0.1 0"/>
<feBlend mode="normal" in2="BackgroundImageFix" result="effect1_dropShadow_1_274"/>
<feBlend mode="normal" in="SourceGraphic" in2="effect1_dropShadow_1_274" result="shape"/>
</filter>
</defs>
</svg>
