<svg width="326" height="180" viewBox="0 0 326 180" fill="none" xmlns="http://www.w3.org/2000/svg">
<g filter="url(#filter0_d_1_162)">
<rect x="5" y="1" width="316" height="170" rx="10" fill="white" shape-rendering="crispEdges"/>
<path d="M31.185 35.514H24.507L23.226 39H21.672L27.027 24.51H28.686L34.02 39H32.466L31.185 35.514ZM30.744 34.296L27.846 26.358L24.948 34.296H30.744ZM40.4532 37.572L44.3172 27.534H45.8712L41.2722 39H39.6132L35.0142 27.534H36.5892L40.4532 37.572ZM52.6726 27.366C53.7506 27.366 54.6886 27.618 55.4866 28.122C56.2846 28.626 56.8586 29.263 57.2086 30.033V27.534H58.6786V39.294C58.6786 40.344 58.4476 41.275 57.9856 42.087C57.5376 42.899 56.9076 43.522 56.0956 43.956C55.2836 44.404 54.3596 44.628 53.3236 44.628C51.8536 44.628 50.6286 44.278 49.6486 43.578C48.6826 42.878 48.0806 41.926 47.8426 40.722H49.2916C49.5436 41.52 50.0196 42.157 50.7196 42.633C51.4336 43.109 52.3016 43.347 53.3236 43.347C54.0656 43.347 54.7306 43.186 55.3186 42.864C55.9066 42.556 56.3686 42.094 56.7046 41.478C57.0406 40.862 57.2086 40.134 57.2086 39.294V36.459C56.8446 37.243 56.2636 37.894 55.4656 38.412C54.6816 38.916 53.7506 39.168 52.6726 39.168C51.6226 39.168 50.6776 38.923 49.8376 38.433C49.0116 37.943 48.3606 37.25 47.8846 36.354C47.4226 35.458 47.1916 34.422 47.1916 33.246C47.1916 32.07 47.4226 31.041 47.8846 30.159C48.3606 29.263 49.0116 28.577 49.8376 28.101C50.6776 27.611 51.6226 27.366 52.6726 27.366ZM57.2086 33.267C57.2086 32.343 57.0196 31.531 56.6416 30.831C56.2636 30.131 55.7456 29.592 55.0876 29.214C54.4436 28.836 53.7296 28.647 52.9456 28.647C52.1336 28.647 51.4056 28.829 50.7616 29.193C50.1176 29.557 49.6066 30.089 49.2286 30.789C48.8646 31.475 48.6826 32.294 48.6826 33.246C48.6826 34.184 48.8646 35.01 49.2286 35.724C49.6066 36.424 50.1176 36.963 50.7616 37.341C51.4056 37.705 52.1336 37.887 52.9456 37.887C53.7296 37.887 54.4436 37.698 55.0876 37.32C55.7456 36.942 56.2636 36.403 56.6416 35.703C57.0196 35.003 57.2086 34.191 57.2086 33.267ZM62.2865 39.105C61.9785 39.105 61.7195 39 61.5095 38.79C61.3135 38.58 61.2155 38.321 61.2155 38.013C61.2155 37.705 61.3135 37.453 61.5095 37.257C61.7195 37.047 61.9785 36.942 62.2865 36.942C62.5805 36.942 62.8255 37.047 63.0215 37.257C63.2315 37.453 63.3365 37.705 63.3365 38.013C63.3365 38.321 63.2315 38.58 63.0215 38.79C62.8255 39 62.5805 39.105 62.2865 39.105ZM75.9586 24.321C77.5826 24.321 78.9756 24.615 80.1376 25.203C81.2996 25.791 82.1886 26.638 82.8046 27.744C83.4206 28.85 83.7286 30.166 83.7286 31.692C83.7286 33.204 83.4206 34.513 82.8046 35.619C82.1886 36.711 81.2996 37.551 80.1376 38.139C78.9756 38.713 77.5826 39 75.9586 39H71.6116V24.321H75.9586ZM75.9586 37.782C78.0026 37.782 79.5566 37.25 80.6206 36.186C81.6986 35.108 82.2376 33.61 82.2376 31.692C82.2376 29.76 81.6986 28.255 80.6206 27.177C79.5566 26.085 78.0026 25.539 75.9586 25.539H73.0816V37.782H75.9586ZM85.7668 33.246C85.7668 32.07 85.9978 31.041 86.4598 30.159C86.9358 29.263 87.5868 28.577 88.4128 28.101C89.2528 27.611 90.1978 27.366 91.2478 27.366C92.3398 27.366 93.2778 27.618 94.0618 28.122C94.8598 28.626 95.4338 29.27 95.7838 30.054V27.534H97.2538V39H95.7838V36.459C95.4198 37.243 94.8388 37.894 94.0408 38.412C93.2568 38.916 92.3188 39.168 91.2268 39.168C90.1908 39.168 89.2528 38.923 88.4128 38.433C87.5868 37.943 86.9358 37.25 86.4598 36.354C85.9978 35.458 85.7668 34.422 85.7668 33.246ZM95.7838 33.267C95.7838 32.343 95.5948 31.531 95.2168 30.831C94.8388 30.131 94.3208 29.592 93.6628 29.214C93.0188 28.836 92.3048 28.647 91.5208 28.647C90.7088 28.647 89.9808 28.829 89.3368 29.193C88.6928 29.557 88.1818 30.089 87.8038 30.789C87.4398 31.475 87.2578 32.294 87.2578 33.246C87.2578 34.184 87.4398 35.01 87.8038 35.724C88.1818 36.424 88.6928 36.963 89.3368 37.341C89.9808 37.705 90.7088 37.887 91.5208 37.887C92.3048 37.887 93.0188 37.698 93.6628 37.32C94.3208 36.942 94.8388 36.403 95.2168 35.703C95.5948 35.003 95.7838 34.191 95.7838 33.267ZM110.06 27.534L103.256 44.397H101.723L103.949 38.937L99.2447 27.534H100.862L104.768 37.32L108.548 27.534H110.06ZM116.001 39.168C114.685 39.168 113.607 38.867 112.767 38.265C111.941 37.649 111.479 36.816 111.381 35.766H112.893C112.963 36.41 113.264 36.935 113.796 37.341C114.342 37.733 115.07 37.929 115.98 37.929C116.778 37.929 117.401 37.74 117.849 37.362C118.311 36.984 118.542 36.515 118.542 35.955C118.542 35.563 118.416 35.241 118.164 34.989C117.912 34.737 117.59 34.541 117.198 34.401C116.82 34.247 116.302 34.086 115.644 33.918C114.79 33.694 114.097 33.47 113.565 33.246C113.033 33.022 112.578 32.693 112.2 32.259C111.836 31.811 111.654 31.216 111.654 30.474C111.654 29.914 111.822 29.396 112.158 28.92C112.494 28.444 112.97 28.066 113.586 27.786C114.202 27.506 114.902 27.366 115.686 27.366C116.918 27.366 117.912 27.681 118.668 28.311C119.424 28.927 119.83 29.781 119.886 30.873H118.416C118.374 30.201 118.108 29.662 117.618 29.256C117.142 28.836 116.484 28.626 115.644 28.626C114.902 28.626 114.3 28.801 113.838 29.151C113.376 29.501 113.145 29.935 113.145 30.453C113.145 30.901 113.278 31.272 113.544 31.566C113.824 31.846 114.167 32.07 114.573 32.238C114.979 32.392 115.525 32.567 116.211 32.763C117.037 32.987 117.695 33.204 118.185 33.414C118.675 33.624 119.095 33.932 119.445 34.338C119.795 34.744 119.977 35.283 119.991 35.955C119.991 36.571 119.823 37.124 119.487 37.614C119.151 38.09 118.682 38.468 118.08 38.748C117.478 39.028 116.785 39.168 116.001 39.168ZM137.11 24.321V25.539H133.036V39H131.566V25.539H127.471V24.321H137.11ZM138.759 33.246C138.759 32.07 138.99 31.041 139.452 30.159C139.928 29.263 140.579 28.577 141.405 28.101C142.245 27.611 143.19 27.366 144.24 27.366C145.332 27.366 146.27 27.618 147.054 28.122C147.852 28.626 148.426 29.27 148.776 30.054V27.534H150.246V39H148.776V36.459C148.412 37.243 147.831 37.894 147.033 38.412C146.249 38.916 145.311 39.168 144.219 39.168C143.183 39.168 142.245 38.923 141.405 38.433C140.579 37.943 139.928 37.25 139.452 36.354C138.99 35.458 138.759 34.422 138.759 33.246ZM148.776 33.267C148.776 32.343 148.587 31.531 148.209 30.831C147.831 30.131 147.313 29.592 146.655 29.214C146.011 28.836 145.297 28.647 144.513 28.647C143.701 28.647 142.973 28.829 142.329 29.193C141.685 29.557 141.174 30.089 140.796 30.789C140.432 31.475 140.25 32.294 140.25 33.246C140.25 34.184 140.432 35.01 140.796 35.724C141.174 36.424 141.685 36.963 142.329 37.341C142.973 37.705 143.701 37.887 144.513 37.887C145.297 37.887 146.011 37.698 146.655 37.32C147.313 36.942 147.831 36.403 148.209 35.703C148.587 35.003 148.776 34.191 148.776 33.267ZM159.797 39L155.072 33.855V39H153.602V23.46H155.072V32.658L159.692 27.534H161.75L156.311 33.246L161.792 39H159.797ZM174.066 32.679C174.066 33.183 174.052 33.568 174.024 33.834H164.511C164.553 34.702 164.763 35.444 165.141 36.06C165.519 36.676 166.016 37.145 166.632 37.467C167.248 37.775 167.92 37.929 168.648 37.929C169.6 37.929 170.398 37.698 171.042 37.236C171.7 36.774 172.134 36.151 172.344 35.367H173.898C173.618 36.487 173.016 37.404 172.092 38.118C171.182 38.818 170.034 39.168 168.648 39.168C167.57 39.168 166.604 38.93 165.75 38.454C164.896 37.964 164.224 37.278 163.734 36.396C163.258 35.5 163.02 34.457 163.02 33.267C163.02 32.077 163.258 31.034 163.734 30.138C164.21 29.242 164.875 28.556 165.729 28.08C166.583 27.604 167.556 27.366 168.648 27.366C169.74 27.366 170.692 27.604 171.504 28.08C172.33 28.556 172.96 29.2 173.394 30.012C173.842 30.81 174.066 31.699 174.066 32.679ZM172.575 32.637C172.589 31.783 172.414 31.055 172.05 30.453C171.7 29.851 171.217 29.396 170.601 29.088C169.985 28.78 169.313 28.626 168.585 28.626C167.493 28.626 166.562 28.976 165.792 29.676C165.022 30.376 164.595 31.363 164.511 32.637H172.575ZM182.131 27.324C183.503 27.324 184.623 27.751 185.491 28.605C186.359 29.445 186.793 30.67 186.793 32.28V39H185.344V32.448C185.344 31.202 185.029 30.25 184.399 29.592C183.783 28.934 182.936 28.605 181.858 28.605C180.752 28.605 179.87 28.955 179.212 29.655C178.554 30.355 178.225 31.384 178.225 32.742V39H176.755V27.534H178.225V29.487C178.589 28.787 179.114 28.255 179.8 27.891C180.486 27.513 181.263 27.324 182.131 27.324Z" fill="#333333"/>
<path d="M34.398 92.411C34.222 91.597 33.914 90.992 33.474 90.596C33.034 90.178 32.407 89.969 31.593 89.969C30.339 89.969 29.437 90.519 28.887 91.619C28.337 92.697 28.051 94.413 28.029 96.767C28.513 95.997 29.206 95.392 30.108 94.952C31.032 94.512 32.044 94.292 33.144 94.292C35.3 94.292 37.027 94.974 38.325 96.338C39.645 97.702 40.305 99.605 40.305 102.047C40.305 103.653 39.975 105.061 39.315 106.271C38.677 107.481 37.731 108.427 36.477 109.109C35.245 109.791 33.782 110.132 32.088 110.132C28.7 110.132 26.346 109.076 25.026 106.964C23.706 104.83 23.046 101.772 23.046 97.79C23.046 93.61 23.739 90.508 25.125 88.484C26.533 86.438 28.777 85.415 31.857 85.415C33.507 85.415 34.893 85.745 36.015 86.405C37.159 87.043 38.017 87.89 38.589 88.946C39.183 90.002 39.535 91.157 39.645 92.411H34.398ZM31.791 98.747C30.845 98.747 30.053 99.033 29.415 99.605C28.799 100.155 28.491 100.947 28.491 101.981C28.491 103.037 28.777 103.862 29.349 104.456C29.943 105.05 30.779 105.347 31.857 105.347C32.825 105.347 33.584 105.061 34.134 104.489C34.706 103.895 34.992 103.092 34.992 102.08C34.992 101.046 34.717 100.232 34.167 99.638C33.617 99.044 32.825 98.747 31.791 98.747Z" fill="#333333"/>
<rect x="21" y="125" width="60" height="26" rx="4" fill="#018E42" fill-opacity="0.1"/>
<path d="M34 140.167C33.8733 140.167 33.7466 140.12 33.6466 140.02C33.4533 139.827 33.4533 139.507 33.6466 139.313L35.78 137.18C35.8866 137.073 36.0266 137.02 36.18 137.033C36.3266 137.047 36.46 137.127 36.5466 137.253L37.2733 138.347L39.64 135.98C39.8333 135.787 40.1533 135.787 40.3466 135.98C40.54 136.173 40.54 136.493 40.3466 136.687L37.5466 139.487C37.44 139.593 37.3 139.647 37.1466 139.633C37 139.62 36.8666 139.54 36.78 139.413L36.0533 138.32L34.3533 140.02C34.2533 140.12 34.1266 140.167 34 140.167Z" fill="#018E42"/>
<path d="M40 138.167C39.7267 138.167 39.5 137.94 39.5 137.667V136.833H38.6667C38.3934 136.833 38.1667 136.607 38.1667 136.333C38.1667 136.06 38.3934 135.833 38.6667 135.833H40C40.2734 135.833 40.5 136.06 40.5 136.333V137.667C40.5 137.94 40.2734 138.167 40 138.167Z" fill="#018E42"/>
<path d="M39 145.167H35C31.38 145.167 29.8333 143.62 29.8333 140V136C29.8333 132.38 31.38 130.833 35 130.833H39C42.62 130.833 44.1666 132.38 44.1666 136V140C44.1666 143.62 42.62 145.167 39 145.167ZM35 131.833C31.9266 131.833 30.8333 132.927 30.8333 136V140C30.8333 143.073 31.9266 144.167 35 144.167H39C42.0733 144.167 43.1666 143.073 43.1666 140V136C43.1666 132.927 42.0733 131.833 39 131.833H35Z" fill="#018E42"/>
<path d="M49.612 141.124C50.628 140.308 51.424 139.64 52 139.12C52.576 138.592 53.06 138.044 53.452 137.476C53.852 136.9 54.052 136.336 54.052 135.784C54.052 135.264 53.924 134.856 53.668 134.56C53.42 134.256 53.016 134.104 52.456 134.104C51.912 134.104 51.488 134.276 51.184 134.62C50.888 134.956 50.728 135.408 50.704 135.976H49.648C49.68 135.08 49.952 134.388 50.464 133.9C50.976 133.412 51.636 133.168 52.444 133.168C53.268 133.168 53.92 133.396 54.4 133.852C54.888 134.308 55.132 134.936 55.132 135.736C55.132 136.4 54.932 137.048 54.532 137.68C54.14 138.304 53.692 138.856 53.188 139.336C52.684 139.808 52.04 140.36 51.256 140.992H55.384V141.904H49.612V141.124ZM56.6463 137.572C56.6463 136.196 56.8703 135.124 57.3183 134.356C57.7663 133.58 58.5503 133.192 59.6703 133.192C60.7823 133.192 61.5623 133.58 62.0103 134.356C62.4583 135.124 62.6823 136.196 62.6823 137.572C62.6823 138.972 62.4583 140.06 62.0103 140.836C61.5623 141.612 60.7823 142 59.6703 142C58.5503 142 57.7663 141.612 57.3183 140.836C56.8703 140.06 56.6463 138.972 56.6463 137.572ZM61.6023 137.572C61.6023 136.876 61.5543 136.288 61.4583 135.808C61.3703 135.32 61.1823 134.928 60.8943 134.632C60.6143 134.336 60.2063 134.188 59.6703 134.188C59.1263 134.188 58.7103 134.336 58.4223 134.632C58.1423 134.928 57.9543 135.32 57.8583 135.808C57.7703 136.288 57.7263 136.876 57.7263 137.572C57.7263 138.292 57.7703 138.896 57.8583 139.384C57.9543 139.872 58.1423 140.264 58.4223 140.56C58.7103 140.856 59.1263 141.004 59.6703 141.004C60.2063 141.004 60.6143 140.856 60.8943 140.56C61.1823 140.264 61.3703 139.872 61.4583 139.384C61.5543 138.896 61.6023 138.292 61.6023 137.572ZM63.9415 135.28C63.9415 134.736 64.1055 134.304 64.4335 133.984C64.7615 133.656 65.1815 133.492 65.6935 133.492C66.2055 133.492 66.6255 133.656 66.9535 133.984C67.2815 134.304 67.4455 134.736 67.4455 135.28C67.4455 135.832 67.2815 136.272 66.9535 136.6C66.6255 136.92 66.2055 137.08 65.6935 137.08C65.1815 137.08 64.7615 136.92 64.4335 136.6C64.1055 136.272 63.9415 135.832 63.9415 135.28ZM70.9495 133.624L66.0895 142H65.0095L69.8695 133.624H70.9495ZM65.6935 134.164C65.4215 134.164 65.2055 134.26 65.0455 134.452C64.8935 134.636 64.8175 134.912 64.8175 135.28C64.8175 135.648 64.8935 135.928 65.0455 136.12C65.2055 136.312 65.4215 136.408 65.6935 136.408C65.9655 136.408 66.1815 136.312 66.3415 136.12C66.5015 135.92 66.5815 135.64 66.5815 135.28C66.5815 134.912 66.5015 134.636 66.3415 134.452C66.1815 134.26 65.9655 134.164 65.6935 134.164ZM68.5375 140.344C68.5375 139.792 68.7015 139.356 69.0295 139.036C69.3575 138.708 69.7775 138.544 70.2895 138.544C70.8015 138.544 71.2175 138.708 71.5375 139.036C71.8655 139.356 72.0295 139.792 72.0295 140.344C72.0295 140.888 71.8655 141.324 71.5375 141.652C71.2175 141.98 70.8015 142.144 70.2895 142.144C69.7775 142.144 69.3575 141.984 69.0295 141.664C68.7015 141.336 68.5375 140.896 68.5375 140.344ZM70.2775 139.228C70.0055 139.228 69.7895 139.324 69.6295 139.516C69.4695 139.7 69.3895 139.976 69.3895 140.344C69.3895 140.704 69.4695 140.98 69.6295 141.172C69.7895 141.356 70.0055 141.448 70.2775 141.448C70.5495 141.448 70.7655 141.356 70.9255 141.172C71.0855 140.98 71.1655 140.704 71.1655 140.344C71.1655 139.976 71.0855 139.7 70.9255 139.516C70.7655 139.324 70.5495 139.228 70.2775 139.228Z" fill="#018E42"/>
<path d="M93.84 134.926C93.9053 134.067 94.2367 133.395 94.834 132.91C95.4313 132.425 96.206 132.182 97.158 132.182C97.7927 132.182 98.3387 132.299 98.796 132.532C99.2627 132.756 99.6127 133.064 99.846 133.456C100.089 133.848 100.21 134.291 100.21 134.786C100.21 135.365 100.042 135.864 99.706 136.284C99.3793 136.704 98.95 136.975 98.418 137.096V137.166C99.0247 137.315 99.5053 137.609 99.86 138.048C100.215 138.487 100.392 139.061 100.392 139.77C100.392 140.302 100.271 140.783 100.028 141.212C99.7853 141.632 99.4213 141.963 98.936 142.206C98.4507 142.449 97.8673 142.57 97.186 142.57C96.1967 142.57 95.3847 142.313 94.75 141.8C94.1153 141.277 93.7607 140.54 93.686 139.588H94.918C94.9833 140.148 95.212 140.605 95.604 140.96C95.996 141.315 96.5187 141.492 97.172 141.492C97.8253 141.492 98.32 141.324 98.656 140.988C99.0013 140.643 99.174 140.199 99.174 139.658C99.174 138.958 98.9407 138.454 98.474 138.146C98.0073 137.838 97.3027 137.684 96.36 137.684H96.038V136.62H96.374C97.2327 136.611 97.8813 136.471 98.32 136.2C98.7587 135.92 98.978 135.491 98.978 134.912C98.978 134.417 98.8147 134.021 98.488 133.722C98.1707 133.423 97.7133 133.274 97.116 133.274C96.5373 133.274 96.0707 133.423 95.716 133.722C95.3613 134.021 95.1513 134.422 95.086 134.926H93.84Z" fill="#333333"/>
<path d="M156.259 139.964V145.5H155.531V141.372L153.691 145.5H153.179L151.331 141.364V145.5H150.603V139.964H151.387L153.435 144.54L155.483 139.964H156.259Z" fill="#333333"/>
<path d="M176.866 139.924V140.516H175.346V145.5H174.618V140.516H173.09V139.924H176.866Z" fill="#333333"/>
<path d="M199.326 139.924L197.71 145.5H196.894L195.598 141.012L194.254 145.5L193.446 145.508L191.886 139.924H192.662L193.878 144.652L195.222 139.924H196.038L197.318 144.636L198.542 139.924H199.326Z" fill="#333333"/>
<path d="M219.324 139.924V140.516H217.804V145.5H217.076V140.516H215.548V139.924H219.324Z" fill="#333333"/>
<path d="M240.528 139.924V140.516H238.104V142.396H240.072V142.988H238.104V145.5H237.376V139.924H240.528Z" fill="#333333"/>
<path d="M260.148 145.556C259.78 145.556 259.449 145.492 259.156 145.364C258.868 145.231 258.641 145.049 258.476 144.82C258.311 144.585 258.225 144.316 258.22 144.012H258.996C259.023 144.273 259.129 144.495 259.316 144.676C259.508 144.852 259.785 144.94 260.148 144.94C260.495 144.94 260.767 144.855 260.964 144.684C261.167 144.508 261.268 144.284 261.268 144.012C261.268 143.799 261.209 143.625 261.092 143.492C260.975 143.359 260.828 143.257 260.652 143.188C260.476 143.119 260.239 143.044 259.94 142.964C259.572 142.868 259.276 142.772 259.052 142.676C258.833 142.58 258.644 142.431 258.484 142.228C258.329 142.02 258.252 141.743 258.252 141.396C258.252 141.092 258.329 140.823 258.484 140.588C258.639 140.353 258.855 140.172 259.132 140.044C259.415 139.916 259.737 139.852 260.1 139.852C260.623 139.852 261.049 139.983 261.38 140.244C261.716 140.505 261.905 140.852 261.948 141.284H261.148C261.121 141.071 261.009 140.884 260.812 140.724C260.615 140.559 260.353 140.476 260.028 140.476C259.724 140.476 259.476 140.556 259.284 140.716C259.092 140.871 258.996 141.089 258.996 141.372C258.996 141.575 259.052 141.74 259.164 141.868C259.281 141.996 259.423 142.095 259.588 142.164C259.759 142.228 259.996 142.303 260.3 142.388C260.668 142.489 260.964 142.591 261.188 142.692C261.412 142.788 261.604 142.94 261.764 143.148C261.924 143.351 262.004 143.628 262.004 143.98C262.004 144.252 261.932 144.508 261.788 144.748C261.644 144.988 261.431 145.183 261.148 145.332C260.865 145.481 260.532 145.556 260.148 145.556Z" fill="#333333"/>
<path d="M281.484 145.556C281.116 145.556 280.785 145.492 280.492 145.364C280.204 145.231 279.977 145.049 279.812 144.82C279.646 144.585 279.561 144.316 279.556 144.012H280.332C280.358 144.273 280.465 144.495 280.652 144.676C280.844 144.852 281.121 144.94 281.484 144.94C281.83 144.94 282.102 144.855 282.3 144.684C282.502 144.508 282.604 144.284 282.604 144.012C282.604 143.799 282.545 143.625 282.428 143.492C282.31 143.359 282.164 143.257 281.988 143.188C281.812 143.119 281.574 143.044 281.276 142.964C280.908 142.868 280.612 142.772 280.388 142.676C280.169 142.58 279.98 142.431 279.82 142.228C279.665 142.02 279.588 141.743 279.588 141.396C279.588 141.092 279.665 140.823 279.82 140.588C279.974 140.353 280.19 140.172 280.468 140.044C280.75 139.916 281.073 139.852 281.436 139.852C281.958 139.852 282.385 139.983 282.716 140.244C283.052 140.505 283.241 140.852 283.284 141.284H282.484C282.457 141.071 282.345 140.884 282.148 140.724C281.95 140.559 281.689 140.476 281.364 140.476C281.06 140.476 280.812 140.556 280.62 140.716C280.428 140.871 280.332 141.089 280.332 141.372C280.332 141.575 280.388 141.74 280.5 141.868C280.617 141.996 280.758 142.095 280.924 142.164C281.094 142.228 281.332 142.303 281.636 142.388C282.004 142.489 282.3 142.591 282.524 142.692C282.748 142.788 282.94 142.94 283.1 143.148C283.26 143.351 283.34 143.628 283.34 143.98C283.34 144.252 283.268 144.508 283.124 144.748C282.98 144.988 282.766 145.183 282.484 145.332C282.201 145.481 281.868 145.556 281.484 145.556Z" fill="#333333"/>
<path d="M154 133.5L175.251 66.38L197.5 94H212.5L239.258 54.3L260.594 82.94L281.5 133.5" fill="url(#paint0_linear_1_162)"/>
<rect x="4.5" y="0.5" width="317" height="171" rx="10.5" stroke="#333333" stroke-opacity="0.1" shape-rendering="crispEdges"/>
</g>
<defs>
<filter id="filter0_d_1_162" x="0" y="0" width="326" height="180" filterUnits="userSpaceOnUse" color-interpolation-filters="sRGB">
<feFlood flood-opacity="0" result="BackgroundImageFix"/>
<feColorMatrix in="SourceAlpha" type="matrix" values="0 0 0 0 0 0 0 0 0 0 0 0 0 0 0 0 0 0 127 0" result="hardAlpha"/>
<feOffset dy="4"/>
<feGaussianBlur stdDeviation="2"/>
<feComposite in2="hardAlpha" operator="out"/>
<feColorMatrix type="matrix" values="0 0 0 0 0.0941176 0 0 0 0 0.470588 0 0 0 0 0.94902 0 0 0 0.25 0"/>
<feBlend mode="normal" in2="BackgroundImageFix" result="effect1_dropShadow_1_162"/>
<feBlend mode="normal" in="SourceGraphic" in2="effect1_dropShadow_1_162" result="shape"/>
</filter>
<linearGradient id="paint0_linear_1_162" x1="217.75" y1="54" x2="217.75" y2="142" gradientUnits="userSpaceOnUse">
<stop stop-color="#018E42"/>
<stop offset="1" stop-color="#F9F9F9"/>
</linearGradient>
</defs>
</svg>
