<svg width="326" height="182" viewBox="0 0 326 182" fill="none" xmlns="http://www.w3.org/2000/svg">
<g filter="url(#filter0_d_1_75)">
<rect x="5" y="1" width="316" height="172" rx="10" fill="white" shape-rendering="crispEdges"/>
<path d="M24.15 24.321V39H22.68V24.321H24.15ZM32.8548 27.324C34.2268 27.324 35.3468 27.751 36.2148 28.605C37.0828 29.445 37.5168 30.67 37.5168 32.28V39H36.0678V32.448C36.0678 31.202 35.7528 30.25 35.1228 29.592C34.5068 28.934 33.6598 28.605 32.5818 28.605C31.4758 28.605 30.5938 28.955 29.9358 29.655C29.2778 30.355 28.9488 31.384 28.9488 32.742V39H27.4788V27.534H28.9488V29.487C29.3128 28.787 29.8378 28.255 30.5238 27.891C31.2098 27.513 31.9868 27.324 32.8548 27.324ZM55.1196 24.321V25.539H51.0456V39H49.5756V25.539H45.4806V24.321H55.1196ZM58.9107 29.571C59.2327 28.857 59.7227 28.304 60.3807 27.912C61.0527 27.52 61.8717 27.324 62.8377 27.324V28.857H62.4387C61.3747 28.857 60.5207 29.144 59.8767 29.718C59.2327 30.292 58.9107 31.251 58.9107 32.595V39H57.4407V27.534H58.9107V29.571ZM64.3771 33.246C64.3771 32.07 64.6081 31.041 65.0701 30.159C65.5461 29.263 66.1971 28.577 67.0231 28.101C67.8631 27.611 68.8081 27.366 69.8581 27.366C70.9501 27.366 71.8881 27.618 72.6721 28.122C73.4701 28.626 74.0441 29.27 74.3941 30.054V27.534H75.8641V39H74.3941V36.459C74.0301 37.243 73.4491 37.894 72.6511 38.412C71.8671 38.916 70.9291 39.168 69.8371 39.168C68.8011 39.168 67.8631 38.923 67.0231 38.433C66.1971 37.943 65.5461 37.25 65.0701 36.354C64.6081 35.458 64.3771 34.422 64.3771 33.246ZM74.3941 33.267C74.3941 32.343 74.2051 31.531 73.8271 30.831C73.4491 30.131 72.9311 29.592 72.2731 29.214C71.6291 28.836 70.9151 28.647 70.1311 28.647C69.3191 28.647 68.5911 28.829 67.9471 29.193C67.3031 29.557 66.7921 30.089 66.4141 30.789C66.0501 31.475 65.8681 32.294 65.8681 33.246C65.8681 34.184 66.0501 35.01 66.4141 35.724C66.7921 36.424 67.3031 36.963 67.9471 37.341C68.5911 37.705 69.3191 37.887 70.1311 37.887C70.9151 37.887 71.6291 37.698 72.2731 37.32C72.9311 36.942 73.4491 36.403 73.8271 35.703C74.2051 35.003 74.3941 34.191 74.3941 33.267ZM79.955 25.371C79.661 25.371 79.409 25.266 79.199 25.056C78.989 24.846 78.884 24.587 78.884 24.279C78.884 23.971 78.989 23.719 79.199 23.523C79.409 23.313 79.661 23.208 79.955 23.208C80.249 23.208 80.501 23.313 80.711 23.523C80.921 23.719 81.026 23.971 81.026 24.279C81.026 24.587 80.921 24.846 80.711 25.056C80.501 25.266 80.249 25.371 79.955 25.371ZM80.69 27.534V39H79.22V27.534H80.69ZM89.3949 27.324C90.7669 27.324 91.8869 27.751 92.7549 28.605C93.6229 29.445 94.0569 30.67 94.0569 32.28V39H92.6079V32.448C92.6079 31.202 92.2929 30.25 91.6629 29.592C91.0469 28.934 90.1999 28.605 89.1219 28.605C88.0159 28.605 87.1339 28.955 86.4759 29.655C85.8179 30.355 85.4889 31.384 85.4889 32.742V39H84.0189V27.534H85.4889V29.487C85.8529 28.787 86.3779 28.255 87.0639 27.891C87.7499 27.513 88.5269 27.324 89.3949 27.324ZM98.0429 25.371C97.7489 25.371 97.4969 25.266 97.2869 25.056C97.0769 24.846 96.9719 24.587 96.9719 24.279C96.9719 23.971 97.0769 23.719 97.2869 23.523C97.4969 23.313 97.7489 23.208 98.0429 23.208C98.3369 23.208 98.5889 23.313 98.7989 23.523C99.0089 23.719 99.1139 23.971 99.1139 24.279C99.1139 24.587 99.0089 24.846 98.7989 25.056C98.5889 25.266 98.3369 25.371 98.0429 25.371ZM98.7779 27.534V39H97.3079V27.534H98.7779ZM107.483 27.324C108.855 27.324 109.975 27.751 110.843 28.605C111.711 29.445 112.145 30.67 112.145 32.28V39H110.696V32.448C110.696 31.202 110.381 30.25 109.751 29.592C109.135 28.934 108.288 28.605 107.21 28.605C106.104 28.605 105.222 28.955 104.564 29.655C103.906 30.355 103.577 31.384 103.577 32.742V39H102.107V27.534H103.577V29.487C103.941 28.787 104.466 28.255 105.152 27.891C105.838 27.513 106.615 27.324 107.483 27.324ZM120.205 27.366C121.283 27.366 122.221 27.618 123.019 28.122C123.817 28.626 124.391 29.263 124.741 30.033V27.534H126.211V39.294C126.211 40.344 125.98 41.275 125.518 42.087C125.07 42.899 124.44 43.522 123.628 43.956C122.816 44.404 121.892 44.628 120.856 44.628C119.386 44.628 118.161 44.278 117.181 43.578C116.215 42.878 115.613 41.926 115.375 40.722H116.824C117.076 41.52 117.552 42.157 118.252 42.633C118.966 43.109 119.834 43.347 120.856 43.347C121.598 43.347 122.263 43.186 122.851 42.864C123.439 42.556 123.901 42.094 124.237 41.478C124.573 40.862 124.741 40.134 124.741 39.294V36.459C124.377 37.243 123.796 37.894 122.998 38.412C122.214 38.916 121.283 39.168 120.205 39.168C119.155 39.168 118.21 38.923 117.37 38.433C116.544 37.943 115.893 37.25 115.417 36.354C114.955 35.458 114.724 34.422 114.724 33.246C114.724 32.07 114.955 31.041 115.417 30.159C115.893 29.263 116.544 28.577 117.37 28.101C118.21 27.611 119.155 27.366 120.205 27.366ZM124.741 33.267C124.741 32.343 124.552 31.531 124.174 30.831C123.796 30.131 123.278 29.592 122.62 29.214C121.976 28.836 121.262 28.647 120.478 28.647C119.666 28.647 118.938 28.829 118.294 29.193C117.65 29.557 117.139 30.089 116.761 30.789C116.397 31.475 116.215 32.294 116.215 33.246C116.215 34.184 116.397 35.01 116.761 35.724C117.139 36.424 117.65 36.963 118.294 37.341C118.938 37.705 119.666 37.887 120.478 37.887C121.262 37.887 121.976 37.698 122.62 37.32C123.278 36.942 123.796 36.403 124.174 35.703C124.552 35.003 124.741 34.191 124.741 33.267ZM153.137 24.321L148.979 39H147.341L143.645 26.484L139.865 39L138.269 39.021L134.195 24.321H135.77L139.13 37.194L142.889 24.321H144.527L148.181 37.194L151.562 24.321H153.137ZM160.405 39.168C159.327 39.168 158.354 38.93 157.486 38.454C156.632 37.964 155.953 37.278 155.449 36.396C154.959 35.5 154.714 34.457 154.714 33.267C154.714 32.077 154.966 31.041 155.47 30.159C155.974 29.263 156.66 28.577 157.528 28.101C158.396 27.611 159.369 27.366 160.447 27.366C161.525 27.366 162.498 27.611 163.366 28.101C164.248 28.577 164.934 29.263 165.424 30.159C165.928 31.041 166.18 32.077 166.18 33.267C166.18 34.443 165.928 35.479 165.424 36.375C164.92 37.271 164.227 37.964 163.345 38.454C162.463 38.93 161.483 39.168 160.405 39.168ZM160.405 37.887C161.161 37.887 161.861 37.719 162.505 37.383C163.149 37.033 163.667 36.515 164.059 35.829C164.465 35.129 164.668 34.275 164.668 33.267C164.668 32.259 164.472 31.412 164.08 30.726C163.688 30.026 163.17 29.508 162.526 29.172C161.882 28.822 161.182 28.647 160.426 28.647C159.67 28.647 158.97 28.822 158.326 29.172C157.682 29.508 157.164 30.026 156.772 30.726C156.394 31.412 156.205 32.259 156.205 33.267C156.205 34.275 156.394 35.129 156.772 35.829C157.164 36.515 157.675 37.033 158.305 37.383C158.949 37.719 159.649 37.887 160.405 37.887ZM170.33 29.571C170.652 28.857 171.142 28.304 171.8 27.912C172.472 27.52 173.291 27.324 174.257 27.324V28.857H173.858C172.794 28.857 171.94 29.144 171.296 29.718C170.652 30.292 170.33 31.251 170.33 32.595V39H168.86V27.534H170.33V29.571ZM182.663 39L177.938 33.855V39H176.468V23.46H177.938V32.658L182.558 27.534H184.616L179.177 33.246L184.658 39H182.663ZM196.932 32.679C196.932 33.183 196.918 33.568 196.89 33.834H187.377C187.419 34.702 187.629 35.444 188.007 36.06C188.385 36.676 188.882 37.145 189.498 37.467C190.114 37.775 190.786 37.929 191.514 37.929C192.466 37.929 193.264 37.698 193.908 37.236C194.566 36.774 195 36.151 195.21 35.367H196.764C196.484 36.487 195.882 37.404 194.958 38.118C194.048 38.818 192.9 39.168 191.514 39.168C190.436 39.168 189.47 38.93 188.616 38.454C187.762 37.964 187.09 37.278 186.6 36.396C186.124 35.5 185.886 34.457 185.886 33.267C185.886 32.077 186.124 31.034 186.6 30.138C187.076 29.242 187.741 28.556 188.595 28.08C189.449 27.604 190.422 27.366 191.514 27.366C192.606 27.366 193.558 27.604 194.37 28.08C195.196 28.556 195.826 29.2 196.26 30.012C196.708 30.81 196.932 31.699 196.932 32.679ZM195.441 32.637C195.455 31.783 195.28 31.055 194.916 30.453C194.566 29.851 194.083 29.396 193.467 29.088C192.851 28.78 192.179 28.626 191.451 28.626C190.359 28.626 189.428 28.976 188.658 29.676C187.888 30.376 187.461 31.363 187.377 32.637H195.441ZM201.091 29.571C201.413 28.857 201.903 28.304 202.561 27.912C203.233 27.52 204.052 27.324 205.018 27.324V28.857H204.619C203.555 28.857 202.701 29.144 202.057 29.718C201.413 30.292 201.091 31.251 201.091 32.595V39H199.621V27.534H201.091V29.571ZM211.178 39.168C209.862 39.168 208.784 38.867 207.944 38.265C207.118 37.649 206.656 36.816 206.558 35.766H208.07C208.14 36.41 208.441 36.935 208.973 37.341C209.519 37.733 210.247 37.929 211.157 37.929C211.955 37.929 212.578 37.74 213.026 37.362C213.488 36.984 213.719 36.515 213.719 35.955C213.719 35.563 213.593 35.241 213.341 34.989C213.089 34.737 212.767 34.541 212.375 34.401C211.997 34.247 211.479 34.086 210.821 33.918C209.967 33.694 209.274 33.47 208.742 33.246C208.21 33.022 207.755 32.693 207.377 32.259C207.013 31.811 206.831 31.216 206.831 30.474C206.831 29.914 206.999 29.396 207.335 28.92C207.671 28.444 208.147 28.066 208.763 27.786C209.379 27.506 210.079 27.366 210.863 27.366C212.095 27.366 213.089 27.681 213.845 28.311C214.601 28.927 215.007 29.781 215.063 30.873H213.593C213.551 30.201 213.285 29.662 212.795 29.256C212.319 28.836 211.661 28.626 210.821 28.626C210.079 28.626 209.477 28.801 209.015 29.151C208.553 29.501 208.322 29.935 208.322 30.453C208.322 30.901 208.455 31.272 208.721 31.566C209.001 31.846 209.344 32.07 209.75 32.238C210.156 32.392 210.702 32.567 211.388 32.763C212.214 32.987 212.872 33.204 213.362 33.414C213.852 33.624 214.272 33.932 214.622 34.338C214.972 34.744 215.154 35.283 215.168 35.955C215.168 36.571 215 37.124 214.664 37.614C214.328 38.09 213.859 38.468 213.257 38.748C212.655 39.028 211.962 39.168 211.178 39.168Z" fill="#333333"/>
<path d="M22.683 94.708C22.771 92.354 23.541 90.539 24.993 89.263C26.445 87.987 28.414 87.349 30.9 87.349C32.55 87.349 33.958 87.635 35.124 88.207C36.312 88.779 37.203 89.56 37.797 90.55C38.413 91.54 38.721 92.651 38.721 93.883C38.721 95.335 38.358 96.523 37.632 97.447C36.906 98.349 36.059 98.965 35.091 99.295V99.427C36.345 99.845 37.335 100.538 38.061 101.506C38.787 102.474 39.15 103.717 39.15 105.235C39.15 106.599 38.831 107.809 38.193 108.865C37.577 109.899 36.664 110.713 35.454 111.307C34.266 111.901 32.847 112.198 31.197 112.198C28.557 112.198 26.445 111.549 24.861 110.251C23.299 108.953 22.474 106.995 22.386 104.377H27.864C27.886 105.345 28.161 106.115 28.689 106.687C29.217 107.237 29.987 107.512 30.999 107.512C31.857 107.512 32.517 107.27 32.979 106.786C33.463 106.28 33.705 105.62 33.705 104.806C33.705 103.75 33.364 102.991 32.682 102.529C32.022 102.045 30.955 101.803 29.481 101.803H28.425V97.216H29.481C30.603 97.216 31.505 97.029 32.187 96.655C32.891 96.259 33.243 95.566 33.243 94.576C33.243 93.784 33.023 93.168 32.583 92.728C32.143 92.288 31.538 92.068 30.768 92.068C29.932 92.068 29.305 92.321 28.887 92.827C28.491 93.333 28.26 93.96 28.194 94.708H22.683ZM49.0985 106.786L45.4355 116.257H41.8385L43.7525 106.786H49.0985ZM52.1381 94.708C52.2261 92.354 52.9961 90.539 54.4481 89.263C55.9001 87.987 57.8691 87.349 60.3551 87.349C62.0051 87.349 63.4131 87.635 64.5791 88.207C65.7671 88.779 66.6581 89.56 67.2521 90.55C67.8681 91.54 68.1761 92.651 68.1761 93.883C68.1761 95.335 67.8131 96.523 67.0871 97.447C66.3611 98.349 65.5141 98.965 64.5461 99.295V99.427C65.8001 99.845 66.7901 100.538 67.5161 101.506C68.2421 102.474 68.6051 103.717 68.6051 105.235C68.6051 106.599 68.2861 107.809 67.6481 108.865C67.0321 109.899 66.1191 110.713 64.9091 111.307C63.7211 111.901 62.3021 112.198 60.6521 112.198C58.0121 112.198 55.9001 111.549 54.3161 110.251C52.7541 108.953 51.9291 106.995 51.8411 104.377H57.3191C57.3411 105.345 57.6161 106.115 58.1441 106.687C58.6721 107.237 59.4421 107.512 60.4541 107.512C61.3121 107.512 61.9721 107.27 62.4341 106.786C62.9181 106.28 63.1601 105.62 63.1601 104.806C63.1601 103.75 62.8191 102.991 62.1371 102.529C61.4771 102.045 60.4101 101.803 58.9361 101.803H57.8801V97.216H58.9361C60.0581 97.216 60.9601 97.029 61.6421 96.655C62.3461 96.259 62.6981 95.566 62.6981 94.576C62.6981 93.784 62.4781 93.168 62.0381 92.728C61.5981 92.288 60.9931 92.068 60.2231 92.068C59.3871 92.068 58.7601 92.321 58.3421 92.827C57.9461 93.333 57.7151 93.96 57.6491 94.708H52.1381ZM88.8825 92.827H78.5865V97.381C79.0265 96.897 79.6425 96.501 80.4345 96.193C81.2265 95.885 82.0845 95.731 83.0085 95.731C84.6585 95.731 86.0225 96.105 87.1005 96.853C88.2005 97.601 89.0035 98.569 89.5095 99.757C90.0155 100.945 90.2685 102.232 90.2685 103.618C90.2685 106.192 89.5425 108.238 88.0905 109.756C86.6385 111.252 84.5925 112 81.9525 112C80.1925 112 78.6635 111.703 77.3655 111.109C76.0675 110.493 75.0665 109.646 74.3625 108.568C73.6585 107.49 73.2735 106.247 73.2075 104.839H78.7185C78.8505 105.521 79.1695 106.093 79.6755 106.555C80.1815 106.995 80.8745 107.215 81.7545 107.215C82.7885 107.215 83.5585 106.885 84.0645 106.225C84.5705 105.565 84.8235 104.685 84.8235 103.585C84.8235 102.507 84.5595 101.682 84.0315 101.11C83.5035 100.538 82.7335 100.252 81.7215 100.252C80.9735 100.252 80.3575 100.439 79.8735 100.813C79.3895 101.165 79.0705 101.638 78.9165 102.232H73.4715V87.877H88.8825V92.827ZM93.5154 107.71V103.156L103.943 88.24H110.246V102.826H112.952V107.71H110.246V112H104.603V107.71H93.5154ZM104.999 94.444L99.4554 102.826H104.999V94.444Z" fill="#333333"/>
<rect x="21" y="127" width="60" height="26" rx="4" fill="#018E42" fill-opacity="0.1"/>
<path d="M34 142.167C33.8733 142.167 33.7467 142.12 33.6467 142.02C33.4533 141.827 33.4533 141.507 33.6467 141.313L35.78 139.18C35.8867 139.073 36.0267 139.02 36.18 139.033C36.3267 139.047 36.46 139.127 36.5467 139.253L37.2733 140.347L39.64 137.98C39.8333 137.787 40.1533 137.787 40.3467 137.98C40.54 138.173 40.54 138.493 40.3467 138.687L37.5467 141.487C37.44 141.593 37.3 141.647 37.1467 141.633C37 141.62 36.8667 141.54 36.78 141.413L36.0533 140.32L34.3533 142.02C34.2533 142.12 34.1267 142.167 34 142.167Z" fill="#018E42"/>
<path d="M40 140.167C39.7267 140.167 39.5 139.94 39.5 139.667V138.833H38.6667C38.3933 138.833 38.1667 138.607 38.1667 138.333C38.1667 138.06 38.3933 137.833 38.6667 137.833H40C40.2733 137.833 40.5 138.06 40.5 138.333V139.667C40.5 139.94 40.2733 140.167 40 140.167Z" fill="#018E42"/>
<path d="M39 147.167H35C31.38 147.167 29.8333 145.62 29.8333 142V138C29.8333 134.38 31.38 132.833 35 132.833H39C42.62 132.833 44.1667 134.38 44.1667 138V142C44.1667 145.62 42.62 147.167 39 147.167ZM35 133.833C31.9267 133.833 30.8333 134.927 30.8333 138V142C30.8333 145.073 31.9267 146.167 35 146.167H39C42.0733 146.167 43.1667 145.073 43.1667 142V138C43.1667 134.927 42.0733 133.833 39 133.833H35Z" fill="#018E42"/>
<path d="M49.612 143.124C50.628 142.308 51.424 141.64 52 141.12C52.576 140.592 53.06 140.044 53.452 139.476C53.852 138.9 54.052 138.336 54.052 137.784C54.052 137.264 53.924 136.856 53.668 136.56C53.42 136.256 53.016 136.104 52.456 136.104C51.912 136.104 51.488 136.276 51.184 136.62C50.888 136.956 50.728 137.408 50.704 137.976H49.648C49.68 137.08 49.952 136.388 50.464 135.9C50.976 135.412 51.636 135.168 52.444 135.168C53.268 135.168 53.92 135.396 54.4 135.852C54.888 136.308 55.132 136.936 55.132 137.736C55.132 138.4 54.932 139.048 54.532 139.68C54.14 140.304 53.692 140.856 53.188 141.336C52.684 141.808 52.04 142.36 51.256 142.992H55.384V143.904H49.612V143.124ZM56.6463 139.572C56.6463 138.196 56.8703 137.124 57.3183 136.356C57.7663 135.58 58.5503 135.192 59.6703 135.192C60.7823 135.192 61.5623 135.58 62.0103 136.356C62.4583 137.124 62.6823 138.196 62.6823 139.572C62.6823 140.972 62.4583 142.06 62.0103 142.836C61.5623 143.612 60.7823 144 59.6703 144C58.5503 144 57.7663 143.612 57.3183 142.836C56.8703 142.06 56.6463 140.972 56.6463 139.572ZM61.6023 139.572C61.6023 138.876 61.5543 138.288 61.4583 137.808C61.3703 137.32 61.1823 136.928 60.8943 136.632C60.6143 136.336 60.2063 136.188 59.6703 136.188C59.1263 136.188 58.7103 136.336 58.4223 136.632C58.1423 136.928 57.9543 137.32 57.8583 137.808C57.7703 138.288 57.7263 138.876 57.7263 139.572C57.7263 140.292 57.7703 140.896 57.8583 141.384C57.9543 141.872 58.1423 142.264 58.4223 142.56C58.7103 142.856 59.1263 143.004 59.6703 143.004C60.2063 143.004 60.6143 142.856 60.8943 142.56C61.1823 142.264 61.3703 141.872 61.4583 141.384C61.5543 140.896 61.6023 140.292 61.6023 139.572ZM63.9415 137.28C63.9415 136.736 64.1055 136.304 64.4335 135.984C64.7615 135.656 65.1815 135.492 65.6935 135.492C66.2055 135.492 66.6255 135.656 66.9535 135.984C67.2815 136.304 67.4455 136.736 67.4455 137.28C67.4455 137.832 67.2815 138.272 66.9535 138.6C66.6255 138.92 66.2055 139.08 65.6935 139.08C65.1815 139.08 64.7615 138.92 64.4335 138.6C64.1055 138.272 63.9415 137.832 63.9415 137.28ZM70.9495 135.624L66.0895 144H65.0095L69.8695 135.624H70.9495ZM65.6935 136.164C65.4215 136.164 65.2055 136.26 65.0455 136.452C64.8935 136.636 64.8175 136.912 64.8175 137.28C64.8175 137.648 64.8935 137.928 65.0455 138.12C65.2055 138.312 65.4215 138.408 65.6935 138.408C65.9655 138.408 66.1815 138.312 66.3415 138.12C66.5015 137.92 66.5815 137.64 66.5815 137.28C66.5815 136.912 66.5015 136.636 66.3415 136.452C66.1815 136.26 65.9655 136.164 65.6935 136.164ZM68.5375 142.344C68.5375 141.792 68.7015 141.356 69.0295 141.036C69.3575 140.708 69.7775 140.544 70.2895 140.544C70.8015 140.544 71.2175 140.708 71.5375 141.036C71.8655 141.356 72.0295 141.792 72.0295 142.344C72.0295 142.888 71.8655 143.324 71.5375 143.652C71.2175 143.98 70.8015 144.144 70.2895 144.144C69.7775 144.144 69.3575 143.984 69.0295 143.664C68.7015 143.336 68.5375 142.896 68.5375 142.344ZM70.2775 141.228C70.0055 141.228 69.7895 141.324 69.6295 141.516C69.4695 141.7 69.3895 141.976 69.3895 142.344C69.3895 142.704 69.4695 142.98 69.6295 143.172C69.7895 143.356 70.0055 143.448 70.2775 143.448C70.5495 143.448 70.7655 143.356 70.9255 143.172C71.0855 142.98 71.1655 142.704 71.1655 142.344C71.1655 141.976 71.0855 141.7 70.9255 141.516C70.7655 141.324 70.5495 141.228 70.2775 141.228Z" fill="#018E42"/>
<path d="M93.714 143.478C94.8993 142.526 95.828 141.747 96.5 141.14C97.172 140.524 97.7367 139.885 98.194 139.222C98.6607 138.55 98.894 137.892 98.894 137.248C98.894 136.641 98.7447 136.165 98.446 135.82C98.1567 135.465 97.6853 135.288 97.032 135.288C96.3973 135.288 95.9027 135.489 95.548 135.89C95.2027 136.282 95.016 136.809 94.988 137.472H93.756C93.7933 136.427 94.1107 135.619 94.708 135.05C95.3053 134.481 96.0753 134.196 97.018 134.196C97.9793 134.196 98.74 134.462 99.3 134.994C99.8693 135.526 100.154 136.259 100.154 137.192C100.154 137.967 99.9207 138.723 99.454 139.46C98.9967 140.188 98.474 140.832 97.886 141.392C97.298 141.943 96.5467 142.587 95.632 143.324H100.448V144.388H93.714V143.478ZM101.893 136.926C101.958 136.067 102.289 135.395 102.887 134.91C103.484 134.425 104.259 134.182 105.211 134.182C105.845 134.182 106.391 134.299 106.849 134.532C107.315 134.756 107.665 135.064 107.899 135.456C108.141 135.848 108.263 136.291 108.263 136.786C108.263 137.365 108.095 137.864 107.759 138.284C107.432 138.704 107.003 138.975 106.471 139.096V139.166C107.077 139.315 107.558 139.609 107.913 140.048C108.267 140.487 108.445 141.061 108.445 141.77C108.445 142.302 108.323 142.783 108.081 143.212C107.838 143.632 107.474 143.963 106.989 144.206C106.503 144.449 105.92 144.57 105.239 144.57C104.249 144.57 103.437 144.313 102.803 143.8C102.168 143.277 101.813 142.54 101.739 141.588H102.971C103.036 142.148 103.265 142.605 103.657 142.96C104.049 143.315 104.571 143.492 105.225 143.492C105.878 143.492 106.373 143.324 106.709 142.988C107.054 142.643 107.227 142.199 107.227 141.658C107.227 140.958 106.993 140.454 106.527 140.146C106.06 139.838 105.355 139.684 104.413 139.684H104.091V138.62H104.427C105.285 138.611 105.934 138.471 106.373 138.2C106.811 137.92 107.031 137.491 107.031 136.912C107.031 136.417 106.867 136.021 106.541 135.722C106.223 135.423 105.766 135.274 105.169 135.274C104.59 135.274 104.123 135.423 103.769 135.722C103.414 136.021 103.204 136.422 103.139 136.926H101.893ZM109.857 142.246V141.28L114.771 134.476H116.297V141.14H117.697V142.246H116.297V144.5H115.037V142.246H109.857ZM115.093 135.806L111.327 141.14H115.093V135.806Z" fill="#333333"/>
<path d="M173.259 141.964V147.5H172.531V143.372L170.691 147.5H170.179L168.331 143.364V147.5H167.603V141.964H168.387L170.435 146.54L172.483 141.964H173.259Z" fill="#333333"/>
<path d="M193.866 141.924V142.516H192.346V147.5H191.618V142.516H190.09V141.924H193.866Z" fill="#333333"/>
<path d="M216.326 141.924L214.71 147.5H213.894L212.598 143.012L211.254 147.5L210.446 147.508L208.886 141.924H209.662L210.878 146.652L212.222 141.924H213.038L214.318 146.636L215.542 141.924H216.326Z" fill="#333333"/>
<path d="M236.324 141.924V142.516H234.804V147.5H234.076V142.516H232.548V141.924H236.324Z" fill="#333333"/>
<path d="M257.528 141.924V142.516H255.104V144.396H257.072V144.988H255.104V147.5H254.376V141.924H257.528Z" fill="#333333"/>
<path d="M277.148 147.556C276.78 147.556 276.449 147.492 276.156 147.364C275.868 147.231 275.641 147.049 275.476 146.82C275.311 146.585 275.225 146.316 275.22 146.012H275.996C276.023 146.273 276.129 146.495 276.316 146.676C276.508 146.852 276.785 146.94 277.148 146.94C277.495 146.94 277.767 146.855 277.964 146.684C278.167 146.508 278.268 146.284 278.268 146.012C278.268 145.799 278.209 145.625 278.092 145.492C277.975 145.359 277.828 145.257 277.652 145.188C277.476 145.119 277.239 145.044 276.94 144.964C276.572 144.868 276.276 144.772 276.052 144.676C275.833 144.58 275.644 144.431 275.484 144.228C275.329 144.02 275.252 143.743 275.252 143.396C275.252 143.092 275.329 142.823 275.484 142.588C275.639 142.353 275.855 142.172 276.132 142.044C276.415 141.916 276.737 141.852 277.1 141.852C277.623 141.852 278.049 141.983 278.38 142.244C278.716 142.505 278.905 142.852 278.948 143.284H278.148C278.121 143.071 278.009 142.884 277.812 142.724C277.615 142.559 277.353 142.476 277.028 142.476C276.724 142.476 276.476 142.556 276.284 142.716C276.092 142.871 275.996 143.089 275.996 143.372C275.996 143.575 276.052 143.74 276.164 143.868C276.281 143.996 276.423 144.095 276.588 144.164C276.759 144.228 276.996 144.303 277.3 144.388C277.668 144.489 277.964 144.591 278.188 144.692C278.412 144.788 278.604 144.94 278.764 145.148C278.924 145.351 279.004 145.628 279.004 145.98C279.004 146.252 278.932 146.508 278.788 146.748C278.644 146.988 278.431 147.183 278.148 147.332C277.865 147.481 277.532 147.556 277.148 147.556Z" fill="#333333"/>
<path d="M298.484 147.556C298.116 147.556 297.785 147.492 297.492 147.364C297.204 147.231 296.977 147.049 296.812 146.82C296.646 146.585 296.561 146.316 296.556 146.012H297.332C297.358 146.273 297.465 146.495 297.652 146.676C297.844 146.852 298.121 146.94 298.484 146.94C298.83 146.94 299.102 146.855 299.3 146.684C299.502 146.508 299.604 146.284 299.604 146.012C299.604 145.799 299.545 145.625 299.428 145.492C299.31 145.359 299.164 145.257 298.988 145.188C298.812 145.119 298.574 145.044 298.276 144.964C297.908 144.868 297.612 144.772 297.388 144.676C297.169 144.58 296.98 144.431 296.82 144.228C296.665 144.02 296.588 143.743 296.588 143.396C296.588 143.092 296.665 142.823 296.82 142.588C296.974 142.353 297.19 142.172 297.468 142.044C297.75 141.916 298.073 141.852 298.436 141.852C298.958 141.852 299.385 141.983 299.716 142.244C300.052 142.505 300.241 142.852 300.284 143.284H299.484C299.457 143.071 299.345 142.884 299.148 142.724C298.95 142.559 298.689 142.476 298.364 142.476C298.06 142.476 297.812 142.556 297.62 142.716C297.428 142.871 297.332 143.089 297.332 143.372C297.332 143.575 297.388 143.74 297.5 143.868C297.617 143.996 297.758 144.095 297.924 144.164C298.094 144.228 298.332 144.303 298.636 144.388C299.004 144.489 299.3 144.591 299.524 144.692C299.748 144.788 299.94 144.94 300.1 145.148C300.26 145.351 300.34 145.628 300.34 145.98C300.34 146.252 300.268 146.508 300.124 146.748C299.98 146.988 299.766 147.183 299.484 147.332C299.201 147.481 298.868 147.556 298.484 147.556Z" fill="#333333"/>
<path d="M171 135.5L192.251 68.38L214.5 96H229.5L256.258 56.3L277.594 84.94L298.5 135.5" fill="url(#paint0_linear_1_75)"/>
<rect x="4.5" y="0.5" width="317" height="173" rx="10.5" stroke="#333333" stroke-opacity="0.1" shape-rendering="crispEdges"/>
</g>
<defs>
<filter id="filter0_d_1_75" x="0" y="0" width="326" height="182" filterUnits="userSpaceOnUse" color-interpolation-filters="sRGB">
<feFlood flood-opacity="0" result="BackgroundImageFix"/>
<feColorMatrix in="SourceAlpha" type="matrix" values="0 0 0 0 0 0 0 0 0 0 0 0 0 0 0 0 0 0 127 0" result="hardAlpha"/>
<feOffset dy="4"/>
<feGaussianBlur stdDeviation="2"/>
<feComposite in2="hardAlpha" operator="out"/>
<feColorMatrix type="matrix" values="0 0 0 0 0.0941176 0 0 0 0 0.470588 0 0 0 0 0.94902 0 0 0 0.25 0"/>
<feBlend mode="normal" in2="BackgroundImageFix" result="effect1_dropShadow_1_75"/>
<feBlend mode="normal" in="SourceGraphic" in2="effect1_dropShadow_1_75" result="shape"/>
</filter>
<linearGradient id="paint0_linear_1_75" x1="234.75" y1="56" x2="234.75" y2="144" gradientUnits="userSpaceOnUse">
<stop stop-color="#018E42"/>
<stop offset="1" stop-color="#F9F9F9"/>
</linearGradient>
</defs>
</svg>
