<svg width="1037" height="471" viewBox="0 0 1037 471" fill="none" xmlns="http://www.w3.org/2000/svg">
<g filter="url(#filter0_d_1_228)">
<g filter="url(#filter1_d_1_228)">
<rect x="29" y="22" width="996" height="413" rx="10" fill="white"/>
</g>
<path d="M128.755 391.049C128.806 390.375 129.067 389.847 129.536 389.465C130.005 389.084 130.614 388.893 131.362 388.893C131.861 388.893 132.29 388.985 132.649 389.168C133.016 389.344 133.291 389.586 133.474 389.894C133.665 390.202 133.76 390.551 133.76 390.939C133.76 391.394 133.628 391.786 133.364 392.116C133.107 392.446 132.77 392.659 132.352 392.754L132.352 392.809C132.829 392.927 133.206 393.158 133.485 393.502C133.764 393.847 133.903 394.298 133.903 394.855C133.903 395.273 133.808 395.651 133.617 395.988C133.426 396.318 133.14 396.579 132.759 396.769C132.378 396.96 131.919 397.055 131.384 397.055C130.607 397.055 129.969 396.854 129.47 396.45C128.971 396.04 128.693 395.46 128.634 394.712H129.602C129.653 395.152 129.833 395.512 130.141 395.79C130.449 396.069 130.86 396.208 131.373 396.208C131.886 396.208 132.275 396.076 132.539 395.812C132.81 395.541 132.946 395.193 132.946 394.767C132.946 394.217 132.763 393.821 132.396 393.579C132.029 393.337 131.476 393.216 130.735 393.216H130.482L130.482 392.38H130.746C131.421 392.373 131.93 392.263 132.275 392.05C132.62 391.83 132.792 391.493 132.792 391.038C132.792 390.65 132.664 390.338 132.407 390.103C132.158 389.869 131.798 389.751 131.329 389.751C130.874 389.751 130.508 389.869 130.229 390.103C129.95 390.338 129.785 390.653 129.734 391.049H128.755ZM142.213 389.333L142.213 394.998C142.213 395.629 142.019 396.135 141.63 396.516C141.241 396.89 140.728 397.077 140.09 397.077C139.445 397.077 138.928 396.887 138.539 396.505C138.15 396.117 137.956 395.589 137.956 394.921H138.957C138.964 395.295 139.06 395.6 139.243 395.834C139.434 396.069 139.716 396.186 140.09 396.186C140.464 396.186 140.743 396.076 140.926 395.856C141.109 395.629 141.201 395.343 141.201 394.998L141.201 389.333H142.213ZM149.531 390.972L149.531 397H148.53L148.53 396.109C148.339 396.417 148.072 396.659 147.727 396.835C147.39 397.004 147.016 397.088 146.605 397.088C146.136 397.088 145.714 396.993 145.34 396.802C144.966 396.604 144.669 396.311 144.449 395.922C144.236 395.534 144.13 395.061 144.13 394.503L144.13 390.972H145.12L145.12 394.371C145.12 394.965 145.27 395.424 145.571 395.746C145.872 396.062 146.282 396.219 146.803 396.219C147.338 396.219 147.76 396.054 148.068 395.724C148.376 395.394 148.53 394.914 148.53 394.283L148.53 390.972H149.531ZM154.158 390.862C154.892 390.862 155.486 391.086 155.94 391.533C156.395 391.973 156.622 392.611 156.622 393.447L156.622 397H155.632L155.632 393.59C155.632 392.989 155.482 392.531 155.181 392.215C154.881 391.893 154.47 391.731 153.949 391.731C153.421 391.731 153 391.896 152.684 392.226C152.376 392.556 152.222 393.037 152.222 393.667L152.222 397H151.221L151.221 390.972H152.222L152.222 391.83C152.42 391.522 152.688 391.284 153.025 391.115C153.37 390.947 153.748 390.862 154.158 390.862Z" fill="#333333"/>
<path d="M352.4 390.939C352.238 390.125 351.736 389.718 350.893 389.718C350.24 389.718 349.752 389.971 349.43 390.477C349.107 390.976 348.949 391.801 348.957 392.952C349.125 392.571 349.404 392.274 349.793 392.061C350.189 391.841 350.629 391.731 351.113 391.731C351.868 391.731 352.469 391.966 352.917 392.435C353.371 392.905 353.599 393.554 353.599 394.382C353.599 394.881 353.5 395.328 353.302 395.724C353.111 396.12 352.818 396.436 352.422 396.67C352.033 396.905 351.56 397.022 351.003 397.022C350.247 397.022 349.657 396.854 349.232 396.516C348.806 396.179 348.509 395.713 348.341 395.119C348.172 394.525 348.088 393.792 348.088 392.919C348.088 390.228 349.026 388.882 350.904 388.882C351.622 388.882 352.187 389.077 352.598 389.465C353.008 389.854 353.25 390.345 353.324 390.939H352.4ZM350.904 392.578C350.588 392.578 350.291 392.644 350.013 392.776C349.734 392.901 349.507 393.095 349.331 393.359C349.162 393.616 349.078 393.931 349.078 394.305C349.078 394.863 349.239 395.317 349.562 395.669C349.884 396.014 350.346 396.186 350.948 396.186C351.461 396.186 351.868 396.029 352.169 395.713C352.477 395.391 352.631 394.958 352.631 394.415C352.631 393.843 352.484 393.396 352.191 393.073C351.897 392.743 351.468 392.578 350.904 392.578ZM361.908 389.333L361.908 394.998C361.908 395.629 361.713 396.135 361.325 396.516C360.936 396.89 360.423 397.077 359.785 397.077C359.139 397.077 358.622 396.887 358.234 396.505C357.845 396.117 357.651 395.589 357.651 394.921H358.652C358.659 395.295 358.754 395.6 358.938 395.834C359.128 396.069 359.411 396.186 359.785 396.186C360.159 396.186 360.437 396.076 360.621 395.856C360.804 395.629 360.896 395.343 360.896 394.998L360.896 389.333H361.908ZM369.226 390.972L369.226 397H368.225L368.225 396.109C368.034 396.417 367.766 396.659 367.422 396.835C367.084 397.004 366.71 397.088 366.3 397.088C365.83 397.088 365.409 396.993 365.035 396.802C364.661 396.604 364.364 396.311 364.144 395.922C363.931 395.534 363.825 395.061 363.825 394.503L363.825 390.972H364.815L364.815 394.371C364.815 394.965 364.965 395.424 365.266 395.746C365.566 396.062 365.977 396.219 366.498 396.219C367.033 396.219 367.455 396.054 367.763 395.724C368.071 395.394 368.225 394.914 368.225 394.283L368.225 390.972H369.226ZM373.853 390.862C374.586 390.862 375.18 391.086 375.635 391.533C376.09 391.973 376.317 392.611 376.317 393.447L376.317 397H375.327L375.327 393.59C375.327 392.989 375.177 392.531 374.876 392.215C374.575 391.893 374.165 391.731 373.644 391.731C373.116 391.731 372.694 391.896 372.379 392.226C372.071 392.556 371.917 393.037 371.917 393.667L371.917 397H370.916L370.916 390.972H371.917L371.917 391.83C372.115 391.522 372.383 391.284 372.72 391.115C373.065 390.947 373.442 390.862 373.853 390.862Z" fill="#333333"/>
<path d="M569.619 394.866C569.692 395.284 569.861 395.607 570.125 395.834C570.396 396.062 570.759 396.175 571.214 396.175C571.823 396.175 572.27 395.937 572.556 395.46C572.849 394.984 572.989 394.181 572.974 393.051C572.82 393.381 572.563 393.642 572.204 393.832C571.845 394.016 571.445 394.107 571.005 394.107C570.514 394.107 570.074 394.008 569.685 393.81C569.304 393.605 569.003 393.308 568.783 392.919C568.563 392.531 568.453 392.061 568.453 391.511C568.453 390.727 568.68 390.096 569.135 389.619C569.59 389.135 570.235 388.893 571.071 388.893C572.098 388.893 572.816 389.227 573.227 389.894C573.645 390.562 573.854 391.555 573.854 392.875C573.854 393.799 573.77 394.562 573.601 395.163C573.44 395.765 573.161 396.223 572.765 396.538C572.376 396.854 571.841 397.011 571.159 397.011C570.411 397.011 569.828 396.81 569.41 396.406C568.992 396.003 568.754 395.49 568.695 394.866H569.619ZM571.17 393.26C571.661 393.26 572.065 393.11 572.38 392.809C572.695 392.501 572.853 392.087 572.853 391.566C572.853 391.016 572.699 390.573 572.391 390.235C572.083 389.898 571.65 389.729 571.093 389.729C570.58 389.729 570.169 389.891 569.861 390.213C569.56 390.536 569.41 390.961 569.41 391.489C569.41 392.025 569.56 392.454 569.861 392.776C570.162 393.099 570.598 393.26 571.17 393.26ZM582.219 389.333L582.219 394.998C582.219 395.629 582.025 396.135 581.636 396.516C581.248 396.89 580.734 397.077 580.096 397.077C579.451 397.077 578.934 396.887 578.545 396.505C578.157 396.117 577.962 395.589 577.962 394.921H578.963C578.971 395.295 579.066 395.6 579.249 395.834C579.44 396.069 579.722 396.186 580.096 396.186C580.47 396.186 580.749 396.076 580.932 395.856C581.116 395.629 581.207 395.343 581.207 394.998L581.207 389.333H582.219ZM589.537 390.972L589.537 397H588.536L588.536 396.109C588.346 396.417 588.078 396.659 587.733 396.835C587.396 397.004 587.022 397.088 586.611 397.088C586.142 397.088 585.72 396.993 585.346 396.802C584.972 396.604 584.675 396.311 584.455 395.922C584.243 395.534 584.136 395.061 584.136 394.503L584.136 390.972H585.126L585.126 394.371C585.126 394.965 585.277 395.424 585.577 395.746C585.878 396.062 586.289 396.219 586.809 396.219C587.345 396.219 587.766 396.054 588.074 395.724C588.382 395.394 588.536 394.914 588.536 394.283L588.536 390.972H589.537ZM594.164 390.862C594.898 390.862 595.492 391.086 595.946 391.533C596.401 391.973 596.628 392.611 596.628 393.447L596.628 397H595.638L595.638 393.59C595.638 392.989 595.488 392.531 595.187 392.215C594.887 391.893 594.476 391.731 593.955 391.731C593.427 391.731 593.006 391.896 592.69 392.226C592.382 392.556 592.228 393.037 592.228 393.667L592.228 397H591.227L591.227 390.972H592.228L592.228 391.83C592.426 391.522 592.694 391.284 593.031 391.115C593.376 390.947 593.754 390.862 594.164 390.862Z" fill="#333333"/>
<path d="M795.902 389.96L795.902 389.047H797.97L797.97 397H796.958L796.958 389.96H795.902ZM799.568 396.197C800.499 395.449 801.229 394.837 801.757 394.36C802.285 393.876 802.729 393.374 803.088 392.853C803.455 392.325 803.638 391.808 803.638 391.302C803.638 390.826 803.521 390.452 803.286 390.18C803.059 389.902 802.688 389.762 802.175 389.762C801.676 389.762 801.288 389.92 801.009 390.235C800.738 390.543 800.591 390.958 800.569 391.478H799.601C799.63 390.657 799.88 390.023 800.349 389.575C800.818 389.128 801.423 388.904 802.164 388.904C802.919 388.904 803.517 389.113 803.957 389.531C804.404 389.949 804.628 390.525 804.628 391.258C804.628 391.867 804.445 392.461 804.078 393.04C803.719 393.612 803.308 394.118 802.846 394.558C802.384 394.991 801.794 395.497 801.075 396.076H804.859L804.859 396.912H799.568L799.568 396.197ZM812.975 389.333L812.975 394.998C812.975 395.629 812.78 396.135 812.392 396.516C812.003 396.89 811.49 397.077 810.852 397.077C810.206 397.077 809.689 396.887 809.301 396.505C808.912 396.117 808.718 395.589 808.718 394.921H809.719C809.726 395.295 809.821 395.6 810.005 395.834C810.195 396.069 810.478 396.186 810.852 396.186C811.226 396.186 811.504 396.076 811.688 395.856C811.871 395.629 811.963 395.343 811.963 394.998L811.963 389.333H812.975ZM820.293 390.972L820.293 397H819.292L819.292 396.109C819.101 396.417 818.833 396.659 818.489 396.835C818.151 397.004 817.777 397.088 817.367 397.088C816.897 397.088 816.476 396.993 816.102 396.802C815.728 396.604 815.431 396.311 815.211 395.922C814.998 395.534 814.892 395.061 814.892 394.503L814.892 390.972H815.882L815.882 394.371C815.882 394.965 816.032 395.424 816.333 395.746C816.633 396.062 817.044 396.219 817.565 396.219C818.1 396.219 818.522 396.054 818.83 395.724C819.138 395.394 819.292 394.914 819.292 394.283L819.292 390.972H820.293ZM824.92 390.862C825.653 390.862 826.247 391.086 826.702 391.533C827.157 391.973 827.384 392.611 827.384 393.447L827.384 397H826.394L826.394 393.59C826.394 392.989 826.244 392.531 825.943 392.215C825.642 391.893 825.232 391.731 824.711 391.731C824.183 391.731 823.761 391.896 823.446 392.226C823.138 392.556 822.984 393.037 822.984 393.667L822.984 397H821.983L821.983 390.972H822.984L822.984 391.83C823.182 391.522 823.45 391.284 823.787 391.115C824.132 390.947 824.509 390.862 824.92 390.862Z" fill="#333333"/>
<path d="M199.969 395.229L199.969 394.47L203.83 389.124H205.029L205.029 394.36H206.129L206.129 395.229H205.029L205.029 397H204.039L204.039 395.229H199.969ZM204.083 390.169L201.124 394.36H204.083L204.083 390.169ZM214.087 389.333L214.087 394.998C214.087 395.629 213.893 396.135 213.504 396.516C213.116 396.89 212.602 397.077 211.964 397.077C211.319 397.077 210.802 396.887 210.413 396.505C210.025 396.117 209.83 395.589 209.83 394.921H210.831C210.839 395.295 210.934 395.6 211.117 395.834C211.308 396.069 211.59 396.186 211.964 396.186C212.338 396.186 212.617 396.076 212.8 395.856C212.984 395.629 213.075 395.343 213.075 394.998L213.075 389.333H214.087ZM221.405 390.972L221.405 397H220.404L220.404 396.109C220.214 396.417 219.946 396.659 219.601 396.835C219.264 397.004 218.89 397.088 218.479 397.088C218.01 397.088 217.588 396.993 217.214 396.802C216.84 396.604 216.543 396.311 216.323 395.922C216.111 395.534 216.004 395.061 216.004 394.503L216.004 390.972H216.994L216.994 394.371C216.994 394.965 217.145 395.424 217.445 395.746C217.746 396.062 218.157 396.219 218.677 396.219C219.213 396.219 219.634 396.054 219.942 395.724C220.25 395.394 220.404 394.914 220.404 394.283L220.404 390.972H221.405ZM226.032 390.862C226.766 390.862 227.36 391.086 227.814 391.533C228.269 391.973 228.496 392.611 228.496 393.447L228.496 397H227.506L227.506 393.59C227.506 392.989 227.356 392.531 227.055 392.215C226.755 391.893 226.344 391.731 225.823 391.731C225.295 391.731 224.874 391.896 224.558 392.226C224.25 392.556 224.096 393.037 224.096 393.667L224.096 397H223.095L223.095 390.972H224.096L224.096 391.83C224.294 391.522 224.562 391.284 224.899 391.115C225.244 390.947 225.622 390.862 226.032 390.862Z" fill="#333333"/>
<path d="M427.693 389.828L424.635 397H423.623L426.725 389.927H422.479L422.479 389.069H427.693L427.693 389.828ZM435.761 389.333L435.761 394.998C435.761 395.629 435.567 396.135 435.178 396.516C434.79 396.89 434.276 397.077 433.638 397.077C432.993 397.077 432.476 396.887 432.087 396.505C431.699 396.117 431.504 395.589 431.504 394.921H432.505C432.513 395.295 432.608 395.6 432.791 395.834C432.982 396.069 433.264 396.186 433.638 396.186C434.012 396.186 434.291 396.076 434.474 395.856C434.658 395.629 434.749 395.343 434.749 394.998L434.749 389.333H435.761ZM443.079 390.972L443.079 397H442.078L442.078 396.109C441.888 396.417 441.62 396.659 441.275 396.835C440.938 397.004 440.564 397.088 440.153 397.088C439.684 397.088 439.262 396.993 438.888 396.802C438.514 396.604 438.217 396.311 437.997 395.922C437.785 395.534 437.678 395.061 437.678 394.503L437.678 390.972H438.668L438.668 394.371C438.668 394.965 438.819 395.424 439.119 395.746C439.42 396.062 439.831 396.219 440.351 396.219C440.887 396.219 441.308 396.054 441.616 395.724C441.924 395.394 442.078 394.914 442.078 394.283L442.078 390.972H443.079ZM447.706 390.862C448.44 390.862 449.034 391.086 449.488 391.533C449.943 391.973 450.17 392.611 450.17 393.447L450.17 397H449.18L449.18 393.59C449.18 392.989 449.03 392.531 448.729 392.215C448.429 391.893 448.018 391.731 447.497 391.731C446.969 391.731 446.548 391.896 446.232 392.226C445.924 392.556 445.77 393.037 445.77 393.667L445.77 397H444.769L444.769 390.972H445.77L445.77 391.83C445.968 391.522 446.236 391.284 446.573 391.115C446.918 390.947 447.296 390.862 447.706 390.862Z" fill="#333333"/>
<path d="M642.451 389.96L642.451 389.047H644.519L644.519 397H643.507L643.507 389.96H642.451ZM646.238 392.941C646.238 391.68 646.443 390.697 646.854 389.993C647.265 389.282 647.983 388.926 649.01 388.926C650.029 388.926 650.744 389.282 651.155 389.993C651.566 390.697 651.771 391.68 651.771 392.941C651.771 394.225 651.566 395.222 651.155 395.933C650.744 396.645 650.029 397 649.01 397C647.983 397 647.265 396.645 646.854 395.933C646.443 395.222 646.238 394.225 646.238 392.941ZM650.781 392.941C650.781 392.303 650.737 391.764 650.649 391.324C650.568 390.877 650.396 390.518 650.132 390.246C649.875 389.975 649.501 389.839 649.01 389.839C648.511 389.839 648.13 389.975 647.866 390.246C647.609 390.518 647.437 390.877 647.349 391.324C647.268 391.764 647.228 392.303 647.228 392.941C647.228 393.601 647.268 394.155 647.349 394.602C647.437 395.05 647.609 395.409 647.866 395.68C648.13 395.952 648.511 396.087 649.01 396.087C649.501 396.087 649.875 395.952 650.132 395.68C650.396 395.409 650.568 395.05 650.649 394.602C650.737 394.155 650.781 393.601 650.781 392.941ZM660.104 389.333L660.104 394.998C660.104 395.629 659.91 396.135 659.521 396.516C659.132 396.89 658.619 397.077 657.981 397.077C657.336 397.077 656.819 396.887 656.43 396.505C656.041 396.117 655.847 395.589 655.847 394.921H656.848C656.855 395.295 656.951 395.6 657.134 395.834C657.325 396.069 657.607 396.186 657.981 396.186C658.355 396.186 658.634 396.076 658.817 395.856C659 395.629 659.092 395.343 659.092 394.998L659.092 389.333H660.104ZM667.422 390.972L667.422 397H666.421L666.421 396.109C666.23 396.417 665.963 396.659 665.618 396.835C665.281 397.004 664.907 397.088 664.496 397.088C664.027 397.088 663.605 396.993 663.231 396.802C662.857 396.604 662.56 396.311 662.34 395.922C662.127 395.534 662.021 395.061 662.021 394.503L662.021 390.972H663.011L663.011 394.371C663.011 394.965 663.161 395.424 663.462 395.746C663.763 396.062 664.173 396.219 664.694 396.219C665.229 396.219 665.651 396.054 665.959 395.724C666.267 395.394 666.421 394.914 666.421 394.283L666.421 390.972H667.422ZM672.049 390.862C672.782 390.862 673.376 391.086 673.831 391.533C674.286 391.973 674.513 392.611 674.513 393.447L674.513 397H673.523L673.523 393.59C673.523 392.989 673.373 392.531 673.072 392.215C672.771 391.893 672.361 391.731 671.84 391.731C671.312 391.731 670.89 391.896 670.575 392.226C670.267 392.556 670.113 393.037 670.113 393.667L670.113 397H669.112L669.112 390.972H670.113L670.113 391.83C670.311 391.522 670.579 391.284 670.916 391.115C671.261 390.947 671.638 390.862 672.049 390.862Z" fill="#333333"/>
<path d="M871.959 389.96L871.959 389.047H874.027L874.027 397H873.015L873.015 389.96H871.959ZM875.724 391.049C875.776 390.375 876.036 389.847 876.505 389.465C876.975 389.084 877.583 388.893 878.331 388.893C878.83 388.893 879.259 388.985 879.618 389.168C879.985 389.344 880.26 389.586 880.443 389.894C880.634 390.202 880.729 390.551 880.729 390.939C880.729 391.394 880.597 391.786 880.333 392.116C880.077 392.446 879.739 392.659 879.321 392.754L879.321 392.809C879.798 392.927 880.176 393.158 880.454 393.502C880.733 393.847 880.872 394.298 880.872 394.855C880.872 395.273 880.777 395.651 880.586 395.988C880.396 396.318 880.11 396.579 879.728 396.769C879.347 396.96 878.889 397.055 878.353 397.055C877.576 397.055 876.938 396.854 876.439 396.45C875.941 396.04 875.662 395.46 875.603 394.712H876.571C876.623 395.152 876.802 395.512 877.11 395.79C877.418 396.069 877.829 396.208 878.342 396.208C878.856 396.208 879.244 396.076 879.508 395.812C879.78 395.541 879.915 395.193 879.915 394.767C879.915 394.217 879.732 393.821 879.365 393.579C878.999 393.337 878.445 393.216 877.704 393.216H877.451L877.451 392.38H877.715C878.39 392.373 878.9 392.263 879.244 392.05C879.589 391.83 879.761 391.493 879.761 391.038C879.761 390.65 879.633 390.338 879.376 390.103C879.127 389.869 878.768 389.751 878.298 389.751C877.844 389.751 877.477 389.869 877.198 390.103C876.92 390.338 876.755 390.653 876.703 391.049H875.724ZM889.183 389.333L889.183 394.998C889.183 395.629 888.988 396.135 888.6 396.516C888.211 396.89 887.698 397.077 887.06 397.077C886.414 397.077 885.897 396.887 885.509 396.505C885.12 396.117 884.926 395.589 884.926 394.921H885.927C885.934 395.295 886.029 395.6 886.213 395.834C886.403 396.069 886.686 396.186 887.06 396.186C887.434 396.186 887.712 396.076 887.896 395.856C888.079 395.629 888.171 395.343 888.171 394.998L888.171 389.333H889.183ZM896.501 390.972L896.501 397H895.5L895.5 396.109C895.309 396.417 895.041 396.659 894.697 396.835C894.359 397.004 893.985 397.088 893.575 397.088C893.105 397.088 892.684 396.993 892.31 396.802C891.936 396.604 891.639 396.311 891.419 395.922C891.206 395.534 891.1 395.061 891.1 394.503L891.1 390.972H892.09L892.09 394.371C892.09 394.965 892.24 395.424 892.541 395.746C892.841 396.062 893.252 396.219 893.773 396.219C894.308 396.219 894.73 396.054 895.038 395.724C895.346 395.394 895.5 394.914 895.5 394.283L895.5 390.972H896.501ZM901.128 390.862C901.861 390.862 902.455 391.086 902.91 391.533C903.364 391.973 903.592 392.611 903.592 393.447L903.592 397H902.602L902.602 393.59C902.602 392.989 902.451 392.531 902.151 392.215C901.85 391.893 901.439 391.731 900.919 391.731C900.391 391.731 899.969 391.896 899.654 392.226C899.346 392.556 899.192 393.037 899.192 393.667L899.192 397H898.191L898.191 390.972H899.192L899.192 391.83C899.39 391.522 899.657 391.284 899.995 391.115C900.339 390.947 900.717 390.862 901.128 390.862Z" fill="#333333"/>
<path d="M276.942 389.612H273.081L273.081 392.12C273.25 391.885 273.499 391.695 273.829 391.548C274.159 391.394 274.515 391.317 274.896 391.317C275.505 391.317 276 391.445 276.381 391.702C276.762 391.951 277.034 392.278 277.195 392.681C277.364 393.077 277.448 393.499 277.448 393.946C277.448 394.474 277.349 394.947 277.151 395.365C276.953 395.783 276.649 396.113 276.238 396.355C275.835 396.597 275.332 396.718 274.731 396.718C273.961 396.718 273.338 396.52 272.861 396.124C272.384 395.728 272.095 395.2 271.992 394.54H272.971C273.066 394.958 273.268 395.284 273.576 395.519C273.884 395.754 274.273 395.871 274.742 395.871C275.321 395.871 275.758 395.699 276.051 395.354C276.344 395.002 276.491 394.54 276.491 393.968C276.491 393.396 276.344 392.956 276.051 392.648C275.758 392.333 275.325 392.175 274.753 392.175C274.364 392.175 274.023 392.27 273.73 392.461C273.444 392.644 273.235 392.897 273.103 393.22H272.157L272.157 388.732H276.942L276.942 389.612ZM285.737 389.029L285.737 394.694C285.737 395.325 285.543 395.831 285.154 396.212C284.765 396.586 284.252 396.773 283.614 396.773C282.969 396.773 282.452 396.582 282.063 396.201C281.674 395.812 281.48 395.284 281.48 394.617H282.481C282.488 394.991 282.584 395.295 282.767 395.53C282.958 395.765 283.24 395.882 283.614 395.882C283.988 395.882 284.267 395.772 284.45 395.552C284.633 395.325 284.725 395.039 284.725 394.694L284.725 389.029H285.737ZM293.055 390.668L293.055 396.696H292.054L292.054 395.805C291.863 396.113 291.596 396.355 291.251 396.531C290.914 396.7 290.54 396.784 290.129 396.784C289.66 396.784 289.238 396.689 288.864 396.498C288.49 396.3 288.193 396.007 287.973 395.618C287.76 395.229 287.654 394.756 287.654 394.199L287.654 390.668H288.644L288.644 394.067C288.644 394.661 288.794 395.119 289.095 395.442C289.396 395.757 289.806 395.915 290.327 395.915C290.862 395.915 291.284 395.75 291.592 395.42C291.9 395.09 292.054 394.61 292.054 393.979L292.054 390.668H293.055ZM297.682 390.558C298.415 390.558 299.009 390.782 299.464 391.229C299.919 391.669 300.146 392.307 300.146 393.143L300.146 396.696H299.156L299.156 393.286C299.156 392.685 299.006 392.226 298.705 391.911C298.404 391.588 297.994 391.427 297.473 391.427C296.945 391.427 296.523 391.592 296.208 391.922C295.9 392.252 295.746 392.732 295.746 393.363L295.746 396.696H294.745L294.745 390.668H295.746L295.746 391.526C295.944 391.218 296.212 390.98 296.549 390.811C296.894 390.642 297.271 390.558 297.682 390.558Z" fill="#333333"/>
<path d="M499.915 392.864C499.504 392.703 499.189 392.468 498.969 392.16C498.749 391.852 498.639 391.478 498.639 391.038C498.639 390.642 498.738 390.287 498.936 389.971C499.134 389.649 499.427 389.396 499.816 389.212C500.212 389.022 500.689 388.926 501.246 388.926C501.803 388.926 502.276 389.022 502.665 389.212C503.061 389.396 503.358 389.649 503.556 389.971C503.761 390.287 503.864 390.642 503.864 391.038C503.864 391.464 503.75 391.838 503.523 392.16C503.296 392.476 502.984 392.71 502.588 392.864C503.043 393.004 503.402 393.249 503.666 393.601C503.937 393.946 504.073 394.364 504.073 394.855C504.073 395.332 503.956 395.75 503.721 396.109C503.486 396.461 503.153 396.736 502.72 396.934C502.295 397.125 501.803 397.22 501.246 397.22C500.689 397.22 500.197 397.125 499.772 396.934C499.354 396.736 499.028 396.461 498.793 396.109C498.558 395.75 498.441 395.332 498.441 394.855C498.441 394.364 498.573 393.942 498.837 393.59C499.101 393.238 499.46 392.996 499.915 392.864ZM502.896 391.159C502.896 390.712 502.749 390.367 502.456 390.125C502.163 389.883 501.759 389.762 501.246 389.762C500.74 389.762 500.34 389.883 500.047 390.125C499.754 390.367 499.607 390.716 499.607 391.17C499.607 391.581 499.757 391.911 500.058 392.16C500.366 392.41 500.762 392.534 501.246 392.534C501.737 392.534 502.133 392.41 502.434 392.16C502.742 391.904 502.896 391.57 502.896 391.159ZM501.246 393.304C500.703 393.304 500.26 393.433 499.915 393.689C499.57 393.939 499.398 394.316 499.398 394.822C499.398 395.292 499.563 395.669 499.893 395.955C500.23 396.241 500.681 396.384 501.246 396.384C501.811 396.384 502.258 396.241 502.588 395.955C502.918 395.669 503.083 395.292 503.083 394.822C503.083 394.331 502.914 393.957 502.577 393.7C502.24 393.436 501.796 393.304 501.246 393.304ZM512.361 389.333L512.361 394.998C512.361 395.629 512.167 396.135 511.778 396.516C511.389 396.89 510.876 397.077 510.238 397.077C509.593 397.077 509.076 396.887 508.687 396.505C508.298 396.117 508.104 395.589 508.104 394.921H509.105C509.112 395.295 509.208 395.6 509.391 395.834C509.582 396.069 509.864 396.186 510.238 396.186C510.612 396.186 510.891 396.076 511.074 395.856C511.257 395.629 511.349 395.343 511.349 394.998L511.349 389.333H512.361ZM519.679 390.972L519.679 397H518.678L518.678 396.109C518.487 396.417 518.22 396.659 517.875 396.835C517.538 397.004 517.164 397.088 516.753 397.088C516.284 397.088 515.862 396.993 515.488 396.802C515.114 396.604 514.817 396.311 514.597 395.922C514.384 395.534 514.278 395.061 514.278 394.503L514.278 390.972H515.268L515.268 394.371C515.268 394.965 515.418 395.424 515.719 395.746C516.02 396.062 516.43 396.219 516.951 396.219C517.486 396.219 517.908 396.054 518.216 395.724C518.524 395.394 518.678 394.914 518.678 394.283L518.678 390.972H519.679ZM524.306 390.862C525.04 390.862 525.634 391.086 526.088 391.533C526.543 391.973 526.77 392.611 526.77 393.447L526.77 397H525.78L525.78 393.59C525.78 392.989 525.63 392.531 525.329 392.215C525.029 391.893 524.618 391.731 524.097 391.731C523.569 391.731 523.148 391.896 522.832 392.226C522.524 392.556 522.37 393.037 522.37 393.667L522.37 397H521.369L521.369 390.972H522.37L522.37 391.83C522.568 391.522 522.836 391.284 523.173 391.115C523.518 390.947 523.896 390.862 524.306 390.862Z" fill="#333333"/>
<path d="M719.378 389.96L719.378 389.047H721.446L721.446 397H720.434L720.434 389.96H719.378ZM722.902 389.96L722.902 389.047H724.97L724.97 397H723.958L723.958 389.96H722.902ZM733.648 389.333L733.648 394.998C733.648 395.629 733.454 396.135 733.065 396.516C732.676 396.89 732.163 397.077 731.525 397.077C730.88 397.077 730.363 396.887 729.974 396.505C729.585 396.117 729.391 395.589 729.391 394.921H730.392C730.399 395.295 730.495 395.6 730.678 395.834C730.869 396.069 731.151 396.186 731.525 396.186C731.899 396.186 732.178 396.076 732.361 395.856C732.544 395.629 732.636 395.343 732.636 394.998L732.636 389.333H733.648ZM740.966 390.972L740.966 397H739.965L739.965 396.109C739.774 396.417 739.507 396.659 739.162 396.835C738.825 397.004 738.451 397.088 738.04 397.088C737.571 397.088 737.149 396.993 736.775 396.802C736.401 396.604 736.104 396.311 735.884 395.922C735.671 395.534 735.565 395.061 735.565 394.503L735.565 390.972H736.555L736.555 394.371C736.555 394.965 736.705 395.424 737.006 395.746C737.307 396.062 737.717 396.219 738.238 396.219C738.773 396.219 739.195 396.054 739.503 395.724C739.811 395.394 739.965 394.914 739.965 394.283L739.965 390.972H740.966ZM745.593 390.862C746.326 390.862 746.92 391.086 747.375 391.533C747.83 391.973 748.057 392.611 748.057 393.447L748.057 397H747.067L747.067 393.59C747.067 392.989 746.917 392.531 746.616 392.215C746.315 391.893 745.905 391.731 745.384 391.731C744.856 391.731 744.434 391.896 744.119 392.226C743.811 392.556 743.657 393.037 743.657 393.667L743.657 397H742.656L742.656 390.972H743.657L743.657 391.83C743.855 391.522 744.123 391.284 744.46 391.115C744.805 390.947 745.182 390.862 745.593 390.862Z" fill="#333333"/>
<path d="M945.185 389.96L945.185 389.047H947.253L947.253 397H946.241L946.241 389.96H945.185ZM948.73 395.229L948.73 394.47L952.591 389.124H953.79L953.79 394.36H954.89L954.89 395.229H953.79L953.79 397H952.8L952.8 395.229H948.73ZM952.844 390.169L949.885 394.36H952.844L952.844 390.169ZM962.849 389.333L962.849 394.998C962.849 395.629 962.655 396.135 962.266 396.516C961.877 396.89 961.364 397.077 960.726 397.077C960.081 397.077 959.564 396.887 959.175 396.505C958.786 396.117 958.592 395.589 958.592 394.921H959.593C959.6 395.295 959.696 395.6 959.879 395.834C960.07 396.069 960.352 396.186 960.726 396.186C961.1 396.186 961.379 396.076 961.562 395.856C961.745 395.629 961.837 395.343 961.837 394.998L961.837 389.333H962.849ZM970.167 390.972L970.167 397H969.166L969.166 396.109C968.975 396.417 968.708 396.659 968.363 396.835C968.026 397.004 967.652 397.088 967.241 397.088C966.772 397.088 966.35 396.993 965.976 396.802C965.602 396.604 965.305 396.311 965.085 395.922C964.872 395.534 964.766 395.061 964.766 394.503L964.766 390.972H965.756L965.756 394.371C965.756 394.965 965.906 395.424 966.207 395.746C966.508 396.062 966.918 396.219 967.439 396.219C967.974 396.219 968.396 396.054 968.704 395.724C969.012 395.394 969.166 394.914 969.166 394.283L969.166 390.972H970.167ZM974.794 390.862C975.527 390.862 976.121 391.086 976.576 391.533C977.031 391.973 977.258 392.611 977.258 393.447L977.258 397H976.268L976.268 393.59C976.268 392.989 976.118 392.531 975.817 392.215C975.516 391.893 975.106 391.731 974.585 391.731C974.057 391.731 973.635 391.896 973.32 392.226C973.012 392.556 972.858 393.037 972.858 393.667L972.858 397H971.857L971.857 390.972H972.858L972.858 391.83C973.056 391.522 973.324 391.284 973.661 391.115C974.006 390.947 974.383 390.862 974.794 390.862Z" fill="#333333"/>
<path d="M136.483 120.74C136.483 115.793 140.493 111.783 145.44 111.783C150.386 111.783 154.397 115.793 154.397 120.74L154.397 358.065C154.397 363.012 150.386 367.022 145.44 367.022C140.493 367.022 136.483 363.012 136.483 358.065L136.483 120.74Z" fill="#E7EFFF"/>
<g filter="url(#filter2_d_1_228)">
<path d="M136.483 300.305C136.483 295.358 140.493 291.348 145.44 291.348C150.386 291.348 154.397 295.358 154.397 300.305L154.397 359.348C154.397 364.294 150.386 368.304 145.44 368.304C140.493 368.304 136.483 364.294 136.483 359.348L136.483 300.305Z" fill="url(#paint0_linear_1_228)" fill-opacity="0.8" shape-rendering="crispEdges"/>
</g>
<path d="M211.72 120.74C211.72 115.793 215.73 111.783 220.677 111.783C225.624 111.783 229.634 115.793 229.634 120.74L229.634 358.065C229.634 363.012 225.624 367.022 220.677 367.022C215.73 367.022 211.72 363.012 211.72 358.065L211.72 120.74Z" fill="#E7EFFF"/>
<g filter="url(#filter3_d_1_228)">
<path d="M211.72 279.783C211.72 274.837 215.73 270.826 220.677 270.826C225.624 270.826 229.634 274.837 229.634 279.783L229.634 359.348C229.634 364.295 225.624 368.305 220.677 368.305C215.73 368.305 211.72 364.295 211.72 359.348L211.72 279.783Z" fill="url(#paint1_linear_1_228)" fill-opacity="0.8" shape-rendering="crispEdges"/>
</g>
<path d="M285.166 120.74C285.166 115.793 289.176 111.783 294.122 111.783C299.069 111.783 303.079 115.793 303.079 120.74L303.079 358.065C303.079 363.012 299.069 367.022 294.122 367.022C289.176 367.022 285.166 363.012 285.166 358.065L285.166 120.74Z" fill="#E7EFFF"/>
<g filter="url(#filter4_d_1_228)">
<path d="M285.166 279.783C285.166 274.837 289.176 270.826 294.122 270.826C299.069 270.826 303.079 274.837 303.079 279.783L303.079 359.348C303.079 364.295 299.069 368.305 294.122 368.305C289.176 368.305 285.166 364.295 285.166 359.348L285.166 279.783Z" fill="url(#paint2_linear_1_228)" fill-opacity="0.8" shape-rendering="crispEdges"/>
</g>
<path d="M356.821 120.74C356.821 115.793 360.831 111.783 365.778 111.783C370.724 111.783 374.734 115.793 374.734 120.74L374.734 358.065C374.734 363.012 370.724 367.022 365.778 367.022C360.831 367.022 356.821 363.012 356.821 358.065L356.821 120.74Z" fill="#E7EFFF"/>
<g filter="url(#filter5_d_1_228)">
<path d="M356.821 220.783C356.821 215.836 360.831 211.826 365.778 211.826C370.724 211.826 374.734 215.836 374.734 220.783L374.734 359.347C374.734 364.294 370.724 368.304 365.778 368.304C360.831 368.304 356.821 364.294 356.821 359.347L356.821 220.783Z" fill="url(#paint3_linear_1_228)" fill-opacity="0.8" shape-rendering="crispEdges"/>
</g>
<path d="M430.266 120.74C430.266 115.793 434.277 111.783 439.223 111.783C444.17 111.783 448.18 115.793 448.18 120.74L448.18 358.065C448.18 363.012 444.17 367.022 439.223 367.022C434.277 367.022 430.266 363.012 430.266 358.065L430.266 120.74Z" fill="#E7EFFF"/>
<g filter="url(#filter6_d_1_228)">
<path d="M430.266 200.262C430.266 195.316 434.277 191.305 439.223 191.305C444.17 191.305 448.18 195.316 448.18 200.262L448.18 359.349C448.18 364.295 444.17 368.305 439.223 368.305C434.277 368.305 430.266 364.295 430.266 359.349L430.266 200.262Z" fill="url(#paint4_linear_1_228)" fill-opacity="0.8" shape-rendering="crispEdges"/>
</g>
<path d="M509.087 120.74C509.087 115.793 513.097 111.783 518.043 111.783C522.99 111.783 527 115.793 527 120.74L527 358.065C527 363.012 522.99 367.022 518.043 367.022C513.097 367.022 509.087 363.012 509.087 358.065L509.087 120.74Z" fill="#E7EFFF"/>
<g filter="url(#filter7_d_1_228)">
<path d="M509.087 241.305C509.087 236.358 513.097 232.348 518.043 232.348C522.99 232.348 527 236.358 527 241.305L527 359.348C527 364.294 522.99 368.305 518.043 368.305C513.097 368.305 509.087 364.294 509.087 359.348L509.087 241.305Z" fill="url(#paint5_linear_1_228)" fill-opacity="0.8" shape-rendering="crispEdges"/>
</g>
<path d="M582.533 120.74C582.533 115.793 586.543 111.783 591.49 111.783C596.437 111.783 600.447 115.793 600.447 120.74L600.447 358.065C600.447 363.012 596.437 367.022 591.49 367.022C586.543 367.022 582.533 363.012 582.533 358.065L582.533 120.74Z" fill="#E7EFFF"/>
<g filter="url(#filter8_d_1_228)">
<path d="M579.522 220.231C579.473 215.285 583.444 211.238 588.39 211.192C593.336 211.147 597.385 215.12 597.434 220.066L598.801 359.184C598.849 364.13 594.879 368.177 589.932 368.222C584.986 368.268 580.937 364.295 580.888 359.349L579.522 220.231Z" fill="url(#paint6_linear_1_228)" fill-opacity="0.8" shape-rendering="crispEdges"/>
</g>
<path d="M654.187 120.74C654.187 115.793 658.197 111.783 663.144 111.783C668.091 111.783 672.101 115.793 672.101 120.74L672.101 358.065C672.101 363.012 668.091 367.022 663.144 367.022C658.197 367.022 654.187 363.012 654.187 358.065L654.187 120.74Z" fill="#E7EFFF"/>
<g filter="url(#filter9_d_1_228)">
<path d="M654.187 300.305C654.187 295.358 658.197 291.348 663.144 291.348C668.091 291.348 672.101 295.358 672.101 300.305L672.101 359.348C672.101 364.294 668.091 368.304 663.144 368.304C658.197 368.304 654.187 364.294 654.187 359.348L654.187 300.305Z" fill="url(#paint7_linear_1_228)" fill-opacity="0.8" shape-rendering="crispEdges"/>
</g>
<path d="M727.633 120.74C727.633 115.793 731.643 111.783 736.59 111.783C741.537 111.783 745.547 115.793 745.547 120.74L745.547 358.065C745.547 363.012 741.537 367.022 736.59 367.022C731.643 367.022 727.633 363.012 727.633 358.065L727.633 120.74Z" fill="#E7EFFF"/>
<g filter="url(#filter10_d_1_228)">
<path d="M727.633 200.262C727.633 195.316 731.643 191.305 736.59 191.305C741.537 191.305 745.547 195.316 745.547 200.262L745.547 359.349C745.547 364.295 741.537 368.305 736.59 368.305C731.643 368.305 727.633 364.295 727.633 359.349L727.633 200.262Z" fill="url(#paint8_linear_1_228)" fill-opacity="0.8" shape-rendering="crispEdges"/>
</g>
<path d="M802.871 120.74C802.871 115.793 806.881 111.783 811.828 111.783C816.775 111.783 820.785 115.793 820.785 120.74L820.785 358.065C820.785 363.012 816.775 367.022 811.828 367.022C806.881 367.022 802.871 363.012 802.871 358.065L802.871 120.74Z" fill="#E7EFFF"/>
<g filter="url(#filter11_d_1_228)">
<path d="M802.871 164.348C802.871 159.402 806.881 155.392 811.828 155.392C816.775 155.392 820.785 159.402 820.785 164.348L820.785 359.348C820.785 364.294 816.775 368.305 811.828 368.305C806.881 368.305 802.871 364.294 802.871 359.348L802.871 164.348Z" fill="url(#paint9_linear_1_228)" fill-opacity="0.8" shape-rendering="crispEdges"/>
</g>
<path d="M874.526 120.74C874.526 115.793 878.536 111.783 883.483 111.783C888.43 111.783 892.44 115.793 892.44 120.74L892.44 358.065C892.44 363.012 888.43 367.022 883.483 367.022C878.536 367.022 874.526 363.012 874.526 358.065L874.526 120.74Z" fill="#E7EFFF"/>
<g filter="url(#filter12_d_1_228)">
<path d="M874.526 143.827C874.526 138.88 878.536 134.87 883.483 134.87C888.43 134.87 892.44 138.88 892.44 143.827L892.44 359.348C892.44 364.295 888.43 368.305 883.483 368.305C878.536 368.305 874.526 364.295 874.526 359.348L874.526 143.827Z" fill="url(#paint10_linear_1_228)" fill-opacity="0.8" shape-rendering="crispEdges"/>
</g>
<path d="M949.763 120.74C949.763 115.793 953.773 111.783 958.72 111.783C963.667 111.783 967.677 115.793 967.677 120.74L967.677 358.065C967.677 363.012 963.667 367.022 958.72 367.022C953.773 367.022 949.763 363.012 949.763 358.065L949.763 120.74Z" fill="#E7EFFF"/>
<g filter="url(#filter13_d_1_228)">
<path d="M949.763 120.74C949.763 115.793 953.773 111.783 958.72 111.783C963.667 111.783 967.677 115.793 967.677 120.74L967.677 359.348C967.677 364.295 963.667 368.305 958.72 368.305C953.773 368.305 949.763 364.295 949.763 359.348L949.763 120.74Z" fill="url(#paint11_linear_1_228)" fill-opacity="0.8" shape-rendering="crispEdges"/>
</g>
<g opacity="0.5">
<path d="M85.9803 119.73V118.971L89.8413 113.625H91.0403V118.861H92.1403V119.73H91.0403V121.501H90.0503V119.73H85.9803ZM90.0943 114.67L87.1353 118.861H90.0943V114.67ZM93.1403 117.442C93.1403 116.18 93.3456 115.198 93.7563 114.494C94.1669 113.782 94.8856 113.427 95.9123 113.427C96.9316 113.427 97.6466 113.782 98.0573 114.494C98.4679 115.198 98.6733 116.18 98.6733 117.442C98.6733 118.725 98.4679 119.722 98.0573 120.434C97.6466 121.145 96.9316 121.501 95.9123 121.501C94.8856 121.501 94.1669 121.145 93.7563 120.434C93.3456 119.722 93.1403 118.725 93.1403 117.442ZM97.6833 117.442C97.6833 116.804 97.6393 116.265 97.5513 115.825C97.4706 115.377 97.2983 115.018 97.0343 114.747C96.7776 114.475 96.4036 114.34 95.9123 114.34C95.4136 114.34 95.0323 114.475 94.7683 114.747C94.5116 115.018 94.3393 115.377 94.2513 115.825C94.1706 116.265 94.1303 116.804 94.1303 117.442C94.1303 118.102 94.1706 118.655 94.2513 119.103C94.3393 119.55 94.5116 119.909 94.7683 120.181C95.0323 120.452 95.4136 120.588 95.9123 120.588C96.4036 120.588 96.7776 120.452 97.0343 120.181C97.2983 119.909 97.4706 119.55 97.5513 119.103C97.6393 118.655 97.6833 118.102 97.6833 117.442ZM100.047 117.442C100.047 116.18 100.253 115.198 100.663 114.494C101.074 113.782 101.793 113.427 102.819 113.427C103.839 113.427 104.554 113.782 104.964 114.494C105.375 115.198 105.58 116.18 105.58 117.442C105.58 118.725 105.375 119.722 104.964 120.434C104.554 121.145 103.839 121.501 102.819 121.501C101.793 121.501 101.074 121.145 100.663 120.434C100.253 119.722 100.047 118.725 100.047 117.442ZM104.59 117.442C104.59 116.804 104.546 116.265 104.458 115.825C104.378 115.377 104.205 115.018 103.941 114.747C103.685 114.475 103.311 114.34 102.819 114.34C102.321 114.34 101.939 114.475 101.675 114.747C101.419 115.018 101.246 115.377 101.158 115.825C101.078 116.265 101.037 116.804 101.037 117.442C101.037 118.102 101.078 118.655 101.158 119.103C101.246 119.55 101.419 119.909 101.675 120.181C101.939 120.452 102.321 120.588 102.819 120.588C103.311 120.588 103.685 120.452 103.941 120.181C104.205 119.909 104.378 119.55 104.458 119.103C104.546 118.655 104.59 118.102 104.59 117.442Z" fill="#333333"/>
<path d="M86.6407 174.147C86.692 173.473 86.9524 172.945 87.4217 172.563C87.891 172.182 88.4997 171.991 89.2477 171.991C89.7464 171.991 90.1754 172.083 90.5347 172.266C90.9014 172.442 91.1764 172.684 91.3597 172.992C91.5504 173.3 91.6457 173.649 91.6457 174.037C91.6457 174.492 91.5137 174.884 91.2497 175.214C90.993 175.544 90.6557 175.757 90.2377 175.852V175.907C90.7144 176.025 91.092 176.256 91.3707 176.6C91.6494 176.945 91.7887 177.396 91.7887 177.953C91.7887 178.371 91.6934 178.749 91.5027 179.086C91.312 179.416 91.026 179.677 90.6447 179.867C90.2634 180.058 89.805 180.153 89.2697 180.153C88.4924 180.153 87.8544 179.952 87.3557 179.548C86.857 179.138 86.5784 178.558 86.5197 177.81H87.4877C87.539 178.25 87.7187 178.61 88.0267 178.888C88.3347 179.167 88.7454 179.306 89.2587 179.306C89.772 179.306 90.1607 179.174 90.4247 178.91C90.696 178.639 90.8317 178.291 90.8317 177.865C90.8317 177.315 90.6484 176.919 90.2817 176.677C89.915 176.435 89.3614 176.314 88.6207 176.314H88.3677V175.478H88.6317C89.3064 175.471 89.816 175.361 90.1607 175.148C90.5054 174.928 90.6777 174.591 90.6777 174.136C90.6777 173.748 90.5494 173.436 90.2927 173.201C90.0434 172.967 89.684 172.849 89.2147 172.849C88.76 172.849 88.3934 172.967 88.1147 173.201C87.836 173.436 87.671 173.751 87.6197 174.147H86.6407ZM93.1402 176.039C93.1402 174.778 93.3456 173.795 93.7562 173.091C94.1669 172.38 94.8856 172.024 95.9122 172.024C96.9316 172.024 97.6466 172.38 98.0572 173.091C98.4679 173.795 98.6732 174.778 98.6732 176.039C98.6732 177.323 98.4679 178.32 98.0572 179.031C97.6466 179.743 96.9316 180.098 95.9122 180.098C94.8856 180.098 94.1669 179.743 93.7562 179.031C93.3456 178.32 93.1402 177.323 93.1402 176.039ZM97.6832 176.039C97.6832 175.401 97.6392 174.862 97.5512 174.422C97.4706 173.975 97.2982 173.616 97.0342 173.344C96.7776 173.073 96.4036 172.937 95.9122 172.937C95.4136 172.937 95.0322 173.073 94.7682 173.344C94.5116 173.616 94.3392 173.975 94.2512 174.422C94.1706 174.862 94.1302 175.401 94.1302 176.039C94.1302 176.699 94.1706 177.253 94.2512 177.7C94.3392 178.148 94.5116 178.507 94.7682 178.778C95.0322 179.05 95.4136 179.185 95.9122 179.185C96.4036 179.185 96.7776 179.05 97.0342 178.778C97.2982 178.507 97.4706 178.148 97.5512 177.7C97.6392 177.253 97.6832 176.699 97.6832 176.039ZM100.047 176.039C100.047 174.778 100.253 173.795 100.663 173.091C101.074 172.38 101.793 172.024 102.819 172.024C103.839 172.024 104.554 172.38 104.964 173.091C105.375 173.795 105.58 174.778 105.58 176.039C105.58 177.323 105.375 178.32 104.964 179.031C104.554 179.743 103.839 180.098 102.819 180.098C101.793 180.098 101.074 179.743 100.663 179.031C100.253 178.32 100.047 177.323 100.047 176.039ZM104.59 176.039C104.59 175.401 104.546 174.862 104.458 174.422C104.378 173.975 104.205 173.616 103.941 173.344C103.685 173.073 103.311 172.937 102.819 172.937C102.321 172.937 101.939 173.073 101.675 173.344C101.419 173.616 101.246 173.975 101.158 174.422C101.078 174.862 101.037 175.401 101.037 176.039C101.037 176.699 101.078 177.253 101.158 177.7C101.246 178.148 101.419 178.507 101.675 178.778C101.939 179.05 102.321 179.185 102.819 179.185C103.311 179.185 103.685 179.05 103.941 178.778C104.205 178.507 104.378 178.148 104.458 177.7C104.546 177.253 104.59 176.699 104.59 176.039Z" fill="#333333"/>
<path d="M86.6921 237.893C87.6234 237.145 88.3531 236.533 88.8811 236.056C89.4091 235.572 89.8528 235.07 90.2121 234.549C90.5788 234.021 90.7621 233.504 90.7621 232.998C90.7621 232.521 90.6448 232.147 90.4101 231.876C90.1828 231.597 89.8124 231.458 89.2991 231.458C88.8004 231.458 88.4118 231.616 88.1331 231.931C87.8618 232.239 87.7151 232.653 87.6931 233.174H86.7251C86.7544 232.353 87.0038 231.718 87.4731 231.271C87.9424 230.824 88.5474 230.6 89.2881 230.6C90.0434 230.6 90.6411 230.809 91.0811 231.227C91.5284 231.645 91.7521 232.221 91.7521 232.954C91.7521 233.563 91.5688 234.157 91.2021 234.736C90.8428 235.308 90.4321 235.814 89.9701 236.254C89.5081 236.687 88.9178 237.193 88.1991 237.772H91.9831V238.608H86.6921V237.893ZM93.1402 234.637C93.1402 233.376 93.3456 232.393 93.7562 231.689C94.1669 230.978 94.8856 230.622 95.9122 230.622C96.9316 230.622 97.6466 230.978 98.0572 231.689C98.4679 232.393 98.6732 233.376 98.6732 234.637C98.6732 235.92 98.4679 236.918 98.0572 237.629C97.6466 238.34 96.9316 238.696 95.9122 238.696C94.8856 238.696 94.1669 238.34 93.7562 237.629C93.3456 236.918 93.1402 235.92 93.1402 234.637ZM97.6832 234.637C97.6832 233.999 97.6392 233.46 97.5512 233.02C97.4706 232.573 97.2982 232.213 97.0342 231.942C96.7776 231.671 96.4036 231.535 95.9122 231.535C95.4136 231.535 95.0322 231.671 94.7682 231.942C94.5116 232.213 94.3392 232.573 94.2512 233.02C94.1706 233.46 94.1302 233.999 94.1302 234.637C94.1302 235.297 94.1706 235.851 94.2512 236.298C94.3392 236.745 94.5116 237.105 94.7682 237.376C95.0322 237.647 95.4136 237.783 95.9122 237.783C96.4036 237.783 96.7776 237.647 97.0342 237.376C97.2982 237.105 97.4706 236.745 97.5512 236.298C97.6392 235.851 97.6832 235.297 97.6832 234.637ZM100.047 234.637C100.047 233.376 100.253 232.393 100.663 231.689C101.074 230.978 101.793 230.622 102.819 230.622C103.839 230.622 104.554 230.978 104.964 231.689C105.375 232.393 105.58 233.376 105.58 234.637C105.58 235.92 105.375 236.918 104.964 237.629C104.554 238.34 103.839 238.696 102.819 238.696C101.793 238.696 101.074 238.34 100.663 237.629C100.253 236.918 100.047 235.92 100.047 234.637ZM104.59 234.637C104.59 233.999 104.546 233.46 104.458 233.02C104.378 232.573 104.205 232.213 103.941 231.942C103.685 231.671 103.311 231.535 102.819 231.535C102.321 231.535 101.939 231.671 101.675 231.942C101.419 232.213 101.246 232.573 101.158 233.02C101.078 233.46 101.037 233.999 101.037 234.637C101.037 235.297 101.078 235.851 101.158 236.298C101.246 236.745 101.419 237.105 101.675 237.376C101.939 237.647 102.321 237.783 102.819 237.783C103.311 237.783 103.685 237.647 103.941 237.376C104.205 237.105 104.378 236.745 104.458 236.298C104.546 235.851 104.59 235.297 104.59 234.637Z" fill="#333333"/>
<path d="M89.3528 290.253V289.34H91.4208V297.293H90.4088V290.253H89.3528ZM93.1402 293.234C93.1402 291.973 93.3456 290.99 93.7562 290.286C94.1669 289.575 94.8856 289.219 95.9122 289.219C96.9316 289.219 97.6466 289.575 98.0572 290.286C98.4679 290.99 98.6732 291.973 98.6732 293.234C98.6732 294.517 98.4679 295.515 98.0572 296.226C97.6466 296.937 96.9316 297.293 95.9122 297.293C94.8856 297.293 94.1669 296.937 93.7562 296.226C93.3456 295.515 93.1402 294.517 93.1402 293.234ZM97.6832 293.234C97.6832 292.596 97.6392 292.057 97.5512 291.617C97.4706 291.17 97.2982 290.81 97.0342 290.539C96.7776 290.268 96.4036 290.132 95.9122 290.132C95.4136 290.132 95.0322 290.268 94.7682 290.539C94.5116 290.81 94.3392 291.17 94.2512 291.617C94.1706 292.057 94.1302 292.596 94.1302 293.234C94.1302 293.894 94.1706 294.448 94.2512 294.895C94.3392 295.342 94.5116 295.702 94.7682 295.973C95.0322 296.244 95.4136 296.38 95.9122 296.38C96.4036 296.38 96.7776 296.244 97.0342 295.973C97.2982 295.702 97.4706 295.342 97.5512 294.895C97.6392 294.448 97.6832 293.894 97.6832 293.234ZM100.047 293.234C100.047 291.973 100.253 290.99 100.663 290.286C101.074 289.575 101.793 289.219 102.819 289.219C103.839 289.219 104.554 289.575 104.964 290.286C105.375 290.99 105.58 291.973 105.58 293.234C105.58 294.517 105.375 295.515 104.964 296.226C104.554 296.937 103.839 297.293 102.819 297.293C101.793 297.293 101.074 296.937 100.663 296.226C100.253 295.515 100.047 294.517 100.047 293.234ZM104.59 293.234C104.59 292.596 104.546 292.057 104.458 291.617C104.378 291.17 104.205 290.81 103.941 290.539C103.685 290.268 103.311 290.132 102.819 290.132C102.321 290.132 101.939 290.268 101.675 290.539C101.419 290.81 101.246 291.17 101.158 291.617C101.078 292.057 101.037 292.596 101.037 293.234C101.037 293.894 101.078 294.448 101.158 294.895C101.246 295.342 101.419 295.702 101.675 295.973C101.939 296.244 102.321 296.38 102.819 296.38C103.311 296.38 103.685 296.244 103.941 295.973C104.205 295.702 104.378 295.342 104.458 294.895C104.546 294.448 104.59 293.894 104.59 293.234Z" fill="#333333"/>
<path d="M97.9354 351.832C97.9354 350.571 98.1407 349.588 98.5514 348.884C98.9621 348.173 99.6807 347.817 100.707 347.817C101.727 347.817 102.442 348.173 102.852 348.884C103.263 349.588 103.468 350.571 103.468 351.832C103.468 353.115 103.263 354.113 102.852 354.824C102.442 355.535 101.727 355.891 100.707 355.891C99.6807 355.891 98.9621 355.535 98.5514 354.824C98.1407 354.113 97.9354 353.115 97.9354 351.832ZM102.478 351.832C102.478 351.194 102.434 350.655 102.346 350.215C102.266 349.768 102.093 349.408 101.829 349.137C101.573 348.866 101.199 348.73 100.707 348.73C100.209 348.73 99.8274 348.866 99.5634 349.137C99.3067 349.408 99.1344 349.768 99.0464 350.215C98.9657 350.655 98.9254 351.194 98.9254 351.832C98.9254 352.492 98.9657 353.046 99.0464 353.493C99.1344 353.94 99.3067 354.3 99.5634 354.571C99.8274 354.842 100.209 354.978 100.707 354.978C101.199 354.978 101.573 354.842 101.829 354.571C102.093 354.3 102.266 353.94 102.346 353.493C102.434 353.046 102.478 352.492 102.478 351.832Z" fill="#333333"/>
</g>
<path d="M48.15 61.803H53.421V63H46.68V48.321H48.15V61.803ZM54.8469 57.246C54.8469 56.07 55.0779 55.041 55.5399 54.159C56.0159 53.263 56.6669 52.577 57.4929 52.101C58.3329 51.611 59.2779 51.366 60.3279 51.366C61.4199 51.366 62.3579 51.618 63.1419 52.122C63.9399 52.626 64.5139 53.27 64.8639 54.054V51.534H66.3339V63H64.8639V60.459C64.4999 61.243 63.9189 61.894 63.1209 62.412C62.3369 62.916 61.3989 63.168 60.3069 63.168C59.2709 63.168 58.3329 62.923 57.4929 62.433C56.6669 61.943 56.0159 61.25 55.5399 60.354C55.0779 59.458 54.8469 58.422 54.8469 57.246ZM64.8639 57.267C64.8639 56.343 64.6749 55.531 64.2969 54.831C63.9189 54.131 63.4009 53.592 62.7429 53.214C62.0989 52.836 61.3849 52.647 60.6009 52.647C59.7889 52.647 59.0609 52.829 58.4169 53.193C57.7729 53.557 57.2619 54.089 56.8839 54.789C56.5199 55.475 56.3379 56.294 56.3379 57.246C56.3379 58.184 56.5199 59.01 56.8839 59.724C57.2619 60.424 57.7729 60.963 58.4169 61.341C59.0609 61.705 59.7889 61.887 60.6009 61.887C61.3849 61.887 62.0989 61.698 62.7429 61.32C63.4009 60.942 63.9189 60.403 64.2969 59.703C64.6749 59.003 64.8639 58.191 64.8639 57.267ZM73.6378 63.168C72.3218 63.168 71.2438 62.867 70.4038 62.265C69.5778 61.649 69.1158 60.816 69.0178 59.766H70.5298C70.5998 60.41 70.9008 60.935 71.4328 61.341C71.9788 61.733 72.7068 61.929 73.6168 61.929C74.4148 61.929 75.0378 61.74 75.4858 61.362C75.9478 60.984 76.1788 60.515 76.1788 59.955C76.1788 59.563 76.0528 59.241 75.8008 58.989C75.5488 58.737 75.2268 58.541 74.8348 58.401C74.4568 58.247 73.9388 58.086 73.2808 57.918C72.4268 57.694 71.7338 57.47 71.2018 57.246C70.6698 57.022 70.2148 56.693 69.8368 56.259C69.4728 55.811 69.2908 55.216 69.2908 54.474C69.2908 53.914 69.4588 53.396 69.7948 52.92C70.1308 52.444 70.6068 52.066 71.2228 51.786C71.8388 51.506 72.5388 51.366 73.3228 51.366C74.5548 51.366 75.5488 51.681 76.3048 52.311C77.0608 52.927 77.4668 53.781 77.5228 54.873H76.0528C76.0108 54.201 75.7448 53.662 75.2548 53.256C74.7788 52.836 74.1208 52.626 73.2808 52.626C72.5388 52.626 71.9368 52.801 71.4748 53.151C71.0128 53.501 70.7818 53.935 70.7818 54.453C70.7818 54.901 70.9148 55.272 71.1808 55.566C71.4608 55.846 71.8038 56.07 72.2098 56.238C72.6158 56.392 73.1618 56.567 73.8478 56.763C74.6738 56.987 75.3318 57.204 75.8218 57.414C76.3118 57.624 76.7318 57.932 77.0818 58.338C77.4318 58.744 77.6138 59.283 77.6278 59.955C77.6278 60.571 77.4598 61.124 77.1238 61.614C76.7878 62.09 76.3188 62.468 75.7168 62.748C75.1148 63.028 74.4218 63.168 73.6378 63.168ZM82.3058 52.773V59.892C82.3058 60.592 82.4388 61.075 82.7048 61.341C82.9708 61.607 83.4398 61.74 84.1118 61.74H85.4558V63H83.8808C82.8448 63 82.0748 62.762 81.5708 62.286C81.0668 61.796 80.8148 60.998 80.8148 59.892V52.773H79.2188V51.534H80.8148V48.657H82.3058V51.534H85.4558V52.773H82.3058ZM92.6139 49.266V47.943H96.1839V63H94.6929V49.266H92.6139ZM98.8087 59.43V58.317L106.453 48.027H108.196V58.149H110.443V59.43H108.196V63H106.747V59.43H98.8087ZM106.81 49.644L100.51 58.149H106.81V49.644ZM122.763 48.321C124.387 48.321 125.78 48.615 126.942 49.203C128.104 49.791 128.993 50.638 129.609 51.744C130.225 52.85 130.533 54.166 130.533 55.692C130.533 57.204 130.225 58.513 129.609 59.619C128.993 60.711 128.104 61.551 126.942 62.139C125.78 62.713 124.387 63 122.763 63H118.416V48.321H122.763ZM122.763 61.782C124.807 61.782 126.361 61.25 127.425 60.186C128.503 59.108 129.042 57.61 129.042 55.692C129.042 53.76 128.503 52.255 127.425 51.177C126.361 50.085 124.807 49.539 122.763 49.539H119.886V61.782H122.763ZM132.571 57.246C132.571 56.07 132.802 55.041 133.264 54.159C133.74 53.263 134.391 52.577 135.217 52.101C136.057 51.611 137.002 51.366 138.052 51.366C139.144 51.366 140.082 51.618 140.866 52.122C141.664 52.626 142.238 53.27 142.588 54.054V51.534H144.058V63H142.588V60.459C142.224 61.243 141.643 61.894 140.845 62.412C140.061 62.916 139.123 63.168 138.031 63.168C136.995 63.168 136.057 62.923 135.217 62.433C134.391 61.943 133.74 61.25 133.264 60.354C132.802 59.458 132.571 58.422 132.571 57.246ZM142.588 57.267C142.588 56.343 142.399 55.531 142.021 54.831C141.643 54.131 141.125 53.592 140.467 53.214C139.823 52.836 139.109 52.647 138.325 52.647C137.513 52.647 136.785 52.829 136.141 53.193C135.497 53.557 134.986 54.089 134.608 54.789C134.244 55.475 134.062 56.294 134.062 57.246C134.062 58.184 134.244 59.01 134.608 59.724C134.986 60.424 135.497 60.963 136.141 61.341C136.785 61.705 137.513 61.887 138.325 61.887C139.109 61.887 139.823 61.698 140.467 61.32C141.125 60.942 141.643 60.403 142.021 59.703C142.399 59.003 142.588 58.191 142.588 57.267ZM156.864 51.534L150.06 68.397H148.527L150.753 62.937L146.049 51.534H147.666L151.572 61.32L155.352 51.534H156.864ZM162.806 63.168C161.49 63.168 160.412 62.867 159.572 62.265C158.746 61.649 158.284 60.816 158.186 59.766H159.698C159.768 60.41 160.069 60.935 160.601 61.341C161.147 61.733 161.875 61.929 162.785 61.929C163.583 61.929 164.206 61.74 164.654 61.362C165.116 60.984 165.347 60.515 165.347 59.955C165.347 59.563 165.221 59.241 164.969 58.989C164.717 58.737 164.395 58.541 164.003 58.401C163.625 58.247 163.107 58.086 162.449 57.918C161.595 57.694 160.902 57.47 160.37 57.246C159.838 57.022 159.383 56.693 159.005 56.259C158.641 55.811 158.459 55.216 158.459 54.474C158.459 53.914 158.627 53.396 158.963 52.92C159.299 52.444 159.775 52.066 160.391 51.786C161.007 51.506 161.707 51.366 162.491 51.366C163.723 51.366 164.717 51.681 165.473 52.311C166.229 52.927 166.635 53.781 166.691 54.873H165.221C165.179 54.201 164.913 53.662 164.423 53.256C163.947 52.836 163.289 52.626 162.449 52.626C161.707 52.626 161.105 52.801 160.643 53.151C160.181 53.501 159.95 53.935 159.95 54.453C159.95 54.901 160.083 55.272 160.349 55.566C160.629 55.846 160.972 56.07 161.378 56.238C161.784 56.392 162.33 56.567 163.016 56.763C163.842 56.987 164.5 57.204 164.99 57.414C165.48 57.624 165.9 57.932 166.25 58.338C166.6 58.744 166.782 59.283 166.796 59.955C166.796 60.571 166.628 61.124 166.292 61.614C165.956 62.09 165.487 62.468 164.885 62.748C164.283 63.028 163.59 63.168 162.806 63.168ZM183.831 59.514H177.153L175.872 63H174.318L179.673 48.51H181.332L186.666 63H185.112L183.831 59.514ZM183.39 58.296L180.492 50.358L177.594 58.296H183.39ZM188.353 57.267C188.353 56.077 188.591 55.041 189.067 54.159C189.543 53.263 190.201 52.577 191.041 52.101C191.881 51.611 192.84 51.366 193.918 51.366C195.332 51.366 196.494 51.716 197.404 52.416C198.328 53.116 198.923 54.068 199.189 55.272H197.614C197.418 54.446 196.991 53.802 196.333 53.34C195.689 52.864 194.884 52.626 193.918 52.626C193.148 52.626 192.455 52.801 191.839 53.151C191.223 53.501 190.733 54.026 190.369 54.726C190.019 55.412 189.844 56.259 189.844 57.267C189.844 58.275 190.019 59.129 190.369 59.829C190.733 60.529 191.223 61.054 191.839 61.404C192.455 61.754 193.148 61.929 193.918 61.929C194.884 61.929 195.689 61.698 196.333 61.236C196.991 60.76 197.418 60.102 197.614 59.262H199.189C198.923 60.438 198.328 61.383 197.404 62.097C196.48 62.811 195.318 63.168 193.918 63.168C192.84 63.168 191.881 62.93 191.041 62.454C190.201 61.964 189.543 61.278 189.067 60.396C188.591 59.5 188.353 58.457 188.353 57.267ZM203.815 52.773V59.892C203.815 60.592 203.948 61.075 204.214 61.341C204.48 61.607 204.949 61.74 205.621 61.74H206.965V63H205.39C204.354 63 203.584 62.762 203.08 62.286C202.576 61.796 202.324 60.998 202.324 59.892V52.773H200.728V51.534H202.324V48.657H203.815V51.534H206.965V52.773H203.815ZM210.124 49.371C209.83 49.371 209.578 49.266 209.368 49.056C209.158 48.846 209.053 48.587 209.053 48.279C209.053 47.971 209.158 47.719 209.368 47.523C209.578 47.313 209.83 47.208 210.124 47.208C210.418 47.208 210.67 47.313 210.88 47.523C211.09 47.719 211.195 47.971 211.195 48.279C211.195 48.587 211.09 48.846 210.88 49.056C210.67 49.266 210.418 49.371 210.124 49.371ZM210.859 51.534V63H209.389V51.534H210.859ZM218.262 61.572L222.126 51.534H223.68L219.081 63H217.422L212.823 51.534H214.398L218.262 61.572ZM236.046 56.679C236.046 57.183 236.032 57.568 236.004 57.834H226.491C226.533 58.702 226.743 59.444 227.121 60.06C227.499 60.676 227.996 61.145 228.612 61.467C229.228 61.775 229.9 61.929 230.628 61.929C231.58 61.929 232.378 61.698 233.022 61.236C233.68 60.774 234.114 60.151 234.324 59.367H235.878C235.598 60.487 234.996 61.404 234.072 62.118C233.162 62.818 232.014 63.168 230.628 63.168C229.55 63.168 228.584 62.93 227.73 62.454C226.876 61.964 226.204 61.278 225.714 60.396C225.238 59.5 225 58.457 225 57.267C225 56.077 225.238 55.034 225.714 54.138C226.19 53.242 226.855 52.556 227.709 52.08C228.563 51.604 229.536 51.366 230.628 51.366C231.72 51.366 232.672 51.604 233.484 52.08C234.31 52.556 234.94 53.2 235.374 54.012C235.822 54.81 236.046 55.699 236.046 56.679ZM234.555 56.637C234.569 55.783 234.394 55.055 234.03 54.453C233.68 53.851 233.197 53.396 232.581 53.088C231.965 52.78 231.293 52.626 230.565 52.626C229.473 52.626 228.542 52.976 227.772 53.676C227.002 54.376 226.575 55.363 226.491 56.637H234.555ZM262.306 48.321L258.148 63H256.51L252.814 50.484L249.034 63L247.438 63.021L243.364 48.321H244.939L248.299 61.194L252.058 48.321H253.696L257.35 61.194L260.731 48.321H262.306ZM269.574 63.168C268.496 63.168 267.523 62.93 266.655 62.454C265.801 61.964 265.122 61.278 264.618 60.396C264.128 59.5 263.883 58.457 263.883 57.267C263.883 56.077 264.135 55.041 264.639 54.159C265.143 53.263 265.829 52.577 266.697 52.101C267.565 51.611 268.538 51.366 269.616 51.366C270.694 51.366 271.667 51.611 272.535 52.101C273.417 52.577 274.103 53.263 274.593 54.159C275.097 55.041 275.349 56.077 275.349 57.267C275.349 58.443 275.097 59.479 274.593 60.375C274.089 61.271 273.396 61.964 272.514 62.454C271.632 62.93 270.652 63.168 269.574 63.168ZM269.574 61.887C270.33 61.887 271.03 61.719 271.674 61.383C272.318 61.033 272.836 60.515 273.228 59.829C273.634 59.129 273.837 58.275 273.837 57.267C273.837 56.259 273.641 55.412 273.249 54.726C272.857 54.026 272.339 53.508 271.695 53.172C271.051 52.822 270.351 52.647 269.595 52.647C268.839 52.647 268.139 52.822 267.495 53.172C266.851 53.508 266.333 54.026 265.941 54.726C265.563 55.412 265.374 56.259 265.374 57.267C265.374 58.275 265.563 59.129 265.941 59.829C266.333 60.515 266.844 61.033 267.474 61.383C268.118 61.719 268.818 61.887 269.574 61.887ZM279.499 53.571C279.821 52.857 280.311 52.304 280.969 51.912C281.641 51.52 282.46 51.324 283.426 51.324V52.857H283.027C281.963 52.857 281.109 53.144 280.465 53.718C279.821 54.292 279.499 55.251 279.499 56.595V63H278.029V51.534H279.499V53.571ZM291.832 63L287.107 57.855V63H285.637V47.46H287.107V56.658L291.727 51.534H293.785L288.346 57.246L293.827 63H291.832ZM306.101 56.679C306.101 57.183 306.087 57.568 306.059 57.834H296.546C296.588 58.702 296.798 59.444 297.176 60.06C297.554 60.676 298.051 61.145 298.667 61.467C299.283 61.775 299.955 61.929 300.683 61.929C301.635 61.929 302.433 61.698 303.077 61.236C303.735 60.774 304.169 60.151 304.379 59.367H305.933C305.653 60.487 305.051 61.404 304.127 62.118C303.217 62.818 302.069 63.168 300.683 63.168C299.605 63.168 298.639 62.93 297.785 62.454C296.931 61.964 296.259 61.278 295.769 60.396C295.293 59.5 295.055 58.457 295.055 57.267C295.055 56.077 295.293 55.034 295.769 54.138C296.245 53.242 296.91 52.556 297.764 52.08C298.618 51.604 299.591 51.366 300.683 51.366C301.775 51.366 302.727 51.604 303.539 52.08C304.365 52.556 304.995 53.2 305.429 54.012C305.877 54.81 306.101 55.699 306.101 56.679ZM304.61 56.637C304.624 55.783 304.449 55.055 304.085 54.453C303.735 53.851 303.252 53.396 302.636 53.088C302.02 52.78 301.348 52.626 300.62 52.626C299.528 52.626 298.597 52.976 297.827 53.676C297.057 54.376 296.63 55.363 296.546 56.637H304.61ZM310.26 53.571C310.582 52.857 311.072 52.304 311.73 51.912C312.402 51.52 313.221 51.324 314.187 51.324V52.857H313.788C312.724 52.857 311.87 53.144 311.226 53.718C310.582 54.292 310.26 55.251 310.26 56.595V63H308.79V51.534H310.26V53.571ZM320.347 63.168C319.031 63.168 317.953 62.867 317.113 62.265C316.287 61.649 315.825 60.816 315.727 59.766H317.239C317.309 60.41 317.61 60.935 318.142 61.341C318.688 61.733 319.416 61.929 320.326 61.929C321.124 61.929 321.747 61.74 322.195 61.362C322.657 60.984 322.888 60.515 322.888 59.955C322.888 59.563 322.762 59.241 322.51 58.989C322.258 58.737 321.936 58.541 321.544 58.401C321.166 58.247 320.648 58.086 319.99 57.918C319.136 57.694 318.443 57.47 317.911 57.246C317.379 57.022 316.924 56.693 316.546 56.259C316.182 55.811 316 55.216 316 54.474C316 53.914 316.168 53.396 316.504 52.92C316.84 52.444 317.316 52.066 317.932 51.786C318.548 51.506 319.248 51.366 320.032 51.366C321.264 51.366 322.258 51.681 323.014 52.311C323.77 52.927 324.176 53.781 324.232 54.873H322.762C322.72 54.201 322.454 53.662 321.964 53.256C321.488 52.836 320.83 52.626 319.99 52.626C319.248 52.626 318.646 52.801 318.184 53.151C317.722 53.501 317.491 53.935 317.491 54.453C317.491 54.901 317.624 55.272 317.89 55.566C318.17 55.846 318.513 56.07 318.919 56.238C319.325 56.392 319.871 56.567 320.557 56.763C321.383 56.987 322.041 57.204 322.531 57.414C323.021 57.624 323.441 57.932 323.791 58.338C324.141 58.744 324.323 59.283 324.337 59.955C324.337 60.571 324.169 61.124 323.833 61.614C323.497 62.09 323.028 62.468 322.426 62.748C321.824 63.028 321.131 63.168 320.347 63.168ZM334.337 48.321V63H332.867V48.321H334.337ZM343.041 51.324C344.413 51.324 345.533 51.751 346.401 52.605C347.269 53.445 347.703 54.67 347.703 56.28V63H346.254V56.448C346.254 55.202 345.939 54.25 345.309 53.592C344.693 52.934 343.846 52.605 342.768 52.605C341.662 52.605 340.78 52.955 340.122 53.655C339.464 54.355 339.135 55.384 339.135 56.742V63H337.665V51.534H339.135V53.487C339.499 52.787 340.024 52.255 340.71 51.891C341.396 51.513 342.173 51.324 343.041 51.324ZM365.306 48.321V49.539H361.232V63H359.762V49.539H355.667V48.321H365.306ZM369.097 53.571C369.419 52.857 369.909 52.304 370.567 51.912C371.239 51.52 372.058 51.324 373.024 51.324V52.857H372.625C371.561 52.857 370.707 53.144 370.063 53.718C369.419 54.292 369.097 55.251 369.097 56.595V63H367.627V51.534H369.097V53.571ZM374.564 57.246C374.564 56.07 374.795 55.041 375.257 54.159C375.733 53.263 376.384 52.577 377.21 52.101C378.05 51.611 378.995 51.366 380.045 51.366C381.137 51.366 382.075 51.618 382.859 52.122C383.657 52.626 384.231 53.27 384.581 54.054V51.534H386.051V63H384.581V60.459C384.217 61.243 383.636 61.894 382.838 62.412C382.054 62.916 381.116 63.168 380.024 63.168C378.988 63.168 378.05 62.923 377.21 62.433C376.384 61.943 375.733 61.25 375.257 60.354C374.795 59.458 374.564 58.422 374.564 57.246ZM384.581 57.267C384.581 56.343 384.392 55.531 384.014 54.831C383.636 54.131 383.118 53.592 382.46 53.214C381.816 52.836 381.102 52.647 380.318 52.647C379.506 52.647 378.778 52.829 378.134 53.193C377.49 53.557 376.979 54.089 376.601 54.789C376.237 55.475 376.055 56.294 376.055 57.246C376.055 58.184 376.237 59.01 376.601 59.724C376.979 60.424 377.49 60.963 378.134 61.341C378.778 61.705 379.506 61.887 380.318 61.887C381.102 61.887 381.816 61.698 382.46 61.32C383.118 60.942 383.636 60.403 384.014 59.703C384.392 59.003 384.581 58.191 384.581 57.267ZM390.142 49.371C389.848 49.371 389.596 49.266 389.386 49.056C389.176 48.846 389.071 48.587 389.071 48.279C389.071 47.971 389.176 47.719 389.386 47.523C389.596 47.313 389.848 47.208 390.142 47.208C390.436 47.208 390.688 47.313 390.898 47.523C391.108 47.719 391.213 47.971 391.213 48.279C391.213 48.587 391.108 48.846 390.898 49.056C390.688 49.266 390.436 49.371 390.142 49.371ZM390.877 51.534V63H389.407V51.534H390.877ZM399.581 51.324C400.953 51.324 402.073 51.751 402.941 52.605C403.809 53.445 404.243 54.67 404.243 56.28V63H402.794V56.448C402.794 55.202 402.479 54.25 401.849 53.592C401.233 52.934 400.386 52.605 399.308 52.605C398.202 52.605 397.32 52.955 396.662 53.655C396.004 54.355 395.675 55.384 395.675 56.742V63H394.205V51.534H395.675V53.487C396.039 52.787 396.564 52.255 397.25 51.891C397.936 51.513 398.713 51.324 399.581 51.324ZM408.229 49.371C407.935 49.371 407.683 49.266 407.473 49.056C407.263 48.846 407.158 48.587 407.158 48.279C407.158 47.971 407.263 47.719 407.473 47.523C407.683 47.313 407.935 47.208 408.229 47.208C408.523 47.208 408.775 47.313 408.985 47.523C409.195 47.719 409.3 47.971 409.3 48.279C409.3 48.587 409.195 48.846 408.985 49.056C408.775 49.266 408.523 49.371 408.229 49.371ZM408.964 51.534V63H407.494V51.534H408.964ZM417.669 51.324C419.041 51.324 420.161 51.751 421.029 52.605C421.897 53.445 422.331 54.67 422.331 56.28V63H420.882V56.448C420.882 55.202 420.567 54.25 419.937 53.592C419.321 52.934 418.474 52.605 417.396 52.605C416.29 52.605 415.408 52.955 414.75 53.655C414.092 54.355 413.763 55.384 413.763 56.742V63H412.293V51.534H413.763V53.487C414.127 52.787 414.652 52.255 415.338 51.891C416.024 51.513 416.801 51.324 417.669 51.324ZM430.391 51.366C431.469 51.366 432.407 51.618 433.205 52.122C434.003 52.626 434.577 53.263 434.927 54.033V51.534H436.397V63.294C436.397 64.344 436.166 65.275 435.704 66.087C435.256 66.899 434.626 67.522 433.814 67.956C433.002 68.404 432.078 68.628 431.042 68.628C429.572 68.628 428.347 68.278 427.367 67.578C426.401 66.878 425.799 65.926 425.561 64.722H427.01C427.262 65.52 427.738 66.157 428.438 66.633C429.152 67.109 430.02 67.347 431.042 67.347C431.784 67.347 432.449 67.186 433.037 66.864C433.625 66.556 434.087 66.094 434.423 65.478C434.759 64.862 434.927 64.134 434.927 63.294V60.459C434.563 61.243 433.982 61.894 433.184 62.412C432.4 62.916 431.469 63.168 430.391 63.168C429.341 63.168 428.396 62.923 427.556 62.433C426.73 61.943 426.079 61.25 425.603 60.354C425.141 59.458 424.91 58.422 424.91 57.246C424.91 56.07 425.141 55.041 425.603 54.159C426.079 53.263 426.73 52.577 427.556 52.101C428.396 51.611 429.341 51.366 430.391 51.366ZM434.927 57.267C434.927 56.343 434.738 55.531 434.36 54.831C433.982 54.131 433.464 53.592 432.806 53.214C432.162 52.836 431.448 52.647 430.664 52.647C429.852 52.647 429.124 52.829 428.48 53.193C427.836 53.557 427.325 54.089 426.947 54.789C426.583 55.475 426.401 56.294 426.401 57.246C426.401 58.184 426.583 59.01 426.947 59.724C427.325 60.424 427.836 60.963 428.48 61.341C429.124 61.705 429.852 61.887 430.664 61.887C431.448 61.887 432.162 61.698 432.806 61.32C433.464 60.942 433.982 60.403 434.36 59.703C434.738 59.003 434.927 58.191 434.927 57.267Z" fill="#333333"/>
<path d="M899.192 56.594H903.828V58H897.463V44.757H899.192V56.594ZM905.018 52.756C905.018 51.692 905.234 50.761 905.664 49.963C906.095 49.1523 906.684 48.5253 907.431 48.082C908.191 47.6387 909.034 47.417 909.958 47.417C910.87 47.417 911.662 47.6133 912.333 48.006C913.005 48.3987 913.505 48.8927 913.834 49.488V47.588H915.582V58H913.834V56.062C913.492 56.67 912.979 57.1767 912.295 57.582C911.624 57.9747 910.839 58.171 909.939 58.171C909.015 58.171 908.179 57.943 907.431 57.487C906.684 57.031 906.095 56.3913 905.664 55.568C905.234 54.7447 905.018 53.8073 905.018 52.756ZM913.834 52.775C913.834 51.9897 913.676 51.3057 913.359 50.723C913.043 50.1403 912.612 49.697 912.067 49.393C911.535 49.0763 910.946 48.918 910.3 48.918C909.654 48.918 909.065 49.07 908.533 49.374C908.001 49.678 907.577 50.1213 907.26 50.704C906.944 51.2867 906.785 51.9707 906.785 52.756C906.785 53.554 906.944 54.2507 907.26 54.846C907.577 55.4287 908.001 55.8783 908.533 56.195C909.065 56.499 909.654 56.651 910.3 56.651C910.946 56.651 911.535 56.499 912.067 56.195C912.612 55.8783 913.043 55.4287 913.359 54.846C913.676 54.2507 913.834 53.5603 913.834 52.775ZM922.19 58.171C921.392 58.171 920.676 58.038 920.043 57.772C919.41 57.4933 918.909 57.1133 918.542 56.632C918.175 56.138 917.972 55.5743 917.934 54.941H919.72C919.771 55.4603 920.011 55.8847 920.442 56.214C920.885 56.5433 921.462 56.708 922.171 56.708C922.83 56.708 923.349 56.5623 923.729 56.271C924.109 55.9797 924.299 55.6123 924.299 55.169C924.299 54.713 924.096 54.3773 923.691 54.162C923.286 53.934 922.659 53.7123 921.81 53.497C921.037 53.2943 920.404 53.0917 919.91 52.889C919.429 52.6737 919.011 52.3633 918.656 51.958C918.314 51.54 918.143 50.9953 918.143 50.324C918.143 49.792 918.301 49.3043 918.618 48.861C918.935 48.4177 919.384 48.0693 919.967 47.816C920.55 47.55 921.215 47.417 921.962 47.417C923.115 47.417 924.046 47.7083 924.755 48.291C925.464 48.8737 925.844 49.6717 925.895 50.685H924.166C924.128 50.1403 923.906 49.7033 923.501 49.374C923.108 49.0447 922.576 48.88 921.905 48.88C921.284 48.88 920.79 49.013 920.423 49.279C920.056 49.545 919.872 49.8933 919.872 50.324C919.872 50.666 919.98 50.951 920.195 51.179C920.423 51.3943 920.702 51.5717 921.031 51.711C921.373 51.8377 921.842 51.9833 922.437 52.148C923.184 52.3507 923.792 52.5533 924.261 52.756C924.73 52.946 925.129 53.2373 925.458 53.63C925.8 54.0227 925.977 54.5357 925.99 55.169C925.99 55.739 925.832 56.252 925.515 56.708C925.198 57.164 924.749 57.525 924.166 57.791C923.596 58.0443 922.937 58.171 922.19 58.171ZM930.54 49.013V55.15C930.54 55.6567 930.647 56.0177 930.863 56.233C931.078 56.4357 931.452 56.537 931.984 56.537H933.257V58H931.699C930.736 58 930.014 57.7783 929.533 57.335C929.051 56.8917 928.811 56.1633 928.811 55.15V49.013H927.462V47.588H928.811V44.966H930.54V47.588H933.257V49.013H930.54ZM939.676 45.84V44.263H943.248V58H941.5V45.84H939.676ZM945.8 54.941V53.63L952.469 44.396H954.54V53.44H956.44V54.941H954.54V58H952.83V54.941H945.8ZM952.906 46.201L947.795 53.44H952.906V46.201ZM967.641 44.757C969.085 44.757 970.332 45.0293 971.384 45.574C972.448 46.106 973.258 46.8723 973.816 47.873C974.386 48.8737 974.671 50.0517 974.671 51.407C974.671 52.7623 974.386 53.9403 973.816 54.941C973.258 55.929 972.448 56.689 971.384 57.221C970.332 57.7403 969.085 58 967.641 58H963.518V44.757H967.641ZM967.641 56.575C969.351 56.575 970.655 56.1253 971.555 55.226C972.454 54.314 972.904 53.041 972.904 51.407C972.904 49.7603 972.448 48.4747 971.536 47.55C970.636 46.6253 969.338 46.163 967.641 46.163H965.247V56.575H967.641ZM976.305 52.756C976.305 51.692 976.521 50.761 976.951 49.963C977.382 49.1523 977.971 48.5253 978.718 48.082C979.478 47.6387 980.321 47.417 981.245 47.417C982.157 47.417 982.949 47.6133 983.62 48.006C984.292 48.3987 984.792 48.8927 985.121 49.488V47.588H986.869V58H985.121V56.062C984.779 56.67 984.266 57.1767 983.582 57.582C982.911 57.9747 982.126 58.171 981.226 58.171C980.302 58.171 979.466 57.943 978.718 57.487C977.971 57.031 977.382 56.3913 976.951 55.568C976.521 54.7447 976.305 53.8073 976.305 52.756ZM985.121 52.775C985.121 51.9897 984.963 51.3057 984.646 50.723C984.33 50.1403 983.899 49.697 983.354 49.393C982.822 49.0763 982.233 48.918 981.587 48.918C980.941 48.918 980.352 49.07 979.82 49.374C979.288 49.678 978.864 50.1213 978.547 50.704C978.231 51.2867 978.072 51.9707 978.072 52.756C978.072 53.554 978.231 54.2507 978.547 54.846C978.864 55.4287 979.288 55.8783 979.82 56.195C980.352 56.499 980.941 56.651 981.587 56.651C982.233 56.651 982.822 56.499 983.354 56.195C983.899 55.8783 984.33 55.4287 984.646 54.846C984.963 54.2507 985.121 53.5603 985.121 52.775ZM998.759 47.588L992.489 62.902H990.703L992.755 57.886L988.556 47.588H990.475L993.743 56.024L996.973 47.588H998.759ZM1004.18 58.171C1003.39 58.171 1002.67 58.038 1002.04 57.772C1001.4 57.4933 1000.9 57.1133 1000.54 56.632C1000.17 56.138 999.965 55.5743 999.927 54.941H1001.71C1001.76 55.4603 1002 55.8847 1002.44 56.214C1002.88 56.5433 1003.45 56.708 1004.16 56.708C1004.82 56.708 1005.34 56.5623 1005.72 56.271C1006.1 55.9797 1006.29 55.6123 1006.29 55.169C1006.29 54.713 1006.09 54.3773 1005.68 54.162C1005.28 53.934 1004.65 53.7123 1003.8 53.497C1003.03 53.2943 1002.4 53.0917 1001.9 52.889C1001.42 52.6737 1001 52.3633 1000.65 51.958C1000.31 51.54 1000.14 50.9953 1000.14 50.324C1000.14 49.792 1000.29 49.3043 1000.61 48.861C1000.93 48.4177 1001.38 48.0693 1001.96 47.816C1002.54 47.55 1003.21 47.417 1003.96 47.417C1005.11 47.417 1006.04 47.7083 1006.75 48.291C1007.46 48.8737 1007.84 49.6717 1007.89 50.685H1006.16C1006.12 50.1403 1005.9 49.7033 1005.49 49.374C1005.1 49.0447 1004.57 48.88 1003.9 48.88C1003.28 48.88 1002.78 49.013 1002.42 49.279C1002.05 49.545 1001.87 49.8933 1001.87 50.324C1001.87 50.666 1001.97 50.951 1002.19 51.179C1002.42 51.3943 1002.69 51.5717 1003.02 51.711C1003.37 51.8377 1003.83 51.9833 1004.43 52.148C1005.18 52.3507 1005.79 52.5533 1006.25 52.756C1006.72 52.946 1007.12 53.2373 1007.45 53.63C1007.79 54.0227 1007.97 54.5357 1007.98 55.169C1007.98 55.739 1007.82 56.252 1007.51 56.708C1007.19 57.164 1006.74 57.525 1006.16 57.791C1005.59 58.0443 1004.93 58.171 1004.18 58.171Z" fill="#333333"/>
</g>
<defs>
<filter id="filter0_d_1_228" x="25" y="22" width="1004" height="421" filterUnits="userSpaceOnUse" color-interpolation-filters="sRGB">
<feFlood flood-opacity="0" result="BackgroundImageFix"/>
<feColorMatrix in="SourceAlpha" type="matrix" values="0 0 0 0 0 0 0 0 0 0 0 0 0 0 0 0 0 0 127 0" result="hardAlpha"/>
<feOffset dy="4"/>
<feGaussianBlur stdDeviation="2"/>
<feComposite in2="hardAlpha" operator="out"/>
<feColorMatrix type="matrix" values="0 0 0 0 0.0941176 0 0 0 0 0.470588 0 0 0 0 0.94902 0 0 0 0.25 0"/>
<feBlend mode="normal" in2="BackgroundImageFix" result="effect1_dropShadow_1_228"/>
<feBlend mode="normal" in="SourceGraphic" in2="effect1_dropShadow_1_228" result="shape"/>
</filter>
<filter id="filter1_d_1_228" x="0.801237" y="0.850928" width="1052.4" height="469.398" filterUnits="userSpaceOnUse" color-interpolation-filters="sRGB">
<feFlood flood-opacity="0" result="BackgroundImageFix"/>
<feColorMatrix in="SourceAlpha" type="matrix" values="0 0 0 0 0 0 0 0 0 0 0 0 0 0 0 0 0 0 127 0" result="hardAlpha"/>
<feOffset dy="7.04969"/>
<feGaussianBlur stdDeviation="14.0994"/>
<feComposite in2="hardAlpha" operator="out"/>
<feColorMatrix type="matrix" values="0 0 0 0 0 0 0 0 0 0 0 0 0 0 0 0 0 0 0.05 0"/>
<feBlend mode="normal" in2="BackgroundImageFix" result="effect1_dropShadow_1_228"/>
<feBlend mode="normal" in="SourceGraphic" in2="effect1_dropShadow_1_228" result="shape"/>
</filter>
<filter id="filter2_d_1_228" x="122.384" y="277.249" width="46.1124" height="105.155" filterUnits="userSpaceOnUse" color-interpolation-filters="sRGB">
<feFlood flood-opacity="0" result="BackgroundImageFix"/>
<feColorMatrix in="SourceAlpha" type="matrix" values="0 0 0 0 0 0 0 0 0 0 0 0 0 0 0 0 0 0 127 0" result="hardAlpha"/>
<feOffset/>
<feGaussianBlur stdDeviation="7.04969"/>
<feComposite in2="hardAlpha" operator="out"/>
<feColorMatrix type="matrix" values="0 0 0 0 0 0 0 0 0 0 0 0 0 0 0 0 0 0 0.1 0"/>
<feBlend mode="normal" in2="BackgroundImageFix" result="effect1_dropShadow_1_228"/>
<feBlend mode="normal" in="SourceGraphic" in2="effect1_dropShadow_1_228" result="shape"/>
</filter>
<filter id="filter3_d_1_228" x="197.621" y="256.727" width="46.1124" height="125.677" filterUnits="userSpaceOnUse" color-interpolation-filters="sRGB">
<feFlood flood-opacity="0" result="BackgroundImageFix"/>
<feColorMatrix in="SourceAlpha" type="matrix" values="0 0 0 0 0 0 0 0 0 0 0 0 0 0 0 0 0 0 127 0" result="hardAlpha"/>
<feOffset/>
<feGaussianBlur stdDeviation="7.04969"/>
<feComposite in2="hardAlpha" operator="out"/>
<feColorMatrix type="matrix" values="0 0 0 0 0 0 0 0 0 0 0 0 0 0 0 0 0 0 0.1 0"/>
<feBlend mode="normal" in2="BackgroundImageFix" result="effect1_dropShadow_1_228"/>
<feBlend mode="normal" in="SourceGraphic" in2="effect1_dropShadow_1_228" result="shape"/>
</filter>
<filter id="filter4_d_1_228" x="271.066" y="256.727" width="46.1124" height="125.677" filterUnits="userSpaceOnUse" color-interpolation-filters="sRGB">
<feFlood flood-opacity="0" result="BackgroundImageFix"/>
<feColorMatrix in="SourceAlpha" type="matrix" values="0 0 0 0 0 0 0 0 0 0 0 0 0 0 0 0 0 0 127 0" result="hardAlpha"/>
<feOffset/>
<feGaussianBlur stdDeviation="7.04969"/>
<feComposite in2="hardAlpha" operator="out"/>
<feColorMatrix type="matrix" values="0 0 0 0 0 0 0 0 0 0 0 0 0 0 0 0 0 0 0.1 0"/>
<feBlend mode="normal" in2="BackgroundImageFix" result="effect1_dropShadow_1_228"/>
<feBlend mode="normal" in="SourceGraphic" in2="effect1_dropShadow_1_228" result="shape"/>
</filter>
<filter id="filter5_d_1_228" x="342.721" y="197.727" width="46.1124" height="184.677" filterUnits="userSpaceOnUse" color-interpolation-filters="sRGB">
<feFlood flood-opacity="0" result="BackgroundImageFix"/>
<feColorMatrix in="SourceAlpha" type="matrix" values="0 0 0 0 0 0 0 0 0 0 0 0 0 0 0 0 0 0 127 0" result="hardAlpha"/>
<feOffset/>
<feGaussianBlur stdDeviation="7.04969"/>
<feComposite in2="hardAlpha" operator="out"/>
<feColorMatrix type="matrix" values="0 0 0 0 0 0 0 0 0 0 0 0 0 0 0 0 0 0 0.1 0"/>
<feBlend mode="normal" in2="BackgroundImageFix" result="effect1_dropShadow_1_228"/>
<feBlend mode="normal" in="SourceGraphic" in2="effect1_dropShadow_1_228" result="shape"/>
</filter>
<filter id="filter6_d_1_228" x="416.167" y="177.206" width="46.1124" height="205.199" filterUnits="userSpaceOnUse" color-interpolation-filters="sRGB">
<feFlood flood-opacity="0" result="BackgroundImageFix"/>
<feColorMatrix in="SourceAlpha" type="matrix" values="0 0 0 0 0 0 0 0 0 0 0 0 0 0 0 0 0 0 127 0" result="hardAlpha"/>
<feOffset/>
<feGaussianBlur stdDeviation="7.04969"/>
<feComposite in2="hardAlpha" operator="out"/>
<feColorMatrix type="matrix" values="0 0 0 0 0 0 0 0 0 0 0 0 0 0 0 0 0 0 0.1 0"/>
<feBlend mode="normal" in2="BackgroundImageFix" result="effect1_dropShadow_1_228"/>
<feBlend mode="normal" in="SourceGraphic" in2="effect1_dropShadow_1_228" result="shape"/>
</filter>
<filter id="filter7_d_1_228" x="494.987" y="218.249" width="46.1124" height="164.155" filterUnits="userSpaceOnUse" color-interpolation-filters="sRGB">
<feFlood flood-opacity="0" result="BackgroundImageFix"/>
<feColorMatrix in="SourceAlpha" type="matrix" values="0 0 0 0 0 0 0 0 0 0 0 0 0 0 0 0 0 0 127 0" result="hardAlpha"/>
<feOffset/>
<feGaussianBlur stdDeviation="7.04969"/>
<feComposite in2="hardAlpha" operator="out"/>
<feColorMatrix type="matrix" values="0 0 0 0 0 0 0 0 0 0 0 0 0 0 0 0 0 0 0.1 0"/>
<feBlend mode="normal" in2="BackgroundImageFix" result="effect1_dropShadow_1_228"/>
<feBlend mode="normal" in="SourceGraphic" in2="effect1_dropShadow_1_228" result="shape"/>
</filter>
<filter id="filter8_d_1_228" x="565.422" y="197.093" width="47.4784" height="185.229" filterUnits="userSpaceOnUse" color-interpolation-filters="sRGB">
<feFlood flood-opacity="0" result="BackgroundImageFix"/>
<feColorMatrix in="SourceAlpha" type="matrix" values="0 0 0 0 0 0 0 0 0 0 0 0 0 0 0 0 0 0 127 0" result="hardAlpha"/>
<feOffset/>
<feGaussianBlur stdDeviation="7.04969"/>
<feComposite in2="hardAlpha" operator="out"/>
<feColorMatrix type="matrix" values="0 0 0 0 0 0 0 0 0 0 0 0 0 0 0 0 0 0 0.1 0"/>
<feBlend mode="normal" in2="BackgroundImageFix" result="effect1_dropShadow_1_228"/>
<feBlend mode="normal" in="SourceGraphic" in2="effect1_dropShadow_1_228" result="shape"/>
</filter>
<filter id="filter9_d_1_228" x="640.088" y="277.249" width="46.1124" height="105.155" filterUnits="userSpaceOnUse" color-interpolation-filters="sRGB">
<feFlood flood-opacity="0" result="BackgroundImageFix"/>
<feColorMatrix in="SourceAlpha" type="matrix" values="0 0 0 0 0 0 0 0 0 0 0 0 0 0 0 0 0 0 127 0" result="hardAlpha"/>
<feOffset/>
<feGaussianBlur stdDeviation="7.04969"/>
<feComposite in2="hardAlpha" operator="out"/>
<feColorMatrix type="matrix" values="0 0 0 0 0 0 0 0 0 0 0 0 0 0 0 0 0 0 0.1 0"/>
<feBlend mode="normal" in2="BackgroundImageFix" result="effect1_dropShadow_1_228"/>
<feBlend mode="normal" in="SourceGraphic" in2="effect1_dropShadow_1_228" result="shape"/>
</filter>
<filter id="filter10_d_1_228" x="713.534" y="177.206" width="46.1125" height="205.199" filterUnits="userSpaceOnUse" color-interpolation-filters="sRGB">
<feFlood flood-opacity="0" result="BackgroundImageFix"/>
<feColorMatrix in="SourceAlpha" type="matrix" values="0 0 0 0 0 0 0 0 0 0 0 0 0 0 0 0 0 0 127 0" result="hardAlpha"/>
<feOffset/>
<feGaussianBlur stdDeviation="7.04969"/>
<feComposite in2="hardAlpha" operator="out"/>
<feColorMatrix type="matrix" values="0 0 0 0 0 0 0 0 0 0 0 0 0 0 0 0 0 0 0.1 0"/>
<feBlend mode="normal" in2="BackgroundImageFix" result="effect1_dropShadow_1_228"/>
<feBlend mode="normal" in="SourceGraphic" in2="effect1_dropShadow_1_228" result="shape"/>
</filter>
<filter id="filter11_d_1_228" x="788.772" y="141.292" width="46.1125" height="241.112" filterUnits="userSpaceOnUse" color-interpolation-filters="sRGB">
<feFlood flood-opacity="0" result="BackgroundImageFix"/>
<feColorMatrix in="SourceAlpha" type="matrix" values="0 0 0 0 0 0 0 0 0 0 0 0 0 0 0 0 0 0 127 0" result="hardAlpha"/>
<feOffset/>
<feGaussianBlur stdDeviation="7.04969"/>
<feComposite in2="hardAlpha" operator="out"/>
<feColorMatrix type="matrix" values="0 0 0 0 0 0 0 0 0 0 0 0 0 0 0 0 0 0 0.1 0"/>
<feBlend mode="normal" in2="BackgroundImageFix" result="effect1_dropShadow_1_228"/>
<feBlend mode="normal" in="SourceGraphic" in2="effect1_dropShadow_1_228" result="shape"/>
</filter>
<filter id="filter12_d_1_228" x="860.427" y="120.771" width="46.1125" height="261.634" filterUnits="userSpaceOnUse" color-interpolation-filters="sRGB">
<feFlood flood-opacity="0" result="BackgroundImageFix"/>
<feColorMatrix in="SourceAlpha" type="matrix" values="0 0 0 0 0 0 0 0 0 0 0 0 0 0 0 0 0 0 127 0" result="hardAlpha"/>
<feOffset/>
<feGaussianBlur stdDeviation="7.04969"/>
<feComposite in2="hardAlpha" operator="out"/>
<feColorMatrix type="matrix" values="0 0 0 0 0 0 0 0 0 0 0 0 0 0 0 0 0 0 0.1 0"/>
<feBlend mode="normal" in2="BackgroundImageFix" result="effect1_dropShadow_1_228"/>
<feBlend mode="normal" in="SourceGraphic" in2="effect1_dropShadow_1_228" result="shape"/>
</filter>
<filter id="filter13_d_1_228" x="935.664" y="97.6838" width="46.1125" height="284.72" filterUnits="userSpaceOnUse" color-interpolation-filters="sRGB">
<feFlood flood-opacity="0" result="BackgroundImageFix"/>
<feColorMatrix in="SourceAlpha" type="matrix" values="0 0 0 0 0 0 0 0 0 0 0 0 0 0 0 0 0 0 127 0" result="hardAlpha"/>
<feOffset/>
<feGaussianBlur stdDeviation="7.04969"/>
<feComposite in2="hardAlpha" operator="out"/>
<feColorMatrix type="matrix" values="0 0 0 0 0 0 0 0 0 0 0 0 0 0 0 0 0 0 0.1 0"/>
<feBlend mode="normal" in2="BackgroundImageFix" result="effect1_dropShadow_1_228"/>
<feBlend mode="normal" in="SourceGraphic" in2="effect1_dropShadow_1_228" result="shape"/>
</filter>
<linearGradient id="paint0_linear_1_228" x1="148.628" y1="330.25" x2="103.451" y2="151.285" gradientUnits="userSpaceOnUse">
<stop stop-color="#0D62FF"/>
<stop offset="1" stop-color="#1B59F8" stop-opacity="0"/>
</linearGradient>
<linearGradient id="paint1_linear_1_228" x1="223.865" y1="320.102" x2="153.914" y2="101.336" gradientUnits="userSpaceOnUse">
<stop stop-color="#0D62FF"/>
<stop offset="1" stop-color="#1B59F8" stop-opacity="0"/>
</linearGradient>
<linearGradient id="paint2_linear_1_228" x1="297.311" y1="320.102" x2="227.359" y2="101.336" gradientUnits="userSpaceOnUse">
<stop stop-color="#0D62FF"/>
<stop offset="1" stop-color="#1B59F8" stop-opacity="0"/>
</linearGradient>
<linearGradient id="paint3_linear_1_228" x1="368.966" y1="290.927" x2="211.711" y2="-15.4395" gradientUnits="userSpaceOnUse">
<stop stop-color="#0D62FF"/>
<stop offset="1" stop-color="#1B59F8" stop-opacity="0"/>
</linearGradient>
<linearGradient id="paint4_linear_1_228" x1="442.412" y1="280.78" x2="252.286" y2="-46.6801" gradientUnits="userSpaceOnUse">
<stop stop-color="#0D62FF"/>
<stop offset="1" stop-color="#1B59F8" stop-opacity="0"/>
</linearGradient>
<linearGradient id="paint5_linear_1_228" x1="521.232" y1="301.075" x2="396.125" y2="20.5505" gradientUnits="userSpaceOnUse">
<stop stop-color="#0D62FF"/>
<stop offset="1" stop-color="#1B59F8" stop-opacity="0"/>
</linearGradient>
<linearGradient id="paint6_linear_1_228" x1="592.358" y1="290.543" x2="431.309" y2="-15.0408" gradientUnits="userSpaceOnUse">
<stop stop-color="#0D62FF"/>
<stop offset="1" stop-color="#1B59F8" stop-opacity="0"/>
</linearGradient>
<linearGradient id="paint7_linear_1_228" x1="666.332" y1="330.25" x2="621.155" y2="151.285" gradientUnits="userSpaceOnUse">
<stop stop-color="#0D62FF"/>
<stop offset="1" stop-color="#1B59F8" stop-opacity="0"/>
</linearGradient>
<linearGradient id="paint8_linear_1_228" x1="739.778" y1="280.78" x2="549.652" y2="-46.6801" gradientUnits="userSpaceOnUse">
<stop stop-color="#0D62FF"/>
<stop offset="1" stop-color="#1B59F8" stop-opacity="0"/>
</linearGradient>
<linearGradient id="paint9_linear_1_228" x1="815.016" y1="263.021" x2="567.772" y2="-90.9887" gradientUnits="userSpaceOnUse">
<stop stop-color="#0D62FF"/>
<stop offset="1" stop-color="#1B59F8" stop-opacity="0"/>
</linearGradient>
<linearGradient id="paint10_linear_1_228" x1="886.671" y1="252.873" x2="607.934" y2="-111.143" gradientUnits="userSpaceOnUse">
<stop stop-color="#0D62FF"/>
<stop offset="1" stop-color="#1B59F8" stop-opacity="0"/>
</linearGradient>
<linearGradient id="paint11_linear_1_228" x1="961.908" y1="241.457" x2="649.295" y2="-130.056" gradientUnits="userSpaceOnUse">
<stop stop-color="#0D62FF"/>
<stop offset="1" stop-color="#1B59F8" stop-opacity="0"/>
</linearGradient>
</defs>
</svg>
