<svg width="326" height="180" viewBox="0 0 326 180" fill="none" xmlns="http://www.w3.org/2000/svg">
<g filter="url(#filter0_d_1_104)">
<rect x="5" y="1" width="316" height="170" rx="10" fill="white" shape-rendering="crispEdges"/>
<path d="M34.314 24.321L28.749 39H27.069L21.504 24.321H23.1L27.909 37.404L32.76 24.321H34.314ZM37.2578 25.371C36.9638 25.371 36.7118 25.266 36.5018 25.056C36.2918 24.846 36.1868 24.587 36.1868 24.279C36.1868 23.971 36.2918 23.719 36.5018 23.523C36.7118 23.313 36.9638 23.208 37.2578 23.208C37.5518 23.208 37.8038 23.313 38.0138 23.523C38.2238 23.719 38.3288 23.971 38.3288 24.279C38.3288 24.587 38.2238 24.846 38.0138 25.056C37.8038 25.266 37.5518 25.371 37.2578 25.371ZM37.9928 27.534V39H36.5228V27.534H37.9928ZM40.6496 33.246C40.6496 32.07 40.8876 31.041 41.3636 30.159C41.8396 29.263 42.4906 28.577 43.3166 28.101C44.1566 27.611 45.1016 27.366 46.1516 27.366C47.1596 27.366 48.0696 27.611 48.8816 28.101C49.6936 28.591 50.2886 29.228 50.6666 30.012V23.46H52.1366V39H50.6666V36.438C50.3166 37.236 49.7426 37.894 48.9446 38.412C48.1466 38.916 47.2086 39.168 46.1306 39.168C45.0806 39.168 44.1356 38.923 43.2956 38.433C42.4696 37.943 41.8186 37.25 41.3426 36.354C40.8806 35.458 40.6496 34.422 40.6496 33.246ZM50.6666 33.267C50.6666 32.343 50.4776 31.531 50.0996 30.831C49.7216 30.131 49.2036 29.592 48.5456 29.214C47.9016 28.836 47.1876 28.647 46.4036 28.647C45.5916 28.647 44.8636 28.829 44.2196 29.193C43.5756 29.557 43.0646 30.089 42.6866 30.789C42.3226 31.475 42.1406 32.294 42.1406 33.246C42.1406 34.184 42.3226 35.01 42.6866 35.724C43.0646 36.424 43.5756 36.963 44.2196 37.341C44.8636 37.705 45.5916 37.887 46.4036 37.887C47.1876 37.887 47.9016 37.698 48.5456 37.32C49.2036 36.942 49.7216 36.403 50.0996 35.703C50.4776 35.003 50.6666 34.191 50.6666 33.267ZM65.8665 32.679C65.8665 33.183 65.8525 33.568 65.8245 33.834H56.3115C56.3535 34.702 56.5635 35.444 56.9415 36.06C57.3195 36.676 57.8165 37.145 58.4325 37.467C59.0485 37.775 59.7205 37.929 60.4485 37.929C61.4005 37.929 62.1985 37.698 62.8425 37.236C63.5005 36.774 63.9345 36.151 64.1445 35.367H65.6985C65.4185 36.487 64.8165 37.404 63.8925 38.118C62.9825 38.818 61.8345 39.168 60.4485 39.168C59.3705 39.168 58.4045 38.93 57.5505 38.454C56.6965 37.964 56.0245 37.278 55.5345 36.396C55.0585 35.5 54.8205 34.457 54.8205 33.267C54.8205 32.077 55.0585 31.034 55.5345 30.138C56.0105 29.242 56.6755 28.556 57.5295 28.08C58.3835 27.604 59.3565 27.366 60.4485 27.366C61.5405 27.366 62.4925 27.604 63.3045 28.08C64.1305 28.556 64.7605 29.2 65.1945 30.012C65.6425 30.81 65.8665 31.699 65.8665 32.679ZM64.3755 32.637C64.3895 31.783 64.2145 31.055 63.8505 30.453C63.5005 29.851 63.0175 29.396 62.4015 29.088C61.7855 28.78 61.1135 28.626 60.3855 28.626C59.2935 28.626 58.3625 28.976 57.5925 29.676C56.8225 30.376 56.3955 31.363 56.3115 32.637H64.3755ZM73.575 39.168C72.497 39.168 71.524 38.93 70.656 38.454C69.802 37.964 69.123 37.278 68.619 36.396C68.129 35.5 67.884 34.457 67.884 33.267C67.884 32.077 68.136 31.041 68.64 30.159C69.144 29.263 69.83 28.577 70.698 28.101C71.566 27.611 72.539 27.366 73.617 27.366C74.695 27.366 75.668 27.611 76.536 28.101C77.418 28.577 78.104 29.263 78.594 30.159C79.098 31.041 79.35 32.077 79.35 33.267C79.35 34.443 79.098 35.479 78.594 36.375C78.09 37.271 77.397 37.964 76.515 38.454C75.633 38.93 74.653 39.168 73.575 39.168ZM73.575 37.887C74.331 37.887 75.031 37.719 75.675 37.383C76.319 37.033 76.837 36.515 77.229 35.829C77.635 35.129 77.838 34.275 77.838 33.267C77.838 32.259 77.642 31.412 77.25 30.726C76.858 30.026 76.34 29.508 75.696 29.172C75.052 28.822 74.352 28.647 73.596 28.647C72.84 28.647 72.14 28.822 71.496 29.172C70.852 29.508 70.334 30.026 69.942 30.726C69.564 31.412 69.375 32.259 69.375 33.267C69.375 34.275 69.564 35.129 69.942 35.829C70.334 36.515 70.845 37.033 71.475 37.383C72.119 37.719 72.819 37.887 73.575 37.887ZM105.6 24.321L101.442 39H99.8043L96.1083 26.484L92.3283 39L90.7323 39.021L86.6583 24.321H88.2333L91.5933 37.194L95.3523 24.321H96.9903L100.644 37.194L104.025 24.321H105.6ZM107.177 33.246C107.177 32.07 107.408 31.041 107.87 30.159C108.346 29.263 108.997 28.577 109.823 28.101C110.663 27.611 111.608 27.366 112.658 27.366C113.75 27.366 114.688 27.618 115.472 28.122C116.27 28.626 116.844 29.27 117.194 30.054V27.534H118.664V39H117.194V36.459C116.83 37.243 116.249 37.894 115.451 38.412C114.667 38.916 113.729 39.168 112.637 39.168C111.601 39.168 110.663 38.923 109.823 38.433C108.997 37.943 108.346 37.25 107.87 36.354C107.408 35.458 107.177 34.422 107.177 33.246ZM117.194 33.267C117.194 32.343 117.005 31.531 116.627 30.831C116.249 30.131 115.731 29.592 115.073 29.214C114.429 28.836 113.715 28.647 112.931 28.647C112.119 28.647 111.391 28.829 110.747 29.193C110.103 29.557 109.592 30.089 109.214 30.789C108.85 31.475 108.668 32.294 108.668 33.246C108.668 34.184 108.85 35.01 109.214 35.724C109.592 36.424 110.103 36.963 110.747 37.341C111.391 37.705 112.119 37.887 112.931 37.887C113.715 37.887 114.429 37.698 115.073 37.32C115.731 36.942 116.249 36.403 116.627 35.703C117.005 35.003 117.194 34.191 117.194 33.267ZM123.931 28.773V35.892C123.931 36.592 124.064 37.075 124.33 37.341C124.596 37.607 125.065 37.74 125.737 37.74H127.081V39H125.506C124.47 39 123.7 38.762 123.196 38.286C122.692 37.796 122.44 36.998 122.44 35.892V28.773H120.844V27.534H122.44V24.657H123.931V27.534H127.081V28.773H123.931ZM128.833 33.267C128.833 32.077 129.071 31.041 129.547 30.159C130.023 29.263 130.681 28.577 131.521 28.101C132.361 27.611 133.32 27.366 134.398 27.366C135.812 27.366 136.974 27.716 137.884 28.416C138.808 29.116 139.403 30.068 139.669 31.272H138.094C137.898 30.446 137.471 29.802 136.813 29.34C136.169 28.864 135.364 28.626 134.398 28.626C133.628 28.626 132.935 28.801 132.319 29.151C131.703 29.501 131.213 30.026 130.849 30.726C130.499 31.412 130.324 32.259 130.324 33.267C130.324 34.275 130.499 35.129 130.849 35.829C131.213 36.529 131.703 37.054 132.319 37.404C132.935 37.754 133.628 37.929 134.398 37.929C135.364 37.929 136.169 37.698 136.813 37.236C137.471 36.76 137.898 36.102 138.094 35.262H139.669C139.403 36.438 138.808 37.383 137.884 38.097C136.96 38.811 135.798 39.168 134.398 39.168C133.32 39.168 132.361 38.93 131.521 38.454C130.681 37.964 130.023 37.278 129.547 36.396C129.071 35.5 128.833 34.457 128.833 33.267ZM147.844 27.324C148.712 27.324 149.489 27.506 150.175 27.87C150.875 28.234 151.421 28.794 151.813 29.55C152.219 30.292 152.422 31.202 152.422 32.28V39H150.973V32.448C150.973 31.202 150.658 30.25 150.028 29.592C149.412 28.934 148.565 28.605 147.487 28.605C146.381 28.605 145.499 28.955 144.841 29.655C144.183 30.355 143.854 31.384 143.854 32.742V39H142.384V23.46H143.854V29.487C144.218 28.801 144.75 28.269 145.45 27.891C146.164 27.513 146.962 27.324 147.844 27.324ZM162.792 30.6V31.839H154.623V30.6H162.792ZM175.152 24.321V25.539H171.078V39H169.608V25.539H165.513V24.321H175.152ZM178.208 25.371C177.914 25.371 177.662 25.266 177.452 25.056C177.242 24.846 177.137 24.587 177.137 24.279C177.137 23.971 177.242 23.719 177.452 23.523C177.662 23.313 177.914 23.208 178.208 23.208C178.502 23.208 178.754 23.313 178.964 23.523C179.174 23.719 179.279 23.971 179.279 24.279C179.279 24.587 179.174 24.846 178.964 25.056C178.754 25.266 178.502 25.371 178.208 25.371ZM178.943 27.534V39H177.473V27.534H178.943ZM195.922 27.324C197.266 27.324 198.358 27.751 199.198 28.605C200.052 29.445 200.479 30.67 200.479 32.28V39H199.03V32.448C199.03 31.202 198.729 30.25 198.127 29.592C197.525 28.934 196.706 28.605 195.67 28.605C194.592 28.605 193.731 28.962 193.087 29.676C192.443 30.39 192.121 31.426 192.121 32.784V39H190.672V32.448C190.672 31.202 190.371 30.25 189.769 29.592C189.167 28.934 188.341 28.605 187.291 28.605C186.213 28.605 185.352 28.962 184.708 29.676C184.064 30.39 183.742 31.426 183.742 32.784V39H182.272V27.534H183.742V29.508C184.106 28.794 184.624 28.255 185.296 27.891C185.968 27.513 186.717 27.324 187.543 27.324C188.537 27.324 189.405 27.562 190.147 28.038C190.903 28.514 191.449 29.214 191.785 30.138C192.093 29.228 192.618 28.535 193.36 28.059C194.116 27.569 194.97 27.324 195.922 27.324ZM214.117 32.679C214.117 33.183 214.103 33.568 214.075 33.834H204.562C204.604 34.702 204.814 35.444 205.192 36.06C205.57 36.676 206.067 37.145 206.683 37.467C207.299 37.775 207.971 37.929 208.699 37.929C209.651 37.929 210.449 37.698 211.093 37.236C211.751 36.774 212.185 36.151 212.395 35.367H213.949C213.669 36.487 213.067 37.404 212.143 38.118C211.233 38.818 210.085 39.168 208.699 39.168C207.621 39.168 206.655 38.93 205.801 38.454C204.947 37.964 204.275 37.278 203.785 36.396C203.309 35.5 203.071 34.457 203.071 33.267C203.071 32.077 203.309 31.034 203.785 30.138C204.261 29.242 204.926 28.556 205.78 28.08C206.634 27.604 207.607 27.366 208.699 27.366C209.791 27.366 210.743 27.604 211.555 28.08C212.381 28.556 213.011 29.2 213.445 30.012C213.893 30.81 214.117 31.699 214.117 32.679ZM212.626 32.637C212.64 31.783 212.465 31.055 212.101 30.453C211.751 29.851 211.268 29.396 210.652 29.088C210.036 28.78 209.364 28.626 208.636 28.626C207.544 28.626 206.613 28.976 205.843 29.676C205.073 30.376 204.646 31.363 204.562 32.637H212.626ZM227.106 42.906C225.79 41.604 224.754 39.938 223.998 37.908C223.242 35.864 222.864 33.645 222.864 31.251C222.864 28.829 223.256 26.582 224.04 24.51C224.824 22.438 225.923 20.73 227.337 19.386H228.87V19.533C227.372 21.003 226.231 22.76 225.447 24.804C224.677 26.848 224.292 28.997 224.292 31.251C224.292 33.477 224.663 35.584 225.405 37.572C226.147 39.56 227.232 41.289 228.66 42.759V42.906H227.106ZM242.287 24.321V39H240.817V32.133H232.858V39H231.388V24.321H232.858V30.915H240.817V24.321H242.287ZM247.111 29.571C247.433 28.857 247.923 28.304 248.581 27.912C249.253 27.52 250.072 27.324 251.038 27.324V28.857H250.639C249.575 28.857 248.721 29.144 248.077 29.718C247.433 30.292 247.111 31.251 247.111 32.595V39H245.641V27.534H247.111V29.571ZM257.197 39.168C255.881 39.168 254.803 38.867 253.963 38.265C253.137 37.649 252.675 36.816 252.577 35.766H254.089C254.159 36.41 254.46 36.935 254.992 37.341C255.538 37.733 256.266 37.929 257.176 37.929C257.974 37.929 258.597 37.74 259.045 37.362C259.507 36.984 259.738 36.515 259.738 35.955C259.738 35.563 259.612 35.241 259.36 34.989C259.108 34.737 258.786 34.541 258.394 34.401C258.016 34.247 257.498 34.086 256.84 33.918C255.986 33.694 255.293 33.47 254.761 33.246C254.229 33.022 253.774 32.693 253.396 32.259C253.032 31.811 252.85 31.216 252.85 30.474C252.85 29.914 253.018 29.396 253.354 28.92C253.69 28.444 254.166 28.066 254.782 27.786C255.398 27.506 256.098 27.366 256.882 27.366C258.114 27.366 259.108 27.681 259.864 28.311C260.62 28.927 261.026 29.781 261.082 30.873H259.612C259.57 30.201 259.304 29.662 258.814 29.256C258.338 28.836 257.68 28.626 256.84 28.626C256.098 28.626 255.496 28.801 255.034 29.151C254.572 29.501 254.341 29.935 254.341 30.453C254.341 30.901 254.474 31.272 254.74 31.566C255.02 31.846 255.363 32.07 255.769 32.238C256.175 32.392 256.721 32.567 257.407 32.763C258.233 32.987 258.891 33.204 259.381 33.414C259.871 33.624 260.291 33.932 260.641 34.338C260.991 34.744 261.173 35.283 261.187 35.955C261.187 36.571 261.019 37.124 260.683 37.614C260.347 38.09 259.878 38.468 259.276 38.748C258.674 39.028 257.981 39.168 257.197 39.168ZM263.324 42.906V42.759C264.752 41.289 265.837 39.56 266.579 37.572C267.321 35.584 267.692 33.477 267.692 31.251C267.692 28.997 267.3 26.848 266.516 24.804C265.746 22.76 264.612 21.003 263.114 19.533V19.386H264.647C266.061 20.73 267.16 22.438 267.944 24.51C268.728 26.582 269.12 28.829 269.12 31.251C269.12 33.645 268.742 35.864 267.986 37.908C267.23 39.938 266.194 41.604 264.878 42.906H263.324Z" fill="#333333"/>
<path d="M22.287 105.479C23.035 104.885 23.376 104.61 23.31 104.654C25.466 102.872 27.16 101.409 28.392 100.265C29.646 99.121 30.702 97.922 31.56 96.668C32.418 95.414 32.847 94.193 32.847 93.005C32.847 92.103 32.638 91.399 32.22 90.893C31.802 90.387 31.175 90.134 30.339 90.134C29.503 90.134 28.843 90.453 28.359 91.091C27.897 91.707 27.666 92.587 27.666 93.731H22.221C22.265 91.861 22.661 90.299 23.409 89.045C24.179 87.791 25.18 86.867 26.412 86.273C27.666 85.679 29.052 85.382 30.57 85.382C33.188 85.382 35.157 86.053 36.477 87.395C37.819 88.737 38.49 90.486 38.49 92.642C38.49 94.996 37.687 97.185 36.081 99.209C34.475 101.211 32.429 103.169 29.943 105.083H38.853V109.67H22.287V105.479ZM47.9705 104.786L44.3075 114.257H40.7105L42.6245 104.786H47.9705ZM50.9441 105.71V101.156L61.3721 86.24H67.6752V100.826H70.3811V105.71H67.6752V110H62.0321V105.71H50.9441ZM62.4281 92.444L56.8841 100.826H62.4281V92.444ZM73.3432 92.708C73.4312 90.354 74.2012 88.539 75.6532 87.263C77.1052 85.987 79.0742 85.349 81.5602 85.349C83.2102 85.349 84.6182 85.635 85.7842 86.207C86.9722 86.779 87.8632 87.56 88.4572 88.55C89.0732 89.54 89.3812 90.651 89.3812 91.883C89.3812 93.335 89.0182 94.523 88.2922 95.447C87.5662 96.349 86.7192 96.965 85.7512 97.295V97.427C87.0052 97.845 87.9952 98.538 88.7212 99.506C89.4472 100.474 89.8102 101.717 89.8102 103.235C89.8102 104.599 89.4912 105.809 88.8532 106.865C88.2372 107.899 87.3242 108.713 86.1142 109.307C84.9262 109.901 83.5072 110.198 81.8572 110.198C79.2172 110.198 77.1052 109.549 75.5212 108.251C73.9592 106.953 73.1342 104.995 73.0462 102.377H78.5242C78.5462 103.345 78.8212 104.115 79.3492 104.687C79.8772 105.237 80.6472 105.512 81.6592 105.512C82.5172 105.512 83.1772 105.27 83.6392 104.786C84.1232 104.28 84.3652 103.62 84.3652 102.806C84.3652 101.75 84.0242 100.991 83.3422 100.529C82.6822 100.045 81.6152 99.803 80.1412 99.803H79.0852V95.216H80.1412C81.2632 95.216 82.1652 95.029 82.8472 94.655C83.5512 94.259 83.9032 93.566 83.9032 92.576C83.9032 91.784 83.6832 91.168 83.2432 90.728C82.8032 90.288 82.1982 90.068 81.4282 90.068C80.5922 90.068 79.9652 90.321 79.5472 90.827C79.1512 91.333 78.9202 91.96 78.8542 92.708H73.3432ZM93.3236 92.708C93.4116 90.354 94.1816 88.539 95.6336 87.263C97.0856 85.987 99.0546 85.349 101.541 85.349C103.191 85.349 104.599 85.635 105.765 86.207C106.953 86.779 107.844 87.56 108.438 88.55C109.054 89.54 109.362 90.651 109.362 91.883C109.362 93.335 108.999 94.523 108.273 95.447C107.547 96.349 106.7 96.965 105.732 97.295V97.427C106.986 97.845 107.976 98.538 108.702 99.506C109.428 100.474 109.791 101.717 109.791 103.235C109.791 104.599 109.472 105.809 108.834 106.865C108.218 107.899 107.305 108.713 106.095 109.307C104.907 109.901 103.488 110.198 101.838 110.198C99.1976 110.198 97.0856 109.549 95.5016 108.251C93.9396 106.953 93.1146 104.995 93.0266 102.377H98.5046C98.5266 103.345 98.8016 104.115 99.3296 104.687C99.8576 105.237 100.628 105.512 101.64 105.512C102.498 105.512 103.158 105.27 103.62 104.786C104.104 104.28 104.346 103.62 104.346 102.806C104.346 101.75 104.005 100.991 103.323 100.529C102.663 100.045 101.596 99.803 100.122 99.803H99.0656V95.216H100.122C101.244 95.216 102.146 95.029 102.828 94.655C103.532 94.259 103.884 93.566 103.884 92.576C103.884 91.784 103.664 91.168 103.224 90.728C102.784 90.288 102.179 90.068 101.409 90.068C100.573 90.068 99.9456 90.321 99.5276 90.827C99.1316 91.333 98.9006 91.96 98.8346 92.708H93.3236Z" fill="#333333"/>
<rect x="21" y="125" width="60" height="26" rx="4" fill="#ED1C24" fill-opacity="0.1"/>
<path d="M34 140.167C33.8733 140.167 33.7467 140.12 33.6467 140.02C33.4533 139.827 33.4533 139.507 33.6467 139.313L35.78 137.18C35.8867 137.073 36.0267 137.02 36.18 137.033C36.3267 137.047 36.46 137.127 36.5467 137.253L37.2733 138.347L39.64 135.98C39.8333 135.787 40.1533 135.787 40.3467 135.98C40.54 136.173 40.54 136.493 40.3467 136.687L37.5467 139.487C37.44 139.593 37.3 139.647 37.1467 139.633C37 139.62 36.8667 139.54 36.78 139.413L36.0533 138.32L34.3533 140.02C34.2533 140.12 34.1267 140.167 34 140.167Z" fill="#ED1C24"/>
<path d="M40 138.167C39.7267 138.167 39.5 137.94 39.5 137.667V136.833H38.6667C38.3933 136.833 38.1667 136.607 38.1667 136.333C38.1667 136.06 38.3933 135.833 38.6667 135.833H40C40.2733 135.833 40.5 136.06 40.5 136.333V137.667C40.5 137.94 40.2733 138.167 40 138.167Z" fill="#ED1C24"/>
<path d="M39 145.167H35C31.38 145.167 29.8333 143.62 29.8333 140V136C29.8333 132.38 31.38 130.833 35 130.833H39C42.62 130.833 44.1667 132.38 44.1667 136V140C44.1667 143.62 42.62 145.167 39 145.167ZM35 131.833C31.9267 131.833 30.8333 132.927 30.8333 136V140C30.8333 143.073 31.9267 144.167 35 144.167H39C42.0733 144.167 43.1667 143.073 43.1667 140V136C43.1667 132.927 42.0733 131.833 39 131.833H35Z" fill="#ED1C24"/>
<path d="M49.612 141.124C50.628 140.308 51.424 139.64 52 139.12C52.576 138.592 53.06 138.044 53.452 137.476C53.852 136.9 54.052 136.336 54.052 135.784C54.052 135.264 53.924 134.856 53.668 134.56C53.42 134.256 53.016 134.104 52.456 134.104C51.912 134.104 51.488 134.276 51.184 134.62C50.888 134.956 50.728 135.408 50.704 135.976H49.648C49.68 135.08 49.952 134.388 50.464 133.9C50.976 133.412 51.636 133.168 52.444 133.168C53.268 133.168 53.92 133.396 54.4 133.852C54.888 134.308 55.132 134.936 55.132 135.736C55.132 136.4 54.932 137.048 54.532 137.68C54.14 138.304 53.692 138.856 53.188 139.336C52.684 139.808 52.04 140.36 51.256 140.992H55.384V141.904H49.612V141.124ZM56.6463 137.572C56.6463 136.196 56.8703 135.124 57.3183 134.356C57.7663 133.58 58.5503 133.192 59.6703 133.192C60.7823 133.192 61.5623 133.58 62.0103 134.356C62.4583 135.124 62.6823 136.196 62.6823 137.572C62.6823 138.972 62.4583 140.06 62.0103 140.836C61.5623 141.612 60.7823 142 59.6703 142C58.5503 142 57.7663 141.612 57.3183 140.836C56.8703 140.06 56.6463 138.972 56.6463 137.572ZM61.6023 137.572C61.6023 136.876 61.5543 136.288 61.4583 135.808C61.3703 135.32 61.1823 134.928 60.8943 134.632C60.6143 134.336 60.2063 134.188 59.6703 134.188C59.1263 134.188 58.7103 134.336 58.4223 134.632C58.1423 134.928 57.9543 135.32 57.8583 135.808C57.7703 136.288 57.7263 136.876 57.7263 137.572C57.7263 138.292 57.7703 138.896 57.8583 139.384C57.9543 139.872 58.1423 140.264 58.4223 140.56C58.7103 140.856 59.1263 141.004 59.6703 141.004C60.2063 141.004 60.6143 140.856 60.8943 140.56C61.1823 140.264 61.3703 139.872 61.4583 139.384C61.5543 138.896 61.6023 138.292 61.6023 137.572ZM63.9415 135.28C63.9415 134.736 64.1055 134.304 64.4335 133.984C64.7615 133.656 65.1815 133.492 65.6935 133.492C66.2055 133.492 66.6255 133.656 66.9535 133.984C67.2815 134.304 67.4455 134.736 67.4455 135.28C67.4455 135.832 67.2815 136.272 66.9535 136.6C66.6255 136.92 66.2055 137.08 65.6935 137.08C65.1815 137.08 64.7615 136.92 64.4335 136.6C64.1055 136.272 63.9415 135.832 63.9415 135.28ZM70.9495 133.624L66.0895 142H65.0095L69.8695 133.624H70.9495ZM65.6935 134.164C65.4215 134.164 65.2055 134.26 65.0455 134.452C64.8935 134.636 64.8175 134.912 64.8175 135.28C64.8175 135.648 64.8935 135.928 65.0455 136.12C65.2055 136.312 65.4215 136.408 65.6935 136.408C65.9655 136.408 66.1815 136.312 66.3415 136.12C66.5015 135.92 66.5815 135.64 66.5815 135.28C66.5815 134.912 66.5015 134.636 66.3415 134.452C66.1815 134.26 65.9655 134.164 65.6935 134.164ZM68.5375 140.344C68.5375 139.792 68.7015 139.356 69.0295 139.036C69.3575 138.708 69.7775 138.544 70.2895 138.544C70.8015 138.544 71.2175 138.708 71.5375 139.036C71.8655 139.356 72.0295 139.792 72.0295 140.344C72.0295 140.888 71.8655 141.324 71.5375 141.652C71.2175 141.98 70.8015 142.144 70.2895 142.144C69.7775 142.144 69.3575 141.984 69.0295 141.664C68.7015 141.336 68.5375 140.896 68.5375 140.344ZM70.2775 139.228C70.0055 139.228 69.7895 139.324 69.6295 139.516C69.4695 139.7 69.3895 139.976 69.3895 140.344C69.3895 140.704 69.4695 140.98 69.6295 141.172C69.7895 141.356 70.0055 141.448 70.2775 141.448C70.5495 141.448 70.7655 141.356 70.9255 141.172C71.0855 140.98 71.1655 140.704 71.1655 140.344C71.1655 139.976 71.0855 139.7 70.9255 139.516C70.7655 139.324 70.5495 139.228 70.2775 139.228Z" fill="#ED1C24"/>
<path d="M93.64 141.424V140.32L99.256 132.544H101V140.16H102.6V141.424H101V144H99.56V141.424H93.64ZM99.624 134.064L95.32 140.16H99.624V134.064ZM104.023 135.344C104.097 134.363 104.476 133.595 105.159 133.04C105.841 132.485 106.727 132.208 107.815 132.208C108.54 132.208 109.164 132.341 109.687 132.608C110.22 132.864 110.62 133.216 110.887 133.664C111.164 134.112 111.303 134.619 111.303 135.184C111.303 135.845 111.111 136.416 110.727 136.896C110.353 137.376 109.863 137.685 109.255 137.824V137.904C109.948 138.075 110.497 138.411 110.903 138.912C111.308 139.413 111.51 140.069 111.51 140.88C111.51 141.488 111.372 142.037 111.095 142.528C110.817 143.008 110.401 143.387 109.847 143.664C109.292 143.941 108.625 144.08 107.847 144.08C106.716 144.08 105.788 143.787 105.062 143.2C104.337 142.603 103.932 141.76 103.847 140.672H105.255C105.329 141.312 105.591 141.835 106.039 142.24C106.487 142.645 107.084 142.848 107.831 142.848C108.577 142.848 109.143 142.656 109.527 142.272C109.921 141.877 110.119 141.371 110.119 140.752C110.119 139.952 109.852 139.376 109.319 139.024C108.785 138.672 107.98 138.496 106.903 138.496H106.535V137.28H106.919C107.9 137.269 108.641 137.109 109.143 136.8C109.644 136.48 109.895 135.989 109.895 135.328C109.895 134.763 109.708 134.309 109.335 133.968C108.972 133.627 108.449 133.456 107.766 133.456C107.105 133.456 106.572 133.627 106.167 133.968C105.761 134.309 105.521 134.768 105.447 135.344H104.023ZM120.852 133.696H115.236V137.344C115.482 137.003 115.844 136.725 116.324 136.512C116.804 136.288 117.322 136.176 117.876 136.176C118.762 136.176 119.482 136.363 120.036 136.736C120.591 137.099 120.986 137.573 121.22 138.16C121.466 138.736 121.588 139.349 121.588 140C121.588 140.768 121.444 141.456 121.156 142.064C120.868 142.672 120.426 143.152 119.828 143.504C119.242 143.856 118.511 144.032 117.636 144.032C116.516 144.032 115.61 143.744 114.916 143.168C114.223 142.592 113.802 141.824 113.652 140.864H115.076C115.215 141.472 115.508 141.947 115.956 142.288C116.404 142.629 116.97 142.8 117.652 142.8C118.495 142.8 119.13 142.549 119.556 142.048C119.983 141.536 120.196 140.864 120.196 140.032C120.196 139.2 119.983 138.56 119.556 138.112C119.13 137.653 118.5 137.424 117.668 137.424C117.103 137.424 116.607 137.563 116.18 137.84C115.764 138.107 115.46 138.475 115.268 138.944H113.892V132.416H120.852V133.696Z" fill="#333333"/>
<path d="M177.259 139.964V145.5H176.531V141.372L174.691 145.5H174.179L172.331 141.364V145.5H171.603V139.964H172.387L174.435 144.54L176.483 139.964H177.259Z" fill="#333333"/>
<path d="M197.866 139.924V140.516H196.346V145.5H195.618V140.516H194.09V139.924H197.866Z" fill="#333333"/>
<path d="M220.326 139.924L218.71 145.5H217.894L216.598 141.012L215.254 145.5L214.446 145.508L212.886 139.924H213.662L214.878 144.652L216.222 139.924H217.038L218.318 144.636L219.542 139.924H220.326Z" fill="#333333"/>
<path d="M240.324 139.924V140.516H238.804V145.5H238.076V140.516H236.548V139.924H240.324Z" fill="#333333"/>
<path d="M261.528 139.924V140.516H259.104V142.396H261.072V142.988H259.104V145.5H258.376V139.924H261.528Z" fill="#333333"/>
<path d="M281.148 145.556C280.78 145.556 280.449 145.492 280.156 145.364C279.868 145.231 279.641 145.049 279.476 144.82C279.311 144.585 279.225 144.316 279.22 144.012H279.996C280.023 144.273 280.129 144.495 280.316 144.676C280.508 144.852 280.785 144.94 281.148 144.94C281.495 144.94 281.767 144.855 281.964 144.684C282.167 144.508 282.268 144.284 282.268 144.012C282.268 143.799 282.209 143.625 282.092 143.492C281.975 143.359 281.828 143.257 281.652 143.188C281.476 143.119 281.239 143.044 280.94 142.964C280.572 142.868 280.276 142.772 280.052 142.676C279.833 142.58 279.644 142.431 279.484 142.228C279.329 142.02 279.252 141.743 279.252 141.396C279.252 141.092 279.329 140.823 279.484 140.588C279.639 140.353 279.855 140.172 280.132 140.044C280.415 139.916 280.737 139.852 281.1 139.852C281.623 139.852 282.049 139.983 282.38 140.244C282.716 140.505 282.905 140.852 282.948 141.284H282.148C282.121 141.071 282.009 140.884 281.812 140.724C281.615 140.559 281.353 140.476 281.028 140.476C280.724 140.476 280.476 140.556 280.284 140.716C280.092 140.871 279.996 141.089 279.996 141.372C279.996 141.575 280.052 141.74 280.164 141.868C280.281 141.996 280.423 142.095 280.588 142.164C280.759 142.228 280.996 142.303 281.3 142.388C281.668 142.489 281.964 142.591 282.188 142.692C282.412 142.788 282.604 142.94 282.764 143.148C282.924 143.351 283.004 143.628 283.004 143.98C283.004 144.252 282.932 144.508 282.788 144.748C282.644 144.988 282.431 145.183 282.148 145.332C281.865 145.481 281.532 145.556 281.148 145.556Z" fill="#333333"/>
<path d="M302.484 145.556C302.116 145.556 301.785 145.492 301.492 145.364C301.204 145.231 300.977 145.049 300.812 144.82C300.646 144.585 300.561 144.316 300.556 144.012H301.332C301.358 144.273 301.465 144.495 301.652 144.676C301.844 144.852 302.121 144.94 302.484 144.94C302.83 144.94 303.102 144.855 303.3 144.684C303.502 144.508 303.604 144.284 303.604 144.012C303.604 143.799 303.545 143.625 303.428 143.492C303.31 143.359 303.164 143.257 302.988 143.188C302.812 143.119 302.574 143.044 302.276 142.964C301.908 142.868 301.612 142.772 301.388 142.676C301.169 142.58 300.98 142.431 300.82 142.228C300.665 142.02 300.588 141.743 300.588 141.396C300.588 141.092 300.665 140.823 300.82 140.588C300.974 140.353 301.19 140.172 301.468 140.044C301.75 139.916 302.073 139.852 302.436 139.852C302.958 139.852 303.385 139.983 303.716 140.244C304.052 140.505 304.241 140.852 304.284 141.284H303.484C303.457 141.071 303.345 140.884 303.148 140.724C302.95 140.559 302.689 140.476 302.364 140.476C302.06 140.476 301.812 140.556 301.62 140.716C301.428 140.871 301.332 141.089 301.332 141.372C301.332 141.575 301.388 141.74 301.5 141.868C301.617 141.996 301.758 142.095 301.924 142.164C302.094 142.228 302.332 142.303 302.636 142.388C303.004 142.489 303.3 142.591 303.524 142.692C303.748 142.788 303.94 142.94 304.1 143.148C304.26 143.351 304.34 143.628 304.34 143.98C304.34 144.252 304.268 144.508 304.124 144.748C303.98 144.988 303.766 145.183 303.484 145.332C303.201 145.481 302.868 145.556 302.484 145.556Z" fill="#333333"/>
<path d="M175 133.5L196.25 66.38L218.5 94H233.5L260.258 54.3L281.594 82.94L302.5 133.5" fill="url(#paint0_linear_1_104)"/>
<rect x="4.5" y="0.5" width="317" height="171" rx="10.5" stroke="#333333" stroke-opacity="0.1" shape-rendering="crispEdges"/>
</g>
<defs>
<filter id="filter0_d_1_104" x="0" y="0" width="326" height="180" filterUnits="userSpaceOnUse" color-interpolation-filters="sRGB">
<feFlood flood-opacity="0" result="BackgroundImageFix"/>
<feColorMatrix in="SourceAlpha" type="matrix" values="0 0 0 0 0 0 0 0 0 0 0 0 0 0 0 0 0 0 127 0" result="hardAlpha"/>
<feOffset dy="4"/>
<feGaussianBlur stdDeviation="2"/>
<feComposite in2="hardAlpha" operator="out"/>
<feColorMatrix type="matrix" values="0 0 0 0 0.0941176 0 0 0 0 0.470588 0 0 0 0 0.94902 0 0 0 0.25 0"/>
<feBlend mode="normal" in2="BackgroundImageFix" result="effect1_dropShadow_1_104"/>
<feBlend mode="normal" in="SourceGraphic" in2="effect1_dropShadow_1_104" result="shape"/>
</filter>
<linearGradient id="paint0_linear_1_104" x1="238.75" y1="54" x2="238.75" y2="142" gradientUnits="userSpaceOnUse">
<stop stop-color="#ED1C24"/>
<stop offset="1" stop-color="#F9F9F9"/>
</linearGradient>
</defs>
</svg>
