<svg width="326" height="180" viewBox="0 0 326 180" fill="none" xmlns="http://www.w3.org/2000/svg">
<g filter="url(#filter0_d_1_133)">
<rect x="5" y="1" width="316" height="170" rx="10" fill="white" shape-rendering="crispEdges"/>
<path d="M21.903 27.093C21.903 26.197 22.176 25.476 22.722 24.93C23.282 24.37 23.989 24.09 24.843 24.09C25.711 24.09 26.418 24.37 26.964 24.93C27.524 25.476 27.804 26.197 27.804 27.093C27.804 28.003 27.524 28.738 26.964 29.298C26.418 29.844 25.711 30.117 24.843 30.117C23.989 30.117 23.282 29.844 22.722 29.298C22.176 28.738 21.903 28.003 21.903 27.093ZM33.663 24.3L25.053 39H23.562L32.193 24.3H33.663ZM24.843 25.035C24.311 25.035 23.884 25.217 23.562 25.581C23.254 25.931 23.1 26.435 23.1 27.093C23.1 27.751 23.254 28.262 23.562 28.626C23.884 28.99 24.311 29.172 24.843 29.172C25.375 29.172 25.802 28.99 26.124 28.626C26.446 28.262 26.607 27.751 26.607 27.093C26.607 26.449 26.446 25.945 26.124 25.581C25.802 25.217 25.375 25.035 24.843 25.035ZM29.463 36.207C29.463 35.297 29.736 34.569 30.282 34.023C30.842 33.463 31.549 33.183 32.403 33.183C33.257 33.183 33.957 33.463 34.503 34.023C35.063 34.569 35.343 35.297 35.343 36.207C35.343 37.117 35.063 37.852 34.503 38.412C33.957 38.958 33.257 39.231 32.403 39.231C31.549 39.231 30.842 38.958 30.282 38.412C29.736 37.852 29.463 37.117 29.463 36.207ZM32.403 34.149C31.871 34.149 31.444 34.331 31.122 34.695C30.8 35.059 30.639 35.563 30.639 36.207C30.639 36.851 30.8 37.355 31.122 37.719C31.444 38.083 31.871 38.265 32.403 38.265C32.935 38.265 33.355 38.09 33.663 37.74C33.985 37.376 34.146 36.865 34.146 36.207C34.146 35.549 33.985 35.045 33.663 34.695C33.355 34.331 32.935 34.149 32.403 34.149ZM61.488 24.321L57.33 39H55.692L51.996 26.484L48.216 39L46.62 39.021L42.546 24.321H44.121L47.481 37.194L51.24 24.321H52.878L56.532 37.194L59.913 24.321H61.488ZM68.7556 39.168C67.6776 39.168 66.7046 38.93 65.8366 38.454C64.9826 37.964 64.3036 37.278 63.7996 36.396C63.3096 35.5 63.0646 34.457 63.0646 33.267C63.0646 32.077 63.3166 31.041 63.8206 30.159C64.3246 29.263 65.0106 28.577 65.8786 28.101C66.7466 27.611 67.7196 27.366 68.7976 27.366C69.8756 27.366 70.8486 27.611 71.7166 28.101C72.5986 28.577 73.2846 29.263 73.7746 30.159C74.2786 31.041 74.5306 32.077 74.5306 33.267C74.5306 34.443 74.2786 35.479 73.7746 36.375C73.2706 37.271 72.5776 37.964 71.6956 38.454C70.8136 38.93 69.8336 39.168 68.7556 39.168ZM68.7556 37.887C69.5116 37.887 70.2116 37.719 70.8556 37.383C71.4996 37.033 72.0176 36.515 72.4096 35.829C72.8156 35.129 73.0186 34.275 73.0186 33.267C73.0186 32.259 72.8226 31.412 72.4306 30.726C72.0386 30.026 71.5206 29.508 70.8766 29.172C70.2326 28.822 69.5326 28.647 68.7766 28.647C68.0206 28.647 67.3206 28.822 66.6766 29.172C66.0326 29.508 65.5146 30.026 65.1226 30.726C64.7446 31.412 64.5556 32.259 64.5556 33.267C64.5556 34.275 64.7446 35.129 65.1226 35.829C65.5146 36.515 66.0256 37.033 66.6556 37.383C67.2996 37.719 67.9996 37.887 68.7556 37.887ZM78.6803 29.571C79.0023 28.857 79.4923 28.304 80.1503 27.912C80.8223 27.52 81.6413 27.324 82.6073 27.324V28.857H82.2083C81.1443 28.857 80.2903 29.144 79.6463 29.718C79.0023 30.292 78.6803 31.251 78.6803 32.595V39H77.2103V27.534H78.6803V29.571ZM91.0137 39L86.2887 33.855V39H84.8187V23.46H86.2887V32.658L90.9087 27.534H92.9667L87.5277 33.246L93.0087 39H91.0137ZM105.283 32.679C105.283 33.183 105.269 33.568 105.241 33.834H95.7275C95.7695 34.702 95.9795 35.444 96.3575 36.06C96.7355 36.676 97.2325 37.145 97.8485 37.467C98.4645 37.775 99.1365 37.929 99.8645 37.929C100.817 37.929 101.615 37.698 102.259 37.236C102.917 36.774 103.351 36.151 103.561 35.367H105.115C104.835 36.487 104.233 37.404 103.309 38.118C102.399 38.818 101.251 39.168 99.8645 39.168C98.7865 39.168 97.8205 38.93 96.9665 38.454C96.1125 37.964 95.4405 37.278 94.9505 36.396C94.4745 35.5 94.2365 34.457 94.2365 33.267C94.2365 32.077 94.4745 31.034 94.9505 30.138C95.4265 29.242 96.0915 28.556 96.9455 28.08C97.7995 27.604 98.7725 27.366 99.8645 27.366C100.957 27.366 101.909 27.604 102.721 28.08C103.547 28.556 104.177 29.2 104.611 30.012C105.059 30.81 105.283 31.699 105.283 32.679ZM103.792 32.637C103.806 31.783 103.631 31.055 103.267 30.453C102.917 29.851 102.434 29.396 101.818 29.088C101.202 28.78 100.53 28.626 99.8015 28.626C98.7095 28.626 97.7785 28.976 97.0085 29.676C96.2385 30.376 95.8115 31.363 95.7275 32.637H103.792ZM109.442 29.571C109.764 28.857 110.254 28.304 110.912 27.912C111.584 27.52 112.403 27.324 113.369 27.324V28.857H112.97C111.906 28.857 111.052 29.144 110.408 29.718C109.764 30.292 109.442 31.251 109.442 32.595V39H107.972V27.534H109.442V29.571ZM119.528 39.168C118.212 39.168 117.134 38.867 116.294 38.265C115.468 37.649 115.006 36.816 114.908 35.766H116.42C116.49 36.41 116.791 36.935 117.323 37.341C117.869 37.733 118.597 37.929 119.507 37.929C120.305 37.929 120.928 37.74 121.376 37.362C121.838 36.984 122.069 36.515 122.069 35.955C122.069 35.563 121.943 35.241 121.691 34.989C121.439 34.737 121.117 34.541 120.725 34.401C120.347 34.247 119.829 34.086 119.171 33.918C118.317 33.694 117.624 33.47 117.092 33.246C116.56 33.022 116.105 32.693 115.727 32.259C115.363 31.811 115.181 31.216 115.181 30.474C115.181 29.914 115.349 29.396 115.685 28.92C116.021 28.444 116.497 28.066 117.113 27.786C117.729 27.506 118.429 27.366 119.213 27.366C120.445 27.366 121.439 27.681 122.195 28.311C122.951 28.927 123.357 29.781 123.413 30.873H121.943C121.901 30.201 121.635 29.662 121.145 29.256C120.669 28.836 120.011 28.626 119.171 28.626C118.429 28.626 117.827 28.801 117.365 29.151C116.903 29.501 116.672 29.935 116.672 30.453C116.672 30.901 116.805 31.272 117.071 31.566C117.351 31.846 117.694 32.07 118.1 32.238C118.506 32.392 119.052 32.567 119.738 32.763C120.564 32.987 121.222 33.204 121.712 33.414C122.202 33.624 122.622 33.932 122.972 34.338C123.322 34.744 123.504 35.283 123.518 35.955C123.518 36.571 123.35 37.124 123.014 37.614C122.678 38.09 122.209 38.468 121.607 38.748C121.005 39.028 120.312 39.168 119.528 39.168ZM141.435 28.542C141.435 29.802 141.022 30.817 140.196 31.587C139.37 32.357 138.131 32.742 136.479 32.742H133.518V39H132.048V24.321H136.479C138.117 24.321 139.349 24.706 140.175 25.476C141.015 26.246 141.435 27.268 141.435 28.542ZM136.479 31.482C138.775 31.482 139.923 30.502 139.923 28.542C139.923 27.562 139.65 26.82 139.104 26.316C138.558 25.812 137.683 25.56 136.479 25.56H133.518V31.482H136.479ZM143.23 33.246C143.23 32.07 143.461 31.041 143.923 30.159C144.399 29.263 145.05 28.577 145.876 28.101C146.716 27.611 147.661 27.366 148.711 27.366C149.803 27.366 150.741 27.618 151.525 28.122C152.323 28.626 152.897 29.27 153.247 30.054V27.534H154.717V39H153.247V36.459C152.883 37.243 152.302 37.894 151.504 38.412C150.72 38.916 149.782 39.168 148.69 39.168C147.654 39.168 146.716 38.923 145.876 38.433C145.05 37.943 144.399 37.25 143.923 36.354C143.461 35.458 143.23 34.422 143.23 33.246ZM153.247 33.267C153.247 32.343 153.058 31.531 152.68 30.831C152.302 30.131 151.784 29.592 151.126 29.214C150.482 28.836 149.768 28.647 148.984 28.647C148.172 28.647 147.444 28.829 146.8 29.193C146.156 29.557 145.645 30.089 145.267 30.789C144.903 31.475 144.721 32.294 144.721 33.246C144.721 34.184 144.903 35.01 145.267 35.724C145.645 36.424 146.156 36.963 146.8 37.341C147.444 37.705 148.172 37.887 148.984 37.887C149.768 37.887 150.482 37.698 151.126 37.32C151.784 36.942 152.302 36.403 152.68 35.703C153.058 35.003 153.247 34.191 153.247 33.267ZM162.021 39.168C160.705 39.168 159.627 38.867 158.787 38.265C157.961 37.649 157.499 36.816 157.401 35.766H158.913C158.983 36.41 159.284 36.935 159.816 37.341C160.362 37.733 161.09 37.929 162 37.929C162.798 37.929 163.421 37.74 163.869 37.362C164.331 36.984 164.562 36.515 164.562 35.955C164.562 35.563 164.436 35.241 164.184 34.989C163.932 34.737 163.61 34.541 163.218 34.401C162.84 34.247 162.322 34.086 161.664 33.918C160.81 33.694 160.117 33.47 159.585 33.246C159.053 33.022 158.598 32.693 158.22 32.259C157.856 31.811 157.674 31.216 157.674 30.474C157.674 29.914 157.842 29.396 158.178 28.92C158.514 28.444 158.99 28.066 159.606 27.786C160.222 27.506 160.922 27.366 161.706 27.366C162.938 27.366 163.932 27.681 164.688 28.311C165.444 28.927 165.85 29.781 165.906 30.873H164.436C164.394 30.201 164.128 29.662 163.638 29.256C163.162 28.836 162.504 28.626 161.664 28.626C160.922 28.626 160.32 28.801 159.858 29.151C159.396 29.501 159.165 29.935 159.165 30.453C159.165 30.901 159.298 31.272 159.564 31.566C159.844 31.846 160.187 32.07 160.593 32.238C160.999 32.392 161.545 32.567 162.231 32.763C163.057 32.987 163.715 33.204 164.205 33.414C164.695 33.624 165.115 33.932 165.465 34.338C165.815 34.744 165.997 35.283 166.011 35.955C166.011 36.571 165.843 37.124 165.507 37.614C165.171 38.09 164.702 38.468 164.1 38.748C163.498 39.028 162.805 39.168 162.021 39.168ZM172.726 39.168C171.41 39.168 170.332 38.867 169.492 38.265C168.666 37.649 168.204 36.816 168.106 35.766H169.618C169.688 36.41 169.989 36.935 170.521 37.341C171.067 37.733 171.795 37.929 172.705 37.929C173.503 37.929 174.126 37.74 174.574 37.362C175.036 36.984 175.267 36.515 175.267 35.955C175.267 35.563 175.141 35.241 174.889 34.989C174.637 34.737 174.315 34.541 173.923 34.401C173.545 34.247 173.027 34.086 172.369 33.918C171.515 33.694 170.822 33.47 170.29 33.246C169.758 33.022 169.303 32.693 168.925 32.259C168.561 31.811 168.379 31.216 168.379 30.474C168.379 29.914 168.547 29.396 168.883 28.92C169.219 28.444 169.695 28.066 170.311 27.786C170.927 27.506 171.627 27.366 172.411 27.366C173.643 27.366 174.637 27.681 175.393 28.311C176.149 28.927 176.555 29.781 176.611 30.873H175.141C175.099 30.201 174.833 29.662 174.343 29.256C173.867 28.836 173.209 28.626 172.369 28.626C171.627 28.626 171.025 28.801 170.563 29.151C170.101 29.501 169.87 29.935 169.87 30.453C169.87 30.901 170.003 31.272 170.269 31.566C170.549 31.846 170.892 32.07 171.298 32.238C171.704 32.392 172.25 32.567 172.936 32.763C173.762 32.987 174.42 33.204 174.91 33.414C175.4 33.624 175.82 33.932 176.17 34.338C176.52 34.744 176.702 35.283 176.716 35.955C176.716 36.571 176.548 37.124 176.212 37.614C175.876 38.09 175.407 38.468 174.805 38.748C174.203 39.028 173.51 39.168 172.726 39.168ZM180.218 25.371C179.924 25.371 179.672 25.266 179.462 25.056C179.252 24.846 179.147 24.587 179.147 24.279C179.147 23.971 179.252 23.719 179.462 23.523C179.672 23.313 179.924 23.208 180.218 23.208C180.512 23.208 180.764 23.313 180.974 23.523C181.184 23.719 181.289 23.971 181.289 24.279C181.289 24.587 181.184 24.846 180.974 25.056C180.764 25.266 180.512 25.371 180.218 25.371ZM180.953 27.534V39H179.483V27.534H180.953ZM189.658 27.324C191.03 27.324 192.15 27.751 193.018 28.605C193.886 29.445 194.32 30.67 194.32 32.28V39H192.871V32.448C192.871 31.202 192.556 30.25 191.926 29.592C191.31 28.934 190.463 28.605 189.385 28.605C188.279 28.605 187.397 28.955 186.739 29.655C186.081 30.355 185.752 31.384 185.752 32.742V39H184.282V27.534H185.752V29.487C186.116 28.787 186.641 28.255 187.327 27.891C188.013 27.513 188.79 27.324 189.658 27.324ZM202.38 27.366C203.458 27.366 204.396 27.618 205.194 28.122C205.992 28.626 206.566 29.263 206.916 30.033V27.534H208.386V39.294C208.386 40.344 208.155 41.275 207.693 42.087C207.245 42.899 206.615 43.522 205.803 43.956C204.991 44.404 204.067 44.628 203.031 44.628C201.561 44.628 200.336 44.278 199.356 43.578C198.39 42.878 197.788 41.926 197.55 40.722H198.999C199.251 41.52 199.727 42.157 200.427 42.633C201.141 43.109 202.009 43.347 203.031 43.347C203.773 43.347 204.438 43.186 205.026 42.864C205.614 42.556 206.076 42.094 206.412 41.478C206.748 40.862 206.916 40.134 206.916 39.294V36.459C206.552 37.243 205.971 37.894 205.173 38.412C204.389 38.916 203.458 39.168 202.38 39.168C201.33 39.168 200.385 38.923 199.545 38.433C198.719 37.943 198.068 37.25 197.592 36.354C197.13 35.458 196.899 34.422 196.899 33.246C196.899 32.07 197.13 31.041 197.592 30.159C198.068 29.263 198.719 28.577 199.545 28.101C200.385 27.611 201.33 27.366 202.38 27.366ZM206.916 33.267C206.916 32.343 206.727 31.531 206.349 30.831C205.971 30.131 205.453 29.592 204.795 29.214C204.151 28.836 203.437 28.647 202.653 28.647C201.841 28.647 201.113 28.829 200.469 29.193C199.825 29.557 199.314 30.089 198.936 30.789C198.572 31.475 198.39 32.294 198.39 33.246C198.39 34.184 198.572 35.01 198.936 35.724C199.314 36.424 199.825 36.963 200.469 37.341C201.113 37.705 201.841 37.887 202.653 37.887C203.437 37.887 204.151 37.698 204.795 37.32C205.453 36.942 205.971 36.403 206.349 35.703C206.727 35.003 206.916 34.191 206.916 33.267ZM229.621 41.877L226.345 38.832C225.631 39.042 224.882 39.147 224.098 39.147C222.74 39.147 221.508 38.832 220.402 38.202C219.296 37.558 218.421 36.669 217.777 35.535C217.147 34.387 216.832 33.092 216.832 31.65C216.832 30.208 217.147 28.92 217.777 27.786C218.421 26.638 219.296 25.749 220.402 25.119C221.508 24.475 222.74 24.153 224.098 24.153C225.47 24.153 226.709 24.475 227.815 25.119C228.921 25.749 229.789 26.638 230.419 27.786C231.049 28.92 231.364 30.208 231.364 31.65C231.364 33.134 231.035 34.457 230.377 35.619C229.719 36.767 228.816 37.649 227.668 38.265L231.595 41.877H229.621ZM218.344 31.65C218.344 32.896 218.596 33.995 219.1 34.947C219.604 35.885 220.29 36.606 221.158 37.11C222.026 37.614 223.006 37.866 224.098 37.866C225.19 37.866 226.17 37.614 227.038 37.11C227.906 36.606 228.592 35.885 229.096 34.947C229.6 33.995 229.852 32.896 229.852 31.65C229.852 30.404 229.6 29.312 229.096 28.374C228.592 27.436 227.906 26.715 227.038 26.211C226.17 25.707 225.19 25.455 224.098 25.455C223.006 25.455 222.026 25.707 221.158 26.211C220.29 26.715 219.604 27.436 219.1 28.374C218.596 29.312 218.344 30.404 218.344 31.65ZM244.008 27.534V39H242.538V36.984C242.202 37.698 241.684 38.244 240.984 38.622C240.284 39 239.5 39.189 238.632 39.189C237.26 39.189 236.14 38.769 235.272 37.929C234.404 37.075 233.97 35.843 233.97 34.233V27.534H235.419V34.065C235.419 35.311 235.727 36.263 236.343 36.921C236.973 37.579 237.827 37.908 238.905 37.908C240.011 37.908 240.893 37.558 241.551 36.858C242.209 36.158 242.538 35.129 242.538 33.771V27.534H244.008ZM248.099 25.371C247.805 25.371 247.553 25.266 247.343 25.056C247.133 24.846 247.028 24.587 247.028 24.279C247.028 23.971 247.133 23.719 247.343 23.523C247.553 23.313 247.805 23.208 248.099 23.208C248.393 23.208 248.645 23.313 248.855 23.523C249.065 23.719 249.17 23.971 249.17 24.279C249.17 24.587 249.065 24.846 248.855 25.056C248.645 25.266 248.393 25.371 248.099 25.371ZM248.834 27.534V39H247.364V27.534H248.834ZM252.939 37.782H258.945V39H251.259V37.782L257.16 28.752H251.364V27.534H258.84V28.752L252.939 37.782Z" fill="#333333"/>
<path d="M28.557 102.938C28.887 104.676 29.899 105.545 31.593 105.545C32.759 105.545 33.584 105.028 34.068 103.994C34.552 102.96 34.794 101.277 34.794 98.945C34.31 99.627 33.65 100.155 32.814 100.529C31.978 100.903 31.043 101.09 30.009 101.09C28.601 101.09 27.347 100.804 26.247 100.232C25.147 99.638 24.278 98.769 23.64 97.625C23.024 96.459 22.716 95.051 22.716 93.401C22.716 91.773 23.046 90.354 23.706 89.144C24.388 87.934 25.345 86.999 26.577 86.339C27.831 85.679 29.305 85.349 30.999 85.349C34.255 85.349 36.532 86.361 37.83 88.385C39.128 90.409 39.777 93.39 39.777 97.328C39.777 100.188 39.513 102.553 38.985 104.423C38.479 106.271 37.61 107.679 36.378 108.647C35.168 109.615 33.507 110.099 31.395 110.099C29.723 110.099 28.293 109.769 27.105 109.109C25.939 108.449 25.037 107.58 24.399 106.502C23.783 105.424 23.431 104.236 23.343 102.938H28.557ZM31.296 96.635C32.22 96.635 32.957 96.36 33.507 95.81C34.057 95.238 34.332 94.468 34.332 93.5C34.332 92.444 34.046 91.63 33.474 91.058C32.902 90.486 32.132 90.2 31.164 90.2C30.196 90.2 29.426 90.497 28.854 91.091C28.304 91.663 28.029 92.455 28.029 93.467C28.029 94.413 28.304 95.183 28.854 95.777C29.426 96.349 30.24 96.635 31.296 96.635ZM59.7497 90.827H49.4537V95.381C49.8937 94.897 50.5097 94.501 51.3017 94.193C52.0937 93.885 52.9517 93.731 53.8757 93.731C55.5257 93.731 56.8897 94.105 57.9677 94.853C59.0677 95.601 59.8707 96.569 60.3767 97.757C60.8827 98.945 61.1357 100.232 61.1357 101.618C61.1357 104.192 60.4097 106.238 58.9577 107.756C57.5057 109.252 55.4597 110 52.8197 110C51.0597 110 49.5307 109.703 48.2327 109.109C46.9347 108.493 45.9337 107.646 45.2297 106.568C44.5257 105.49 44.1407 104.247 44.0747 102.839H49.5857C49.7177 103.521 50.0367 104.093 50.5427 104.555C51.0487 104.995 51.7417 105.215 52.6217 105.215C53.6557 105.215 54.4257 104.885 54.9317 104.225C55.4377 103.565 55.6907 102.685 55.6907 101.585C55.6907 100.507 55.4267 99.682 54.8987 99.11C54.3707 98.538 53.6007 98.252 52.5887 98.252C51.8407 98.252 51.2247 98.439 50.7407 98.813C50.2567 99.165 49.9377 99.638 49.7837 100.232H44.3387V85.877H59.7497V90.827ZM63.7886 91.982C63.7886 90.2 64.2946 88.825 65.3066 87.857C66.3406 86.889 67.6716 86.405 69.2996 86.405C70.9276 86.405 72.2476 86.889 73.2596 87.857C74.2716 88.825 74.7776 90.2 74.7776 91.982C74.7776 93.764 74.2716 95.139 73.2596 96.107C72.2476 97.075 70.9276 97.559 69.2996 97.559C67.6716 97.559 66.3406 97.075 65.3066 96.107C64.2946 95.139 63.7886 93.764 63.7886 91.982ZM86.1956 86.768L73.4906 110H68.0456L80.7506 86.768H86.1956ZM69.2666 89.705C68.2106 89.705 67.6826 90.464 67.6826 91.982C67.6826 93.478 68.2106 94.226 69.2666 94.226C69.7726 94.226 70.1686 94.039 70.4546 93.665C70.7406 93.291 70.8836 92.73 70.8836 91.982C70.8836 90.464 70.3446 89.705 69.2666 89.705ZM79.4966 104.786C79.4966 103.004 80.0026 101.629 81.0146 100.661C82.0266 99.693 83.3466 99.209 84.9746 99.209C86.6026 99.209 87.9226 99.693 88.9346 100.661C89.9466 101.629 90.4526 103.004 90.4526 104.786C90.4526 106.568 89.9466 107.943 88.9346 108.911C87.9226 109.879 86.6026 110.363 84.9746 110.363C83.3466 110.363 82.0266 109.879 81.0146 108.911C80.0026 107.943 79.4966 106.568 79.4966 104.786ZM84.9416 102.509C84.4356 102.509 84.0396 102.696 83.7536 103.07C83.4896 103.444 83.3576 104.016 83.3576 104.786C83.3576 106.282 83.8856 107.03 84.9416 107.03C85.4476 107.03 85.8436 106.843 86.1296 106.469C86.4156 106.095 86.5586 105.534 86.5586 104.786C86.5586 104.038 86.4156 103.477 86.1296 103.103C85.8436 102.707 85.4476 102.509 84.9416 102.509Z" fill="#333333"/>
<rect x="21" y="125" width="60" height="26" rx="4" fill="#018E42" fill-opacity="0.1"/>
<path d="M34 140.167C33.8733 140.167 33.7467 140.12 33.6467 140.02C33.4533 139.827 33.4533 139.507 33.6467 139.313L35.78 137.18C35.8867 137.073 36.0267 137.02 36.18 137.033C36.3267 137.047 36.46 137.127 36.5467 137.253L37.2733 138.347L39.64 135.98C39.8333 135.787 40.1533 135.787 40.3467 135.98C40.54 136.173 40.54 136.493 40.3467 136.687L37.5467 139.487C37.44 139.593 37.3 139.647 37.1467 139.633C37 139.62 36.8667 139.54 36.78 139.413L36.0533 138.32L34.3533 140.02C34.2533 140.12 34.1267 140.167 34 140.167Z" fill="#018E42"/>
<path d="M40 138.167C39.7267 138.167 39.5 137.94 39.5 137.667V136.833H38.6667C38.3933 136.833 38.1667 136.607 38.1667 136.333C38.1667 136.06 38.3933 135.833 38.6667 135.833H40C40.2733 135.833 40.5 136.06 40.5 136.333V137.667C40.5 137.94 40.2733 138.167 40 138.167Z" fill="#018E42"/>
<path d="M39 145.167H35C31.38 145.167 29.8333 143.62 29.8333 140V136C29.8333 132.38 31.38 130.833 35 130.833H39C42.62 130.833 44.1667 132.38 44.1667 136V140C44.1667 143.62 42.62 145.167 39 145.167ZM35 131.833C31.9267 131.833 30.8333 132.927 30.8333 136V140C30.8333 143.073 31.9267 144.167 35 144.167H39C42.0733 144.167 43.1667 143.073 43.1667 140V136C43.1667 132.927 42.0733 131.833 39 131.833H35Z" fill="#018E42"/>
<path d="M49.612 141.124C50.628 140.308 51.424 139.64 52 139.12C52.576 138.592 53.06 138.044 53.452 137.476C53.852 136.9 54.052 136.336 54.052 135.784C54.052 135.264 53.924 134.856 53.668 134.56C53.42 134.256 53.016 134.104 52.456 134.104C51.912 134.104 51.488 134.276 51.184 134.62C50.888 134.956 50.728 135.408 50.704 135.976H49.648C49.68 135.08 49.952 134.388 50.464 133.9C50.976 133.412 51.636 133.168 52.444 133.168C53.268 133.168 53.92 133.396 54.4 133.852C54.888 134.308 55.132 134.936 55.132 135.736C55.132 136.4 54.932 137.048 54.532 137.68C54.14 138.304 53.692 138.856 53.188 139.336C52.684 139.808 52.04 140.36 51.256 140.992H55.384V141.904H49.612V141.124ZM56.6463 137.572C56.6463 136.196 56.8703 135.124 57.3183 134.356C57.7663 133.58 58.5503 133.192 59.6703 133.192C60.7823 133.192 61.5623 133.58 62.0103 134.356C62.4583 135.124 62.6823 136.196 62.6823 137.572C62.6823 138.972 62.4583 140.06 62.0103 140.836C61.5623 141.612 60.7823 142 59.6703 142C58.5503 142 57.7663 141.612 57.3183 140.836C56.8703 140.06 56.6463 138.972 56.6463 137.572ZM61.6023 137.572C61.6023 136.876 61.5543 136.288 61.4583 135.808C61.3703 135.32 61.1823 134.928 60.8943 134.632C60.6143 134.336 60.2063 134.188 59.6703 134.188C59.1263 134.188 58.7103 134.336 58.4223 134.632C58.1423 134.928 57.9543 135.32 57.8583 135.808C57.7703 136.288 57.7263 136.876 57.7263 137.572C57.7263 138.292 57.7703 138.896 57.8583 139.384C57.9543 139.872 58.1423 140.264 58.4223 140.56C58.7103 140.856 59.1263 141.004 59.6703 141.004C60.2063 141.004 60.6143 140.856 60.8943 140.56C61.1823 140.264 61.3703 139.872 61.4583 139.384C61.5543 138.896 61.6023 138.292 61.6023 137.572ZM63.9415 135.28C63.9415 134.736 64.1055 134.304 64.4335 133.984C64.7615 133.656 65.1815 133.492 65.6935 133.492C66.2055 133.492 66.6255 133.656 66.9535 133.984C67.2815 134.304 67.4455 134.736 67.4455 135.28C67.4455 135.832 67.2815 136.272 66.9535 136.6C66.6255 136.92 66.2055 137.08 65.6935 137.08C65.1815 137.08 64.7615 136.92 64.4335 136.6C64.1055 136.272 63.9415 135.832 63.9415 135.28ZM70.9495 133.624L66.0895 142H65.0095L69.8695 133.624H70.9495ZM65.6935 134.164C65.4215 134.164 65.2055 134.26 65.0455 134.452C64.8935 134.636 64.8175 134.912 64.8175 135.28C64.8175 135.648 64.8935 135.928 65.0455 136.12C65.2055 136.312 65.4215 136.408 65.6935 136.408C65.9655 136.408 66.1815 136.312 66.3415 136.12C66.5015 135.92 66.5815 135.64 66.5815 135.28C66.5815 134.912 66.5015 134.636 66.3415 134.452C66.1815 134.26 65.9655 134.164 65.6935 134.164ZM68.5375 140.344C68.5375 139.792 68.7015 139.356 69.0295 139.036C69.3575 138.708 69.7775 138.544 70.2895 138.544C70.8015 138.544 71.2175 138.708 71.5375 139.036C71.8655 139.356 72.0295 139.792 72.0295 140.344C72.0295 140.888 71.8655 141.324 71.5375 141.652C71.2175 141.98 70.8015 142.144 70.2895 142.144C69.7775 142.144 69.3575 141.984 69.0295 141.664C68.7015 141.336 68.5375 140.896 68.5375 140.344ZM70.2775 139.228C70.0055 139.228 69.7895 139.324 69.6295 139.516C69.4695 139.7 69.3895 139.976 69.3895 140.344C69.3895 140.704 69.4695 140.98 69.6295 141.172C69.7895 141.356 70.0055 141.448 70.2775 141.448C70.5495 141.448 70.7655 141.356 70.9255 141.172C71.0855 140.98 71.1655 140.704 71.1655 140.344C71.1655 139.976 71.0855 139.7 70.9255 139.516C70.7655 139.324 70.5495 139.228 70.2775 139.228Z" fill="#018E42"/>
<path d="M93.816 142.832C95.1707 141.744 96.232 140.853 97 140.16C97.768 139.456 98.4133 138.725 98.936 137.968C99.4693 137.2 99.736 136.448 99.736 135.712C99.736 135.019 99.5653 134.475 99.224 134.08C98.8933 133.675 98.3547 133.472 97.608 133.472C96.8827 133.472 96.3173 133.701 95.912 134.16C95.5173 134.608 95.304 135.211 95.272 135.968H93.864C93.9067 134.773 94.2693 133.851 94.952 133.2C95.6347 132.549 96.5147 132.224 97.592 132.224C98.6907 132.224 99.56 132.528 100.2 133.136C100.851 133.744 101.176 134.581 101.176 135.648C101.176 136.533 100.909 137.397 100.376 138.24C99.8533 139.072 99.256 139.808 98.584 140.448C97.912 141.077 97.0533 141.813 96.008 142.656H101.512V143.872H93.816V142.832ZM102.843 141.424V140.32L108.459 132.544H110.203V140.16H111.803V141.424H110.203V144H108.763V141.424H102.843ZM108.827 134.064L104.523 140.16H108.827V134.064ZM112.938 135.04C112.938 134.315 113.156 133.739 113.594 133.312C114.031 132.875 114.591 132.656 115.274 132.656C115.956 132.656 116.516 132.875 116.954 133.312C117.391 133.739 117.61 134.315 117.61 135.04C117.61 135.776 117.391 136.363 116.954 136.8C116.516 137.227 115.956 137.44 115.274 137.44C114.591 137.44 114.031 137.227 113.594 136.8C113.156 136.363 112.938 135.776 112.938 135.04ZM122.282 132.832L115.802 144H114.362L120.842 132.832H122.282ZM115.274 133.552C114.911 133.552 114.623 133.68 114.41 133.936C114.207 134.181 114.106 134.549 114.106 135.04C114.106 135.531 114.207 135.904 114.41 136.16C114.623 136.416 114.911 136.544 115.274 136.544C115.636 136.544 115.924 136.416 116.138 136.16C116.351 135.893 116.458 135.52 116.458 135.04C116.458 134.549 116.351 134.181 116.138 133.936C115.924 133.68 115.636 133.552 115.274 133.552ZM119.066 141.792C119.066 141.056 119.284 140.475 119.722 140.048C120.159 139.611 120.719 139.392 121.402 139.392C122.084 139.392 122.639 139.611 123.066 140.048C123.503 140.475 123.722 141.056 123.722 141.792C123.722 142.517 123.503 143.099 123.066 143.536C122.639 143.973 122.084 144.192 121.402 144.192C120.719 144.192 120.159 143.979 119.722 143.552C119.284 143.115 119.066 142.528 119.066 141.792ZM121.386 140.304C121.023 140.304 120.735 140.432 120.522 140.688C120.308 140.933 120.202 141.301 120.202 141.792C120.202 142.272 120.308 142.64 120.522 142.896C120.735 143.141 121.023 143.264 121.386 143.264C121.748 143.264 122.036 143.141 122.25 142.896C122.463 142.64 122.57 142.272 122.57 141.792C122.57 141.301 122.463 140.933 122.25 140.688C122.036 140.432 121.748 140.304 121.386 140.304Z" fill="#333333"/>
<path d="M179.259 139.964V145.5H178.531V141.372L176.691 145.5H176.179L174.331 141.364V145.5H173.603V139.964H174.387L176.435 144.54L178.483 139.964H179.259Z" fill="#333333"/>
<path d="M199.866 139.924V140.516H198.346V145.5H197.618V140.516H196.09V139.924H199.866Z" fill="#333333"/>
<path d="M222.326 139.924L220.71 145.5H219.894L218.598 141.012L217.254 145.5L216.446 145.508L214.886 139.924H215.662L216.878 144.652L218.222 139.924H219.038L220.318 144.636L221.542 139.924H222.326Z" fill="#333333"/>
<path d="M242.324 139.924V140.516H240.804V145.5H240.076V140.516H238.548V139.924H242.324Z" fill="#333333"/>
<path d="M263.528 139.924V140.516H261.104V142.396H263.072V142.988H261.104V145.5H260.376V139.924H263.528Z" fill="#333333"/>
<path d="M283.148 145.556C282.78 145.556 282.449 145.492 282.156 145.364C281.868 145.231 281.641 145.049 281.476 144.82C281.311 144.585 281.225 144.316 281.22 144.012H281.996C282.023 144.273 282.129 144.495 282.316 144.676C282.508 144.852 282.785 144.94 283.148 144.94C283.495 144.94 283.767 144.855 283.964 144.684C284.167 144.508 284.268 144.284 284.268 144.012C284.268 143.799 284.209 143.625 284.092 143.492C283.975 143.359 283.828 143.257 283.652 143.188C283.476 143.119 283.239 143.044 282.94 142.964C282.572 142.868 282.276 142.772 282.052 142.676C281.833 142.58 281.644 142.431 281.484 142.228C281.329 142.02 281.252 141.743 281.252 141.396C281.252 141.092 281.329 140.823 281.484 140.588C281.639 140.353 281.855 140.172 282.132 140.044C282.415 139.916 282.737 139.852 283.1 139.852C283.623 139.852 284.049 139.983 284.38 140.244C284.716 140.505 284.905 140.852 284.948 141.284H284.148C284.121 141.071 284.009 140.884 283.812 140.724C283.615 140.559 283.353 140.476 283.028 140.476C282.724 140.476 282.476 140.556 282.284 140.716C282.092 140.871 281.996 141.089 281.996 141.372C281.996 141.575 282.052 141.74 282.164 141.868C282.281 141.996 282.423 142.095 282.588 142.164C282.759 142.228 282.996 142.303 283.3 142.388C283.668 142.489 283.964 142.591 284.188 142.692C284.412 142.788 284.604 142.94 284.764 143.148C284.924 143.351 285.004 143.628 285.004 143.98C285.004 144.252 284.932 144.508 284.788 144.748C284.644 144.988 284.431 145.183 284.148 145.332C283.865 145.481 283.532 145.556 283.148 145.556Z" fill="#333333"/>
<path d="M304.484 145.556C304.116 145.556 303.785 145.492 303.492 145.364C303.204 145.231 302.977 145.049 302.812 144.82C302.646 144.585 302.561 144.316 302.556 144.012H303.332C303.358 144.273 303.465 144.495 303.652 144.676C303.844 144.852 304.121 144.94 304.484 144.94C304.83 144.94 305.102 144.855 305.3 144.684C305.502 144.508 305.604 144.284 305.604 144.012C305.604 143.799 305.545 143.625 305.428 143.492C305.31 143.359 305.164 143.257 304.988 143.188C304.812 143.119 304.574 143.044 304.276 142.964C303.908 142.868 303.612 142.772 303.388 142.676C303.169 142.58 302.98 142.431 302.82 142.228C302.665 142.02 302.588 141.743 302.588 141.396C302.588 141.092 302.665 140.823 302.82 140.588C302.974 140.353 303.19 140.172 303.468 140.044C303.75 139.916 304.073 139.852 304.436 139.852C304.958 139.852 305.385 139.983 305.716 140.244C306.052 140.505 306.241 140.852 306.284 141.284H305.484C305.457 141.071 305.345 140.884 305.148 140.724C304.95 140.559 304.689 140.476 304.364 140.476C304.06 140.476 303.812 140.556 303.62 140.716C303.428 140.871 303.332 141.089 303.332 141.372C303.332 141.575 303.388 141.74 303.5 141.868C303.617 141.996 303.758 142.095 303.924 142.164C304.094 142.228 304.332 142.303 304.636 142.388C305.004 142.489 305.3 142.591 305.524 142.692C305.748 142.788 305.94 142.94 306.1 143.148C306.26 143.351 306.34 143.628 306.34 143.98C306.34 144.252 306.268 144.508 306.124 144.748C305.98 144.988 305.766 145.183 305.484 145.332C305.201 145.481 304.868 145.556 304.484 145.556Z" fill="#333333"/>
<path d="M177 133.5L198.251 66.38L220.5 94H235.5L262.258 54.3L283.594 82.94L304.5 133.5" fill="url(#paint0_linear_1_133)"/>
<rect x="4.5" y="0.5" width="317" height="171" rx="10.5" stroke="#333333" stroke-opacity="0.1" shape-rendering="crispEdges"/>
</g>
<defs>
<filter id="filter0_d_1_133" x="0" y="0" width="326" height="180" filterUnits="userSpaceOnUse" color-interpolation-filters="sRGB">
<feFlood flood-opacity="0" result="BackgroundImageFix"/>
<feColorMatrix in="SourceAlpha" type="matrix" values="0 0 0 0 0 0 0 0 0 0 0 0 0 0 0 0 0 0 127 0" result="hardAlpha"/>
<feOffset dy="4"/>
<feGaussianBlur stdDeviation="2"/>
<feComposite in2="hardAlpha" operator="out"/>
<feColorMatrix type="matrix" values="0 0 0 0 0.0941176 0 0 0 0 0.470588 0 0 0 0 0.94902 0 0 0 0.25 0"/>
<feBlend mode="normal" in2="BackgroundImageFix" result="effect1_dropShadow_1_133"/>
<feBlend mode="normal" in="SourceGraphic" in2="effect1_dropShadow_1_133" result="shape"/>
</filter>
<linearGradient id="paint0_linear_1_133" x1="240.75" y1="54" x2="240.75" y2="142" gradientUnits="userSpaceOnUse">
<stop stop-color="#018E42"/>
<stop offset="1" stop-color="#F9F9F9"/>
</linearGradient>
</defs>
</svg>
