<svg width="324" height="423" viewBox="0 0 324 423" fill="none" xmlns="http://www.w3.org/2000/svg">
<g filter="url(#filter0_d_1_191)">
<rect x="4" width="316" height="413" rx="10" fill="white" shape-rendering="crispEdges"/>
<path d="M21.008 30.65C21.008 29.208 21.323 27.92 21.953 26.786C22.583 25.638 23.444 24.749 24.536 24.119C25.628 23.475 26.846 23.153 28.19 23.153C29.828 23.153 31.228 23.545 32.39 24.329C33.566 25.099 34.42 26.191 34.952 27.605H33.23C32.81 26.611 32.166 25.834 31.298 25.274C30.444 24.714 29.408 24.434 28.19 24.434C27.112 24.434 26.139 24.686 25.271 25.19C24.417 25.694 23.745 26.422 23.255 27.374C22.765 28.312 22.52 29.404 22.52 30.65C22.52 31.896 22.765 32.988 23.255 33.926C23.745 34.864 24.417 35.585 25.271 36.089C26.139 36.593 27.112 36.845 28.19 36.845C29.408 36.845 30.444 36.572 31.298 36.026C32.166 35.466 32.81 34.696 33.23 33.716H34.952C34.42 35.116 33.566 36.201 32.39 36.971C31.214 37.741 29.814 38.126 28.19 38.126C26.846 38.126 25.628 37.811 24.536 37.181C23.444 36.537 22.583 35.648 21.953 34.514C21.323 33.38 21.008 32.092 21.008 30.65ZM43.3412 26.324C44.2092 26.324 44.9862 26.506 45.6722 26.87C46.3722 27.234 46.9182 27.794 47.3102 28.55C47.7162 29.292 47.9192 30.202 47.9192 31.28V38H46.4702V31.448C46.4702 30.202 46.1552 29.25 45.5252 28.592C44.9092 27.934 44.0622 27.605 42.9842 27.605C41.8782 27.605 40.9962 27.955 40.3382 28.655C39.6802 29.355 39.3512 30.384 39.3512 31.742V38H37.8812V22.46H39.3512V28.487C39.7152 27.801 40.2472 27.269 40.9472 26.891C41.6612 26.513 42.4592 26.324 43.3412 26.324ZM50.4982 32.246C50.4982 31.07 50.7292 30.041 51.1912 29.159C51.6672 28.263 52.3182 27.577 53.1442 27.101C53.9842 26.611 54.9292 26.366 55.9792 26.366C57.0712 26.366 58.0092 26.618 58.7932 27.122C59.5912 27.626 60.1652 28.27 60.5152 29.054V26.534H61.9852V38H60.5152V35.459C60.1512 36.243 59.5702 36.894 58.7722 37.412C57.9882 37.916 57.0502 38.168 55.9582 38.168C54.9222 38.168 53.9842 37.923 53.1442 37.433C52.3182 36.943 51.6672 36.25 51.1912 35.354C50.7292 34.458 50.4982 33.422 50.4982 32.246ZM60.5152 32.267C60.5152 31.343 60.3262 30.531 59.9482 29.831C59.5702 29.131 59.0522 28.592 58.3942 28.214C57.7502 27.836 57.0362 27.647 56.2522 27.647C55.4402 27.647 54.7122 27.829 54.0682 28.193C53.4242 28.557 52.9132 29.089 52.5352 29.789C52.1712 30.475 51.9892 31.294 51.9892 32.246C51.9892 33.184 52.1712 34.01 52.5352 34.724C52.9132 35.424 53.4242 35.963 54.0682 36.341C54.7122 36.705 55.4402 36.887 56.2522 36.887C57.0362 36.887 57.7502 36.698 58.3942 36.32C59.0522 35.942 59.5702 35.403 59.9482 34.703C60.3262 34.003 60.5152 33.191 60.5152 32.267ZM66.7901 29.054C67.1541 28.284 67.7281 27.647 68.5121 27.143C69.3101 26.625 70.2551 26.366 71.3471 26.366C72.3831 26.366 73.3141 26.611 74.1401 27.101C74.9801 27.577 75.6311 28.263 76.0931 29.159C76.5691 30.041 76.8071 31.07 76.8071 32.246C76.8071 33.422 76.5691 34.458 76.0931 35.354C75.6311 36.25 74.9801 36.943 74.1401 37.433C73.3141 37.923 72.3831 38.168 71.3471 38.168C70.2691 38.168 69.3311 37.916 68.5331 37.412C67.7351 36.894 67.1541 36.25 66.7901 35.48V43.418H65.3411V26.534H66.7901V29.054ZM75.3161 32.246C75.3161 31.294 75.1271 30.475 74.7491 29.789C74.3851 29.089 73.8811 28.557 73.2371 28.193C72.5931 27.829 71.8651 27.647 71.0531 27.647C70.2691 27.647 69.5481 27.836 68.8901 28.214C68.2461 28.592 67.7351 29.131 67.3571 29.831C66.9791 30.531 66.7901 31.343 66.7901 32.267C66.7901 33.191 66.9791 34.003 67.3571 34.703C67.7351 35.403 68.2461 35.942 68.8901 36.32C69.5481 36.698 70.2691 36.887 71.0531 36.887C71.8651 36.887 72.5931 36.705 73.2371 36.341C73.8811 35.963 74.3851 35.424 74.7491 34.724C75.1271 34.01 75.3161 33.184 75.3161 32.246ZM81.423 27.773V34.892C81.423 35.592 81.556 36.075 81.822 36.341C82.088 36.607 82.557 36.74 83.229 36.74H84.573V38H82.998C81.962 38 81.192 37.762 80.688 37.286C80.184 36.796 79.932 35.998 79.932 34.892V27.773H78.336V26.534H79.932V23.657H81.423V26.534H84.573V27.773H81.423ZM97.3714 31.679C97.3714 32.183 97.3574 32.568 97.3294 32.834H87.8164C87.8584 33.702 88.0684 34.444 88.4464 35.06C88.8244 35.676 89.3214 36.145 89.9374 36.467C90.5534 36.775 91.2254 36.929 91.9534 36.929C92.9054 36.929 93.7034 36.698 94.3474 36.236C95.0054 35.774 95.4394 35.151 95.6494 34.367H97.2034C96.9234 35.487 96.3214 36.404 95.3974 37.118C94.4874 37.818 93.3394 38.168 91.9534 38.168C90.8754 38.168 89.9094 37.93 89.0554 37.454C88.2014 36.964 87.5294 36.278 87.0394 35.396C86.5634 34.5 86.3254 33.457 86.3254 32.267C86.3254 31.077 86.5634 30.034 87.0394 29.138C87.5154 28.242 88.1804 27.556 89.0344 27.08C89.8884 26.604 90.8614 26.366 91.9534 26.366C93.0454 26.366 93.9974 26.604 94.8094 27.08C95.6354 27.556 96.2654 28.2 96.6994 29.012C97.1474 29.81 97.3714 30.699 97.3714 31.679ZM95.8804 31.637C95.8944 30.783 95.7194 30.055 95.3554 29.453C95.0054 28.851 94.5224 28.396 93.9064 28.088C93.2904 27.78 92.6184 27.626 91.8904 27.626C90.7984 27.626 89.8674 27.976 89.0974 28.676C88.3274 29.376 87.9004 30.363 87.8164 31.637H95.8804ZM101.531 28.571C101.853 27.857 102.343 27.304 103.001 26.912C103.673 26.52 104.492 26.324 105.458 26.324V27.857H105.059C103.995 27.857 103.141 28.144 102.497 28.718C101.853 29.292 101.531 30.251 101.531 31.595V38H100.061V26.534H101.531V28.571ZM131.24 23.321L127.082 38H125.444L121.748 25.484L117.968 38L116.372 38.021L112.298 23.321H113.873L117.233 36.194L120.992 23.321H122.63L126.284 36.194L129.665 23.321H131.24ZM134.224 24.371C133.93 24.371 133.678 24.266 133.468 24.056C133.258 23.846 133.153 23.587 133.153 23.279C133.153 22.971 133.258 22.719 133.468 22.523C133.678 22.313 133.93 22.208 134.224 22.208C134.518 22.208 134.77 22.313 134.98 22.523C135.19 22.719 135.295 22.971 135.295 23.279C135.295 23.587 135.19 23.846 134.98 24.056C134.77 24.266 134.518 24.371 134.224 24.371ZM134.959 26.534V38H133.489V26.534H134.959ZM142.235 38.168C140.919 38.168 139.841 37.867 139.001 37.265C138.175 36.649 137.713 35.816 137.615 34.766H139.127C139.197 35.41 139.498 35.935 140.03 36.341C140.576 36.733 141.304 36.929 142.214 36.929C143.012 36.929 143.635 36.74 144.083 36.362C144.545 35.984 144.776 35.515 144.776 34.955C144.776 34.563 144.65 34.241 144.398 33.989C144.146 33.737 143.824 33.541 143.432 33.401C143.054 33.247 142.536 33.086 141.878 32.918C141.024 32.694 140.331 32.47 139.799 32.246C139.267 32.022 138.812 31.693 138.434 31.259C138.07 30.811 137.888 30.216 137.888 29.474C137.888 28.914 138.056 28.396 138.392 27.92C138.728 27.444 139.204 27.066 139.82 26.786C140.436 26.506 141.136 26.366 141.92 26.366C143.152 26.366 144.146 26.681 144.902 27.311C145.658 27.927 146.064 28.781 146.12 29.873H144.65C144.608 29.201 144.342 28.662 143.852 28.256C143.376 27.836 142.718 27.626 141.878 27.626C141.136 27.626 140.534 27.801 140.072 28.151C139.61 28.501 139.379 28.935 139.379 29.453C139.379 29.901 139.512 30.272 139.778 30.566C140.058 30.846 140.401 31.07 140.807 31.238C141.213 31.392 141.759 31.567 142.445 31.763C143.271 31.987 143.929 32.204 144.419 32.414C144.909 32.624 145.329 32.932 145.679 33.338C146.029 33.744 146.211 34.283 146.225 34.955C146.225 35.571 146.057 36.124 145.721 36.614C145.385 37.09 144.916 37.468 144.314 37.748C143.712 38.028 143.019 38.168 142.235 38.168ZM159.367 31.679C159.367 32.183 159.353 32.568 159.325 32.834H149.812C149.854 33.702 150.064 34.444 150.442 35.06C150.82 35.676 151.317 36.145 151.933 36.467C152.549 36.775 153.221 36.929 153.949 36.929C154.901 36.929 155.699 36.698 156.343 36.236C157.001 35.774 157.435 35.151 157.645 34.367H159.199C158.919 35.487 158.317 36.404 157.393 37.118C156.483 37.818 155.335 38.168 153.949 38.168C152.871 38.168 151.905 37.93 151.051 37.454C150.197 36.964 149.525 36.278 149.035 35.396C148.559 34.5 148.321 33.457 148.321 32.267C148.321 31.077 148.559 30.034 149.035 29.138C149.511 28.242 150.176 27.556 151.03 27.08C151.884 26.604 152.857 26.366 153.949 26.366C155.041 26.366 155.993 26.604 156.805 27.08C157.631 27.556 158.261 28.2 158.695 29.012C159.143 29.81 159.367 30.699 159.367 31.679ZM157.876 31.637C157.89 30.783 157.715 30.055 157.351 29.453C157.001 28.851 156.518 28.396 155.902 28.088C155.286 27.78 154.614 27.626 153.886 27.626C152.794 27.626 151.863 27.976 151.093 28.676C150.323 29.376 149.896 30.363 149.812 31.637H157.876ZM172.271 38.147C171.305 38.147 170.451 37.979 169.709 37.643C168.981 37.307 168.407 36.838 167.987 36.236C167.567 35.634 167.343 34.962 167.315 34.22H168.869C168.939 34.934 169.254 35.564 169.814 36.11C170.374 36.642 171.193 36.908 172.271 36.908C173.265 36.908 174.049 36.656 174.623 36.152C175.211 35.634 175.505 34.983 175.505 34.199C175.505 33.569 175.344 33.065 175.022 32.687C174.7 32.295 174.301 32.008 173.825 31.826C173.349 31.63 172.691 31.42 171.851 31.196C170.871 30.93 170.094 30.671 169.52 30.419C168.946 30.167 168.456 29.775 168.05 29.243C167.644 28.711 167.441 27.99 167.441 27.08C167.441 26.324 167.637 25.652 168.029 25.064C168.421 24.462 168.974 23.993 169.688 23.657C170.402 23.321 171.221 23.153 172.145 23.153C173.503 23.153 174.595 23.489 175.421 24.161C176.261 24.819 176.744 25.673 176.87 26.723H175.274C175.176 26.121 174.847 25.589 174.287 25.127C173.727 24.651 172.971 24.413 172.019 24.413C171.137 24.413 170.402 24.651 169.814 25.127C169.226 25.589 168.932 26.226 168.932 27.038C168.932 27.654 169.093 28.151 169.415 28.529C169.737 28.907 170.136 29.194 170.612 29.39C171.102 29.586 171.76 29.796 172.586 30.02C173.538 30.286 174.308 30.552 174.896 30.818C175.484 31.07 175.981 31.462 176.387 31.994C176.793 32.526 176.996 33.24 176.996 34.136C176.996 34.822 176.814 35.473 176.45 36.089C176.086 36.705 175.547 37.202 174.833 37.58C174.119 37.958 173.265 38.147 172.271 38.147ZM181.747 27.773V34.892C181.747 35.592 181.88 36.075 182.146 36.341C182.412 36.607 182.881 36.74 183.553 36.74H184.897V38H183.322C182.286 38 181.516 37.762 181.012 37.286C180.508 36.796 180.256 35.998 180.256 34.892V27.773H178.66V26.534H180.256V23.657H181.747V26.534H184.897V27.773H181.747ZM186.65 32.246C186.65 31.07 186.881 30.041 187.343 29.159C187.819 28.263 188.47 27.577 189.296 27.101C190.136 26.611 191.081 26.366 192.131 26.366C193.223 26.366 194.161 26.618 194.945 27.122C195.743 27.626 196.317 28.27 196.667 29.054V26.534H198.137V38H196.667V35.459C196.303 36.243 195.722 36.894 194.924 37.412C194.14 37.916 193.202 38.168 192.11 38.168C191.074 38.168 190.136 37.923 189.296 37.433C188.47 36.943 187.819 36.25 187.343 35.354C186.881 34.458 186.65 33.422 186.65 32.246ZM196.667 32.267C196.667 31.343 196.478 30.531 196.1 29.831C195.722 29.131 195.204 28.592 194.546 28.214C193.902 27.836 193.188 27.647 192.404 27.647C191.592 27.647 190.864 27.829 190.22 28.193C189.576 28.557 189.065 29.089 188.687 29.789C188.323 30.475 188.141 31.294 188.141 32.246C188.141 33.184 188.323 34.01 188.687 34.724C189.065 35.424 189.576 35.963 190.22 36.341C190.864 36.705 191.592 36.887 192.404 36.887C193.188 36.887 193.902 36.698 194.546 36.32C195.204 35.942 195.722 35.403 196.1 34.703C196.478 34.003 196.667 33.191 196.667 32.267ZM203.404 27.773V34.892C203.404 35.592 203.537 36.075 203.803 36.341C204.069 36.607 204.538 36.74 205.209 36.74H206.554V38H204.979C203.943 38 203.173 37.762 202.669 37.286C202.165 36.796 201.913 35.998 201.913 34.892V27.773H200.317V26.534H201.913V23.657H203.404V26.534H206.554V27.773H203.404ZM218.911 26.534V38H217.441V35.984C217.105 36.698 216.587 37.244 215.887 37.622C215.187 38 214.403 38.189 213.535 38.189C212.163 38.189 211.043 37.769 210.175 36.929C209.307 36.075 208.873 34.843 208.873 33.233V26.534H210.322V33.065C210.322 34.311 210.63 35.263 211.246 35.921C211.876 36.579 212.73 36.908 213.808 36.908C214.914 36.908 215.796 36.558 216.454 35.858C217.112 35.158 217.441 34.129 217.441 32.771V26.534H218.911ZM226.215 38.168C224.899 38.168 223.821 37.867 222.981 37.265C222.155 36.649 221.693 35.816 221.595 34.766H223.107C223.177 35.41 223.478 35.935 224.01 36.341C224.556 36.733 225.284 36.929 226.194 36.929C226.992 36.929 227.615 36.74 228.063 36.362C228.525 35.984 228.756 35.515 228.756 34.955C228.756 34.563 228.63 34.241 228.378 33.989C228.126 33.737 227.804 33.541 227.412 33.401C227.034 33.247 226.516 33.086 225.858 32.918C225.004 32.694 224.311 32.47 223.779 32.246C223.247 32.022 222.792 31.693 222.414 31.259C222.05 30.811 221.868 30.216 221.868 29.474C221.868 28.914 222.036 28.396 222.372 27.92C222.708 27.444 223.184 27.066 223.8 26.786C224.416 26.506 225.116 26.366 225.9 26.366C227.132 26.366 228.126 26.681 228.882 27.311C229.638 27.927 230.044 28.781 230.1 29.873H228.63C228.588 29.201 228.322 28.662 227.832 28.256C227.356 27.836 226.698 27.626 225.858 27.626C225.116 27.626 224.514 27.801 224.052 28.151C223.59 28.501 223.359 28.935 223.359 29.453C223.359 29.901 223.492 30.272 223.758 30.566C224.038 30.846 224.381 31.07 224.787 31.238C225.193 31.392 225.739 31.567 226.425 31.763C227.251 31.987 227.909 32.204 228.399 32.414C228.889 32.624 229.309 32.932 229.659 33.338C230.009 33.744 230.191 34.283 230.205 34.955C230.205 35.571 230.037 36.124 229.701 36.614C229.365 37.09 228.896 37.468 228.294 37.748C227.692 38.028 226.999 38.168 226.215 38.168Z" fill="#333333"/>
<mask id="path-3-inside-1_1_191" fill="white">
<path d="M48.9655 185.456C47.6892 165.213 51.8725 144.998 61.0786 126.924C70.2846 108.85 84.1755 93.5801 101.3 82.7094L162 178.329L48.9655 185.456Z"/>
</mask>
<path d="M48.9655 185.456C47.6892 165.213 51.8725 144.998 61.0786 126.924C70.2846 108.85 84.1755 93.5801 101.3 82.7094L162 178.329L48.9655 185.456Z" fill="white" stroke="#333333" stroke-opacity="0.1" stroke-width="1.84161" mask="url(#path-3-inside-1_1_191)"/>
<g filter="url(#filter1_d_1_191)">
<mask id="path-4-inside-2_1_191" fill="white">
<path d="M101.304 82.7067C118.429 71.8367 138.158 65.765 158.432 65.126C178.705 64.487 198.778 69.3041 216.554 79.074C234.329 88.8439 249.155 103.208 259.481 120.666C269.808 138.124 275.257 158.035 275.259 178.318L162 178.329L101.304 82.7067Z"/>
</mask>
<path d="M101.304 82.7067C118.429 71.8367 138.158 65.765 158.432 65.126C178.705 64.487 198.778 69.3041 216.554 79.074C234.329 88.8439 249.155 103.208 259.481 120.666C269.808 138.124 275.257 158.035 275.259 178.318L162 178.329L101.304 82.7067Z" fill="#B4CEFF"/>
<path d="M101.304 82.7067C118.429 71.8367 138.158 65.765 158.432 65.126C178.705 64.487 198.778 69.3041 216.554 79.074C234.329 88.8439 249.155 103.208 259.481 120.666C269.808 138.124 275.257 158.035 275.259 178.318L162 178.329L101.304 82.7067Z" stroke="#333333" stroke-opacity="0.1" stroke-width="1.84161" mask="url(#path-4-inside-2_1_191)"/>
</g>
<mask id="path-5-inside-3_1_191" fill="white">
<path d="M275.259 178.329C275.259 202.247 267.687 225.551 253.628 244.901C239.57 264.251 219.746 278.654 196.999 286.045L162 178.329L275.259 178.329Z"/>
</mask>
<path d="M275.259 178.329C275.259 202.247 267.687 225.551 253.628 244.901C239.57 264.251 219.746 278.654 196.999 286.045L162 178.329L275.259 178.329Z" fill="white" stroke="#333333" stroke-opacity="0.1" stroke-width="1.84161" mask="url(#path-5-inside-3_1_191)"/>
<mask id="path-6-inside-4_1_191" fill="white">
<path d="M148.154 290.738C121.996 287.516 97.7805 275.273 79.6791 256.116C61.5777 236.96 50.7239 212.09 48.9873 185.792L162 178.329L148.154 290.738Z"/>
</mask>
<path d="M148.154 290.738C121.996 287.516 97.7805 275.273 79.6791 256.116C61.5777 236.96 50.7239 212.09 48.9873 185.792L162 178.329L148.154 290.738Z" fill="white" stroke="#333333" stroke-opacity="0.1" stroke-width="1.84161" mask="url(#path-6-inside-4_1_191)"/>
<mask id="path-7-inside-5_1_191" fill="white">
<path d="M196.958 286.058C181.101 291.204 164.302 292.785 147.763 290.689L162 178.329L196.958 286.058Z"/>
</mask>
<path d="M196.958 286.058C181.101 291.204 164.302 292.785 147.763 290.689L162 178.329L196.958 286.058Z" fill="white" stroke="#333333" stroke-opacity="0.1" stroke-width="1.84161" mask="url(#path-7-inside-5_1_191)"/>
<path d="M184.15 108.971C184.58 108.629 184.777 108.47 184.739 108.496C185.98 107.47 186.955 106.627 187.665 105.969C188.387 105.31 188.995 104.62 189.489 103.898C189.983 103.176 190.23 102.473 190.23 101.789C190.23 101.269 190.109 100.864 189.869 100.573C189.628 100.281 189.267 100.136 188.786 100.136C188.304 100.136 187.924 100.319 187.646 100.687C187.38 101.041 187.247 101.548 187.247 102.207H184.112C184.137 101.13 184.365 100.231 184.796 99.5087C185.239 98.7867 185.815 98.2547 186.525 97.9127C187.247 97.5707 188.045 97.3997 188.919 97.3997C190.426 97.3997 191.56 97.786 192.32 98.5587C193.092 99.3314 193.479 100.338 193.479 101.58C193.479 102.935 193.016 104.195 192.092 105.361C191.167 106.513 189.989 107.641 188.558 108.743H193.688V111.384H184.15V108.971ZM195.004 108.971C195.435 108.629 195.631 108.47 195.593 108.496C196.835 107.47 197.81 106.627 198.519 105.969C199.241 105.31 199.849 104.62 200.343 103.898C200.837 103.176 201.084 102.473 201.084 101.789C201.084 101.269 200.964 100.864 200.723 100.573C200.483 100.281 200.122 100.136 199.64 100.136C199.159 100.136 198.779 100.319 198.5 100.687C198.234 101.041 198.101 101.548 198.101 102.207H194.966C194.992 101.13 195.22 100.231 195.65 99.5087C196.094 98.7867 196.67 98.2547 197.379 97.9127C198.101 97.5707 198.899 97.3997 199.773 97.3997C201.281 97.3997 202.414 97.786 203.174 98.5587C203.947 99.3314 204.333 100.338 204.333 101.58C204.333 102.935 203.871 104.195 202.946 105.361C202.022 106.513 200.844 107.641 199.412 108.743H204.542V111.384H195.004V108.971ZM205.707 101.2C205.707 100.174 205.998 99.382 206.581 98.8247C207.176 98.2674 207.942 97.9887 208.88 97.9887C209.817 97.9887 210.577 98.2674 211.16 98.8247C211.742 99.382 212.034 100.174 212.034 101.2C212.034 102.226 211.742 103.017 211.16 103.575C210.577 104.132 209.817 104.411 208.88 104.411C207.942 104.411 207.176 104.132 206.581 103.575C205.998 103.017 205.707 102.226 205.707 101.2ZM218.608 98.1977L211.293 111.574H208.158L215.473 98.1977H218.608ZM208.861 99.8887C208.253 99.8887 207.949 100.326 207.949 101.2C207.949 102.061 208.253 102.492 208.861 102.492C209.152 102.492 209.38 102.384 209.545 102.169C209.709 101.953 209.792 101.63 209.792 101.2C209.792 100.326 209.481 99.8887 208.861 99.8887ZM214.751 108.572C214.751 107.546 215.042 106.754 215.625 106.197C216.207 105.639 216.967 105.361 217.905 105.361C218.842 105.361 219.602 105.639 220.185 106.197C220.767 106.754 221.059 107.546 221.059 108.572C221.059 109.598 220.767 110.389 220.185 110.947C219.602 111.504 218.842 111.783 217.905 111.783C216.967 111.783 216.207 111.504 215.625 110.947C215.042 110.389 214.751 109.598 214.751 108.572ZM217.886 107.261C217.594 107.261 217.366 107.368 217.202 107.584C217.05 107.799 216.974 108.128 216.974 108.572C216.974 109.433 217.278 109.864 217.886 109.864C218.177 109.864 218.405 109.756 218.57 109.541C218.734 109.325 218.817 109.002 218.817 108.572C218.817 108.141 218.734 107.818 218.57 107.603C218.405 107.375 218.177 107.261 217.886 107.261Z" fill="#333333"/>
<path d="M221.271 229.37C222.625 228.282 223.687 227.391 224.455 226.698C225.223 225.994 225.868 225.263 226.391 224.506C226.924 223.738 227.191 222.986 227.191 222.25C227.191 221.557 227.02 221.013 226.679 220.618C226.348 220.213 225.809 220.01 225.063 220.01C224.337 220.01 223.772 220.239 223.367 220.698C222.972 221.146 222.759 221.749 222.727 222.506H221.319C221.361 221.311 221.724 220.389 222.407 219.738C223.089 219.087 223.969 218.762 225.047 218.762C226.145 218.762 227.015 219.066 227.655 219.674C228.305 220.282 228.631 221.119 228.631 222.186C228.631 223.071 228.364 223.935 227.831 224.778C227.308 225.61 226.711 226.346 226.039 226.986C225.367 227.615 224.508 228.351 223.463 229.194H228.967V230.41H221.271V229.37ZM230.65 224.634C230.65 222.799 230.949 221.37 231.546 220.346C232.143 219.311 233.189 218.794 234.682 218.794C236.165 218.794 237.205 219.311 237.802 220.346C238.399 221.37 238.698 222.799 238.698 224.634C238.698 226.501 238.399 227.951 237.802 228.986C237.205 230.021 236.165 230.538 234.682 230.538C233.189 230.538 232.143 230.021 231.546 228.986C230.949 227.951 230.65 226.501 230.65 224.634ZM237.258 224.634C237.258 223.706 237.194 222.922 237.066 222.282C236.949 221.631 236.698 221.109 236.314 220.714C235.941 220.319 235.397 220.122 234.682 220.122C233.957 220.122 233.402 220.319 233.018 220.714C232.645 221.109 232.394 221.631 232.266 222.282C232.149 222.922 232.09 223.706 232.09 224.634C232.09 225.594 232.149 226.399 232.266 227.05C232.394 227.701 232.645 228.223 233.018 228.618C233.402 229.013 233.957 229.21 234.682 229.21C235.397 229.21 235.941 229.013 236.314 228.618C236.698 228.223 236.949 227.701 237.066 227.05C237.194 226.399 237.258 225.594 237.258 224.634ZM240.377 221.578C240.377 220.853 240.595 220.277 241.033 219.85C241.47 219.413 242.03 219.194 242.713 219.194C243.395 219.194 243.955 219.413 244.393 219.85C244.83 220.277 245.049 220.853 245.049 221.578C245.049 222.314 244.83 222.901 244.393 223.338C243.955 223.765 243.395 223.978 242.713 223.978C242.03 223.978 241.47 223.765 241.033 223.338C240.595 222.901 240.377 222.314 240.377 221.578ZM249.721 219.37L243.241 230.538H241.801L248.281 219.37H249.721ZM242.713 220.09C242.35 220.09 242.062 220.218 241.849 220.474C241.646 220.719 241.545 221.087 241.545 221.578C241.545 222.069 241.646 222.442 241.849 222.698C242.062 222.954 242.35 223.082 242.713 223.082C243.075 223.082 243.363 222.954 243.577 222.698C243.79 222.431 243.897 222.058 243.897 221.578C243.897 221.087 243.79 220.719 243.577 220.474C243.363 220.218 243.075 220.09 242.713 220.09ZM246.505 228.33C246.505 227.594 246.723 227.013 247.161 226.586C247.598 226.149 248.158 225.93 248.841 225.93C249.523 225.93 250.078 226.149 250.505 226.586C250.942 227.013 251.161 227.594 251.161 228.33C251.161 229.055 250.942 229.637 250.505 230.074C250.078 230.511 249.523 230.73 248.841 230.73C248.158 230.73 247.598 230.517 247.161 230.09C246.723 229.653 246.505 229.066 246.505 228.33ZM248.825 226.842C248.462 226.842 248.174 226.97 247.961 227.226C247.747 227.471 247.641 227.839 247.641 228.33C247.641 228.81 247.747 229.178 247.961 229.434C248.174 229.679 248.462 229.802 248.825 229.802C249.187 229.802 249.475 229.679 249.689 229.434C249.902 229.178 250.009 228.81 250.009 228.33C250.009 227.839 249.902 227.471 249.689 227.226C249.475 226.97 249.187 226.842 248.825 226.842Z" fill="#333333"/>
<path d="M174.076 264.305L169.628 274.737H168.156L172.668 264.449H166.492V263.201H174.076V264.305ZM175.371 265.777C175.371 265.051 175.589 264.475 176.027 264.049C176.464 263.611 177.024 263.393 177.707 263.393C178.389 263.393 178.949 263.611 179.387 264.049C179.824 264.475 180.043 265.051 180.043 265.777C180.043 266.513 179.824 267.099 179.387 267.537C178.949 267.963 178.389 268.177 177.707 268.177C177.024 268.177 176.464 267.963 176.027 267.537C175.589 267.099 175.371 266.513 175.371 265.777ZM184.715 263.569L178.235 274.737H176.795L183.275 263.569H184.715ZM177.707 264.289C177.344 264.289 177.056 264.417 176.843 264.673C176.64 264.918 176.539 265.286 176.539 265.777C176.539 266.267 176.64 266.641 176.843 266.897C177.056 267.153 177.344 267.281 177.707 267.281C178.069 267.281 178.357 267.153 178.571 266.897C178.784 266.63 178.891 266.257 178.891 265.777C178.891 265.286 178.784 264.918 178.571 264.673C178.357 264.417 178.069 264.289 177.707 264.289ZM181.499 272.529C181.499 271.793 181.717 271.211 182.155 270.785C182.592 270.347 183.152 270.129 183.835 270.129C184.517 270.129 185.072 270.347 185.499 270.785C185.936 271.211 186.155 271.793 186.155 272.529C186.155 273.254 185.936 273.835 185.499 274.273C185.072 274.71 184.517 274.929 183.835 274.929C183.152 274.929 182.592 274.715 182.155 274.289C181.717 273.851 181.499 273.265 181.499 272.529ZM183.819 271.041C183.456 271.041 183.168 271.169 182.955 271.425C182.741 271.67 182.635 272.038 182.635 272.529C182.635 273.009 182.741 273.377 182.955 273.633C183.168 273.878 183.456 274.001 183.819 274.001C184.181 274.001 184.469 273.878 184.683 273.633C184.896 273.377 185.003 273.009 185.003 272.529C185.003 272.038 184.896 271.67 184.683 271.425C184.469 271.169 184.181 271.041 183.819 271.041Z" fill="#333333"/>
<path d="M88.5967 231.212C89.9514 230.124 91.0127 229.233 91.7807 228.54C92.5487 227.836 93.1941 227.105 93.7167 226.348C94.2501 225.58 94.5167 224.828 94.5167 224.092C94.5167 223.398 94.3461 222.854 94.0047 222.46C93.6741 222.054 93.1354 221.852 92.3887 221.852C91.6634 221.852 91.0981 222.081 90.6927 222.54C90.2981 222.988 90.0847 223.59 90.0527 224.348H88.6447C88.6874 223.153 89.0501 222.23 89.7327 221.58C90.4154 220.929 91.2954 220.604 92.3727 220.604C93.4714 220.604 94.3407 220.908 94.9807 221.516C95.6314 222.124 95.9567 222.961 95.9567 224.028C95.9567 224.913 95.6901 225.777 95.1567 226.62C94.6341 227.452 94.0367 228.188 93.3647 228.828C92.6927 229.457 91.8341 230.193 90.7887 231.036H96.2927V232.252H88.5967V231.212ZM97.7999 231.212C99.1545 230.124 100.216 229.233 100.984 228.54C101.752 227.836 102.397 227.105 102.92 226.348C103.453 225.58 103.72 224.828 103.72 224.092C103.72 223.398 103.549 222.854 103.208 222.46C102.877 222.054 102.339 221.852 101.592 221.852C100.867 221.852 100.301 222.081 99.8959 222.54C99.5012 222.988 99.2879 223.59 99.2559 224.348H97.8479C97.8905 223.153 98.2532 222.23 98.9359 221.58C99.6185 220.929 100.499 220.604 101.576 220.604C102.675 220.604 103.544 220.908 104.184 221.516C104.835 222.124 105.16 222.961 105.16 224.028C105.16 224.913 104.893 225.777 104.36 226.62C103.837 227.452 103.24 228.188 102.568 228.828C101.896 229.457 101.037 230.193 99.9919 231.036H105.496V232.252H97.7999V231.212ZM106.859 223.42C106.859 222.694 107.078 222.118 107.515 221.692C107.952 221.254 108.512 221.036 109.195 221.036C109.878 221.036 110.438 221.254 110.875 221.692C111.312 222.118 111.531 222.694 111.531 223.42C111.531 224.156 111.312 224.742 110.875 225.18C110.438 225.606 109.878 225.82 109.195 225.82C108.512 225.82 107.952 225.606 107.515 225.18C107.078 224.742 106.859 224.156 106.859 223.42ZM116.203 221.212L109.723 232.38H108.283L114.763 221.212H116.203ZM109.195 221.932C108.832 221.932 108.544 222.06 108.331 222.316C108.128 222.561 108.027 222.929 108.027 223.42C108.027 223.91 108.128 224.284 108.331 224.54C108.544 224.796 108.832 224.924 109.195 224.924C109.558 224.924 109.846 224.796 110.059 224.54C110.272 224.273 110.379 223.9 110.379 223.42C110.379 222.929 110.272 222.561 110.059 222.316C109.846 222.06 109.558 221.932 109.195 221.932ZM112.987 230.172C112.987 229.436 113.206 228.854 113.643 228.428C114.08 227.99 114.64 227.772 115.323 227.772C116.006 227.772 116.56 227.99 116.987 228.428C117.424 228.854 117.643 229.436 117.643 230.172C117.643 230.897 117.424 231.478 116.987 231.916C116.56 232.353 116.006 232.572 115.323 232.572C114.64 232.572 114.08 232.358 113.643 231.932C113.206 231.494 112.987 230.908 112.987 230.172ZM115.307 228.684C114.944 228.684 114.656 228.812 114.443 229.068C114.23 229.313 114.123 229.681 114.123 230.172C114.123 230.652 114.23 231.02 114.443 231.276C114.656 231.521 114.944 231.644 115.307 231.644C115.67 231.644 115.958 231.521 116.171 231.276C116.384 231.02 116.491 230.652 116.491 230.172C116.491 229.681 116.384 229.313 116.171 229.068C115.958 228.812 115.67 228.684 115.307 228.684Z" fill="#333333"/>
<path d="M70.2855 140.851C70.3602 139.87 70.7389 139.102 71.4215 138.547C72.1042 137.992 72.9895 137.715 74.0775 137.715C74.8029 137.715 75.4269 137.848 75.9495 138.115C76.4829 138.371 76.8829 138.723 77.1495 139.171C77.4269 139.619 77.5655 140.126 77.5655 140.691C77.5655 141.352 77.3735 141.923 76.9895 142.403C76.6162 142.883 76.1255 143.192 75.5175 143.331V143.411C76.2109 143.582 76.7602 143.918 77.1655 144.419C77.5709 144.92 77.7735 145.576 77.7735 146.387C77.7735 146.995 77.6349 147.544 77.3575 148.035C77.0802 148.515 76.6642 148.894 76.1095 149.171C75.5549 149.448 74.8882 149.587 74.1095 149.587C72.9789 149.587 72.0509 149.294 71.3255 148.707C70.6002 148.11 70.1949 147.267 70.1095 146.179H71.5175C71.5922 146.819 71.8535 147.342 72.3015 147.747C72.7495 148.152 73.3469 148.355 74.0935 148.355C74.8402 148.355 75.4055 148.163 75.7895 147.779C76.1842 147.384 76.3815 146.878 76.3815 146.259C76.3815 145.459 76.1149 144.883 75.5815 144.531C75.0482 144.179 74.2429 144.003 73.1655 144.003H72.7975V142.787H73.1815C74.1629 142.776 74.9042 142.616 75.4055 142.307C75.9069 141.987 76.1575 141.496 76.1575 140.835C76.1575 140.27 75.9709 139.816 75.5975 139.475C75.2349 139.134 74.7122 138.963 74.0295 138.963C73.3682 138.963 72.8349 139.134 72.4295 139.475C72.0242 139.816 71.7842 140.275 71.7095 140.851H70.2855ZM79.3874 146.931V145.827L85.0034 138.051H86.7474V145.667H88.3474V146.931H86.7474V149.507H85.3074V146.931H79.3874ZM85.3714 139.571L81.0674 145.667H85.3714V139.571ZM89.4819 140.547C89.4819 139.822 89.7006 139.246 90.1379 138.819C90.5752 138.382 91.1352 138.163 91.8179 138.163C92.5006 138.163 93.0606 138.382 93.4979 138.819C93.9352 139.246 94.1539 139.822 94.1539 140.547C94.1539 141.283 93.9352 141.87 93.4979 142.307C93.0606 142.734 92.5006 142.947 91.8179 142.947C91.1352 142.947 90.5752 142.734 90.1379 142.307C89.7006 141.87 89.4819 141.283 89.4819 140.547ZM98.8259 138.339L92.3459 149.507H90.9059L97.3859 138.339H98.8259ZM91.8179 139.059C91.4552 139.059 91.1672 139.187 90.9539 139.443C90.7512 139.688 90.6499 140.056 90.6499 140.547C90.6499 141.038 90.7512 141.411 90.9539 141.667C91.1672 141.923 91.4552 142.051 91.8179 142.051C92.1806 142.051 92.4686 141.923 92.6819 141.667C92.8952 141.4 93.0019 141.027 93.0019 140.547C93.0019 140.056 92.8952 139.688 92.6819 139.443C92.4686 139.187 92.1806 139.059 91.8179 139.059ZM95.6099 147.299C95.6099 146.563 95.8286 145.982 96.2659 145.555C96.7032 145.118 97.2632 144.899 97.9459 144.899C98.6286 144.899 99.1832 145.118 99.6099 145.555C100.047 145.982 100.266 146.563 100.266 147.299C100.266 148.024 100.047 148.606 99.6099 149.043C99.1832 149.48 98.6286 149.699 97.9459 149.699C97.2632 149.699 96.7032 149.486 96.2659 149.059C95.8286 148.622 95.6099 148.035 95.6099 147.299ZM97.9299 145.811C97.5672 145.811 97.2792 145.939 97.0659 146.195C96.8526 146.44 96.7459 146.808 96.7459 147.299C96.7459 147.779 96.8526 148.147 97.0659 148.403C97.2792 148.648 97.5672 148.771 97.9299 148.771C98.2926 148.771 98.5806 148.648 98.7939 148.403C99.0072 148.147 99.1139 147.779 99.1139 147.299C99.1139 146.808 99.0072 146.44 98.7939 146.195C98.5806 145.939 98.2926 145.811 97.9299 145.811Z" fill="#333333"/>
<path d="M187.972 121.798L191.147 146.199L168.428 136.748L187.972 121.798Z" fill="#333333"/>
<g filter="url(#filter2_d_1_191)">
<circle cx="162.166" cy="178.495" r="53.2744" fill="white"/>
<circle cx="162.166" cy="178.495" r="52.3865" stroke="white" stroke-width="1.77581" stroke-linejoin="round" stroke-dasharray="3.55 3.55"/>
</g>
<circle cx="162.166" cy="178.495" r="37.2921" fill="white"/>
<path d="M145.318 167.809V168.623H141.985V171.208H144.691V172.022H141.985V175.476H140.984V167.809H145.318ZM147.044 168.469C146.853 168.469 146.692 168.403 146.56 168.271C146.428 168.139 146.362 167.977 146.362 167.787C146.362 167.596 146.428 167.435 146.56 167.303C146.692 167.171 146.853 167.105 147.044 167.105C147.227 167.105 147.381 167.171 147.506 167.303C147.638 167.435 147.704 167.596 147.704 167.787C147.704 167.977 147.638 168.139 147.506 168.271C147.381 168.403 147.227 168.469 147.044 168.469ZM147.528 169.448V175.476H146.527V169.448H147.528ZM152.171 169.338C152.904 169.338 153.498 169.561 153.953 170.009C154.407 170.449 154.635 171.087 154.635 171.923V175.476H153.645V172.066C153.645 171.464 153.494 171.006 153.194 170.691C152.893 170.368 152.482 170.207 151.962 170.207C151.434 170.207 151.012 170.372 150.697 170.702C150.389 171.032 150.235 171.512 150.235 172.143V175.476H149.234V169.448H150.235V170.306C150.433 169.998 150.7 169.759 151.038 169.591C151.382 169.422 151.76 169.338 152.171 169.338ZM158.404 175.575C157.942 175.575 157.528 175.498 157.161 175.344C156.794 175.182 156.505 174.962 156.292 174.684C156.079 174.398 155.962 174.071 155.94 173.705H156.974C157.003 174.005 157.143 174.251 157.392 174.442C157.649 174.632 157.982 174.728 158.393 174.728C158.774 174.728 159.075 174.643 159.295 174.475C159.515 174.306 159.625 174.093 159.625 173.837C159.625 173.573 159.508 173.378 159.273 173.254C159.038 173.122 158.675 172.993 158.184 172.869C157.737 172.751 157.37 172.634 157.084 172.517C156.805 172.392 156.563 172.212 156.358 171.978C156.16 171.736 156.061 171.42 156.061 171.032C156.061 170.724 156.153 170.441 156.336 170.185C156.519 169.928 156.78 169.726 157.117 169.58C157.454 169.426 157.839 169.349 158.272 169.349C158.939 169.349 159.478 169.517 159.889 169.855C160.3 170.192 160.52 170.654 160.549 171.241H159.548C159.526 170.925 159.398 170.672 159.163 170.482C158.936 170.291 158.628 170.196 158.239 170.196C157.88 170.196 157.594 170.273 157.381 170.427C157.168 170.581 157.062 170.782 157.062 171.032C157.062 171.23 157.124 171.395 157.249 171.527C157.381 171.651 157.542 171.754 157.733 171.835C157.931 171.908 158.202 171.992 158.547 172.088C158.98 172.205 159.332 172.322 159.603 172.44C159.874 172.55 160.105 172.718 160.296 172.946C160.494 173.173 160.597 173.47 160.604 173.837C160.604 174.167 160.512 174.464 160.329 174.728C160.146 174.992 159.885 175.201 159.548 175.355C159.218 175.501 158.837 175.575 158.404 175.575ZM165.009 169.338C165.464 169.338 165.874 169.437 166.241 169.635C166.608 169.825 166.894 170.115 167.099 170.504C167.312 170.892 167.418 171.365 167.418 171.923V175.476H166.428V172.066C166.428 171.464 166.278 171.006 165.977 170.691C165.676 170.368 165.266 170.207 164.745 170.207C164.217 170.207 163.795 170.372 163.48 170.702C163.172 171.032 163.018 171.512 163.018 172.143V175.476H162.017V167.336H163.018V170.306C163.216 169.998 163.487 169.759 163.832 169.591C164.184 169.422 164.576 169.338 165.009 169.338ZM174.553 172.231C174.553 172.421 174.542 172.623 174.52 172.836H169.702C169.739 173.43 169.94 173.895 170.307 174.233C170.681 174.563 171.132 174.728 171.66 174.728C172.093 174.728 172.452 174.629 172.738 174.431C173.031 174.225 173.237 173.954 173.354 173.617H174.432C174.271 174.196 173.948 174.669 173.464 175.036C172.98 175.395 172.379 175.575 171.66 175.575C171.088 175.575 170.575 175.446 170.12 175.19C169.673 174.933 169.321 174.57 169.064 174.101C168.807 173.624 168.679 173.074 168.679 172.451C168.679 171.827 168.804 171.281 169.053 170.812C169.302 170.342 169.651 169.983 170.098 169.734C170.553 169.477 171.073 169.349 171.66 169.349C172.232 169.349 172.738 169.473 173.178 169.723C173.618 169.972 173.955 170.317 174.19 170.757C174.432 171.189 174.553 171.681 174.553 172.231ZM173.519 172.022C173.519 171.64 173.435 171.314 173.266 171.043C173.097 170.764 172.866 170.555 172.573 170.416C172.287 170.269 171.968 170.196 171.616 170.196C171.11 170.196 170.677 170.357 170.318 170.68C169.966 171.002 169.764 171.45 169.713 172.022H173.519ZM175.5 172.44C175.5 171.824 175.625 171.285 175.874 170.823C176.124 170.353 176.465 169.99 176.897 169.734C177.337 169.477 177.829 169.349 178.371 169.349C178.841 169.349 179.277 169.459 179.68 169.679C180.084 169.891 180.392 170.174 180.604 170.526V167.336H181.616V175.476H180.604V174.343C180.406 174.702 180.113 174.999 179.724 175.234C179.336 175.461 178.881 175.575 178.36 175.575C177.825 175.575 177.337 175.443 176.897 175.179C176.465 174.915 176.124 174.544 175.874 174.068C175.625 173.591 175.5 173.048 175.5 172.44ZM180.604 172.451C180.604 171.996 180.513 171.6 180.329 171.263C180.146 170.925 179.897 170.669 179.581 170.493C179.273 170.309 178.932 170.218 178.558 170.218C178.184 170.218 177.843 170.306 177.535 170.482C177.227 170.658 176.982 170.914 176.798 171.252C176.615 171.589 176.523 171.985 176.523 172.44C176.523 172.902 176.615 173.305 176.798 173.65C176.982 173.987 177.227 174.247 177.535 174.431C177.843 174.607 178.184 174.695 178.558 174.695C178.932 174.695 179.273 174.607 179.581 174.431C179.897 174.247 180.146 173.987 180.329 173.65C180.513 173.305 180.604 172.905 180.604 172.451ZM144.661 182.809V183.623H142.571V190.476H141.57V183.623H139.469V182.809H144.661ZM146.894 185.427C147.07 185.082 147.319 184.814 147.642 184.624C147.972 184.433 148.372 184.338 148.841 184.338V185.372H148.577C147.455 185.372 146.894 185.98 146.894 187.198V190.476H145.893V184.448H146.894V185.427ZM149.622 187.44C149.622 186.824 149.747 186.285 149.996 185.823C150.246 185.353 150.587 184.99 151.019 184.734C151.459 184.477 151.947 184.349 152.482 184.349C153.01 184.349 153.469 184.462 153.857 184.69C154.246 184.917 154.536 185.203 154.726 185.548V184.448H155.738V190.476H154.726V189.354C154.528 189.706 154.231 189.999 153.835 190.234C153.447 190.461 152.992 190.575 152.471 190.575C151.936 190.575 151.452 190.443 151.019 190.179C150.587 189.915 150.246 189.544 149.996 189.068C149.747 188.591 149.622 188.048 149.622 187.44ZM154.726 187.451C154.726 186.996 154.635 186.6 154.451 186.263C154.268 185.925 154.019 185.669 153.703 185.493C153.395 185.309 153.054 185.218 152.68 185.218C152.306 185.218 151.965 185.306 151.657 185.482C151.349 185.658 151.104 185.914 150.92 186.252C150.737 186.589 150.645 186.985 150.645 187.44C150.645 187.902 150.737 188.305 150.92 188.65C151.104 188.987 151.349 189.247 151.657 189.431C151.965 189.607 152.306 189.695 152.68 189.695C153.054 189.695 153.395 189.607 153.703 189.431C154.019 189.247 154.268 188.987 154.451 188.65C154.635 188.305 154.726 187.905 154.726 187.451ZM157.947 183.469C157.756 183.469 157.595 183.403 157.463 183.271C157.331 183.139 157.265 182.977 157.265 182.787C157.265 182.596 157.331 182.435 157.463 182.303C157.595 182.171 157.756 182.105 157.947 182.105C158.13 182.105 158.284 182.171 158.409 182.303C158.541 182.435 158.607 182.596 158.607 182.787C158.607 182.977 158.541 183.139 158.409 183.271C158.284 183.403 158.13 183.469 157.947 183.469ZM158.431 184.448V190.476H157.43V184.448H158.431ZM163.074 184.338C163.807 184.338 164.401 184.561 164.856 185.009C165.311 185.449 165.538 186.087 165.538 186.923V190.476H164.548V187.066C164.548 186.464 164.398 186.006 164.097 185.691C163.796 185.368 163.386 185.207 162.865 185.207C162.337 185.207 161.915 185.372 161.6 185.702C161.292 186.032 161.138 186.512 161.138 187.143V190.476H160.137V184.448H161.138V185.306C161.336 184.998 161.604 184.759 161.941 184.591C162.286 184.422 162.663 184.338 163.074 184.338ZM167.69 183.469C167.499 183.469 167.338 183.403 167.206 183.271C167.074 183.139 167.008 182.977 167.008 182.787C167.008 182.596 167.074 182.435 167.206 182.303C167.338 182.171 167.499 182.105 167.69 182.105C167.873 182.105 168.027 182.171 168.152 182.303C168.284 182.435 168.35 182.596 168.35 182.787C168.35 182.977 168.284 183.139 168.152 183.271C168.027 183.403 167.873 183.469 167.69 183.469ZM168.174 184.448V190.476H167.173V184.448H168.174ZM172.817 184.338C173.551 184.338 174.145 184.561 174.599 185.009C175.054 185.449 175.281 186.087 175.281 186.923V190.476H174.291V187.066C174.291 186.464 174.141 186.006 173.84 185.691C173.54 185.368 173.129 185.207 172.608 185.207C172.08 185.207 171.659 185.372 171.343 185.702C171.035 186.032 170.881 186.512 170.881 187.143V190.476H169.88V184.448H170.881V185.306C171.079 184.998 171.347 184.759 171.684 184.591C172.029 184.422 172.407 184.338 172.817 184.338ZM179.402 184.349C179.923 184.349 180.378 184.462 180.766 184.69C181.162 184.917 181.456 185.203 181.646 185.548V184.448H182.658V190.608C182.658 191.158 182.541 191.645 182.306 192.071C182.072 192.503 181.734 192.841 181.294 193.083C180.862 193.325 180.356 193.446 179.776 193.446C178.984 193.446 178.324 193.259 177.796 192.885C177.268 192.511 176.957 192.001 176.861 191.356H177.851C177.961 191.722 178.189 192.016 178.533 192.236C178.878 192.463 179.292 192.577 179.776 192.577C180.326 192.577 180.774 192.404 181.118 192.06C181.47 191.715 181.646 191.231 181.646 190.608V189.343C181.448 189.695 181.155 189.988 180.766 190.223C180.378 190.457 179.923 190.575 179.402 190.575C178.867 190.575 178.379 190.443 177.939 190.179C177.507 189.915 177.166 189.544 176.916 189.068C176.667 188.591 176.542 188.048 176.542 187.44C176.542 186.824 176.667 186.285 176.916 185.823C177.166 185.353 177.507 184.99 177.939 184.734C178.379 184.477 178.867 184.349 179.402 184.349ZM181.646 187.451C181.646 186.996 181.555 186.6 181.371 186.263C181.188 185.925 180.939 185.669 180.623 185.493C180.315 185.309 179.974 185.218 179.6 185.218C179.226 185.218 178.885 185.306 178.577 185.482C178.269 185.658 178.024 185.914 177.84 186.252C177.657 186.589 177.565 186.985 177.565 187.44C177.565 187.902 177.657 188.305 177.84 188.65C178.024 188.987 178.269 189.247 178.577 189.431C178.885 189.607 179.226 189.695 179.6 189.695C179.974 189.695 180.315 189.607 180.623 189.431C180.939 189.247 181.188 188.987 181.371 188.65C181.555 188.305 181.646 187.905 181.646 187.451Z" fill="#333333"/>
<circle cx="47.2877" cy="326.158" r="4.32877" fill="#0D62FF"/>
<path d="M65.4549 321.991V322.805H62.1219V325.39H64.8279V326.204H62.1219V329.658H61.1209V321.991H65.4549ZM67.1809 322.651C66.9902 322.651 66.8289 322.585 66.6969 322.453C66.5649 322.321 66.4989 322.159 66.4989 321.969C66.4989 321.778 66.5649 321.617 66.6969 321.485C66.8289 321.353 66.9902 321.287 67.1809 321.287C67.3642 321.287 67.5182 321.353 67.6429 321.485C67.7749 321.617 67.8409 321.778 67.8409 321.969C67.8409 322.159 67.7749 322.321 67.6429 322.453C67.5182 322.585 67.3642 322.651 67.1809 322.651ZM67.6649 323.63V329.658H66.6639V323.63H67.6649ZM72.3079 323.52C73.0413 323.52 73.6353 323.743 74.0899 324.191C74.5446 324.631 74.7719 325.269 74.7719 326.105V329.658H73.7819V326.248C73.7819 325.646 73.6316 325.188 73.3309 324.873C73.0303 324.55 72.6196 324.389 72.0989 324.389C71.5709 324.389 71.1493 324.554 70.8339 324.884C70.5259 325.214 70.3719 325.694 70.3719 326.325V329.658H69.3709V323.63H70.3719V324.488C70.5699 324.18 70.8376 323.941 71.1749 323.773C71.5196 323.604 71.8973 323.52 72.3079 323.52ZM76.9241 322.651C76.7334 322.651 76.5721 322.585 76.4401 322.453C76.3081 322.321 76.2421 322.159 76.2421 321.969C76.2421 321.778 76.3081 321.617 76.4401 321.485C76.5721 321.353 76.7334 321.287 76.9241 321.287C77.1074 321.287 77.2614 321.353 77.3861 321.485C77.5181 321.617 77.5841 321.778 77.5841 321.969C77.5841 322.159 77.5181 322.321 77.3861 322.453C77.2614 322.585 77.1074 322.651 76.9241 322.651ZM77.4081 323.63V329.658H76.4071V323.63H77.4081ZM81.2481 329.757C80.7861 329.757 80.3718 329.68 80.0051 329.526C79.6384 329.364 79.3488 329.144 79.1361 328.866C78.9234 328.58 78.8061 328.253 78.7841 327.887H79.8181C79.8474 328.187 79.9868 328.433 80.2361 328.624C80.4928 328.814 80.8264 328.91 81.2371 328.91C81.6184 328.91 81.9191 328.825 82.1391 328.657C82.3591 328.488 82.4691 328.275 82.4691 328.019C82.4691 327.755 82.3518 327.56 82.1171 327.436C81.8824 327.304 81.5194 327.175 81.0281 327.051C80.5808 326.933 80.2141 326.816 79.9281 326.699C79.6494 326.574 79.4074 326.394 79.2021 326.16C79.0041 325.918 78.9051 325.602 78.9051 325.214C78.9051 324.906 78.9968 324.623 79.1801 324.367C79.3634 324.11 79.6238 323.908 79.9611 323.762C80.2984 323.608 80.6834 323.531 81.1161 323.531C81.7834 323.531 82.3224 323.699 82.7331 324.037C83.1438 324.374 83.3638 324.836 83.3931 325.423H82.3921C82.3701 325.107 82.2418 324.854 82.0071 324.664C81.7798 324.473 81.4718 324.378 81.0831 324.378C80.7238 324.378 80.4378 324.455 80.2251 324.609C80.0124 324.763 79.9061 324.964 79.9061 325.214C79.9061 325.412 79.9684 325.577 80.0931 325.709C80.2251 325.833 80.3864 325.936 80.5771 326.017C80.7751 326.09 81.0464 326.174 81.3911 326.27C81.8238 326.387 82.1758 326.504 82.4471 326.622C82.7184 326.732 82.9494 326.9 83.1401 327.128C83.3381 327.355 83.4408 327.652 83.4481 328.019C83.4481 328.349 83.3564 328.646 83.1731 328.91C82.9898 329.174 82.7294 329.383 82.3921 329.537C82.0621 329.683 81.6808 329.757 81.2481 329.757ZM87.8532 323.52C88.3078 323.52 88.7185 323.619 89.0852 323.817C89.4518 324.007 89.7378 324.297 89.9432 324.686C90.1558 325.074 90.2622 325.547 90.2622 326.105V329.658H89.2722V326.248C89.2722 325.646 89.1218 325.188 88.8212 324.873C88.5205 324.55 88.1098 324.389 87.5892 324.389C87.0612 324.389 86.6395 324.554 86.3242 324.884C86.0162 325.214 85.8622 325.694 85.8622 326.325V329.658H84.8612V321.518H85.8622V324.488C86.0602 324.18 86.3315 323.941 86.6762 323.773C87.0282 323.604 87.4205 323.52 87.8532 323.52ZM97.3973 326.413C97.3973 326.603 97.3863 326.805 97.3643 327.018H92.5463C92.583 327.612 92.7846 328.077 93.1513 328.415C93.5253 328.745 93.9763 328.91 94.5043 328.91C94.937 328.91 95.2963 328.811 95.5823 328.613C95.8756 328.407 96.081 328.136 96.1983 327.799H97.2763C97.115 328.378 96.7923 328.851 96.3083 329.218C95.8243 329.577 95.223 329.757 94.5043 329.757C93.9323 329.757 93.419 329.628 92.9643 329.372C92.517 329.115 92.165 328.752 91.9083 328.283C91.6516 327.806 91.5233 327.256 91.5233 326.633C91.5233 326.009 91.648 325.463 91.8973 324.994C92.1466 324.524 92.495 324.165 92.9423 323.916C93.397 323.659 93.9176 323.531 94.5043 323.531C95.0763 323.531 95.5823 323.655 96.0223 323.905C96.4623 324.154 96.7996 324.499 97.0343 324.939C97.2763 325.371 97.3973 325.863 97.3973 326.413ZM96.3633 326.204C96.3633 325.822 96.279 325.496 96.1103 325.225C95.9416 324.946 95.7106 324.737 95.4173 324.598C95.1313 324.451 94.8123 324.378 94.4603 324.378C93.9543 324.378 93.5216 324.539 93.1623 324.862C92.8103 325.184 92.6086 325.632 92.5573 326.204H96.3633ZM98.3446 326.622C98.3446 326.006 98.4692 325.467 98.7186 325.005C98.9679 324.535 99.3089 324.172 99.7416 323.916C100.182 323.659 100.673 323.531 101.216 323.531C101.685 323.531 102.121 323.641 102.525 323.861C102.928 324.073 103.236 324.356 103.449 324.708V321.518H104.461V329.658H103.449V328.525C103.251 328.884 102.957 329.181 102.569 329.416C102.18 329.643 101.725 329.757 101.205 329.757C100.669 329.757 100.182 329.625 99.7416 329.361C99.3089 329.097 98.9679 328.726 98.7186 328.25C98.4692 327.773 98.3446 327.23 98.3446 326.622ZM103.449 326.633C103.449 326.178 103.357 325.782 103.174 325.445C102.99 325.107 102.741 324.851 102.426 324.675C102.118 324.491 101.777 324.4 101.403 324.4C101.029 324.4 100.688 324.488 100.38 324.664C100.072 324.84 99.8259 325.096 99.6426 325.434C99.4592 325.771 99.3676 326.167 99.3676 326.622C99.3676 327.084 99.4592 327.487 99.6426 327.832C99.8259 328.169 100.072 328.429 100.38 328.613C100.688 328.789 101.029 328.877 101.403 328.877C101.777 328.877 102.118 328.789 102.426 328.613C102.741 328.429 102.99 328.169 103.174 327.832C103.357 327.487 103.449 327.087 103.449 326.633ZM113.804 321.991V322.805H111.714V329.658H110.713V322.805H108.612V321.991H113.804ZM116.037 324.609C116.213 324.264 116.462 323.996 116.785 323.806C117.115 323.615 117.515 323.52 117.984 323.52V324.554H117.72C116.598 324.554 116.037 325.162 116.037 326.38V329.658H115.036V323.63H116.037V324.609ZM118.765 326.622C118.765 326.006 118.89 325.467 119.139 325.005C119.389 324.535 119.73 324.172 120.162 323.916C120.602 323.659 121.09 323.531 121.625 323.531C122.153 323.531 122.612 323.644 123 323.872C123.389 324.099 123.679 324.385 123.869 324.73V323.63H124.881V329.658H123.869V328.536C123.671 328.888 123.374 329.181 122.978 329.416C122.59 329.643 122.135 329.757 121.614 329.757C121.079 329.757 120.595 329.625 120.162 329.361C119.73 329.097 119.389 328.726 119.139 328.25C118.89 327.773 118.765 327.23 118.765 326.622ZM123.869 326.633C123.869 326.178 123.778 325.782 123.594 325.445C123.411 325.107 123.162 324.851 122.846 324.675C122.538 324.491 122.197 324.4 121.823 324.4C121.449 324.4 121.108 324.488 120.8 324.664C120.492 324.84 120.247 325.096 120.063 325.434C119.88 325.771 119.788 326.167 119.788 326.622C119.788 327.084 119.88 327.487 120.063 327.832C120.247 328.169 120.492 328.429 120.8 328.613C121.108 328.789 121.449 328.877 121.823 328.877C122.197 328.877 122.538 328.789 122.846 328.613C123.162 328.429 123.411 328.169 123.594 327.832C123.778 327.487 123.869 327.087 123.869 326.633ZM127.09 322.651C126.899 322.651 126.738 322.585 126.606 322.453C126.474 322.321 126.408 322.159 126.408 321.969C126.408 321.778 126.474 321.617 126.606 321.485C126.738 321.353 126.899 321.287 127.09 321.287C127.273 321.287 127.427 321.353 127.552 321.485C127.684 321.617 127.75 321.778 127.75 321.969C127.75 322.159 127.684 322.321 127.552 322.453C127.427 322.585 127.273 322.651 127.09 322.651ZM127.574 323.63V329.658H126.573V323.63H127.574ZM132.217 323.52C132.95 323.52 133.544 323.743 133.999 324.191C134.454 324.631 134.681 325.269 134.681 326.105V329.658H133.691V326.248C133.691 325.646 133.541 325.188 133.24 324.873C132.939 324.55 132.529 324.389 132.008 324.389C131.48 324.389 131.058 324.554 130.743 324.884C130.435 325.214 130.281 325.694 130.281 326.325V329.658H129.28V323.63H130.281V324.488C130.479 324.18 130.747 323.941 131.084 323.773C131.429 323.604 131.806 323.52 132.217 323.52ZM136.833 322.651C136.643 322.651 136.481 322.585 136.349 322.453C136.217 322.321 136.151 322.159 136.151 321.969C136.151 321.778 136.217 321.617 136.349 321.485C136.481 321.353 136.643 321.287 136.833 321.287C137.017 321.287 137.171 321.353 137.295 321.485C137.427 321.617 137.493 321.778 137.493 321.969C137.493 322.159 137.427 322.321 137.295 322.453C137.171 322.585 137.017 322.651 136.833 322.651ZM137.317 323.63V329.658H136.316V323.63H137.317ZM141.96 323.52C142.694 323.52 143.288 323.743 143.742 324.191C144.197 324.631 144.424 325.269 144.424 326.105V329.658H143.434V326.248C143.434 325.646 143.284 325.188 142.983 324.873C142.683 324.55 142.272 324.389 141.751 324.389C141.223 324.389 140.802 324.554 140.486 324.884C140.178 325.214 140.024 325.694 140.024 326.325V329.658H139.023V323.63H140.024V324.488C140.222 324.18 140.49 323.941 140.827 323.773C141.172 323.604 141.55 323.52 141.96 323.52ZM148.545 323.531C149.066 323.531 149.521 323.644 149.909 323.872C150.305 324.099 150.599 324.385 150.789 324.73V323.63H151.801V329.79C151.801 330.34 151.684 330.827 151.449 331.253C151.215 331.685 150.877 332.023 150.437 332.265C150.005 332.507 149.499 332.628 148.919 332.628C148.127 332.628 147.467 332.441 146.939 332.067C146.411 331.693 146.1 331.183 146.004 330.538H146.994C147.104 330.904 147.332 331.198 147.676 331.418C148.021 331.645 148.435 331.759 148.919 331.759C149.469 331.759 149.917 331.586 150.261 331.242C150.613 330.897 150.789 330.413 150.789 329.79V328.525C150.591 328.877 150.298 329.17 149.909 329.405C149.521 329.639 149.066 329.757 148.545 329.757C148.01 329.757 147.522 329.625 147.082 329.361C146.65 329.097 146.309 328.726 146.059 328.25C145.81 327.773 145.685 327.23 145.685 326.622C145.685 326.006 145.81 325.467 146.059 325.005C146.309 324.535 146.65 324.172 147.082 323.916C147.522 323.659 148.01 323.531 148.545 323.531ZM150.789 326.633C150.789 326.178 150.698 325.782 150.514 325.445C150.331 325.107 150.082 324.851 149.766 324.675C149.458 324.491 149.117 324.4 148.743 324.4C148.369 324.4 148.028 324.488 147.72 324.664C147.412 324.84 147.167 325.096 146.983 325.434C146.8 325.771 146.708 326.167 146.708 326.622C146.708 327.084 146.8 327.487 146.983 327.832C147.167 328.169 147.412 328.429 147.72 328.613C148.028 328.789 148.369 328.877 148.743 328.877C149.117 328.877 149.458 328.789 149.766 328.613C150.082 328.429 150.331 328.169 150.514 327.832C150.698 327.487 150.789 327.087 150.789 326.633Z" fill="#333333"/>
<circle cx="47.2877" cy="349.815" r="4.32877" fill="#8400D5"/>
<path d="M60.7469 349.476C60.7469 348.728 60.9156 348.057 61.2529 347.463C61.5903 346.862 62.0486 346.392 62.6279 346.055C63.2146 345.718 63.8636 345.549 64.5749 345.549C65.4109 345.549 66.1406 345.751 66.7639 346.154C67.3873 346.557 67.8419 347.129 68.1279 347.87H66.9289C66.7163 347.408 66.4083 347.052 66.0049 346.803C65.6089 346.554 65.1323 346.429 64.5749 346.429C64.0396 346.429 63.5593 346.554 63.1339 346.803C62.7086 347.052 62.3749 347.408 62.1329 347.87C61.8909 348.325 61.7699 348.86 61.7699 349.476C61.7699 350.085 61.8909 350.62 62.1329 351.082C62.3749 351.537 62.7086 351.889 63.1339 352.138C63.5593 352.387 64.0396 352.512 64.5749 352.512C65.1323 352.512 65.6089 352.391 66.0049 352.149C66.4083 351.9 66.7163 351.544 66.9289 351.082H68.1279C67.8419 351.815 67.3873 352.384 66.7639 352.787C66.1406 353.183 65.4109 353.381 64.5749 353.381C63.8636 353.381 63.2146 353.216 62.6279 352.886C62.0486 352.549 61.5903 352.083 61.2529 351.489C60.9156 350.895 60.7469 350.224 60.7469 349.476ZM72.61 347.177C73.0647 347.177 73.4753 347.276 73.842 347.474C74.2087 347.665 74.4947 347.954 74.7 348.343C74.9127 348.732 75.019 349.205 75.019 349.762V353.315H74.029V349.905C74.029 349.304 73.8787 348.845 73.578 348.53C73.2773 348.207 72.8667 348.046 72.346 348.046C71.818 348.046 71.3963 348.211 71.081 348.541C70.773 348.871 70.619 349.351 70.619 349.982V353.315H69.618V345.175H70.619V348.145C70.817 347.837 71.0883 347.599 71.433 347.43C71.785 347.261 72.1773 347.177 72.61 347.177ZM76.2801 350.279C76.2801 349.663 76.4048 349.124 76.6541 348.662C76.9035 348.193 77.2445 347.83 77.6771 347.573C78.1171 347.316 78.6048 347.188 79.1401 347.188C79.6681 347.188 80.1265 347.302 80.5151 347.529C80.9038 347.756 81.1935 348.042 81.3841 348.387V347.287H82.3961V353.315H81.3841V352.193C81.1861 352.545 80.8891 352.838 80.4931 353.073C80.1045 353.3 79.6498 353.414 79.1291 353.414C78.5938 353.414 78.1098 353.282 77.6771 353.018C77.2445 352.754 76.9035 352.384 76.6541 351.907C76.4048 351.43 76.2801 350.888 76.2801 350.279ZM81.3841 350.29C81.3841 349.835 81.2925 349.439 81.1091 349.102C80.9258 348.765 80.6765 348.508 80.3611 348.332C80.0531 348.149 79.7121 348.057 79.3381 348.057C78.9641 348.057 78.6231 348.145 78.3151 348.321C78.0071 348.497 77.7615 348.754 77.5781 349.091C77.3948 349.428 77.3031 349.824 77.3031 350.279C77.3031 350.741 77.3948 351.144 77.5781 351.489C77.7615 351.826 78.0071 352.087 78.3151 352.27C78.6231 352.446 78.9641 352.534 79.3381 352.534C79.7121 352.534 80.0531 352.446 80.3611 352.27C80.6765 352.087 80.9258 351.826 81.1091 351.489C81.2925 351.144 81.3841 350.745 81.3841 350.29ZM85.0887 348.398C85.2867 348.053 85.5801 347.767 85.9687 347.54C86.3647 347.305 86.8231 347.188 87.3437 347.188C87.8791 347.188 88.3631 347.316 88.7957 347.573C89.2357 347.83 89.5804 348.193 89.8297 348.662C90.0791 349.124 90.2037 349.663 90.2037 350.279C90.2037 350.888 90.0791 351.43 89.8297 351.907C89.5804 352.384 89.2357 352.754 88.7957 353.018C88.3631 353.282 87.8791 353.414 87.3437 353.414C86.8304 353.414 86.3757 353.3 85.9797 353.073C85.5911 352.838 85.2941 352.549 85.0887 352.204V356.175H84.0877V347.287H85.0887V348.398ZM89.1807 350.279C89.1807 349.824 89.0891 349.428 88.9057 349.091C88.7224 348.754 88.4731 348.497 88.1577 348.321C87.8497 348.145 87.5087 348.057 87.1347 348.057C86.7681 348.057 86.4271 348.149 86.1117 348.332C85.8037 348.508 85.5544 348.768 85.3637 349.113C85.1804 349.45 85.0887 349.843 85.0887 350.29C85.0887 350.745 85.1804 351.144 85.3637 351.489C85.5544 351.826 85.8037 352.087 86.1117 352.27C86.4271 352.446 86.7681 352.534 87.1347 352.534C87.5087 352.534 87.8497 352.446 88.1577 352.27C88.4731 352.087 88.7224 351.826 88.9057 351.489C89.0891 351.144 89.1807 350.741 89.1807 350.279ZM92.7423 348.112V351.665C92.7423 351.958 92.8046 352.167 92.9293 352.292C93.054 352.409 93.2703 352.468 93.5783 352.468H94.3153V353.315H93.4133C92.856 353.315 92.438 353.187 92.1593 352.93C91.8806 352.673 91.7413 352.252 91.7413 351.665V348.112H90.9603V347.287H91.7413V345.769H92.7423V347.287H94.3153V348.112H92.7423ZM101.028 350.07C101.028 350.261 101.017 350.462 100.995 350.675H96.1772C96.2138 351.269 96.4155 351.735 96.7822 352.072C97.1562 352.402 97.6072 352.567 98.1352 352.567C98.5678 352.567 98.9272 352.468 99.2132 352.27C99.5065 352.065 99.7118 351.793 99.8292 351.456H100.907C100.746 352.035 100.423 352.508 99.9392 352.875C99.4552 353.234 98.8538 353.414 98.1352 353.414C97.5632 353.414 97.0498 353.286 96.5952 353.029C96.1478 352.772 95.7958 352.409 95.5392 351.94C95.2825 351.463 95.1542 350.913 95.1542 350.29C95.1542 349.667 95.2788 349.12 95.5282 348.651C95.7775 348.182 96.1258 347.822 96.5732 347.573C97.0278 347.316 97.5485 347.188 98.1352 347.188C98.7072 347.188 99.2132 347.313 99.6532 347.562C100.093 347.811 100.43 348.156 100.665 348.596C100.907 349.029 101.028 349.52 101.028 350.07ZM99.9942 349.861C99.9942 349.48 99.9098 349.153 99.7412 348.882C99.5725 348.603 99.3415 348.394 99.0482 348.255C98.7622 348.108 98.4432 348.035 98.0912 348.035C97.5852 348.035 97.1525 348.196 96.7932 348.519C96.4412 348.842 96.2395 349.289 96.1882 349.861H99.9942ZM103.35 348.266C103.526 347.921 103.776 347.654 104.098 347.463C104.428 347.272 104.828 347.177 105.297 347.177V348.211H105.033C103.911 348.211 103.35 348.82 103.35 350.037V353.315H102.349V347.287H103.35V348.266ZM113.225 349.366C113.503 349.41 113.756 349.524 113.984 349.707C114.218 349.89 114.402 350.118 114.534 350.389C114.673 350.66 114.743 350.95 114.743 351.258C114.743 351.647 114.644 351.999 114.446 352.314C114.248 352.622 113.958 352.868 113.577 353.051C113.203 353.227 112.759 353.315 112.246 353.315H109.386V345.648H112.136C112.656 345.648 113.1 345.736 113.467 345.912C113.833 346.081 114.108 346.312 114.292 346.605C114.475 346.898 114.567 347.228 114.567 347.595C114.567 348.05 114.442 348.427 114.193 348.728C113.951 349.021 113.628 349.234 113.225 349.366ZM110.387 348.959H112.07C112.539 348.959 112.902 348.849 113.159 348.629C113.415 348.409 113.544 348.105 113.544 347.716C113.544 347.327 113.415 347.023 113.159 346.803C112.902 346.583 112.532 346.473 112.048 346.473H110.387V348.959ZM112.158 352.49C112.656 352.49 113.045 352.373 113.324 352.138C113.602 351.903 113.742 351.577 113.742 351.159C113.742 350.734 113.595 350.4 113.302 350.158C113.008 349.909 112.616 349.784 112.125 349.784H110.387V352.49H112.158Z" fill="#333333"/>
<circle cx="47.2877" cy="373.473" r="4.32877" fill="#ED1C24"/>
<path d="M67.0279 369.306V376.973H66.0269V373.497H62.1219V376.973H61.1209V369.306H62.1219V372.672H66.0269V369.306H67.0279ZM68.3631 373.937C68.3631 373.321 68.4878 372.782 68.7371 372.32C68.9865 371.85 69.3275 371.487 69.7601 371.231C70.2001 370.974 70.6878 370.846 71.2231 370.846C71.7511 370.846 72.2095 370.959 72.5981 371.187C72.9868 371.414 73.2765 371.7 73.4671 372.045V370.945H74.4791V376.973H73.4671V375.851C73.2691 376.203 72.9721 376.496 72.5761 376.731C72.1875 376.958 71.7328 377.072 71.2121 377.072C70.6768 377.072 70.1928 376.94 69.7601 376.676C69.3275 376.412 68.9865 376.041 68.7371 375.565C68.4878 375.088 68.3631 374.545 68.3631 373.937ZM73.4671 373.948C73.4671 373.493 73.3755 373.097 73.1921 372.76C73.0088 372.422 72.7595 372.166 72.4441 371.99C72.1361 371.806 71.7951 371.715 71.4211 371.715C71.0471 371.715 70.7061 371.803 70.3981 371.979C70.0901 372.155 69.8445 372.411 69.6611 372.749C69.4778 373.086 69.3861 373.482 69.3861 373.937C69.3861 374.399 69.4778 374.802 69.6611 375.147C69.8445 375.484 70.0901 375.744 70.3981 375.928C70.7061 376.104 71.0471 376.192 71.4211 376.192C71.7951 376.192 72.1361 376.104 72.4441 375.928C72.7595 375.744 73.0088 375.484 73.1921 375.147C73.3755 374.802 73.4671 374.402 73.4671 373.948ZM78.4147 376.049L80.2847 370.945H81.3517L78.9867 376.973H77.8207L75.4557 370.945H76.5337L78.4147 376.049ZM87.8367 373.728C87.8367 373.918 87.8257 374.12 87.8037 374.333H82.9857C83.0224 374.927 83.2241 375.392 83.5907 375.73C83.9647 376.06 84.4157 376.225 84.9437 376.225C85.3764 376.225 85.7357 376.126 86.0217 375.928C86.3151 375.722 86.5204 375.451 86.6377 375.114H87.7157C87.5544 375.693 87.2317 376.166 86.7477 376.533C86.2637 376.892 85.6624 377.072 84.9437 377.072C84.3717 377.072 83.8584 376.943 83.4037 376.687C82.9564 376.43 82.6044 376.067 82.3477 375.598C82.0911 375.121 81.9627 374.571 81.9627 373.948C81.9627 373.324 82.0874 372.778 82.3367 372.309C82.5861 371.839 82.9344 371.48 83.3817 371.231C83.8364 370.974 84.3571 370.846 84.9437 370.846C85.5157 370.846 86.0217 370.97 86.4617 371.22C86.9017 371.469 87.2391 371.814 87.4737 372.254C87.7157 372.686 87.8367 373.178 87.8367 373.728ZM86.8027 373.519C86.8027 373.137 86.7184 372.811 86.5497 372.54C86.3811 372.261 86.1501 372.052 85.8567 371.913C85.5707 371.766 85.2517 371.693 84.8997 371.693C84.3937 371.693 83.9611 371.854 83.6017 372.177C83.2497 372.499 83.0481 372.947 82.9967 373.519H86.8027ZM92.095 370.835C92.8284 370.835 93.4224 371.058 93.877 371.506C94.3317 371.946 94.559 372.584 94.559 373.42V376.973H93.569V373.563C93.569 372.961 93.4187 372.503 93.118 372.188C92.8174 371.865 92.4067 371.704 91.886 371.704C91.358 371.704 90.9364 371.869 90.621 372.199C90.313 372.529 90.159 373.009 90.159 373.64V376.973H89.158V370.945H90.159V371.803C90.357 371.495 90.6247 371.256 90.962 371.088C91.3067 370.919 91.6844 370.835 92.095 370.835ZM96.3482 369.306H97.4592L96.4032 371.803H95.6992L96.3482 369.306ZM99.8214 371.77V375.323C99.8214 375.616 99.8838 375.825 100.008 375.95C100.133 376.067 100.349 376.126 100.657 376.126H101.394V376.973H100.492C99.9351 376.973 99.5171 376.844 99.2384 376.588C98.9598 376.331 98.8204 375.909 98.8204 375.323V371.77H98.0394V370.945H98.8204V369.427H99.8214V370.945H101.394V371.77H99.8214ZM107.971 377.05C107.465 377.05 107.01 376.962 106.607 376.786C106.211 376.602 105.899 376.353 105.672 376.038C105.445 375.715 105.327 375.345 105.32 374.927H106.387C106.424 375.286 106.57 375.59 106.827 375.84C107.091 376.082 107.472 376.203 107.971 376.203C108.448 376.203 108.822 376.085 109.093 375.851C109.372 375.609 109.511 375.301 109.511 374.927C109.511 374.633 109.43 374.395 109.269 374.212C109.108 374.028 108.906 373.889 108.664 373.794C108.422 373.698 108.096 373.596 107.685 373.486C107.179 373.354 106.772 373.222 106.464 373.09C106.163 372.958 105.903 372.752 105.683 372.474C105.47 372.188 105.364 371.806 105.364 371.33C105.364 370.912 105.47 370.541 105.683 370.219C105.896 369.896 106.193 369.647 106.574 369.471C106.963 369.295 107.406 369.207 107.905 369.207C108.624 369.207 109.21 369.386 109.665 369.746C110.127 370.105 110.387 370.582 110.446 371.176H109.346C109.309 370.882 109.155 370.626 108.884 370.406C108.613 370.178 108.253 370.065 107.806 370.065C107.388 370.065 107.047 370.175 106.783 370.395C106.519 370.607 106.387 370.908 106.387 371.297C106.387 371.575 106.464 371.803 106.618 371.979C106.779 372.155 106.974 372.29 107.201 372.386C107.436 372.474 107.762 372.576 108.18 372.694C108.686 372.833 109.093 372.972 109.401 373.112C109.709 373.244 109.973 373.453 110.193 373.739C110.413 374.017 110.523 374.399 110.523 374.883C110.523 375.257 110.424 375.609 110.226 375.939C110.028 376.269 109.735 376.536 109.346 376.742C108.957 376.947 108.499 377.05 107.971 377.05ZM113.217 371.77V375.323C113.217 375.616 113.279 375.825 113.404 375.95C113.529 376.067 113.745 376.126 114.053 376.126H114.79V376.973H113.888C113.331 376.973 112.913 376.844 112.634 376.588C112.355 376.331 112.216 375.909 112.216 375.323V371.77H111.435V370.945H112.216V369.427H113.217V370.945H114.79V371.77H113.217ZM115.629 373.937C115.629 373.321 115.753 372.782 116.003 372.32C116.252 371.85 116.593 371.487 117.026 371.231C117.466 370.974 117.953 370.846 118.489 370.846C119.017 370.846 119.475 370.959 119.864 371.187C120.252 371.414 120.542 371.7 120.733 372.045V370.945H121.745V376.973H120.733V375.851C120.535 376.203 120.238 376.496 119.842 376.731C119.453 376.958 118.998 377.072 118.478 377.072C117.942 377.072 117.458 376.94 117.026 376.676C116.593 376.412 116.252 376.041 116.003 375.565C115.753 375.088 115.629 374.545 115.629 373.937ZM120.733 373.948C120.733 373.493 120.641 373.097 120.458 372.76C120.274 372.422 120.025 372.166 119.71 371.99C119.402 371.806 119.061 371.715 118.687 371.715C118.313 371.715 117.972 371.803 117.664 371.979C117.356 372.155 117.11 372.411 116.927 372.749C116.743 373.086 116.652 373.482 116.652 373.937C116.652 374.399 116.743 374.802 116.927 375.147C117.11 375.484 117.356 375.744 117.664 375.928C117.972 376.104 118.313 376.192 118.687 376.192C119.061 376.192 119.402 376.104 119.71 375.928C120.025 375.744 120.274 375.484 120.458 375.147C120.641 374.802 120.733 374.402 120.733 373.948ZM124.437 371.924C124.613 371.579 124.863 371.311 125.185 371.121C125.515 370.93 125.915 370.835 126.384 370.835V371.869H126.12C124.998 371.869 124.437 372.477 124.437 373.695V376.973H123.436V370.945H124.437V371.924ZM128.761 371.77V375.323C128.761 375.616 128.823 375.825 128.948 375.95C129.073 376.067 129.289 376.126 129.597 376.126H130.334V376.973H129.432C128.875 376.973 128.457 376.844 128.178 376.588C127.899 376.331 127.76 375.909 127.76 375.323V371.77H126.979V370.945H127.76V369.427H128.761V370.945H130.334V371.77H128.761ZM137.047 373.728C137.047 373.918 137.036 374.12 137.014 374.333H132.196C132.232 374.927 132.434 375.392 132.801 375.73C133.175 376.06 133.626 376.225 134.154 376.225C134.586 376.225 134.946 376.126 135.232 375.928C135.525 375.722 135.73 375.451 135.848 375.114H136.926C136.764 375.693 136.442 376.166 135.958 376.533C135.474 376.892 134.872 377.072 134.154 377.072C133.582 377.072 133.068 376.943 132.614 376.687C132.166 376.43 131.814 376.067 131.558 375.598C131.301 375.121 131.173 374.571 131.173 373.948C131.173 373.324 131.297 372.778 131.547 372.309C131.796 371.839 132.144 371.48 132.592 371.231C133.046 370.974 133.567 370.846 134.154 370.846C134.726 370.846 135.232 370.97 135.672 371.22C136.112 371.469 136.449 371.814 136.684 372.254C136.926 372.686 137.047 373.178 137.047 373.728ZM136.013 373.519C136.013 373.137 135.928 372.811 135.76 372.54C135.591 372.261 135.36 372.052 135.067 371.913C134.781 371.766 134.462 371.693 134.11 371.693C133.604 371.693 133.171 371.854 132.812 372.177C132.46 372.499 132.258 372.947 132.207 373.519H136.013ZM137.994 373.937C137.994 373.321 138.119 372.782 138.368 372.32C138.617 371.85 138.958 371.487 139.391 371.231C139.831 370.974 140.322 370.846 140.865 370.846C141.334 370.846 141.771 370.956 142.174 371.176C142.577 371.388 142.885 371.671 143.098 372.023V368.833H144.11V376.973H143.098V375.84C142.9 376.199 142.607 376.496 142.218 376.731C141.829 376.958 141.375 377.072 140.854 377.072C140.319 377.072 139.831 376.94 139.391 376.676C138.958 376.412 138.617 376.041 138.368 375.565C138.119 375.088 137.994 374.545 137.994 373.937ZM143.098 373.948C143.098 373.493 143.006 373.097 142.823 372.76C142.64 372.422 142.39 372.166 142.075 371.99C141.767 371.806 141.426 371.715 141.052 371.715C140.678 371.715 140.337 371.803 140.029 371.979C139.721 372.155 139.475 372.411 139.292 372.749C139.109 373.086 139.017 373.482 139.017 373.937C139.017 374.399 139.109 374.802 139.292 375.147C139.475 375.484 139.721 375.744 140.029 375.928C140.337 376.104 140.678 376.192 141.052 376.192C141.426 376.192 141.767 376.104 142.075 375.928C142.39 375.744 142.64 375.484 142.823 375.147C143.006 374.802 143.098 374.402 143.098 373.948ZM154.102 369.306L151.605 374.08V376.973H150.604V374.08L148.096 369.306H149.207L151.099 373.189L152.991 369.306H154.102ZM160.658 373.728C160.658 373.918 160.647 374.12 160.625 374.333H155.807C155.844 374.927 156.045 375.392 156.412 375.73C156.786 376.06 157.237 376.225 157.765 376.225C158.198 376.225 158.557 376.126 158.843 375.928C159.136 375.722 159.342 375.451 159.459 375.114H160.537C160.376 375.693 160.053 376.166 159.569 376.533C159.085 376.892 158.484 377.072 157.765 377.072C157.193 377.072 156.68 376.943 156.225 376.687C155.778 376.43 155.426 376.067 155.169 375.598C154.912 375.121 154.784 374.571 154.784 373.948C154.784 373.324 154.909 372.778 155.158 372.309C155.407 371.839 155.756 371.48 156.203 371.231C156.658 370.974 157.178 370.846 157.765 370.846C158.337 370.846 158.843 370.97 159.283 371.22C159.723 371.469 160.06 371.814 160.295 372.254C160.537 372.686 160.658 373.178 160.658 373.728ZM159.624 373.519C159.624 373.137 159.54 372.811 159.371 372.54C159.202 372.261 158.971 372.052 158.678 371.913C158.392 371.766 158.073 371.693 157.721 371.693C157.215 371.693 156.782 371.854 156.423 372.177C156.071 372.499 155.869 372.947 155.818 373.519H159.624ZM163.2 371.77V375.323C163.2 375.616 163.263 375.825 163.387 375.95C163.512 376.067 163.728 376.126 164.036 376.126H164.773V376.973H163.871C163.314 376.973 162.896 376.844 162.617 376.588C162.339 376.331 162.199 375.909 162.199 375.323V371.77H161.418V370.945H162.199V369.427H163.2V370.945H164.773V371.77H163.2Z" fill="#333333"/>
<circle cx="211.055" cy="326.158" r="4.32877" fill="#333333" fill-opacity="0.3"/>
<path d="M224.514 325.819C224.514 325.071 224.683 324.4 225.02 323.806C225.357 323.204 225.816 322.735 226.395 322.398C226.982 322.06 227.631 321.892 228.342 321.892C229.178 321.892 229.908 322.093 230.531 322.497C231.154 322.9 231.609 323.472 231.895 324.213H230.696C230.483 323.751 230.175 323.395 229.772 323.146C229.376 322.896 228.899 322.772 228.342 322.772C227.807 322.772 227.326 322.896 226.901 323.146C226.476 323.395 226.142 323.751 225.9 324.213C225.658 324.667 225.537 325.203 225.537 325.819C225.537 326.427 225.658 326.963 225.9 327.425C226.142 327.879 226.476 328.231 226.901 328.481C227.326 328.73 227.807 328.855 228.342 328.855C228.899 328.855 229.376 328.734 229.772 328.492C230.175 328.242 230.483 327.887 230.696 327.425H231.895C231.609 328.158 231.154 328.726 230.531 329.13C229.908 329.526 229.178 329.724 228.342 329.724C227.631 329.724 226.982 329.559 226.395 329.229C225.816 328.891 225.357 328.426 225.02 327.832C224.683 327.238 224.514 326.567 224.514 325.819ZM236.377 323.52C236.832 323.52 237.243 323.619 237.609 323.817C237.976 324.007 238.262 324.297 238.467 324.686C238.68 325.074 238.786 325.547 238.786 326.105V329.658H237.796V326.248C237.796 325.646 237.646 325.188 237.345 324.873C237.045 324.55 236.634 324.389 236.113 324.389C235.585 324.389 235.164 324.554 234.848 324.884C234.54 325.214 234.386 325.694 234.386 326.325V329.658H233.385V321.518H234.386V324.488C234.584 324.18 234.856 323.941 235.2 323.773C235.552 323.604 235.945 323.52 236.377 323.52ZM240.047 326.622C240.047 326.006 240.172 325.467 240.421 325.005C240.671 324.535 241.012 324.172 241.444 323.916C241.884 323.659 242.372 323.531 242.907 323.531C243.435 323.531 243.894 323.644 244.282 323.872C244.671 324.099 244.961 324.385 245.151 324.73V323.63H246.163V329.658H245.151V328.536C244.953 328.888 244.656 329.181 244.26 329.416C243.872 329.643 243.417 329.757 242.896 329.757C242.361 329.757 241.877 329.625 241.444 329.361C241.012 329.097 240.671 328.726 240.421 328.25C240.172 327.773 240.047 327.23 240.047 326.622ZM245.151 326.633C245.151 326.178 245.06 325.782 244.876 325.445C244.693 325.107 244.444 324.851 244.128 324.675C243.82 324.491 243.479 324.4 243.105 324.4C242.731 324.4 242.39 324.488 242.082 324.664C241.774 324.84 241.529 325.096 241.345 325.434C241.162 325.771 241.07 326.167 241.07 326.622C241.07 327.084 241.162 327.487 241.345 327.832C241.529 328.169 241.774 328.429 242.082 328.613C242.39 328.789 242.731 328.877 243.105 328.877C243.479 328.877 243.82 328.789 244.128 328.613C244.444 328.429 244.693 328.169 244.876 327.832C245.06 327.487 245.151 327.087 245.151 326.633ZM248.856 324.741C249.054 324.396 249.347 324.11 249.736 323.883C250.132 323.648 250.59 323.531 251.111 323.531C251.646 323.531 252.13 323.659 252.563 323.916C253.003 324.172 253.348 324.535 253.597 325.005C253.846 325.467 253.971 326.006 253.971 326.622C253.971 327.23 253.846 327.773 253.597 328.25C253.348 328.726 253.003 329.097 252.563 329.361C252.13 329.625 251.646 329.757 251.111 329.757C250.598 329.757 250.143 329.643 249.747 329.416C249.358 329.181 249.061 328.891 248.856 328.547V332.518H247.855V323.63H248.856V324.741ZM252.948 326.622C252.948 326.167 252.856 325.771 252.673 325.434C252.49 325.096 252.24 324.84 251.925 324.664C251.617 324.488 251.276 324.4 250.902 324.4C250.535 324.4 250.194 324.491 249.879 324.675C249.571 324.851 249.322 325.111 249.131 325.456C248.948 325.793 248.856 326.185 248.856 326.633C248.856 327.087 248.948 327.487 249.131 327.832C249.322 328.169 249.571 328.429 249.879 328.613C250.194 328.789 250.535 328.877 250.902 328.877C251.276 328.877 251.617 328.789 251.925 328.613C252.24 328.429 252.49 328.169 252.673 327.832C252.856 327.487 252.948 327.084 252.948 326.622ZM256.509 324.455V328.008C256.509 328.301 256.572 328.51 256.696 328.635C256.821 328.752 257.037 328.811 257.345 328.811H258.082V329.658H257.18C256.623 329.658 256.205 329.529 255.926 329.273C255.648 329.016 255.508 328.594 255.508 328.008V324.455H254.727V323.63H255.508V322.112H256.509V323.63H258.082V324.455H256.509ZM264.795 326.413C264.795 326.603 264.784 326.805 264.762 327.018H259.944C259.981 327.612 260.183 328.077 260.549 328.415C260.923 328.745 261.374 328.91 261.902 328.91C262.335 328.91 262.694 328.811 262.98 328.613C263.274 328.407 263.479 328.136 263.596 327.799H264.674C264.513 328.378 264.19 328.851 263.706 329.218C263.222 329.577 262.621 329.757 261.902 329.757C261.33 329.757 260.817 329.628 260.362 329.372C259.915 329.115 259.563 328.752 259.306 328.283C259.05 327.806 258.921 327.256 258.921 326.633C258.921 326.009 259.046 325.463 259.295 324.994C259.545 324.524 259.893 324.165 260.34 323.916C260.795 323.659 261.316 323.531 261.902 323.531C262.474 323.531 262.98 323.655 263.42 323.905C263.86 324.154 264.198 324.499 264.432 324.939C264.674 325.371 264.795 325.863 264.795 326.413ZM263.761 326.204C263.761 325.822 263.677 325.496 263.508 325.225C263.34 324.946 263.109 324.737 262.815 324.598C262.529 324.451 262.21 324.378 261.858 324.378C261.352 324.378 260.92 324.539 260.56 324.862C260.208 325.184 260.007 325.632 259.955 326.204H263.761ZM267.118 324.609C267.294 324.264 267.543 323.996 267.866 323.806C268.196 323.615 268.595 323.52 269.065 323.52V324.554H268.801C267.679 324.554 267.118 325.162 267.118 326.38V329.658H266.117V323.63H267.118V324.609ZM277.685 327.953H274.341L273.725 329.658H272.669L275.441 322.035H276.596L279.357 329.658H278.301L277.685 327.953ZM277.399 327.139L276.013 323.267L274.627 327.139H277.399Z" fill="#333333"/>
<circle cx="211.055" cy="349.815" r="4.32877" fill="#425F57"/>
<path d="M224.514 349.476C224.514 348.728 224.683 348.057 225.02 347.463C225.357 346.862 225.816 346.392 226.395 346.055C226.982 345.718 227.631 345.549 228.342 345.549C229.178 345.549 229.908 345.751 230.531 346.154C231.154 346.557 231.609 347.129 231.895 347.87H230.696C230.483 347.408 230.175 347.052 229.772 346.803C229.376 346.554 228.899 346.429 228.342 346.429C227.807 346.429 227.326 346.554 226.901 346.803C226.476 347.052 226.142 347.408 225.9 347.87C225.658 348.325 225.537 348.86 225.537 349.476C225.537 350.085 225.658 350.62 225.9 351.082C226.142 351.537 226.476 351.889 226.901 352.138C227.326 352.387 227.807 352.512 228.342 352.512C228.899 352.512 229.376 352.391 229.772 352.149C230.175 351.9 230.483 351.544 230.696 351.082H231.895C231.609 351.815 231.154 352.384 230.531 352.787C229.908 353.183 229.178 353.381 228.342 353.381C227.631 353.381 226.982 353.216 226.395 352.886C225.816 352.549 225.357 352.083 225.02 351.489C224.683 350.895 224.514 350.224 224.514 349.476ZM236.377 347.177C236.832 347.177 237.243 347.276 237.609 347.474C237.976 347.665 238.262 347.954 238.467 348.343C238.68 348.732 238.786 349.205 238.786 349.762V353.315H237.796V349.905C237.796 349.304 237.646 348.845 237.345 348.53C237.045 348.207 236.634 348.046 236.113 348.046C235.585 348.046 235.164 348.211 234.848 348.541C234.54 348.871 234.386 349.351 234.386 349.982V353.315H233.385V345.175H234.386V348.145C234.584 347.837 234.856 347.599 235.2 347.43C235.552 347.261 235.945 347.177 236.377 347.177ZM240.047 350.279C240.047 349.663 240.172 349.124 240.421 348.662C240.671 348.193 241.012 347.83 241.444 347.573C241.884 347.316 242.372 347.188 242.907 347.188C243.435 347.188 243.894 347.302 244.282 347.529C244.671 347.756 244.961 348.042 245.151 348.387V347.287H246.163V353.315H245.151V352.193C244.953 352.545 244.656 352.838 244.26 353.073C243.872 353.3 243.417 353.414 242.896 353.414C242.361 353.414 241.877 353.282 241.444 353.018C241.012 352.754 240.671 352.384 240.421 351.907C240.172 351.43 240.047 350.888 240.047 350.279ZM245.151 350.29C245.151 349.835 245.06 349.439 244.876 349.102C244.693 348.765 244.444 348.508 244.128 348.332C243.82 348.149 243.479 348.057 243.105 348.057C242.731 348.057 242.39 348.145 242.082 348.321C241.774 348.497 241.529 348.754 241.345 349.091C241.162 349.428 241.07 349.824 241.07 350.279C241.07 350.741 241.162 351.144 241.345 351.489C241.529 351.826 241.774 352.087 242.082 352.27C242.39 352.446 242.731 352.534 243.105 352.534C243.479 352.534 243.82 352.446 244.128 352.27C244.444 352.087 244.693 351.826 244.876 351.489C245.06 351.144 245.151 350.745 245.151 350.29ZM248.856 348.398C249.054 348.053 249.347 347.767 249.736 347.54C250.132 347.305 250.59 347.188 251.111 347.188C251.646 347.188 252.13 347.316 252.563 347.573C253.003 347.83 253.348 348.193 253.597 348.662C253.846 349.124 253.971 349.663 253.971 350.279C253.971 350.888 253.846 351.43 253.597 351.907C253.348 352.384 253.003 352.754 252.563 353.018C252.13 353.282 251.646 353.414 251.111 353.414C250.598 353.414 250.143 353.3 249.747 353.073C249.358 352.838 249.061 352.549 248.856 352.204V356.175H247.855V347.287H248.856V348.398ZM252.948 350.279C252.948 349.824 252.856 349.428 252.673 349.091C252.49 348.754 252.24 348.497 251.925 348.321C251.617 348.145 251.276 348.057 250.902 348.057C250.535 348.057 250.194 348.149 249.879 348.332C249.571 348.508 249.322 348.768 249.131 349.113C248.948 349.45 248.856 349.843 248.856 350.29C248.856 350.745 248.948 351.144 249.131 351.489C249.322 351.826 249.571 352.087 249.879 352.27C250.194 352.446 250.535 352.534 250.902 352.534C251.276 352.534 251.617 352.446 251.925 352.27C252.24 352.087 252.49 351.826 252.673 351.489C252.856 351.144 252.948 350.741 252.948 350.279ZM256.509 348.112V351.665C256.509 351.958 256.572 352.167 256.696 352.292C256.821 352.409 257.037 352.468 257.345 352.468H258.082V353.315H257.18C256.623 353.315 256.205 353.187 255.926 352.93C255.648 352.673 255.508 352.252 255.508 351.665V348.112H254.727V347.287H255.508V345.769H256.509V347.287H258.082V348.112H256.509ZM264.795 350.07C264.795 350.261 264.784 350.462 264.762 350.675H259.944C259.981 351.269 260.183 351.735 260.549 352.072C260.923 352.402 261.374 352.567 261.902 352.567C262.335 352.567 262.694 352.468 262.98 352.27C263.274 352.065 263.479 351.793 263.596 351.456H264.674C264.513 352.035 264.19 352.508 263.706 352.875C263.222 353.234 262.621 353.414 261.902 353.414C261.33 353.414 260.817 353.286 260.362 353.029C259.915 352.772 259.563 352.409 259.306 351.94C259.05 351.463 258.921 350.913 258.921 350.29C258.921 349.667 259.046 349.12 259.295 348.651C259.545 348.182 259.893 347.822 260.34 347.573C260.795 347.316 261.316 347.188 261.902 347.188C262.474 347.188 262.98 347.313 263.42 347.562C263.86 347.811 264.198 348.156 264.432 348.596C264.674 349.029 264.795 349.52 264.795 350.07ZM263.761 349.861C263.761 349.48 263.677 349.153 263.508 348.882C263.34 348.603 263.109 348.394 262.815 348.255C262.529 348.108 262.21 348.035 261.858 348.035C261.352 348.035 260.92 348.196 260.56 348.519C260.208 348.842 260.007 349.289 259.955 349.861H263.761ZM267.118 348.266C267.294 347.921 267.543 347.654 267.866 347.463C268.196 347.272 268.595 347.177 269.065 347.177V348.211H268.801C267.679 348.211 267.118 348.82 267.118 350.037V353.315H266.117V347.287H267.118V348.266ZM272.779 349.476C272.779 348.728 272.947 348.057 273.285 347.463C273.622 346.862 274.08 346.392 274.66 346.055C275.246 345.718 275.895 345.549 276.607 345.549C277.443 345.549 278.172 345.751 278.796 346.154C279.419 346.557 279.874 347.129 280.16 347.87H278.961C278.748 347.408 278.44 347.052 278.037 346.803C277.641 346.554 277.164 346.429 276.607 346.429C276.071 346.429 275.591 346.554 275.166 346.803C274.74 347.052 274.407 347.408 274.165 347.87C273.923 348.325 273.802 348.86 273.802 349.476C273.802 350.085 273.923 350.62 274.165 351.082C274.407 351.537 274.74 351.889 275.166 352.138C275.591 352.387 276.071 352.512 276.607 352.512C277.164 352.512 277.641 352.391 278.037 352.149C278.44 351.9 278.748 351.544 278.961 351.082H280.16C279.874 351.815 279.419 352.384 278.796 352.787C278.172 353.183 277.443 353.381 276.607 353.381C275.895 353.381 275.246 353.216 274.66 352.886C274.08 352.549 273.622 352.083 273.285 351.489C272.947 350.895 272.779 350.224 272.779 349.476Z" fill="#333333"/>
</g>
<defs>
<filter id="filter0_d_1_191" x="0" y="0" width="324" height="422.658" filterUnits="userSpaceOnUse" color-interpolation-filters="sRGB">
<feFlood flood-opacity="0" result="BackgroundImageFix"/>
<feColorMatrix in="SourceAlpha" type="matrix" values="0 0 0 0 0 0 0 0 0 0 0 0 0 0 0 0 0 0 127 0" result="hardAlpha"/>
<feOffset dy="4"/>
<feGaussianBlur stdDeviation="2"/>
<feComposite in2="hardAlpha" operator="out"/>
<feColorMatrix type="matrix" values="0 0 0 0 0.705882 0 0 0 0 0.807843 0 0 0 0 1 0 0 0 1 0"/>
<feBlend mode="normal" in2="BackgroundImageFix" result="effect1_dropShadow_1_191"/>
<feBlend mode="normal" in="SourceGraphic" in2="effect1_dropShadow_1_191" result="shape"/>
</filter>
<filter id="filter1_d_1_191" x="90.0881" y="65.0697" width="196.387" height="135.69" filterUnits="userSpaceOnUse" color-interpolation-filters="sRGB">
<feFlood flood-opacity="0" result="BackgroundImageFix"/>
<feColorMatrix in="SourceAlpha" type="matrix" values="0 0 0 0 0 0 0 0 0 0 0 0 0 0 0 0 0 0 127 0" result="hardAlpha"/>
<feOffset dy="11.2157"/>
<feGaussianBlur stdDeviation="5.60783"/>
<feComposite in2="hardAlpha" operator="out"/>
<feColorMatrix type="matrix" values="0 0 0 0 0 0 0 0 0 0 0 0 0 0 0 0 0 0 0.25 0"/>
<feBlend mode="normal" in2="BackgroundImageFix" result="effect1_dropShadow_1_191"/>
<feBlend mode="normal" in="SourceGraphic" in2="effect1_dropShadow_1_191" result="shape"/>
</filter>
<filter id="filter2_d_1_191" x="97.6762" y="114.005" width="128.98" height="128.98" filterUnits="userSpaceOnUse" color-interpolation-filters="sRGB">
<feFlood flood-opacity="0" result="BackgroundImageFix"/>
<feColorMatrix in="SourceAlpha" type="matrix" values="0 0 0 0 0 0 0 0 0 0 0 0 0 0 0 0 0 0 127 0" result="hardAlpha"/>
<feOffset/>
<feGaussianBlur stdDeviation="5.60783"/>
<feComposite in2="hardAlpha" operator="out"/>
<feColorMatrix type="matrix" values="0 0 0 0 0 0 0 0 0 0 0 0 0 0 0 0 0 0 0.25 0"/>
<feBlend mode="normal" in2="BackgroundImageFix" result="effect1_dropShadow_1_191"/>
<feBlend mode="normal" in="SourceGraphic" in2="effect1_dropShadow_1_191" result="shape"/>
</filter>
</defs>
</svg>
